<svg width="20" height="17" viewBox="0 0 20 17" fill="none" xmlns="http://www.w3.org/2000/svg">
<g clip-path="url(#clip0_151_449)">
<path d="M16.4587 5.40827L16.3592 5.36478C16.3743 5.33731 16.3895 5.28694 16.4068 5.2858L16.9365 5.28237C16.9603 5.19766 17.2175 5.11411 16.9365 5.03055C16.7516 5.042 16.8608 4.82452 16.7527 4.76729C16.6662 4.72379 16.7311 4.66427 16.7722 4.63909C17.1224 4.42047 17.4132 4.06221 17.8889 4.14233C18.064 4.17209 18.2478 4.14805 18.424 4.14805C18.4996 4.14805 18.6142 4.13546 18.6023 4.24191C18.5645 4.53264 18.8185 4.61391 18.918 4.80048C18.9861 4.9241 19.0931 5.11067 18.8153 5.15989C18.6077 5.19766 18.998 5.38996 18.7537 5.45749C18.665 5.48267 18.5742 5.57424 18.7094 5.72533C18.7894 5.8169 18.7375 5.99088 18.6131 6.10306C18.3332 6.36403 18.2845 6.7532 18.1483 7.09315C18.1126 7.17899 18.1699 7.23737 18.1905 7.31062C18.3191 7.76389 18.4834 8.19198 18.7775 8.56512C18.8877 8.70591 19.0012 8.89019 18.9656 9.10767C18.9353 9.28738 19.0564 9.36864 19.1731 9.43503C19.2045 9.4522 19.3158 9.39726 19.3158 9.3778C19.3115 9.20153 19.3763 9.01496 19.2012 8.86158C18.9515 8.6441 18.8077 8.33162 18.6531 8.03631C18.4121 7.57618 18.3829 7.12176 18.7483 6.71314C18.8672 6.57922 18.8791 6.3812 19.0347 6.26559C19.1353 6.19005 19.1137 6.04239 19.0466 5.93365C19.0034 5.86498 18.9158 5.81003 19.0661 5.78485C19.158 5.76997 19.2012 5.81576 19.2088 5.92335C19.2295 6.1444 19.1869 6.36693 19.0866 6.56205C19.0456 6.64217 19.0801 6.78982 19.0628 6.97182C19.0553 7.06568 18.9439 7.16526 18.9677 7.29574C19.0012 7.28086 19.0466 7.27629 19.0683 7.24996C19.1255 7.18014 19.2055 7.12978 19.2704 7.18128C19.3839 7.27285 19.2423 7.33237 19.2088 7.34725C19.0174 7.42967 19.1764 7.56587 19.1634 7.6666C19.0953 8.22517 19.0877 8.23891 19.3828 8.66013C19.4834 8.8032 19.4369 8.95773 19.5234 9.10882C19.6769 9.37093 19.5072 9.56895 19.1991 9.56208C19.1234 9.56094 19.0401 9.59528 18.9796 9.51172C18.9472 9.46594 18.8931 9.41328 18.8585 9.49913C18.8369 9.54949 18.8337 9.61474 18.8877 9.66968C18.9742 9.75781 19.0672 9.79101 19.1861 9.82649C19.5169 9.92722 19.6293 10.2351 19.5763 10.6334C19.5504 10.8326 19.5493 11.0238 19.4574 11.2138C19.3893 11.3511 19.5288 11.572 19.3947 11.6796C19.3039 11.7529 19.0931 11.6693 19.0131 11.7449C18.8402 11.9085 18.7645 11.6487 18.611 11.6922C18.4283 11.7426 18.5418 11.4427 18.3872 11.3958C18.3364 11.3809 18.2596 11.2973 18.2683 11.2698C18.2964 11.1737 18.3915 11.2069 18.464 11.1989C18.5558 11.1897 18.745 11.2069 18.718 11.1394C18.6326 10.9173 18.9602 10.7983 18.8045 10.5751C18.6964 10.424 18.6672 10.2294 18.4326 10.1722C18.251 10.1264 18.2413 9.82535 18.0197 9.73492C17.8683 9.67426 17.811 9.71775 17.7256 9.80703C17.5981 9.9421 17.7591 9.99589 17.8067 10.0211C17.9861 10.1252 17.8132 10.361 17.9721 10.4583C18.024 10.4892 18.0316 10.527 17.9786 10.5465C17.7732 10.622 17.704 10.8864 17.4867 10.9368C17.3505 10.9711 17.237 10.8795 17.117 10.8486C17.01 10.82 17.1321 11.1039 17.0003 11.2115C16.8976 11.2962 16.6327 11.3912 16.516 11.3076C16.3916 11.2195 16.2954 11.1039 16.1462 11.0341C15.9787 10.9585 16.3106 10.7937 16.1376 10.6403C16.0879 10.5945 16.2338 10.5796 16.2997 10.5716C16.5051 10.5465 16.7019 10.5819 16.9149 10.464C17.063 10.3828 17.1008 10.2923 17.0575 10.2042C16.9624 10.0142 16.9657 9.82191 16.9365 9.62389C16.8878 9.30111 16.9246 9.04472 17.1386 8.94285C17.2251 8.90278 17.3008 8.85128 17.3819 8.80549C17.6089 8.67386 17.7224 8.49416 17.6586 8.36138C17.5635 8.15535 17.1905 7.97794 17.0067 8.0489C16.9592 8.40144 16.6543 8.24806 16.4792 8.35108C16.3527 8.42434 16.2414 8.48386 16.1787 8.65097C16.1473 8.73338 16.1516 8.86158 16.0652 8.91309C16.0014 8.95086 15.996 8.78718 15.8976 8.83983C15.809 8.89019 15.7982 9.09165 15.6479 9.00351C15.4533 8.89019 15.3971 8.66013 15.2955 8.4747C15.2847 8.45524 15.4036 8.30759 15.4555 8.31102C15.969 8.3362 16.1441 7.83829 16.4738 7.58877C16.6803 7.43195 16.6338 7.2305 16.4122 7.03935C16.2997 6.94435 16.2262 6.82645 16.1225 6.32969C16.0771 6.11221 16.0684 5.93823 15.8165 5.89588C15.7452 5.88329 15.6814 5.75738 15.6382 5.66925C15.5452 5.48038 15.476 5.27206 15.2252 5.50557C15.1982 5.53075 15.0339 5.36707 15.0652 5.3293C15.2274 5.13586 15.0976 5.1473 14.9701 5.15188C14.7387 5.1576 14.8144 5.07634 14.9106 4.96302C14.9377 4.93211 14.9387 4.84512 14.8804 4.7959C14.8518 4.77122 14.8264 4.74275 14.8047 4.7112C14.9128 4.5853 15.1117 4.71349 15.2166 4.53493C15.2522 4.4777 15.3625 4.52692 15.4122 4.60361C15.5203 4.76614 15.69 4.86 15.77 5.07634C15.8565 5.31327 16.1646 5.36363 16.3506 5.53075C16.5527 5.61087 16.7916 5.44605 16.9516 5.57195C16.8586 5.44605 16.5884 5.60629 16.4705 5.40598L16.4587 5.40827ZM3.2615 5.40827L3.36203 5.36478C3.3469 5.33731 3.33068 5.28694 3.31447 5.2858L2.78476 5.28237C2.76098 5.19766 2.5037 5.11411 2.78476 5.03055C2.96854 5.042 2.86044 4.82452 2.96854 4.76729C3.05502 4.72379 2.98908 4.66427 2.948 4.63909C2.59883 4.42047 2.30695 4.06221 1.8313 4.14233C1.65725 4.17209 1.47348 4.14805 1.29727 4.14805C1.22052 4.14805 1.10593 4.13546 1.11782 4.24191C1.15566 4.53264 0.902698 4.61391 0.803243 4.80048C0.735139 4.9241 0.627036 5.11067 0.905941 5.15989C1.1135 5.19766 0.722166 5.38996 0.967559 5.45749C1.0562 5.48267 1.14701 5.57424 1.0108 5.72533C0.931885 5.8169 0.982694 5.99088 1.10809 6.10306C1.38808 6.36403 1.43672 6.7532 1.57293 7.09315C1.60861 7.17899 1.55131 7.23737 1.52969 7.31062C1.40213 7.76389 1.23782 8.19198 0.943777 8.56512C0.832431 8.70591 0.718923 8.89019 0.755678 9.10767C0.784866 9.28738 0.664872 9.36864 0.548121 9.43503C0.515691 9.4522 0.404345 9.39726 0.404345 9.3778C0.40975 9.20153 0.344888 9.01496 0.518934 8.86158C0.769732 8.6441 0.912427 8.33162 1.06809 8.03631C1.30916 7.57618 1.33835 7.12176 0.971883 6.71314C0.852971 6.57922 0.841079 6.3812 0.686493 6.26559C0.584876 6.19005 0.606497 6.04125 0.674601 5.93365C0.717842 5.86498 0.804324 5.81003 0.655143 5.78485C0.563256 5.76997 0.518934 5.81576 0.511366 5.92335C0.490631 6.1444 0.533194 6.36695 0.633522 6.56205C0.675682 6.64217 0.64109 6.78982 0.657305 6.97182C0.665953 7.06568 0.776218 7.16526 0.752435 7.29574C0.720004 7.28086 0.674601 7.27629 0.652981 7.24996C0.595686 7.18014 0.515691 7.12978 0.449748 7.18128C0.33624 7.27285 0.478936 7.33237 0.511366 7.34725C0.702708 7.42967 0.544878 7.56587 0.55677 7.6666C0.624874 8.22517 0.632441 8.23891 0.337321 8.66013C0.237867 8.8032 0.28327 8.95773 0.196788 9.10882C0.0443633 9.37093 0.214084 9.56895 0.522177 9.56208C0.596767 9.56094 0.680006 9.59528 0.740544 9.51172C0.774056 9.46594 0.827026 9.41328 0.8627 9.49913C0.883239 9.54949 0.886482 9.61474 0.832431 9.66968C0.748028 9.74929 0.644987 9.80344 0.534068 9.82649C0.204355 9.92722 0.0908474 10.2351 0.144899 10.6334C0.170843 10.8326 0.171924 11.0238 0.263812 11.2138C0.331916 11.3511 0.192464 11.572 0.32543 11.6796C0.416236 11.7529 0.628117 11.6693 0.707032 11.7449C0.879996 11.9085 0.955668 11.6487 1.10917 11.6922C1.29295 11.7426 1.17836 11.4427 1.33403 11.3958C1.38375 11.3809 1.46159 11.2973 1.45294 11.2698C1.42483 11.1737 1.32862 11.2069 1.25619 11.1989C1.16431 11.1897 0.975126 11.2069 1.00215 11.1394C1.08863 10.9173 0.760002 10.7983 0.91567 10.5751C1.02377 10.424 1.05296 10.2294 1.28862 10.1722C1.47024 10.1264 1.47888 9.82535 1.70158 9.73492C1.85184 9.67426 1.91021 9.71775 1.99453 9.80703C2.12209 9.9421 1.9621 9.99589 1.91346 10.0211C1.73509 10.1252 1.90805 10.361 1.74914 10.4583C1.69617 10.4892 1.68968 10.527 1.74157 10.5465C1.94697 10.622 2.01615 10.8864 2.23344 10.9368C2.37073 10.9711 2.48424 10.8795 2.60315 10.8486C2.71125 10.82 2.5891 11.1039 2.7199 11.2115C2.8226 11.2962 3.08745 11.3912 3.2042 11.3076C3.32852 11.2195 3.42581 11.1039 3.57391 11.0341C3.74147 10.9585 3.4096 10.7937 3.58256 10.6403C3.63337 10.5945 3.48743 10.5796 3.42149 10.5716C3.21609 10.5465 3.01826 10.5819 2.8053 10.464C2.65828 10.3828 2.62045 10.2923 2.66261 10.2042C2.75882 10.0142 2.75449 9.82191 2.78476 9.62389C2.83233 9.30111 2.79557 9.04472 2.58153 8.94285C2.49505 8.90278 2.41938 8.85128 2.3383 8.80549C2.11128 8.67386 1.99886 8.49416 2.06156 8.36138C2.15669 8.15535 2.53072 7.97794 2.7145 8.0489C2.76206 8.40144 3.06583 8.24806 3.24204 8.35108C3.36852 8.42434 3.47986 8.48386 3.54256 8.65097C3.57283 8.73338 3.56851 8.86158 3.65607 8.91309C3.71877 8.95086 3.72526 8.78718 3.82255 8.83983C3.91227 8.89019 3.92308 9.09165 4.07335 9.00351C4.26685 8.89019 4.32414 8.66013 4.42468 8.4747C4.43657 8.45524 4.31766 8.30759 4.26469 8.31102C3.75228 8.3362 3.57716 7.83829 3.24636 7.58877C3.03989 7.43195 3.08637 7.2305 3.30798 7.03935C3.42041 6.94435 3.495 6.82645 3.59878 6.32969C3.6431 6.11221 3.65283 5.93823 3.90363 5.89588C3.97497 5.88329 4.03983 5.75738 4.08308 5.66925C4.17604 5.48038 4.24415 5.27206 4.49495 5.50557C4.52305 5.53075 4.68629 5.36707 4.65494 5.3293C4.49278 5.13586 4.62251 5.1473 4.75115 5.15188C4.98249 5.1576 4.90574 5.07634 4.81061 4.96302C4.7825 4.93211 4.78142 4.84512 4.83979 4.7959C4.86835 4.77123 4.89378 4.74276 4.91547 4.7112C4.80736 4.5853 4.60845 4.71349 4.50468 4.53493C4.46792 4.4777 4.35874 4.52692 4.30793 4.60361C4.19983 4.76614 4.0301 4.86 3.95119 5.07634C3.86363 5.31327 3.55662 5.36363 3.37068 5.53075C3.16745 5.61087 2.92854 5.44605 2.76963 5.57195C2.8626 5.44605 3.13177 5.60629 3.2496 5.40598L3.2615 5.40827Z" fill="#EDC139"/>
<path d="M1.94348 14.6119H1.04515V16.1137H0.32843V12.4395H2.11537V13.053H1.04515V14.0019H1.9424L1.94348 14.6119ZM3.99959 14.5227H3.10018V15.5059H4.2385V16.1137H2.38454V12.4395H4.2331V13.053H3.10018V13.9286H3.99959V14.5227ZM4.512 16.1137V12.4395H5.58222C5.88706 12.4395 6.16056 12.5139 6.40055 12.6592C6.6427 12.8046 6.83188 13.0106 6.96701 13.2807C7.10214 13.5474 7.17024 13.8531 7.17024 14.193V14.3624C7.17024 14.7035 7.10322 15.008 6.96917 15.2735C6.8428 15.5329 6.64785 15.7476 6.40812 15.8916C6.15802 16.0402 5.87548 16.1168 5.5887 16.1137H4.512ZM5.22872 13.053V15.5059H5.57465C5.85571 15.5059 6.06868 15.4086 6.21678 15.2151C6.36488 15.0217 6.44055 14.7459 6.44379 14.3853V14.1907C6.44379 13.8176 6.37028 13.5349 6.22434 13.3437C6.07732 13.1491 5.86328 13.053 5.58222 13.053H5.22872ZM9.16149 14.5227H8.26316V15.5059H9.4004V16.1137H7.54644V12.4395H9.39499V13.053H8.26316V13.9286H9.16041L9.16149 14.5227ZM11.3192 14.7687H10.3895V16.1137H9.6739V12.4395H11.3235C11.7343 12.4395 12.0522 12.5367 12.2748 12.7302C12.4975 12.9236 12.6089 13.1972 12.6089 13.5497C12.6165 13.7712 12.5624 13.9902 12.4532 14.1793C12.3382 14.3571 12.1766 14.4956 11.9884 14.5776L12.7408 16.0782V16.1137H11.9711L11.3192 14.7687ZM10.3895 14.1564H11.3257C11.5062 14.1564 11.6457 14.1083 11.7441 14.0122C11.7942 13.9604 11.8334 13.8978 11.8589 13.8288C11.8844 13.7597 11.8958 13.6856 11.8922 13.6115C11.8963 13.5367 11.8859 13.4618 11.8617 13.3913C11.8376 13.3209 11.8001 13.2564 11.7516 13.2018C11.6587 13.1022 11.517 13.053 11.3235 13.053H10.3906L10.3895 14.1564Z" fill="#EEC239"/>
<path d="M13.0953 12.4395V13.0518H14.0499V13.053H14.3126C14.5104 13.053 14.6542 13.0896 14.745 13.164C14.838 13.2361 14.8834 13.3563 14.8834 13.5223C14.8834 13.8199 14.7028 13.9721 14.3418 13.9801H13.8121V13.9778H13.0953V14.5135H14.4682C14.798 14.5192 14.9623 14.6898 14.9623 15.0263C14.9623 15.1751 14.9147 15.2941 14.8196 15.38C14.7065 15.4706 14.5665 15.5153 14.425 15.5059H13.0953V16.1137H14.4466C14.8412 16.1102 15.146 16.0175 15.359 15.8367C15.573 15.6535 15.679 15.3868 15.679 15.0343C15.685 14.8457 15.6305 14.6605 15.5244 14.5089C15.42 14.3642 15.2707 14.2633 15.1028 14.2239C15.2514 14.1666 15.3795 14.0618 15.4693 13.924C15.5576 13.7826 15.6032 13.6162 15.6001 13.4467C15.6001 13.1171 15.492 12.8675 15.2736 12.697C15.0552 12.5253 14.7353 12.4395 14.3126 12.4395H13.0953ZM16.7892 14.5227H17.4486V13.9286H16.7892V13.053H17.6832V12.4395H16.0725V16.1137H17.6875V15.5059H16.7892V14.5227ZM19.5534 13.053H18.9653V16.1137H18.2486V13.053H17.9135V12.4395H19.5534V13.053Z" fill="#494A4A"/>
<path d="M14.6456 6.89489C14.6449 7.55777 14.5209 8.21401 14.2807 8.82615C14.0404 9.43828 13.6887 9.99432 13.2455 10.4625C12.8023 10.9307 12.2764 11.3019 11.6977 11.5549C11.119 11.8079 10.499 11.9377 9.8729 11.9369C7.23736 11.9369 5.10126 9.67974 5.10126 6.89489C5.10126 4.11004 7.23736 1.85401 9.8729 1.85401C11.1371 1.85249 12.3501 2.38269 13.2451 3.32801C14.1401 4.27332 14.6439 5.55634 14.6456 6.89489V6.89489Z" fill="#333332"/>
<path fill-rule="evenodd" clip-rule="evenodd" d="M9.8729 11.4321C12.2458 11.4321 14.1678 9.4016 14.1678 6.89489C14.1678 4.38818 12.2458 2.35763 9.8729 2.35763C7.50005 2.35763 5.57907 4.38933 5.57907 6.89489C5.57907 9.40045 7.5033 11.4321 9.8729 11.4321ZM9.8729 11.9358C12.5084 11.9358 14.6456 9.67974 14.6456 6.89489C14.6456 4.11004 12.5095 1.854 9.8729 1.854C7.23736 1.854 5.10126 4.11119 5.10126 6.89489C5.10126 9.6786 7.23736 11.9369 9.8729 11.9369V11.9358Z" fill="white"/>
<path d="M9.87268 5.00537V5.6166H10.8272V5.61888H11.091C11.2877 5.61888 11.4326 5.65551 11.5234 5.72991C11.6153 5.80202 11.6618 5.92106 11.6618 6.08818C11.6618 6.38578 11.4812 6.53801 11.1191 6.54488H10.5894V6.54259H9.87268V7.07827H11.2456C11.5753 7.08399 11.7407 7.25454 11.7407 7.59106C11.7407 7.741 11.6931 7.8589 11.5969 7.94474C11.4841 8.0351 11.3446 8.07976 11.2034 8.07065H9.87268V8.67844H11.224C11.6196 8.67501 11.9234 8.58344 12.1374 8.40145C12.3515 8.21945 12.4574 7.95276 12.4574 7.59907C12.463 7.41036 12.4081 7.22521 12.3017 7.07369C12.1976 6.92921 12.0487 6.82828 11.8812 6.78868C12.0294 6.73125 12.1571 6.62645 12.2466 6.48879C12.3353 6.34755 12.3813 6.18107 12.3785 6.01149C12.3785 5.68184 12.2693 5.43231 12.0509 5.26291C11.8326 5.09122 11.5126 5.00537 11.091 5.00537H9.87268Z" fill="white"/>
<path fill-rule="evenodd" clip-rule="evenodd" d="M9.8729 11.684C12.3776 11.684 14.4067 9.5401 14.4067 6.89489C14.4067 4.24968 12.3787 2.10582 9.8729 2.10582C7.36709 2.10582 5.34125 4.25083 5.34125 6.89489C5.34125 9.53895 7.37033 11.684 9.87399 11.684H9.8729ZM9.8729 11.9358C12.5084 11.9358 14.6456 9.67974 14.6456 6.89489C14.6456 4.11004 12.5095 1.854 9.8729 1.854C7.23736 1.854 5.10126 4.11119 5.10126 6.89489C5.10126 9.6786 7.23736 11.9369 9.8729 11.9369V11.9358Z" fill="#333332"/>
<path d="M7.89765 7.17753H8.79598V8.67812H9.5127V5.00391H7.72577V5.61856H8.79598V6.56631H7.89765V7.17753Z" fill="#EEC239"/>
<path fill-rule="evenodd" clip-rule="evenodd" d="M9.22101 0.729196C9.47721 0.535755 9.87287 0.0893555 9.87287 0.0893555C9.87287 0.0893555 10.2674 0.5369 10.5247 0.729196C10.782 0.920346 11.4241 0.857392 11.4241 0.857392C11.4241 0.857392 11.276 2.71167 11.0382 3.28741C10.8004 3.86315 9.87287 4.3748 9.87287 4.3748C9.87287 4.3748 8.94426 3.86315 8.70752 3.28741C8.46969 2.71052 8.32159 0.856248 8.32159 0.856248C8.32159 0.856248 8.96372 0.919202 9.22101 0.728051V0.729196Z" fill="#333332"/>
<path fill-rule="evenodd" clip-rule="evenodd" d="M11.3753 1.3656C11.4078 1.06571 11.424 0.857392 11.424 0.857392C11.424 0.857392 11.1872 0.880285 10.9451 0.856248C10.7862 0.840223 10.6262 0.80474 10.5246 0.729196C10.414 0.642255 10.309 0.547817 10.21 0.446475C10.0944 0.330858 9.98189 0.211769 9.8727 0.0893555C9.8727 0.0893555 9.71595 0.266771 9.53542 0.446475C9.43683 0.548173 9.33211 0.642994 9.22192 0.73034C9.12031 0.805885 8.95923 0.841368 8.8014 0.856248C8.55817 0.881429 8.32251 0.858537 8.32251 0.858537C8.32251 0.858537 8.33981 1.06686 8.37008 1.36675C8.43277 1.95966 8.55061 2.90625 8.70844 3.28856C8.94518 3.8643 9.87378 4.37594 9.87378 4.37594C9.87378 4.37594 10.8024 3.8643 11.0391 3.28856C11.197 2.90625 11.3148 1.95966 11.3764 1.36675L11.3753 1.3656ZM10.8964 1.35759C10.8228 1.3503 10.7495 1.33884 10.677 1.32325C10.524 1.29365 10.3784 1.23134 10.2489 1.14011C10.1166 1.03692 9.99089 0.924501 9.8727 0.803596C9.75451 0.924501 9.62883 1.03692 9.4965 1.14011C9.36705 1.23134 9.22139 1.29365 9.06842 1.32325C8.9959 1.33884 8.92264 1.3503 8.84897 1.35759C8.86302 1.48922 8.87924 1.63688 8.8987 1.79025C8.93113 2.05352 8.97004 2.32822 9.01545 2.56859C9.06193 2.81926 9.10733 2.99668 9.14517 3.08596C9.20787 3.23819 9.40245 3.44193 9.65866 3.63766C9.73433 3.69604 9.80784 3.74755 9.8727 3.79104C9.94556 3.74232 10.0169 3.69117 10.0867 3.63766C10.3429 3.44308 10.5375 3.23819 10.6002 3.08596C10.6381 2.99668 10.6835 2.81926 10.73 2.56745C10.7754 2.32708 10.8143 2.05237 10.8467 1.79025C10.8662 1.63688 10.8824 1.48922 10.8964 1.35759V1.35759Z" fill="white"/>
<path fill-rule="evenodd" clip-rule="evenodd" d="M11.1829 0.867694C11.3224 0.867694 11.424 0.856248 11.424 0.856248L11.4013 1.1115C11.3505 1.64031 11.2207 2.8433 11.038 3.28627C10.8002 3.86315 9.8727 4.37365 9.8727 4.37365C9.8727 4.37365 8.9441 3.86315 8.70735 3.28627C8.52358 2.8433 8.39386 1.64031 8.34413 1.1115C8.329 0.954685 8.32251 0.857392 8.32251 0.857392C8.32251 0.857392 8.42305 0.866549 8.5625 0.866549C8.77222 0.866549 9.06626 0.843657 9.22084 0.729196C9.3711 0.617023 9.56785 0.416715 9.7073 0.271349C9.8046 0.166045 9.8727 0.0893555 9.8727 0.0893555C9.8727 0.0893555 9.94081 0.166045 10.0392 0.270205C10.1765 0.416715 10.3743 0.617023 10.5246 0.728051C10.6791 0.844802 10.9732 0.867694 11.184 0.866549L11.1829 0.867694ZM11.1613 1.11951L11.0597 1.11722C10.9471 1.11337 10.8351 1.09998 10.7245 1.07716C10.6039 1.05451 10.4888 1.00623 10.3862 0.935226C10.2023 0.789248 10.0301 0.627297 9.87162 0.451054C9.71305 0.6269 9.54093 0.788467 9.35705 0.934082C9.25455 1.00549 9.13945 1.05416 9.01869 1.07716C8.87596 1.10709 8.73069 1.12129 8.5852 1.11951V1.13096C8.60358 1.3118 8.62844 1.55904 8.66195 1.82345C8.69438 2.089 8.73546 2.36828 8.78086 2.61667C8.82735 2.86848 8.87816 3.06993 8.92572 3.18668C9.01653 3.40645 9.25976 3.64453 9.51812 3.84255C9.63261 3.92935 9.75094 4.01033 9.8727 4.08521C9.99483 4.01097 10.1132 3.92997 10.2273 3.84255C10.4867 3.64453 10.7289 3.4076 10.8197 3.18668C10.8672 3.06993 10.917 2.86963 10.9645 2.61667C11.0099 2.36828 11.051 2.089 11.0834 1.82345C11.1159 1.55904 11.1418 1.3118 11.1591 1.12981L11.1602 1.11836L11.1613 1.11951Z" fill="#333332"/>
<path d="M9.8728 1.35072L10.0598 1.95966H10.6673L10.1766 2.33738L10.3636 2.94632L9.8728 2.56859L9.38201 2.94632L9.56903 2.33624L9.07824 1.95966H9.68578L9.8728 1.35072ZM6.89133 0.0893555L7.07834 0.699435H7.68588L7.19509 1.07601L7.38211 1.68495L6.89133 1.30837L6.40054 1.68609L6.58756 1.07601L6.09677 0.698291H6.70323L6.89133 0.0893555ZM4.86224 1.7273L5.05034 2.33738H5.65571L5.16601 2.71396L5.35303 3.32289L4.86224 2.94632L4.37146 3.32404L4.55847 2.71396L4.06769 2.33624H4.67522L4.86224 1.7273ZM12.8553 0.0893555L12.6683 0.699435H12.0619L12.5527 1.07601L12.3646 1.68495L12.8553 1.30837L13.3461 1.68609L13.1591 1.07601L13.6499 0.698291H13.0434L12.8553 0.0893555ZM14.8844 1.7273L14.6974 2.33738H14.0899L14.5807 2.71396L14.3936 3.32289L14.8844 2.94632L15.3752 3.32404L15.1882 2.71396L15.679 2.33624H15.0725L14.8844 1.7273Z" fill="#EDC139"/>
</g>
<defs>
<clipPath id="clip0_151_449">
<rect width="19.4585" height="16.0246" fill="white" transform="translate(0.130493 0.0893555)"/>
</clipPath>
</defs>
</svg>
