<svg width="81" height="14" viewBox="0 0 81 14" fill="none" xmlns="http://www.w3.org/2000/svg">
<path d="M0.717407 0.40215H80.7174V13.7344H0.717407V0.40215Z" fill="#004C8F"/>
<path d="M14.0514 0.40215H80.7175V13.7344H14.0514V0.40215Z" fill="#004C8F"/>
<path d="M18.291 10.2222V3.91396H20.3664V6.04294H22.311V3.91396H24.3897V10.2222H22.311V7.77467H20.3664V10.2222H18.291Z" fill="white"/>
<path d="M27.6735 5.48137H28.2117C28.5989 5.48137 28.8822 5.52159 29.0633 5.60206C29.1974 5.66073 29.3063 5.74791 29.4019 5.87867C29.489 6.00775 29.5595 6.1704 29.6114 6.37491C29.6584 6.57775 29.6835 6.79228 29.6835 7.0186C29.6835 7.3874 29.6332 7.69587 29.5242 7.94565C29.4186 8.19543 29.2661 8.37478 29.07 8.48542C28.8738 8.59774 28.5821 8.65138 28.1966 8.65138L27.6735 8.65476V5.48137ZM28.4748 10.2222C28.9643 10.2222 29.3701 10.1819 29.702 10.0931C30.0356 10.0076 30.3071 9.89358 30.515 9.7578C30.7262 9.61866 30.9173 9.43093 31.0933 9.19791C31.2677 8.95652 31.4202 8.6531 31.5392 8.28094C31.6616 7.91046 31.7203 7.49302 31.7203 7.02028C31.7203 6.32626 31.5879 5.73953 31.3197 5.25003C31.0481 4.77059 30.6793 4.42359 30.2082 4.21908C29.7389 4.01456 29.1789 3.91396 28.5285 3.91396H25.6434V10.2222H28.4748Z" fill="white"/>
<path d="M32.6709 10.2222V3.91396H37.5927V5.46966H34.7194V6.48051H37.0177V7.99425H34.7194V10.2222H32.6709Z" fill="white"/>
<path d="M44.5428 6.32636H42.5832C42.5463 6.01288 42.4323 5.76481 42.2428 5.58711C42.0517 5.41277 41.812 5.32728 41.5169 5.32728C41.1498 5.32728 40.8514 5.46975 40.6218 5.75138C40.3904 6.03637 40.2748 6.49737 40.2748 7.13104C40.2748 7.5736 40.3267 7.9055 40.4223 8.13181C40.5212 8.36483 40.6603 8.53246 40.833 8.64478C41.0107 8.7571 41.227 8.8091 41.4935 8.8091C41.812 8.8091 42.0668 8.7286 42.2529 8.5442C42.444 8.37153 42.5547 8.1134 42.5915 7.76807H44.5864C44.5428 8.16034 44.464 8.4889 44.35 8.75712C44.2411 9.02367 44.0466 9.28851 43.7834 9.55505C43.5169 9.82495 43.1984 10.0328 42.8313 10.177C42.4641 10.3228 42.04 10.3916 41.5538 10.3916C41.0744 10.3916 40.6268 10.3229 40.2228 10.1821C39.8138 10.0379 39.4684 9.83333 39.1935 9.57684C38.9136 9.3103 38.6957 9.01191 38.5398 8.67496C38.3151 8.20055 38.2095 7.67923 38.2095 7.09753C38.2095 6.61138 38.2883 6.15035 38.4475 5.7279C38.6068 5.30881 38.8264 4.95172 39.1063 4.66339C39.388 4.37673 39.6947 4.16218 40.0367 4.01802C40.4692 3.83361 40.9454 3.74478 41.4734 3.74478C41.9327 3.74478 42.3585 3.81178 42.7608 3.94757C43.1615 4.08336 43.4901 4.2812 43.7466 4.54439C44.0064 4.80758 44.2059 5.10932 44.345 5.45297C44.4456 5.6927 44.5093 5.9827 44.5428 6.32636Z" fill="white"/>
<path d="M51.1897 5.33388C51.4831 5.33388 51.6725 5.34727 51.7664 5.37409C51.8871 5.4093 51.9876 5.47802 52.0597 5.56855C52.1335 5.66242 52.1721 5.77141 52.1721 5.89714C52.1721 6.05807 52.1084 6.19048 51.986 6.29106C51.8552 6.39668 51.6323 6.44531 51.3121 6.44531H50.5309V5.33388H51.1897ZM51.7111 10.2222C52.2022 10.2222 52.5476 10.1987 52.7504 10.1551C52.9499 10.1082 53.1561 10.0344 53.3656 9.93721C53.5702 9.82992 53.7277 9.72934 53.8317 9.6187C53.9926 9.4695 54.1116 9.28841 54.1988 9.07048C54.2859 8.85087 54.3295 8.60279 54.3295 8.33624C54.3295 7.95571 54.2357 7.64221 54.0446 7.3874C53.8535 7.13091 53.5969 6.96162 53.2734 6.86942C53.8216 6.52408 54.0949 6.07818 54.0949 5.53504C54.0949 4.97345 53.8534 4.54427 53.3757 4.25258C53.0069 4.02795 52.4319 3.91396 51.6524 3.91396H48.5226V10.2222H51.7111ZM51.3775 7.58022C51.7882 7.58022 52.0547 7.63049 52.1888 7.7361C52.3129 7.83836 52.3799 7.97917 52.3799 8.1686C52.3799 8.3597 52.3129 8.51057 52.1771 8.61619C52.048 8.7285 51.7781 8.77544 51.3775 8.77544H50.5309V7.58022H51.3775Z" fill="white"/>
<path d="M58.8875 8.10158H57.5682L58.2186 5.80659L58.8875 8.10158ZM56.9479 10.2222L57.1877 9.39406H59.2529L59.4944 10.2222H61.558L59.2948 3.91396H57.1877L54.9229 10.2222H56.9479Z" fill="white"/>
<path d="M62.4299 10.2222V3.91396H64.3628L66.5438 7.29189V3.91396H68.532V10.2222H66.5572L64.4231 6.9281V10.2222H62.4299Z" fill="white"/>
<path d="M69.9149 10.2222V3.91396H71.9249V5.99434L73.8008 3.91396H76.2382L73.9265 6.28938L76.4779 10.2222H73.9936L72.4764 7.70929L71.9249 8.25408V10.2222H69.9149Z" fill="white"/>
<path d="M0.717407 0.40215H14.0496V13.7344H0.717407V0.40215Z" fill="#ED232A"/>
<path d="M3.0509 2.73546H11.7178V11.4023H3.0509V2.73546Z" fill="white"/>
<path d="M6.71704 0.40215H8.04973V13.7344H6.71704V0.40215Z" fill="white"/>
<path d="M0.717407 6.40364H14.0496V7.73633H0.717407V6.40364Z" fill="white"/>
<path d="M5.3844 5.06899H9.38421V9.06885H5.3844V5.06899Z" fill="#004C8F"/>
</svg>
