<svg width="71" height="14" viewBox="0 0 71 14" fill="none" xmlns="http://www.w3.org/2000/svg">
<path d="M13.0847 13.8693H15.4511L17.3062 6.95557H14.9642L13.0847 13.8693Z" fill="white"/>
<path d="M25.2171 13.8693H27.5835L29.4386 6.95557H27.0722L25.2171 13.8693Z" fill="white"/>
<path d="M37.3715 13.8693H39.7147L41.5478 6.95557H39.1814L37.3715 13.8693Z" fill="white"/>
<path d="M23.0129 9.32205H25.3794C25.704 7.7684 24.7069 6.97998 22.3869 6.97998C19.6958 6.97998 17.8871 8.30174 17.261 10.5522C16.7265 12.6392 17.8175 13.8926 20.3451 13.8926C22.897 13.8926 24.4043 13.1041 25.0315 11.3174H22.6651C22.3173 12.1059 21.7144 12.5001 20.8796 12.5001C19.7422 12.5001 19.2784 11.8044 19.6262 10.4826C19.9972 9.11335 20.8796 8.34812 22.0158 8.34812C22.7579 8.34812 23.0825 8.67276 23.0129 9.32205Z" fill="white"/>
<path d="M35.1686 9.32205H37.535C37.8596 7.7684 36.8382 6.97998 34.5181 6.97998C31.8503 6.97998 30.0183 8.30174 29.4154 10.5522C28.8589 12.6392 29.9488 13.8926 32.4775 13.8926C35.0062 13.8926 36.5135 13.1041 37.1628 11.3174H34.7975C34.4717 12.1059 33.8456 12.5001 33.0108 12.5001C31.8746 12.5001 31.4108 11.8044 31.7807 10.4826C32.1297 9.11335 33.0108 8.34812 34.1471 8.34812C34.8903 8.34812 35.2381 8.67276 35.1686 9.32205Z" fill="white"/>
<path d="M3.96803 3.12944C7.12287 -0.00220817 10.9502 -0.814974 12.4818 1.31955C14.0134 3.45408 12.6673 7.76836 9.51247 10.9C6.35764 14.0548 2.53033 14.8664 0.975517 12.7087C-0.531755 10.5522 0.814352 6.25993 3.96803 3.12944Z" fill="#F06321"/>
<path d="M6.05612 1.45863C5.70829 1.7137 5.36046 2.01516 5.01263 2.34096C2.252 5.07724 1.09139 8.83498 2.4607 10.7144C3.87521 12.5927 7.26193 11.8971 10.0921 9.13644C11.6237 7.65235 12.644 5.93522 13.0614 4.3352C13.1774 3.15257 13.0151 2.10791 12.4817 1.31949C11.2759 -0.350099 8.67762 -0.212127 6.05612 1.45863Z" fill="#AE282E"/>
<path d="M10.0459 1.80652V1.87609C10.0227 2.2703 9.7908 2.75726 9.37341 3.17466C8.74731 3.77756 7.91251 4.00945 7.56352 3.66278C7.16931 3.29176 7.40237 2.47899 8.02846 1.82971C8.67775 1.20361 9.51254 0.99491 9.86038 1.36593C9.97632 1.48188 10.0459 1.62101 10.0459 1.80652ZM7.63424 12.4537C6.149 13.5667 4.61854 14.1244 3.1333 13.8925C3.7594 13.9157 4.27071 13.2189 4.6881 12.2913C5.1055 11.3406 5.33739 10.4594 5.54608 9.62346C5.84754 8.3017 5.87074 7.37415 5.70841 7.16545C5.45333 6.83965 4.8968 6.91037 4.24635 7.28139C3.92171 7.4669 3.50432 7.35096 3.99244 6.74805C4.5026 6.14514 6.47364 4.70628 7.1693 4.47439C7.95888 4.26569 8.84007 4.56715 8.53861 5.42513C8.32876 6.05123 5.59247 13.1957 7.63424 12.4537Z" fill="white"/>
<path d="M45.0968 12.7785L45.6302 10.7843H46.9287V9.7176H45.9316L46.3954 8.02366H46.9287V6.979H45.1652L43.3333 13.8927H46.9287V12.7785H45.0968ZM46.9287 10.7843H47.1838C48.3676 10.7843 48.9241 10.993 48.6922 11.8046C48.5067 12.5234 47.927 12.7785 46.9287 12.7785V13.8927C47.9038 13.8927 48.6227 13.8 49.3415 13.3119C49.8285 12.9872 50.1775 12.5003 50.3166 11.9437C50.5705 10.993 50.1531 10.3425 49.0633 10.2046C50.0836 10.0191 50.734 9.48455 50.9416 8.64976C51.1271 8.02366 50.9647 7.55988 50.5242 7.25843C50.1531 7.00335 49.527 6.979 48.6922 6.979H46.9287V8.02366H47.8343C48.9473 8.02366 49.4575 8.16279 49.2952 8.85846C49.0865 9.53093 48.4835 9.7176 47.3473 9.7176H46.9287V10.7843Z" fill="white"/>
<path d="M53.424 9.04509V9.90191C53.2385 9.99583 53.0761 10.1582 53.0066 10.39H51.6153C51.846 9.71756 52.4732 9.25263 53.424 9.04509ZM53.424 13.1043C53.2616 13.1507 53.0761 13.1739 52.8906 13.1739C52.2645 13.1739 51.9863 12.9176 52.1254 12.4538C52.2645 11.9205 52.6819 11.735 53.424 11.6654V10.8538C51.8228 10.9698 50.9416 11.3872 50.6633 12.4307C50.4083 13.3814 51.0123 14.0086 52.2645 14.0086C52.6819 14.0086 53.0761 13.9391 53.424 13.7999V13.1043ZM54.7701 11.6654L54.7469 11.735C54.5613 12.4538 54.0733 12.942 53.424 13.1043V13.7999C53.7718 13.6597 54.0732 13.4753 54.3515 13.2202L54.2356 13.8927H55.628C55.6976 13.5669 55.7672 13.1959 55.8599 12.8249L56.3933 10.877C56.4396 10.7147 56.4628 10.5524 56.4628 10.39V10.1581C56.4165 9.36857 55.744 8.95117 54.4918 8.95117C54.0964 8.95117 53.7486 8.99755 53.424 9.04509V9.90191C53.6327 9.78713 53.8877 9.74075 54.2135 9.74075C54.9312 9.74075 55.2107 10.0642 55.0008 10.7611L54.9788 10.8306H54.2355C53.9584 10.8306 53.6791 10.8538 53.424 10.8538V11.6654L54.7701 11.6654Z" fill="white"/>
<path d="M56.8802 13.8927H58.2959L58.9684 11.4103C59.2003 10.5292 60.0119 9.90191 60.8699 9.90191C61.7047 9.90191 62.0073 10.39 61.729 11.364L61.0554 13.8927H62.4711L63.2595 10.9466C63.5841 9.69437 62.958 8.95117 61.5667 8.95117C60.6612 8.95117 59.9423 9.27581 59.3162 9.9251L59.4786 9.06711H58.064C57.9249 9.83234 57.8321 10.2973 57.7846 10.4828L56.8802 13.8927Z" fill="white"/>
<path d="M63.7233 13.8926H65.1157L65.8114 11.2943L67.6909 13.8926H69.6155L67.481 11.1319L70.3576 9.06697H68.572L65.9042 10.9928L66.9709 6.97998H65.5795L63.7233 13.8926Z" fill="white"/>
</svg>
