<svg width="188" height="41" viewBox="0 0 188 41" fill="none" xmlns="http://www.w3.org/2000/svg">
<mask id="path-1-outside-1_562_1927" maskUnits="userSpaceOnUse" x="-2.46094" y="-2" width="192" height="45" fill="black">
<rect fill="white" x="-2.46094" y="-2" width="192" height="45"/>
<path d="M7.30567 36L0.145565 19.677L0.696343 17.2736H3.14981C5.887 17.2736 7.98997 16.8062 9.45871 15.8716C10.9275 14.9036 11.8788 13.6017 12.3127 11.9661H1.54754L2.24853 8.76155H12.5631C12.4296 6.99239 11.7787 5.67386 10.6103 4.80597C9.4754 3.90469 7.67286 3.45406 5.2027 3.45406H3.40016L4.05108 0.249533H24.5801L23.9291 3.45406H14.4157C15.0833 3.85462 15.7009 4.52223 16.2683 5.45689C16.8692 6.35816 17.1863 7.45971 17.2197 8.76155H22.7274L22.0265 11.9661H16.9192C16.6188 13.3013 16.0347 14.5864 15.1668 15.8215C14.2989 17.0232 13.0304 18.0246 11.3614 18.8258C9.72576 19.6269 7.53934 20.0942 4.80214 20.2277L12.2126 36H7.30567ZM47.5339 0.700169C50.171 0.700169 51.9735 1.51799 52.9416 3.15363C53.9096 4.78927 54.0431 6.84217 53.3421 9.31233L52.2406 13.2178C51.84 14.7533 51.3393 15.9217 50.7385 16.7228C50.1376 17.5239 49.3365 18.1248 48.3351 18.5253C49.7371 19.8272 50.1209 21.563 49.4867 23.7327L48.1348 28.4894C47.3337 31.26 46.2321 33.2461 44.8301 34.4478C43.4281 35.6495 41.5755 36.2504 39.2723 36.2504H36.6686C34.0315 36.2504 32.229 35.4492 31.261 33.847C30.2929 32.2113 30.1594 30.1417 30.8604 27.6382L31.962 23.7327C32.3959 22.097 32.93 20.8953 33.5642 20.1276C34.2318 19.3265 35.1164 18.7089 36.218 18.275C34.9495 17.0399 34.6157 15.3542 35.2166 13.2178L36.5685 8.46113C37.3696 5.65717 38.4711 3.67103 39.8731 2.50271C41.2751 1.30102 43.1277 0.700169 45.431 0.700169H47.5339ZM44.1291 15.9217C44.6966 15.9217 45.1139 15.7714 45.3809 15.471C45.6813 15.1372 45.9317 14.6365 46.132 13.9689L47.8844 7.86028C48.2182 6.6252 47.7676 6.00766 46.5325 6.00766H44.6298C44.0624 6.00766 43.6284 6.17456 43.328 6.50837C43.061 6.80879 42.8273 7.29281 42.627 7.96042L40.8745 14.069C40.5407 15.3041 40.9914 15.9217 42.2264 15.9217H44.1291ZM43.5784 22.8815C43.9122 21.6464 43.4615 21.0289 42.2264 21.0289H40.3238C39.7563 21.0289 39.3223 21.1958 39.0219 21.5296C38.7549 21.83 38.5212 22.314 38.3209 22.9816L36.7187 28.5895C36.3849 29.8246 36.8355 30.4422 38.0706 30.4422H39.9733C40.5407 30.4422 40.958 30.2919 41.225 29.9915C41.5255 29.6577 41.7758 29.157 41.9761 28.4894L43.5784 22.8815ZM54.4652 40.5064H49.4581L52.7628 28.9901H59.272L54.4652 40.5064ZM81.7271 28.4894C80.926 31.26 79.8244 33.2461 78.4225 34.4478C77.0205 35.6495 75.1679 36.2504 72.8646 36.2504H70.2609C67.6239 36.2504 65.8213 35.4325 64.8533 33.7969C63.8853 32.1612 63.7518 30.1083 64.4527 27.6382L69.9104 8.46113C70.7116 5.69055 71.8131 3.70441 73.2151 2.50271C74.6171 1.30102 76.4697 0.700169 78.773 0.700169H81.3766C84.0137 0.700169 85.8162 1.51799 86.7843 3.15363C87.7523 4.78927 87.8858 6.84217 87.1848 9.31233L81.7271 28.4894ZM81.3266 8.36098C81.6604 7.12591 81.2097 6.50837 79.9747 6.50837H78.072C77.5045 6.50837 77.0706 6.67527 76.7701 7.00907C76.5031 7.3095 76.2694 7.79352 76.0691 8.46113L70.311 28.5895C69.9772 29.8246 70.4278 30.4422 71.6629 30.4422H73.5656C74.1331 30.4422 74.5503 30.2919 74.8174 29.9915C75.1178 29.6577 75.3682 29.157 75.5684 28.4894L81.3266 8.36098ZM103.78 28.4894C102.979 31.26 101.877 33.2461 100.475 34.4478C99.0731 35.6495 97.2205 36.2504 94.9172 36.2504H92.3136C89.6765 36.2504 87.874 35.4325 86.9059 33.7969C85.9379 32.1612 85.8044 30.1083 86.5054 27.6382L91.9631 8.46113C92.7642 5.69055 93.8658 3.70441 95.2677 2.50271C96.6697 1.30102 98.5223 0.700169 100.826 0.700169H103.429C106.066 0.700169 107.869 1.51799 108.837 3.15363C109.805 4.78927 109.938 6.84217 109.237 9.31233L103.78 28.4894ZM103.379 8.36098C103.713 7.12591 103.262 6.50837 102.027 6.50837H100.125C99.5571 6.50837 99.1232 6.67527 98.8228 7.00907C98.5557 7.3095 98.322 7.79352 98.1218 8.46113L92.3636 28.5895C92.0298 29.8246 92.4805 30.4422 93.7155 30.4422H95.6182C96.1857 30.4422 96.603 30.2919 96.87 29.9915C97.1704 29.6577 97.4208 29.157 97.6211 28.4894L103.379 8.36098ZM110.11 40.5064H105.103L108.408 28.9901H114.917L110.11 40.5064ZM137.372 28.4894C136.571 31.26 135.469 33.2461 134.067 34.4478C132.665 35.6495 130.813 36.2504 128.51 36.2504H125.906C123.269 36.2504 121.466 35.4325 120.498 33.7969C119.53 32.1612 119.397 30.1083 120.098 27.6382L125.555 8.46113C126.357 5.69055 127.458 3.70441 128.86 2.50271C130.262 1.30102 132.115 0.700169 134.418 0.700169H137.022C139.659 0.700169 141.461 1.51799 142.429 3.15363C143.397 4.78927 143.531 6.84217 142.83 9.31233L137.372 28.4894ZM136.972 8.36098C137.305 7.12591 136.855 6.50837 135.62 6.50837H133.717C133.149 6.50837 132.716 6.67527 132.415 7.00907C132.148 7.3095 131.914 7.79352 131.714 8.46113L125.956 28.5895C125.622 29.8246 126.073 30.4422 127.308 30.4422H129.211C129.778 30.4422 130.195 30.2919 130.462 29.9915C130.763 29.6577 131.013 29.157 131.213 28.4894L136.972 8.36098ZM159.425 28.4894C158.624 31.26 157.522 33.2461 156.12 34.4478C154.718 35.6495 152.865 36.2504 150.562 36.2504H147.959C145.321 36.2504 143.519 35.4325 142.551 33.7969C141.583 32.1612 141.449 30.1083 142.15 27.6382L147.608 8.46113C148.409 5.69055 149.511 3.70441 150.913 2.50271C152.315 1.30102 154.167 0.700169 156.471 0.700169H159.074C161.711 0.700169 163.514 1.51799 164.482 3.15363C165.45 4.78927 165.583 6.84217 164.882 9.31233L159.425 28.4894ZM159.024 8.36098C159.358 7.12591 158.907 6.50837 157.672 6.50837H155.77C155.202 6.50837 154.768 6.67527 154.468 7.00907C154.201 7.3095 153.967 7.79352 153.767 8.46113L148.009 28.5895C147.675 29.8246 148.125 30.4422 149.36 30.4422H151.263C151.831 30.4422 152.248 30.2919 152.515 29.9915C152.815 29.6577 153.066 29.157 153.266 28.4894L159.024 8.36098ZM181.477 28.4894C180.676 31.26 179.575 33.2461 178.173 34.4478C176.771 35.6495 174.918 36.2504 172.615 36.2504H170.011C167.374 36.2504 165.572 35.4325 164.603 33.7969C163.635 32.1612 163.502 30.1083 164.203 27.6382L169.661 8.46113C170.462 5.69055 171.563 3.70441 172.965 2.50271C174.367 1.30102 176.22 0.700169 178.523 0.700169H181.127C183.764 0.700169 185.566 1.51799 186.534 3.15363C187.502 4.78927 187.636 6.84217 186.935 9.31233L181.477 28.4894ZM181.077 8.36098C181.411 7.12591 180.96 6.50837 179.725 6.50837H177.822C177.255 6.50837 176.821 6.67527 176.52 7.00907C176.253 7.3095 176.02 7.79352 175.819 8.46113L170.061 28.5895C169.727 29.8246 170.178 30.4422 171.413 30.4422H173.316C173.883 30.4422 174.301 30.2919 174.568 29.9915C174.868 29.6577 175.118 29.157 175.319 28.4894L181.077 8.36098Z"/>
</mask>
<path d="M7.30567 36L0.145565 19.677L0.696343 17.2736H3.14981C5.887 17.2736 7.98997 16.8062 9.45871 15.8716C10.9275 14.9036 11.8788 13.6017 12.3127 11.9661H1.54754L2.24853 8.76155H12.5631C12.4296 6.99239 11.7787 5.67386 10.6103 4.80597C9.4754 3.90469 7.67286 3.45406 5.2027 3.45406H3.40016L4.05108 0.249533H24.5801L23.9291 3.45406H14.4157C15.0833 3.85462 15.7009 4.52223 16.2683 5.45689C16.8692 6.35816 17.1863 7.45971 17.2197 8.76155H22.7274L22.0265 11.9661H16.9192C16.6188 13.3013 16.0347 14.5864 15.1668 15.8215C14.2989 17.0232 13.0304 18.0246 11.3614 18.8258C9.72576 19.6269 7.53934 20.0942 4.80214 20.2277L12.2126 36H7.30567ZM47.5339 0.700169C50.171 0.700169 51.9735 1.51799 52.9416 3.15363C53.9096 4.78927 54.0431 6.84217 53.3421 9.31233L52.2406 13.2178C51.84 14.7533 51.3393 15.9217 50.7385 16.7228C50.1376 17.5239 49.3365 18.1248 48.3351 18.5253C49.7371 19.8272 50.1209 21.563 49.4867 23.7327L48.1348 28.4894C47.3337 31.26 46.2321 33.2461 44.8301 34.4478C43.4281 35.6495 41.5755 36.2504 39.2723 36.2504H36.6686C34.0315 36.2504 32.229 35.4492 31.261 33.847C30.2929 32.2113 30.1594 30.1417 30.8604 27.6382L31.962 23.7327C32.3959 22.097 32.93 20.8953 33.5642 20.1276C34.2318 19.3265 35.1164 18.7089 36.218 18.275C34.9495 17.0399 34.6157 15.3542 35.2166 13.2178L36.5685 8.46113C37.3696 5.65717 38.4711 3.67103 39.8731 2.50271C41.2751 1.30102 43.1277 0.700169 45.431 0.700169H47.5339ZM44.1291 15.9217C44.6966 15.9217 45.1139 15.7714 45.3809 15.471C45.6813 15.1372 45.9317 14.6365 46.132 13.9689L47.8844 7.86028C48.2182 6.6252 47.7676 6.00766 46.5325 6.00766H44.6298C44.0624 6.00766 43.6284 6.17456 43.328 6.50837C43.061 6.80879 42.8273 7.29281 42.627 7.96042L40.8745 14.069C40.5407 15.3041 40.9914 15.9217 42.2264 15.9217H44.1291ZM43.5784 22.8815C43.9122 21.6464 43.4615 21.0289 42.2264 21.0289H40.3238C39.7563 21.0289 39.3223 21.1958 39.0219 21.5296C38.7549 21.83 38.5212 22.314 38.3209 22.9816L36.7187 28.5895C36.3849 29.8246 36.8355 30.4422 38.0706 30.4422H39.9733C40.5407 30.4422 40.958 30.2919 41.225 29.9915C41.5255 29.6577 41.7758 29.157 41.9761 28.4894L43.5784 22.8815ZM54.4652 40.5064H49.4581L52.7628 28.9901H59.272L54.4652 40.5064ZM81.7271 28.4894C80.926 31.26 79.8244 33.2461 78.4225 34.4478C77.0205 35.6495 75.1679 36.2504 72.8646 36.2504H70.2609C67.6239 36.2504 65.8213 35.4325 64.8533 33.7969C63.8853 32.1612 63.7518 30.1083 64.4527 27.6382L69.9104 8.46113C70.7116 5.69055 71.8131 3.70441 73.2151 2.50271C74.6171 1.30102 76.4697 0.700169 78.773 0.700169H81.3766C84.0137 0.700169 85.8162 1.51799 86.7843 3.15363C87.7523 4.78927 87.8858 6.84217 87.1848 9.31233L81.7271 28.4894ZM81.3266 8.36098C81.6604 7.12591 81.2097 6.50837 79.9747 6.50837H78.072C77.5045 6.50837 77.0706 6.67527 76.7701 7.00907C76.5031 7.3095 76.2694 7.79352 76.0691 8.46113L70.311 28.5895C69.9772 29.8246 70.4278 30.4422 71.6629 30.4422H73.5656C74.1331 30.4422 74.5503 30.2919 74.8174 29.9915C75.1178 29.6577 75.3682 29.157 75.5684 28.4894L81.3266 8.36098ZM103.78 28.4894C102.979 31.26 101.877 33.2461 100.475 34.4478C99.0731 35.6495 97.2205 36.2504 94.9172 36.2504H92.3136C89.6765 36.2504 87.874 35.4325 86.9059 33.7969C85.9379 32.1612 85.8044 30.1083 86.5054 27.6382L91.9631 8.46113C92.7642 5.69055 93.8658 3.70441 95.2677 2.50271C96.6697 1.30102 98.5223 0.700169 100.826 0.700169H103.429C106.066 0.700169 107.869 1.51799 108.837 3.15363C109.805 4.78927 109.938 6.84217 109.237 9.31233L103.78 28.4894ZM103.379 8.36098C103.713 7.12591 103.262 6.50837 102.027 6.50837H100.125C99.5571 6.50837 99.1232 6.67527 98.8228 7.00907C98.5557 7.3095 98.322 7.79352 98.1218 8.46113L92.3636 28.5895C92.0298 29.8246 92.4805 30.4422 93.7155 30.4422H95.6182C96.1857 30.4422 96.603 30.2919 96.87 29.9915C97.1704 29.6577 97.4208 29.157 97.6211 28.4894L103.379 8.36098ZM110.11 40.5064H105.103L108.408 28.9901H114.917L110.11 40.5064ZM137.372 28.4894C136.571 31.26 135.469 33.2461 134.067 34.4478C132.665 35.6495 130.813 36.2504 128.51 36.2504H125.906C123.269 36.2504 121.466 35.4325 120.498 33.7969C119.53 32.1612 119.397 30.1083 120.098 27.6382L125.555 8.46113C126.357 5.69055 127.458 3.70441 128.86 2.50271C130.262 1.30102 132.115 0.700169 134.418 0.700169H137.022C139.659 0.700169 141.461 1.51799 142.429 3.15363C143.397 4.78927 143.531 6.84217 142.83 9.31233L137.372 28.4894ZM136.972 8.36098C137.305 7.12591 136.855 6.50837 135.62 6.50837H133.717C133.149 6.50837 132.716 6.67527 132.415 7.00907C132.148 7.3095 131.914 7.79352 131.714 8.46113L125.956 28.5895C125.622 29.8246 126.073 30.4422 127.308 30.4422H129.211C129.778 30.4422 130.195 30.2919 130.462 29.9915C130.763 29.6577 131.013 29.157 131.213 28.4894L136.972 8.36098ZM159.425 28.4894C158.624 31.26 157.522 33.2461 156.12 34.4478C154.718 35.6495 152.865 36.2504 150.562 36.2504H147.959C145.321 36.2504 143.519 35.4325 142.551 33.7969C141.583 32.1612 141.449 30.1083 142.15 27.6382L147.608 8.46113C148.409 5.69055 149.511 3.70441 150.913 2.50271C152.315 1.30102 154.167 0.700169 156.471 0.700169H159.074C161.711 0.700169 163.514 1.51799 164.482 3.15363C165.45 4.78927 165.583 6.84217 164.882 9.31233L159.425 28.4894ZM159.024 8.36098C159.358 7.12591 158.907 6.50837 157.672 6.50837H155.77C155.202 6.50837 154.768 6.67527 154.468 7.00907C154.201 7.3095 153.967 7.79352 153.767 8.46113L148.009 28.5895C147.675 29.8246 148.125 30.4422 149.36 30.4422H151.263C151.831 30.4422 152.248 30.2919 152.515 29.9915C152.815 29.6577 153.066 29.157 153.266 28.4894L159.024 8.36098ZM181.477 28.4894C180.676 31.26 179.575 33.2461 178.173 34.4478C176.771 35.6495 174.918 36.2504 172.615 36.2504H170.011C167.374 36.2504 165.572 35.4325 164.603 33.7969C163.635 32.1612 163.502 30.1083 164.203 27.6382L169.661 8.46113C170.462 5.69055 171.563 3.70441 172.965 2.50271C174.367 1.30102 176.22 0.700169 178.523 0.700169H181.127C183.764 0.700169 185.566 1.51799 186.534 3.15363C187.502 4.78927 187.636 6.84217 186.935 9.31233L181.477 28.4894ZM181.077 8.36098C181.411 7.12591 180.96 6.50837 179.725 6.50837H177.822C177.255 6.50837 176.821 6.67527 176.52 7.00907C176.253 7.3095 176.02 7.79352 175.819 8.46113L170.061 28.5895C169.727 29.8246 170.178 30.4422 171.413 30.4422H173.316C173.883 30.4422 174.301 30.2919 174.568 29.9915C174.868 29.6577 175.118 29.157 175.319 28.4894L181.077 8.36098Z" fill="#008A0E"/>
<path d="M7.30567 36L5.35371 36.8562L5.91311 38.1315H7.30567V36ZM0.145566 19.677L-1.93207 19.2008L-2.0895 19.8878L-1.80639 20.5332L0.145566 19.677ZM0.696343 17.2736V15.1421H-1.00194L-1.38129 16.7974L0.696343 17.2736ZM9.45871 15.8716L10.6031 17.6698L10.6175 17.6607L10.6317 17.6513L9.45871 15.8716ZM12.3127 11.9661L14.373 12.5127L15.0835 9.83458H12.3127V11.9661ZM1.54754 11.9661L-0.534712 11.5106L-1.10062 14.0976H1.54754V11.9661ZM2.24853 8.76155V6.63006H0.532902L0.166277 8.30606L2.24853 8.76155ZM12.5631 8.76155V10.893H14.8615L14.6885 8.60114L12.5631 8.76155ZM10.6103 4.80597L9.2848 6.47516L9.3117 6.49652L9.33928 6.51701L10.6103 4.80597ZM3.40016 3.45406L1.31132 3.02976L0.792178 5.58555H3.40016V3.45406ZM4.05108 0.249533V-1.88196H2.30902L1.96224 -0.174762L4.05108 0.249533ZM24.5801 0.249533L26.6689 0.673828L27.188 -1.88196H24.5801V0.249533ZM23.9291 3.45406V5.58555H25.6712L26.018 3.87835L23.9291 3.45406ZM14.4157 3.45406V1.32256H6.72035L13.3191 5.2818L14.4157 3.45406ZM16.2683 5.45688L14.4464 6.56309L14.4698 6.60167L14.4948 6.63922L16.2683 5.45688ZM17.2197 8.76155L15.0889 8.81619L15.1421 10.893H17.2197V8.76155ZM22.7274 8.76155L24.8097 9.21704L25.3756 6.63006H22.7274V8.76155ZM22.0265 11.9661V14.0976H23.7421L24.1087 12.4216L22.0265 11.9661ZM16.9192 11.9661V9.83458H15.214L14.8397 11.4982L16.9192 11.9661ZM15.1668 15.8215L16.8947 17.0695L16.9028 17.0583L16.9107 17.047L15.1668 15.8215ZM11.3614 18.8258L10.439 16.9042L10.4314 16.9078L10.4238 16.9115L11.3614 18.8258ZM4.80214 20.2277L4.69829 18.0988L1.51968 18.2538L2.87297 21.1341L4.80214 20.2277ZM12.2126 36V38.1315H15.5691L14.1418 35.0936L12.2126 36ZM9.25763 35.1438L2.09752 18.8207L-1.80639 20.5332L5.35371 36.8562L9.25763 35.1438ZM2.2232 20.1531L2.77398 17.7497L-1.38129 16.7974L-1.93207 19.2008L2.2232 20.1531ZM0.696343 19.4051H3.14981V15.1421H0.696343V19.4051ZM3.14981 19.4051C6.07975 19.4051 8.64881 18.9135 10.6031 17.6698L8.31437 14.0733C7.33113 14.699 5.69426 15.1421 3.14981 15.1421V19.4051ZM10.6317 17.6513C12.5187 16.4076 13.7991 14.6759 14.373 12.5127L10.2525 11.4195C9.95854 12.5276 9.33625 13.3995 8.28572 14.0919L10.6317 17.6513ZM12.3127 9.83458H1.54754V14.0976H12.3127V9.83458ZM3.6298 12.4216L4.33079 9.21704L0.166277 8.30606L-0.534712 11.5106L3.6298 12.4216ZM2.24853 10.893H12.5631V6.63006H2.24853V10.893ZM14.6885 8.60114C14.5196 6.36284 13.6532 4.41111 11.8814 3.09492L9.33928 6.51701C9.90412 6.93661 10.3395 7.62193 10.4376 8.92196L14.6885 8.60114ZM11.9359 3.13677C10.2384 1.78881 7.84654 1.32256 5.2027 1.32256V5.58555C7.49918 5.58555 8.71236 6.02058 9.2848 6.47516L11.9359 3.13677ZM5.2027 1.32256H3.40016V5.58555H5.2027V1.32256ZM5.489 3.87835L6.13991 0.673828L1.96224 -0.174762L1.31132 3.02976L5.489 3.87835ZM4.05108 2.38103H24.5801V-1.88196H4.05108V2.38103ZM22.4912 -0.174762L21.8403 3.02976L26.018 3.87835L26.6689 0.673828L22.4912 -0.174762ZM23.9291 1.32256H14.4157V5.58555H23.9291V1.32256ZM13.3191 5.2818C13.5944 5.44698 13.9901 5.81156 14.4464 6.56309L18.0903 4.35069C17.4116 3.23291 16.5723 2.26226 15.5124 1.62632L13.3191 5.2818ZM14.4948 6.63922C14.831 7.14357 15.0637 7.83442 15.0889 8.81619L19.3505 8.70691C19.3089 7.08501 18.9073 5.57275 18.0418 4.27455L14.4948 6.63922ZM17.2197 10.893H22.7274V6.63006H17.2197V10.893ZM20.6452 8.30606L19.9442 11.5106L24.1087 12.4216L24.8097 9.21704L20.6452 8.30606ZM22.0265 9.83458H16.9192V14.0976H22.0265V9.83458ZM14.8397 11.4982C14.6065 12.5346 14.1469 13.5655 13.4228 14.596L16.9107 17.047C17.9224 15.6073 18.6311 14.068 18.9987 12.434L14.8397 11.4982ZM13.4388 14.5735C12.8247 15.4239 11.866 16.2192 10.439 16.9042L12.2838 20.7473C14.1948 19.83 15.7731 18.6225 16.8947 17.0695L13.4388 14.5735ZM10.4238 16.9115C9.14588 17.5375 7.2783 17.9729 4.69829 18.0988L4.90599 22.3567C7.80037 22.2155 10.3056 21.7163 12.299 20.74L10.4238 16.9115ZM2.87297 21.1341L10.2834 36.9064L14.1418 35.0936L6.73131 19.3213L2.87297 21.1341ZM12.2126 33.8685H7.30567V38.1315H12.2126V33.8685ZM52.9416 3.15363L51.1073 4.23925L52.9416 3.15363ZM53.3421 9.31233L51.2916 8.73042L51.2907 8.73371L53.3421 9.31233ZM52.2406 13.2178L50.1891 12.6392L50.1834 12.6595L50.1781 12.6798L52.2406 13.2178ZM50.7385 16.7228L52.4437 18.0017V18.0017L50.7385 16.7228ZM48.3351 18.5253L47.5435 16.5463L44.4178 17.7966L46.8847 20.0873L48.3351 18.5253ZM49.4867 23.7327L47.4408 23.1347L47.4386 23.1423L47.4364 23.15L49.4867 23.7327ZM48.1348 28.4894L50.1824 29.0815L50.1851 29.0721L48.1348 28.4894ZM44.8301 34.4478L43.443 32.8295V32.8295L44.8301 34.4478ZM31.261 33.847L29.4267 34.9326L29.4316 34.9409L29.4366 34.9492L31.261 33.847ZM30.8604 27.6382L28.8089 27.0596L28.8079 27.0635L30.8604 27.6382ZM31.962 23.7327L34.0134 24.3113L34.0179 24.2953L34.0222 24.2793L31.962 23.7327ZM33.5642 20.1276L31.9267 18.763L31.9209 18.7701L33.5642 20.1276ZM36.218 18.275L36.9992 20.2581L40.0684 19.0491L37.7049 16.7478L36.218 18.275ZM35.2166 13.2178L33.1663 12.6351L33.1647 12.6407L35.2166 13.2178ZM36.5685 8.46113L34.519 7.87556L34.5182 7.87841L36.5685 8.46113ZM39.8731 2.50271L41.2377 4.14017L41.249 4.1307L41.2603 4.12107L39.8731 2.50271ZM45.3809 15.471L43.7965 14.0451L43.7878 14.0549L45.3809 15.471ZM46.132 13.9689L48.1736 14.5814L48.1773 14.5691L48.1808 14.5567L46.132 13.9689ZM47.8844 7.86028L49.9333 8.44806L49.9378 8.43227L49.9421 8.4164L47.8844 7.86028ZM43.328 6.50837L41.7436 5.08245L41.7349 5.09228L43.328 6.50837ZM42.627 7.96042L40.5854 7.34794L40.5817 7.36027L40.5782 7.37263L42.627 7.96042ZM40.8745 14.069L38.8257 13.4813L38.8212 13.4971L38.8169 13.5129L40.8745 14.069ZM43.5784 22.8815L45.6278 23.467L45.632 23.4524L45.636 23.4376L43.5784 22.8815ZM39.0219 21.5296L37.4376 20.1037L37.4288 20.1135L39.0219 21.5296ZM38.3209 22.9816L36.2793 22.3691L36.2753 22.3826L36.2715 22.3961L38.3209 22.9816ZM36.7187 28.5895L34.6692 28.004L34.665 28.0187L34.661 28.0334L36.7187 28.5895ZM41.225 29.9915L39.6407 28.5656L39.6319 28.5754L41.225 29.9915ZM41.9761 28.4894L44.0177 29.1019L44.0217 29.0884L44.0256 29.075L41.9761 28.4894ZM47.5339 2.83166C49.7435 2.83166 50.664 3.49028 51.1073 4.23925L54.7759 2.06802C53.2831 -0.454293 50.5984 -1.43132 47.5339 -1.43132V2.83166ZM51.1073 4.23925C51.6845 5.21465 51.8911 6.6178 51.2916 8.73042L55.3927 9.89423C56.1951 7.06654 56.1347 4.3639 54.7759 2.06802L51.1073 4.23925ZM51.2907 8.73371L50.1891 12.6392L54.292 13.7965L55.3936 9.89094L51.2907 8.73371ZM50.1781 12.6798C49.8113 14.0861 49.3996 14.9555 49.0333 15.4439L52.4437 18.0017C53.2791 16.8878 53.8688 15.4206 54.3031 13.7559L50.1781 12.6798ZM49.0333 15.4439C48.6851 15.9082 48.2109 16.2793 47.5435 16.5463L49.1267 20.5044C50.462 19.9702 51.5902 19.1397 52.4437 18.0017L49.0333 15.4439ZM46.8847 20.0873C47.2938 20.4672 47.502 20.8514 47.5933 21.2638C47.6895 21.6991 47.6841 22.3025 47.4408 23.1347L51.5326 24.3307C51.9236 22.9931 52.0433 21.6438 51.7557 20.3433C51.463 19.0199 50.7783 17.8853 49.7854 16.9634L46.8847 20.0873ZM47.4364 23.15L46.0845 27.9067L50.1851 29.0721L51.537 24.3154L47.4364 23.15ZM46.0872 27.8973C45.3417 30.4755 44.3983 32.0106 43.443 32.8295L46.2173 36.0662C48.0659 34.4817 49.3256 32.0445 50.1824 29.0815L46.0872 27.8973ZM43.443 32.8295C42.5158 33.6242 41.1968 34.1189 39.2723 34.1189V38.3818C41.9543 38.3818 44.3405 37.6748 46.2173 36.0662L43.443 32.8295ZM39.2723 34.1189H36.6686V38.3818H39.2723V34.1189ZM36.6686 34.1189C34.4407 34.1189 33.5202 33.4645 33.0854 32.7447L29.4366 34.9492C30.9378 37.4339 33.6224 38.3818 36.6686 38.3818V34.1189ZM33.0953 32.7613C32.5196 31.7886 32.3093 30.3688 32.913 28.2129L28.8079 27.0635C28.0095 29.9147 28.0663 32.634 29.4267 34.9326L33.0953 32.7613ZM32.9119 28.2168L34.0134 24.3113L29.9105 23.1541L28.8089 27.0596L32.9119 28.2168ZM34.0222 24.2793C34.425 22.761 34.8605 21.9052 35.2075 21.4851L31.9209 18.7701C30.9995 19.8855 30.3668 21.4331 29.9017 23.1861L34.0222 24.2793ZM35.2017 21.4921C35.6108 21.0012 36.1848 20.579 36.9992 20.2581L35.4367 16.2918C34.048 16.8389 32.8528 17.6518 31.9268 18.763L35.2017 21.4921ZM37.7049 16.7478C37.1453 16.203 36.816 15.4037 37.2684 13.7949L33.1647 12.6407C32.4154 15.3047 32.7537 17.8768 34.731 19.8021L37.7049 16.7478ZM37.2668 13.8006L38.6188 9.04384L34.5182 7.87841L33.1663 12.6351L37.2668 13.8006ZM38.6179 9.04669C39.366 6.42866 40.3074 4.91537 41.2377 4.14017L38.5086 0.865255C36.6349 2.42669 35.3732 4.88568 34.519 7.87556L38.6179 9.04669ZM41.2603 4.12107C42.1875 3.32631 43.5065 2.83166 45.431 2.83166V-1.43132C42.749 -1.43132 40.3627 -0.724275 38.486 0.884363L41.2603 4.12107ZM45.431 2.83166H47.5339V-1.43132H45.431V2.83166ZM44.1291 18.0532C45.047 18.0532 46.1577 17.8054 46.974 16.8871L43.7878 14.0549C43.9146 13.9123 44.0546 13.8363 44.1457 13.8035C44.2232 13.7756 44.2323 13.7902 44.1291 13.7902V18.0532ZM46.9652 16.8969C47.5605 16.2355 47.9278 15.4007 48.1736 14.5814L44.0904 13.3564C44.0173 13.6001 43.9466 13.7738 43.8875 13.8919C43.8279 14.0111 43.7917 14.0505 43.7966 14.0451L46.9652 16.8969ZM48.1808 14.5567L49.9333 8.44806L45.8356 7.27249L44.0831 13.3811L48.1808 14.5567ZM49.9421 8.4164C50.1666 7.58578 50.3198 6.31224 49.5186 5.21437C48.695 4.08573 47.4078 3.87617 46.5325 3.87617V8.13916C46.6786 8.13916 46.6727 8.15938 46.5786 8.12487C46.4638 8.08283 46.2518 7.9695 46.075 7.72727C45.9016 7.48965 45.8659 7.27012 45.8604 7.18391C45.856 7.11372 45.8708 7.14138 45.8268 7.30415L49.9421 8.4164ZM46.5325 3.87617H44.6298V8.13916H46.5325V3.87617ZM44.6298 3.87617C43.6286 3.87617 42.5498 4.18673 41.7437 5.08247L44.9123 7.93426C44.8746 7.97614 44.8296 8.01598 44.7791 8.05041C44.7289 8.08466 44.6819 8.10766 44.6439 8.12226C44.5695 8.1509 44.5518 8.13916 44.6298 8.13916V3.87617ZM41.7349 5.09228C41.1624 5.73634 40.8187 6.57035 40.5854 7.34794L44.6686 8.5729C44.7454 8.31708 44.816 8.13942 44.872 8.02336C44.93 7.90313 44.954 7.88741 44.9211 7.92445L41.7349 5.09228ZM40.5782 7.37263L38.8257 13.4813L42.9234 14.6568L44.6759 8.5482L40.5782 7.37263ZM38.8169 13.5129C38.5924 14.3435 38.4392 15.6171 39.2404 16.715C40.064 17.8436 41.3512 18.0532 42.2264 18.0532V13.7902C42.0804 13.7902 42.0862 13.7699 42.1804 13.8044C42.2952 13.8465 42.5072 13.9598 42.684 14.2021C42.8574 14.4397 42.8931 14.6592 42.8985 14.7454C42.903 14.8156 42.8882 14.7879 42.9322 14.6252L38.8169 13.5129ZM42.2264 18.0532H44.1291V13.7902H42.2264V18.0532ZM45.636 23.4376C45.8605 22.607 46.0137 21.3334 45.2125 20.2356C44.3889 19.1069 43.1017 18.8974 42.2264 18.8974V23.1604C42.3725 23.1604 42.3667 23.1806 42.2725 23.1461C42.1577 23.104 41.9457 22.9907 41.7689 22.7485C41.5955 22.5109 41.5598 22.2913 41.5544 22.2051C41.5499 22.1349 41.5647 22.1626 41.5207 22.3254L45.636 23.4376ZM42.2264 18.8974H40.3238V23.1604H42.2264V18.8974ZM40.3238 18.8974C39.3226 18.8974 38.2438 19.2079 37.4376 20.1037L40.6063 22.9555C40.5686 22.9973 40.5235 23.0372 40.473 23.0716C40.4228 23.1059 40.3758 23.1289 40.3379 23.1435C40.2634 23.1721 40.2457 23.1604 40.3238 23.1604V18.8974ZM37.4288 20.1135C36.8563 20.7575 36.5126 21.5916 36.2793 22.3691L40.3625 23.5941C40.4393 23.3383 40.5099 23.1606 40.5659 23.0446C40.624 22.9243 40.648 22.9086 40.615 22.9457L37.4288 20.1135ZM36.2715 22.3961L34.6692 28.004L38.7682 29.1751L40.3704 23.5672L36.2715 22.3961ZM34.661 28.0334C34.4365 28.864 34.2833 30.1376 35.0845 31.2355C35.9081 32.3641 37.1953 32.5736 38.0706 32.5736V28.3107C37.9246 28.3107 37.9304 28.2904 38.0246 28.3249C38.1393 28.367 38.3513 28.4803 38.5281 28.7225C38.7015 28.9602 38.7372 29.1797 38.7427 29.2659C38.7471 29.3361 38.7323 29.3084 38.7763 29.1457L34.661 28.0334ZM38.0706 32.5736H39.9733V28.3107H38.0706V32.5736ZM39.9733 32.5736C40.8911 32.5736 42.0019 32.3259 42.8181 31.4076L39.6319 28.5754C39.7588 28.4328 39.8988 28.3568 39.9898 28.324C40.0673 28.2961 40.0764 28.3107 39.9733 28.3107V32.5736ZM42.8094 31.4174C43.4047 30.756 43.7719 29.9212 44.0177 29.1019L39.9345 27.8769C39.8614 28.1206 39.7907 28.2943 39.7317 28.4124C39.672 28.5316 39.6358 28.571 39.6407 28.5656L42.8094 31.4174ZM44.0256 29.075L45.6278 23.467L41.5289 22.2959L39.9266 27.9038L44.0256 29.075ZM54.4652 40.5064V42.6379H55.8853L56.4322 41.3274L54.4652 40.5064ZM49.4581 40.5064L47.4093 39.9184L46.629 42.6379H49.4581V40.5064ZM52.7628 28.9901V26.8586H51.1569L50.714 28.4022L52.7628 28.9901ZM59.272 28.9901L61.239 29.8111L62.4714 26.8586H59.272V28.9901ZM54.4652 38.3749H49.4581V42.6379H54.4652V38.3749ZM51.507 41.0943L54.8116 29.578L50.714 28.4022L47.4093 39.9184L51.507 41.0943ZM52.7628 31.1216H59.272V26.8586H52.7628V31.1216ZM57.305 28.1691L52.4982 39.6853L56.4322 41.3274L61.239 29.8111L57.305 28.1691ZM81.7271 28.4894L83.7748 29.0815L83.7772 29.0728L81.7271 28.4894ZM78.4225 34.4478L77.0353 32.8295L77.0353 32.8295L78.4225 34.4478ZM64.8533 33.7969L66.6876 32.7113L64.8533 33.7969ZM64.4527 27.6382L62.4027 27.0548L62.4022 27.0563L64.4527 27.6382ZM69.9104 8.46113L67.8628 7.86904L67.8604 7.87768L69.9104 8.46113ZM73.2151 2.50271L74.6023 4.12107L73.2151 2.50271ZM86.7843 3.15363L84.95 4.23925L86.7843 3.15363ZM87.1848 9.31233L89.2349 9.89577L89.2354 9.89423L87.1848 9.31233ZM81.3266 8.36098L83.3759 8.94722L83.3801 8.9322L83.3842 8.91711L81.3266 8.36098ZM76.7701 7.00908L75.1858 5.58315L75.177 5.59299L76.7701 7.00908ZM76.0691 8.46113L74.0275 7.84865L74.0236 7.86174L74.0199 7.87489L76.0691 8.46113ZM70.311 28.5895L68.2617 28.0033L68.2574 28.0183L68.2533 28.0334L70.311 28.5895ZM74.8174 29.9915L73.233 28.5656L73.2243 28.5754L74.8174 29.9915ZM75.5684 28.4894L77.61 29.1019L77.614 29.0888L77.6177 29.0756L75.5684 28.4894ZM79.6795 27.8973C78.934 30.4755 77.9907 32.0106 77.0353 32.8295L79.8096 36.0662C81.6582 34.4817 82.918 32.0445 83.7747 29.0815L79.6795 27.8973ZM77.0353 32.8295C76.1081 33.6242 74.7891 34.1189 72.8646 34.1189V38.3818C75.5466 38.3818 77.9329 37.6748 79.8096 36.0662L77.0353 32.8295ZM72.8646 34.1189H70.2609V38.3818H72.8646V34.1189ZM70.2609 34.1189C68.0513 34.1189 67.1309 33.4602 66.6876 32.7113L63.019 34.8825C64.5118 37.4048 67.1964 38.3818 70.2609 38.3818V34.1189ZM66.6876 32.7113C66.1103 31.7359 65.9037 30.3327 66.5033 28.2201L62.4022 27.0563C61.5998 29.884 61.6602 32.5866 63.019 34.8825L66.6876 32.7113ZM66.5028 28.2216L71.9605 9.04457L67.8604 7.87768L62.4027 27.0548L66.5028 28.2216ZM71.9581 9.05321C72.7036 6.47503 73.6469 4.93995 74.6023 4.12107L71.828 0.884363C69.9794 2.46887 68.7196 4.90606 67.8628 7.86905L71.9581 9.05321ZM74.6023 4.12107C75.5295 3.32631 76.8485 2.83166 78.773 2.83166V-1.43132C76.091 -1.43132 73.7047 -0.724275 71.828 0.884363L74.6023 4.12107ZM78.773 2.83166H81.3766V-1.43132H78.773V2.83166ZM81.3766 2.83166C83.5862 2.83166 84.5067 3.49028 84.95 4.23925L88.6186 2.06802C87.1258 -0.454293 84.4411 -1.43132 81.3766 -1.43132V2.83166ZM84.95 4.23925C85.5272 5.21465 85.7338 6.6178 85.1343 8.73042L89.2354 9.89423C90.0378 7.06654 89.9774 4.3639 88.6186 2.06802L84.95 4.23925ZM85.1347 8.72888L79.677 27.906L83.7772 29.0728L89.2349 9.89577L85.1347 8.72888ZM83.3842 8.91711C83.6087 8.08649 83.7619 6.81295 82.9607 5.71507C82.1371 4.58643 80.8499 4.37687 79.9747 4.37687V8.63986C80.1207 8.63986 80.1149 8.66008 80.0207 8.62558C79.9059 8.58353 79.6939 8.47021 79.5171 8.22797C79.3437 7.99035 79.308 7.77082 79.3026 7.68462C79.2981 7.61442 79.3129 7.64208 79.2689 7.80486L83.3842 8.91711ZM79.9747 4.37687H78.072V8.63986H79.9747V4.37687ZM78.072 4.37687C77.0708 4.37687 75.992 4.68744 75.1858 5.58318L78.3545 8.43497C78.3168 8.47684 78.2717 8.51669 78.2212 8.55112C78.171 8.58536 78.124 8.60837 78.0861 8.62296C78.0116 8.65161 77.9939 8.63986 78.072 8.63986V4.37687ZM75.177 5.59299C74.6045 6.23704 74.2608 7.07106 74.0275 7.84865L78.1107 9.07361C78.1875 8.81779 78.2581 8.64012 78.3141 8.52407C78.3722 8.40383 78.3962 8.38811 78.3632 8.42516L75.177 5.59299ZM74.0199 7.87489L68.2617 28.0033L72.3603 29.1758L78.1184 9.04737L74.0199 7.87489ZM68.2533 28.0334C68.0289 28.864 67.8757 30.1376 68.6768 31.2355C69.5004 32.3641 70.7877 32.5736 71.6629 32.5736V28.3107C71.5169 28.3107 71.5227 28.2904 71.6169 28.3249C71.7317 28.367 71.9437 28.4803 72.1204 28.7225C72.2938 28.9602 72.3296 29.1797 72.335 29.2659C72.3394 29.3361 72.3247 29.3084 72.3687 29.1457L68.2533 28.0334ZM71.6629 32.5736H73.5656V28.3107H71.6629V32.5736ZM73.5656 32.5736C74.4834 32.5736 75.5942 32.3259 76.4105 31.4076L73.2243 28.5754C73.3511 28.4328 73.4911 28.3568 73.5822 28.324C73.6597 28.2961 73.6687 28.3107 73.5656 28.3107V32.5736ZM76.4017 31.4174C76.997 30.756 77.3642 29.9212 77.61 29.1019L73.5268 27.8769C73.4537 28.1206 73.3831 28.2943 73.324 28.4124C73.2644 28.5316 73.2282 28.571 73.233 28.5656L76.4017 31.4174ZM77.6177 29.0756L83.3759 8.94722L79.2773 7.77474L73.5191 27.9032L77.6177 29.0756ZM103.78 28.4894L105.827 29.0815L105.83 29.0728L103.78 28.4894ZM100.475 34.4478L99.0879 32.8295L99.0879 32.8295L100.475 34.4478ZM86.9059 33.7969L88.7402 32.7113L86.9059 33.7969ZM86.5054 27.6382L84.4553 27.0548L84.4548 27.0563L86.5054 27.6382ZM91.9631 8.46113L89.9154 7.86904L89.913 7.87768L91.9631 8.46113ZM95.2677 2.50271L96.6549 4.12107L95.2677 2.50271ZM108.837 3.15363L107.003 4.23925L108.837 3.15363ZM109.237 9.31233L111.288 9.89577L111.288 9.89423L109.237 9.31233ZM103.379 8.36098L105.428 8.94722L105.433 8.9322L105.437 8.91711L103.379 8.36098ZM98.8228 7.00908L97.2384 5.58315L97.2297 5.59299L98.8228 7.00908ZM98.1218 8.46113L96.0802 7.84865L96.0762 7.86174L96.0725 7.87489L98.1218 8.46113ZM92.3636 28.5895L90.3143 28.0033L90.31 28.0183L90.306 28.0334L92.3636 28.5895ZM96.87 29.9915L95.2856 28.5656L95.2769 28.5754L96.87 29.9915ZM97.6211 28.4894L99.6627 29.1019L99.6666 29.0888L99.6703 29.0756L97.6211 28.4894ZM101.732 27.8973C100.987 30.4755 100.043 32.0106 99.0879 32.8295L101.862 36.0662C103.711 34.4817 104.971 32.0445 105.827 29.0815L101.732 27.8973ZM99.0879 32.8295C98.1607 33.6242 96.8417 34.1189 94.9172 34.1189V38.3818C97.5992 38.3818 99.9855 37.6748 101.862 36.0662L99.0879 32.8295ZM94.9172 34.1189H92.3136V38.3818H94.9172V34.1189ZM92.3136 34.1189C90.104 34.1189 89.1835 33.4602 88.7402 32.7113L85.0716 34.8825C86.5644 37.4048 89.2491 38.3818 92.3136 38.3818V34.1189ZM88.7402 32.7113C88.163 31.7359 87.9564 30.3327 88.5559 28.2201L84.4548 27.0563C83.6524 29.884 83.7128 32.5866 85.0716 34.8825L88.7402 32.7113ZM88.5555 28.2216L94.0132 9.04457L89.913 7.87768L84.4553 27.0548L88.5555 28.2216ZM94.0107 9.05321C94.7562 6.47503 95.6995 4.93995 96.6549 4.12107L93.8806 0.884363C92.032 2.46887 90.7722 4.90606 89.9155 7.86905L94.0107 9.05321ZM96.6549 4.12107C97.5821 3.32631 98.9011 2.83166 100.826 2.83166V-1.43132C98.1436 -1.43132 95.7573 -0.724275 93.8806 0.884363L96.6549 4.12107ZM100.826 2.83166H103.429V-1.43132H100.826V2.83166ZM103.429 2.83166C105.639 2.83166 106.559 3.49028 107.003 4.23925L110.671 2.06802C109.178 -0.454293 106.494 -1.43132 103.429 -1.43132V2.83166ZM107.003 4.23925C107.58 5.21465 107.786 6.6178 107.187 8.73042L111.288 9.89423C112.09 7.06654 112.03 4.3639 110.671 2.06802L107.003 4.23925ZM107.187 8.72888L101.73 27.906L105.83 29.0728L111.288 9.89577L107.187 8.72888ZM105.437 8.91711C105.661 8.08649 105.815 6.81295 105.013 5.71507C104.19 4.58643 102.903 4.37687 102.027 4.37687V8.63986C102.173 8.63986 102.167 8.66008 102.073 8.62558C101.959 8.58353 101.747 8.47021 101.57 8.22797C101.396 7.99035 101.361 7.77082 101.355 7.68462C101.351 7.61442 101.366 7.64208 101.322 7.80486L105.437 8.91711ZM102.027 4.37687H100.125V8.63986H102.027V4.37687ZM100.125 4.37687C99.1234 4.37687 98.0446 4.68744 97.2384 5.58318L100.407 8.43497C100.369 8.47684 100.324 8.51669 100.274 8.55112C100.224 8.58536 100.177 8.60837 100.139 8.62296C100.064 8.65161 100.047 8.63986 100.125 8.63986V4.37687ZM97.2297 5.59299C96.6572 6.23704 96.3134 7.07106 96.0802 7.84865L100.163 9.07361C100.24 8.81779 100.311 8.64012 100.367 8.52407C100.425 8.40383 100.449 8.38811 100.416 8.42516L97.2297 5.59299ZM96.0725 7.87489L90.3143 28.0033L94.4129 29.1758L100.171 9.04737L96.0725 7.87489ZM90.306 28.0334C90.0815 28.864 89.9283 30.1376 90.7295 31.2355C91.5531 32.3641 92.8403 32.5736 93.7155 32.5736V28.3107C93.5695 28.3107 93.5753 28.2904 93.6695 28.3249C93.7843 28.367 93.9963 28.4803 94.1731 28.7225C94.3465 28.9602 94.3822 29.1797 94.3876 29.2659C94.3921 29.3361 94.3773 29.3084 94.4213 29.1457L90.306 28.0334ZM93.7155 32.5736H95.6182V28.3107H93.7155V32.5736ZM95.6182 32.5736C96.5361 32.5736 97.6468 32.3259 98.4631 31.4076L95.2769 28.5754C95.4037 28.4328 95.5437 28.3568 95.6348 28.324C95.7123 28.2961 95.7214 28.3107 95.6182 28.3107V32.5736ZM98.4543 31.4174C99.0496 30.756 99.4168 29.9212 99.6627 29.1019L95.5795 27.8769C95.5063 28.1206 95.4357 28.2943 95.3766 28.4124C95.317 28.5316 95.2808 28.571 95.2857 28.5656L98.4543 31.4174ZM99.6703 29.0756L105.428 8.94722L101.33 7.77474L95.5718 27.9032L99.6703 29.0756ZM110.11 40.5064V42.6379H111.53L112.077 41.3274L110.11 40.5064ZM105.103 40.5064L103.054 39.9184L102.274 42.6379H105.103V40.5064ZM108.408 28.9901V26.8586H106.802L106.359 28.4022L108.408 28.9901ZM114.917 28.9901L116.884 29.8111L118.116 26.8586H114.917V28.9901ZM110.11 38.3749H105.103V42.6379H110.11V38.3749ZM107.152 41.0943L110.457 29.578L106.359 28.4022L103.054 39.9184L107.152 41.0943ZM108.408 31.1216H114.917V26.8586H108.408V31.1216ZM112.95 28.1691L108.143 39.6853L112.077 41.3274L116.884 29.8111L112.95 28.1691ZM137.372 28.4894L139.42 29.0815L139.422 29.0728L137.372 28.4894ZM134.067 34.4478L132.68 32.8295V32.8295L134.067 34.4478ZM120.498 33.7969L122.333 32.7113L120.498 33.7969ZM120.098 27.6382L118.048 27.0548L118.047 27.0563L120.098 27.6382ZM125.555 8.46113L123.508 7.86904L123.505 7.87768L125.555 8.46113ZM128.86 2.50271L130.247 4.12107L128.86 2.50271ZM142.429 3.15363L140.595 4.23925L142.429 3.15363ZM142.83 9.31233L144.88 9.89577L144.88 9.89423L142.83 9.31233ZM136.972 8.36098L139.021 8.94722L139.025 8.9322L139.029 8.91711L136.972 8.36098ZM132.415 7.00908L130.831 5.58315L130.822 5.59299L132.415 7.00908ZM131.714 8.46113L129.673 7.84865L129.669 7.86174L129.665 7.87489L131.714 8.46113ZM125.956 28.5895L123.907 28.0033L123.902 28.0183L123.898 28.0334L125.956 28.5895ZM130.462 29.9915L128.878 28.5656L128.869 28.5754L130.462 29.9915ZM131.213 28.4894L133.255 29.1019L133.259 29.0888L133.263 29.0756L131.213 28.4894ZM135.324 27.8973C134.579 30.4755 133.636 32.0106 132.68 32.8295L135.455 36.0662C137.303 34.4817 138.563 32.0445 139.42 29.0815L135.324 27.8973ZM132.68 32.8295C131.753 33.6242 130.434 34.1189 128.51 34.1189V38.3818C131.192 38.3818 133.578 37.6748 135.455 36.0662L132.68 32.8295ZM128.51 34.1189H125.906V38.3818H128.51V34.1189ZM125.906 34.1189C123.696 34.1189 122.776 33.4602 122.333 32.7113L118.664 34.8825C120.157 37.4048 122.841 38.3818 125.906 38.3818V34.1189ZM122.333 32.7113C121.755 31.7359 121.549 30.3327 122.148 28.2201L118.047 27.0563C117.245 29.884 117.305 32.5866 118.664 34.8825L122.333 32.7113ZM122.148 28.2216L127.605 9.04457L123.505 7.87768L118.048 27.0548L122.148 28.2216ZM127.603 9.05321C128.349 6.47503 129.292 4.93995 130.247 4.12107L127.473 0.884363C125.624 2.46887 124.365 4.90606 123.508 7.86905L127.603 9.05321ZM130.247 4.12107C131.174 3.32631 132.493 2.83166 134.418 2.83166V-1.43132C131.736 -1.43132 129.35 -0.724275 127.473 0.884363L130.247 4.12107ZM134.418 2.83166H137.022V-1.43132H134.418V2.83166ZM137.022 2.83166C139.231 2.83166 140.152 3.49028 140.595 4.23925L144.264 2.06802C142.771 -0.454293 140.086 -1.43132 137.022 -1.43132V2.83166ZM140.595 4.23925C141.172 5.21465 141.379 6.6178 140.779 8.73042L144.88 9.89423C145.683 7.06654 145.622 4.3639 144.264 2.06802L140.595 4.23925ZM140.78 8.72888L135.322 27.906L139.422 29.0728L144.88 9.89577L140.78 8.72888ZM139.029 8.91711C139.254 8.08649 139.407 6.81295 138.606 5.71507C137.782 4.58643 136.495 4.37687 135.62 4.37687V8.63986C135.766 8.63986 135.76 8.66008 135.666 8.62558C135.551 8.58353 135.339 8.47021 135.162 8.22797C134.989 7.99035 134.953 7.77082 134.948 7.68462C134.943 7.61442 134.958 7.64208 134.914 7.80486L139.029 8.91711ZM135.62 4.37687H133.717V8.63986H135.62V4.37687ZM133.717 4.37687C132.716 4.37687 131.637 4.68744 130.831 5.58318L133.999 8.43497C133.962 8.47684 133.917 8.51669 133.866 8.55112C133.816 8.58536 133.769 8.60837 133.731 8.62296C133.657 8.65161 133.639 8.63986 133.717 8.63986V4.37687ZM130.822 5.59299C130.249 6.23704 129.906 7.07106 129.673 7.84865L133.756 9.07361C133.832 8.81779 133.903 8.64012 133.959 8.52407C134.017 8.40383 134.041 8.38811 134.008 8.42516L130.822 5.59299ZM129.665 7.87489L123.907 28.0033L128.005 29.1758L133.763 9.04737L129.665 7.87489ZM123.898 28.0334C123.674 28.864 123.521 30.1376 124.322 31.2355C125.145 32.3641 126.433 32.5736 127.308 32.5736V28.3107C127.162 28.3107 127.168 28.2904 127.262 28.3249C127.377 28.367 127.589 28.4803 127.765 28.7225C127.939 28.9602 127.975 29.1797 127.98 29.2659C127.984 29.3361 127.97 29.3084 128.014 29.1457L123.898 28.0334ZM127.308 32.5736H129.211V28.3107H127.308V32.5736ZM129.211 32.5736C130.128 32.5736 131.239 32.3259 132.055 31.4076L128.869 28.5754C128.996 28.4328 129.136 28.3568 129.227 28.324C129.305 28.2961 129.314 28.3107 129.211 28.3107V32.5736ZM132.047 31.4174C132.642 30.756 133.009 29.9212 133.255 29.1019L129.172 27.8769C129.099 28.1206 129.028 28.2943 128.969 28.4124C128.909 28.5316 128.873 28.571 128.878 28.5656L132.047 31.4174ZM133.263 29.0756L139.021 8.94722L134.922 7.77474L129.164 27.9032L133.263 29.0756ZM159.425 28.4894L161.472 29.0815L161.475 29.0728L159.425 28.4894ZM156.12 34.4478L154.733 32.8295V32.8295L156.12 34.4478ZM142.551 33.7969L144.385 32.7113L142.551 33.7969ZM142.15 27.6382L140.1 27.0548L140.1 27.0563L142.15 27.6382ZM147.608 8.46113L145.56 7.86904L145.558 7.87768L147.608 8.46113ZM150.913 2.50271L152.3 4.12107L150.913 2.50271ZM164.482 3.15363L162.648 4.23925L164.482 3.15363ZM164.882 9.31233L166.932 9.89577L166.933 9.89423L164.882 9.31233ZM159.024 8.36098L161.073 8.94722L161.078 8.9322L161.082 8.91711L159.024 8.36098ZM154.468 7.00908L152.883 5.58315L152.875 5.59299L154.468 7.00908ZM153.767 8.46113L151.725 7.84865L151.721 7.86174L151.717 7.87489L153.767 8.46113ZM148.009 28.5895L145.959 28.0033L145.955 28.0183L145.951 28.0334L148.009 28.5895ZM152.515 29.9915L150.931 28.5656L150.922 28.5754L152.515 29.9915ZM153.266 28.4894L155.308 29.1019L155.312 29.0888L155.315 29.0756L153.266 28.4894ZM157.377 27.8973C156.632 30.4755 155.688 32.0106 154.733 32.8295L157.507 36.0662C159.356 34.4817 160.616 32.0445 161.472 29.0815L157.377 27.8973ZM154.733 32.8295C153.806 33.6242 152.487 34.1189 150.562 34.1189V38.3818C153.244 38.3818 155.63 37.6748 157.507 36.0662L154.733 32.8295ZM150.562 34.1189H147.959V38.3818H150.562V34.1189ZM147.959 34.1189C145.749 34.1189 144.828 33.4602 144.385 32.7113L140.717 34.8825C142.209 37.4048 144.894 38.3818 147.959 38.3818V34.1189ZM144.385 32.7113C143.808 31.7359 143.601 30.3327 144.201 28.2201L140.1 27.0563C139.297 29.884 139.358 32.5866 140.717 34.8825L144.385 32.7113ZM144.2 28.2216L149.658 9.04457L145.558 7.87768L140.1 27.0548L144.2 28.2216ZM149.656 9.05321C150.401 6.47503 151.344 4.93995 152.3 4.12107L149.526 0.884363C147.677 2.46887 146.417 4.90606 145.56 7.86905L149.656 9.05321ZM152.3 4.12107C153.227 3.32631 154.546 2.83166 156.471 2.83166V-1.43132C153.789 -1.43132 151.402 -0.724275 149.526 0.884363L152.3 4.12107ZM156.471 2.83166H159.074V-1.43132H156.471V2.83166ZM159.074 2.83166C161.284 2.83166 162.204 3.49028 162.648 4.23925L166.316 2.06802C164.823 -0.454293 162.139 -1.43132 159.074 -1.43132V2.83166ZM162.648 4.23925C163.225 5.21465 163.431 6.6178 162.832 8.73042L166.933 9.89423C167.735 7.06654 167.675 4.3639 166.316 2.06802L162.648 4.23925ZM162.832 8.72888L157.375 27.906L161.475 29.0728L166.932 9.89577L162.832 8.72888ZM161.082 8.91711C161.306 8.08649 161.459 6.81295 160.658 5.71507C159.835 4.58643 158.548 4.37687 157.672 4.37687V8.63986C157.818 8.63986 157.812 8.66008 157.718 8.62558C157.603 8.58353 157.391 8.47021 157.215 8.22797C157.041 7.99035 157.006 7.77082 157 7.68462C156.996 7.61442 157.01 7.64208 156.966 7.80486L161.082 8.91711ZM157.672 4.37687H155.77V8.63986H157.672V4.37687ZM155.77 4.37687C154.768 4.37687 153.69 4.68744 152.883 5.58318L156.052 8.43497C156.014 8.47684 155.969 8.51669 155.919 8.55112C155.869 8.58536 155.822 8.60837 155.784 8.62296C155.709 8.65161 155.691 8.63986 155.77 8.63986V4.37687ZM152.875 5.59299C152.302 6.23704 151.958 7.07106 151.725 7.84865L155.808 9.07361C155.885 8.81779 155.956 8.64012 156.012 8.52407C156.07 8.40383 156.094 8.38811 156.061 8.42516L152.875 5.59299ZM151.717 7.87489L145.959 28.0033L150.058 29.1758L155.816 9.04737L151.717 7.87489ZM145.951 28.0334C145.726 28.864 145.573 30.1376 146.374 31.2355C147.198 32.3641 148.485 32.5736 149.361 32.5736V28.3107C149.214 28.3107 149.22 28.2904 149.314 28.3249C149.429 28.367 149.641 28.4803 149.818 28.7225C149.991 28.9602 150.027 29.1797 150.033 29.2659C150.037 29.3361 150.022 29.3084 150.066 29.1457L145.951 28.0334ZM149.361 32.5736H151.263V28.3107H149.361V32.5736ZM151.263 32.5736C152.181 32.5736 153.292 32.3259 154.108 31.4076L150.922 28.5754C151.049 28.4328 151.189 28.3568 151.28 28.324C151.357 28.2961 151.366 28.3107 151.263 28.3107V32.5736ZM154.099 31.4174C154.695 30.756 155.062 29.9212 155.308 29.1019L151.224 27.8769C151.151 28.1206 151.081 28.2943 151.022 28.4124C150.962 28.5316 150.926 28.571 150.931 28.5656L154.099 31.4174ZM155.315 29.0756L161.073 8.94722L156.975 7.77474L151.217 27.9032L155.315 29.0756ZM181.477 28.4894L183.525 29.0815L183.527 29.0728L181.477 28.4894ZM178.173 34.4478L176.785 32.8295V32.8295L178.173 34.4478ZM164.604 33.7969L166.438 32.7113L164.604 33.7969ZM164.203 27.6382L162.153 27.0548L162.152 27.0563L164.203 27.6382ZM169.661 8.46113L167.613 7.86904L167.611 7.87768L169.661 8.46113ZM172.965 2.50271L174.352 4.12107L172.965 2.50271ZM186.534 3.15363L184.7 4.23925L186.534 3.15363ZM186.935 9.31233L188.985 9.89577L188.986 9.89423L186.935 9.31233ZM181.077 8.36098L183.126 8.94722L183.13 8.9322L183.134 8.91711L181.077 8.36098ZM176.52 7.00908L174.936 5.58315L174.927 5.59299L176.52 7.00908ZM175.819 8.46113L173.778 7.84865L173.774 7.86174L173.77 7.87489L175.819 8.46113ZM170.061 28.5895L168.012 28.0033L168.008 28.0183L168.004 28.0334L170.061 28.5895ZM174.568 29.9915L172.983 28.5656L172.974 28.5754L174.568 29.9915ZM175.319 28.4894L177.36 29.1019L177.364 29.0888L177.368 29.0756L175.319 28.4894ZM179.43 27.8973C178.684 30.4755 177.741 32.0106 176.785 32.8295L179.56 36.0662C181.408 34.4817 182.668 32.0445 183.525 29.0815L179.43 27.8973ZM176.785 32.8295C175.858 33.6242 174.539 34.1189 172.615 34.1189V38.3818C175.297 38.3818 177.683 37.6748 179.56 36.0662L176.785 32.8295ZM172.615 34.1189H170.011V38.3818H172.615V34.1189ZM170.011 34.1189C167.802 34.1189 166.881 33.4602 166.438 32.7113L162.769 34.8825C164.262 37.4048 166.947 38.3818 170.011 38.3818V34.1189ZM166.438 32.7113C165.861 31.7359 165.654 30.3327 166.253 28.2201L162.152 27.0563C161.35 29.884 161.41 32.5866 162.769 34.8825L166.438 32.7113ZM166.253 28.2216L171.711 9.04457L167.611 7.87768L162.153 27.0548L166.253 28.2216ZM171.708 9.05321C172.454 6.47503 173.397 4.93995 174.352 4.12107L171.578 0.884363C169.73 2.46887 168.47 4.90606 167.613 7.86905L171.708 9.05321ZM174.352 4.12107C175.28 3.32631 176.599 2.83166 178.523 2.83166V-1.43132C175.841 -1.43132 173.455 -0.724275 171.578 0.884363L174.352 4.12107ZM178.523 2.83166H181.127V-1.43132H178.523V2.83166ZM181.127 2.83166C183.336 2.83166 184.257 3.49028 184.7 4.23925L188.369 2.06802C186.876 -0.454293 184.191 -1.43132 181.127 -1.43132V2.83166ZM184.7 4.23925C185.277 5.21465 185.484 6.6178 184.884 8.73042L188.986 9.89423C189.788 7.06654 189.728 4.3639 188.369 2.06802L184.7 4.23925ZM184.885 8.72888L179.427 27.906L183.527 29.0728L188.985 9.89577L184.885 8.72888ZM183.134 8.91711C183.359 8.08649 183.512 6.81295 182.711 5.71507C181.887 4.58643 180.6 4.37687 179.725 4.37687V8.63986C179.871 8.63986 179.865 8.66008 179.771 8.62558C179.656 8.58353 179.444 8.47021 179.267 8.22797C179.094 7.99035 179.058 7.77082 179.053 7.68462C179.048 7.61442 179.063 7.64208 179.019 7.80486L183.134 8.91711ZM179.725 4.37687H177.822V8.63986H179.725V4.37687ZM177.822 4.37687C176.821 4.37687 175.742 4.68744 174.936 5.58318L178.105 8.43497C178.067 8.47684 178.022 8.51669 177.971 8.55112C177.921 8.58536 177.874 8.60837 177.836 8.62296C177.762 8.65161 177.744 8.63986 177.822 8.63986V4.37687ZM174.927 5.59299C174.355 6.23704 174.011 7.07106 173.778 7.84865L177.861 9.07361C177.938 8.81779 178.008 8.64012 178.064 8.52407C178.122 8.40383 178.146 8.38811 178.113 8.42516L174.927 5.59299ZM173.77 7.87489L168.012 28.0033L172.11 29.1758L177.869 9.04737L173.77 7.87489ZM168.004 28.0334C167.779 28.864 167.626 30.1376 168.427 31.2355C169.251 32.3641 170.538 32.5736 171.413 32.5736V28.3107C171.267 28.3107 171.273 28.2904 171.367 28.3249C171.482 28.367 171.694 28.4803 171.871 28.7225C172.044 28.9602 172.08 29.1797 172.085 29.2659C172.09 29.3361 172.075 29.3084 172.119 29.1457L168.004 28.0334ZM171.413 32.5736H173.316V28.3107H171.413V32.5736ZM173.316 32.5736C174.234 32.5736 175.344 32.3259 176.161 31.4076L172.974 28.5754C173.101 28.4328 173.241 28.3568 173.332 28.324C173.41 28.2961 173.419 28.3107 173.316 28.3107V32.5736ZM176.152 31.4174C176.747 30.756 177.114 29.9212 177.36 29.1019L173.277 27.8769C173.204 28.1206 173.133 28.2943 173.074 28.4124C173.015 28.5316 172.978 28.571 172.983 28.5656L176.152 31.4174ZM177.368 29.0756L183.126 8.94722L179.027 7.77474L173.269 27.9032L177.368 29.0756Z" fill="white" mask="url(#path-1-outside-1_562_1927)"/>
</svg>
