<svg width="1920" height="1255" viewBox="0 0 1920 1255" fill="none" xmlns="http://www.w3.org/2000/svg">
<mask id="mask0_562_1707" style="mask-type:alpha" maskUnits="userSpaceOnUse" x="0" y="0" width="1920" height="1255">
<rect y="0.96875" width="1919.65" height="1253.24" fill="#D9D9D9"/>
</mask>
<g mask="url(#mask0_562_1707)">
<path d="M-30.245 1084.09L-76.3735 1047.18L-1.89196 861.932L50.9327 968.52L102.25 844.744L128.856 906.974L217.702 870.85L114.229 958.073L100.179 905.942L85.352 984.939L26.5666 1034.36L-6.32081 903.02L-30.245 1084.09Z" fill="#008A0E"/>
<path d="M176.568 -347.346L90.503 -11.9477L436.698 -18.8678L120.813 122.961L342.073 389.313L34.2348 230.773L-36.0542 569.828L-104.036 230.303L-412.945 386.746L-189.879 121.905L-354.16 76.5629L-158.653 -12.7947L-121.992 -182.072L-33.8709 -72.3647L176.568 -347.346Z" fill="#E72687"/>
<path d="M45.9004 550.915L58.554 516.765L181.403 524.43L129.272 576.01L211.655 582.04L180.398 609.676L218.764 654.663L147.659 611.024L175.441 592.694L126.338 599.335L86.0198 574.517L156.5 529.806L45.9004 550.915Z" fill="#FF682F"/>
<path d="M1721.61 1608.42L1804.57 1272.24L1458.46 1282.36L1773.02 1137.61L1549.31 873.318L1858.6 1029.01L1925.75 689.317L1996.87 1028.2L2304.32 868.909L2083.71 1135.8L2248.4 1179.62L2053.73 1270.78L2018.63 1440.39L1929.5 1331.5L1721.61 1608.42Z" fill="#E72687"/>
<path d="M1806.97 116.335L1842.86 126.425L1845.19 252.414L1788.25 203.481L1788.91 288.042L1758.12 258.43L1715.39 301.296L1754.04 225.135L1775.04 251.97L1764.21 202.413L1786.2 159.223L1837.65 227.447L1806.97 116.335Z" fill="#130655"/>
<path d="M1936.5 457.391L1953.33 492.671L1855.56 581.514L1854.83 502.808L1788.58 561.72L1790.68 516.989L1727.36 512.882L1814.13 490.777L1807.46 525.873L1839.07 483.104L1888.33 470.626L1870.04 558.323L1936.5 457.391Z" fill="white"/>
</g>
</svg>
