<svg width="375" height="841" viewBox="0 0 375 841" fill="none" xmlns="http://www.w3.org/2000/svg">
<mask id="mask0_562_2185" style="mask-type:alpha" maskUnits="userSpaceOnUse" x="0" y="0" width="375" height="841">
<rect width="375" height="841" fill="#F8FF13"/>
</mask>
<g mask="url(#mask0_562_2185)">
<path d="M-21.0843 864.61L-53.4067 838.749L-1.21724 708.942L35.7971 783.628L71.7553 696.898L90.3982 740.503L152.653 715.191L80.1487 776.308L70.3044 739.78L59.9148 795.134L18.7238 829.762L-4.32054 737.733L-21.0843 864.61Z" fill="#008A0E"/>
<path d="M6.69661 -99.5624L-18.5434 -1.20111L82.9843 -3.23056L-9.65451 38.3632L55.2337 116.475L-35.045 69.9808L-55.6585 169.415L-75.5954 69.843L-166.188 115.723L-100.77 38.0535L-148.948 24.7561L-91.6126 -1.44951L-80.8612 -51.0929L-55.0182 -18.9195L6.69661 -99.5624Z" fill="#E72687"/>
<path d="M-8.7106 177.286L-4.62738 166.266L35.0153 168.739L18.193 185.384L44.7773 187.33L34.6908 196.248L47.0713 210.765L24.1261 196.683L33.0914 190.768L17.246 192.911L4.23566 184.902L26.9793 170.474L-8.7106 177.286Z" fill="#FF682F"/>
<path d="M289.172 942.489L313.502 843.899L211.997 846.866L304.248 804.418L238.641 726.909L329.345 772.567L349.039 672.947L369.895 772.331L460.06 725.616L395.362 803.886L443.661 816.738L386.57 843.472L376.278 893.213L350.139 861.279L289.172 942.489Z" fill="#E72687"/>
<path d="M385.985 34.1615L404.409 39.341L405.604 104.011L376.377 78.8938L376.712 122.3L360.912 107.1L338.976 129.103L358.817 90.009L369.596 103.783L364.035 78.3459L375.325 56.1759L401.732 91.1958L385.985 34.1615Z" fill="#130655"/>
<rect x="208.664" y="104.848" width="149.296" height="149.296" transform="rotate(-145.145 208.664 104.848)"/>
<rect x="328.859" y="723" width="118.785" height="118.785" transform="rotate(35.3338 328.859 723)"/>
<path d="M391.193 154.931L396.128 165.277L367.454 191.332L367.242 168.25L347.812 185.527L348.428 172.409L329.857 171.205L355.304 164.722L353.349 175.014L362.619 162.472L377.065 158.812L371.702 184.531L391.193 154.931Z" fill="white"/>
</g>
</svg>
