<svg width="112" height="7" viewBox="0 0 112 7" fill="none" xmlns="http://www.w3.org/2000/svg">
<path d="M0.120585 1.82339V0.603456H5.34887V1.82339H3.38827V6.70312H2.08119V1.82339H0.120585ZM6.00343 6.70312V0.603456H10.5782V1.82339H7.3105V3.04332H9.92465V4.17612H7.3105V5.48319H10.5782V6.70312H6.00343ZM11.4921 6.70312V0.603456H14.3677C15.0938 0.603456 15.6747 0.800969 16.1104 1.196C16.5461 1.58521 16.764 2.07028 16.764 2.6512C16.764 3.10432 16.6362 3.49063 16.3806 3.81014C16.125 4.12965 15.788 4.36782 15.3698 4.52467L16.764 6.70312H15.2826L14.0191 4.69895H12.7992V6.70312H11.4921ZM12.7992 3.47901H14.3241C14.6843 3.47901 14.9544 3.4064 15.1345 3.26117C15.3204 3.11013 15.4133 2.90681 15.4133 2.6512C15.4133 2.3956 15.3204 2.19518 15.1345 2.04995C14.9544 1.89891 14.6843 1.82339 14.3241 1.82339H12.7992V3.47901ZM17.636 6.70312V0.603456H19.5966L21.078 4.08898H21.2958L22.7772 0.603456H24.7378V6.70312H23.4307V2.82548L23.5179 2.04123H23.4307L22.0365 5.30891H20.3373L18.9431 2.04123H18.856L18.9431 2.82548V6.70312H17.636ZM25.4822 4.78609H26.8328C26.8851 4.96036 26.9694 5.11431 27.0855 5.24792C27.3412 5.55 27.7217 5.70104 28.2271 5.70104C28.9823 5.70104 29.3599 5.46867 29.3599 5.00393C29.3599 4.88775 29.3192 4.78318 29.2379 4.69023C29.1623 4.59729 29.0403 4.51596 28.8719 4.44625C28.7092 4.37654 28.5495 4.32135 28.3926 4.28068C28.2416 4.23421 28.0441 4.17902 27.8001 4.11512C27.7652 4.10931 27.7362 4.1035 27.7129 4.09769C27.6955 4.09189 27.6694 4.08608 27.6345 4.08027C27.6055 4.06865 27.5793 4.05994 27.5561 4.05413C26.3478 3.76367 25.7436 3.17984 25.7436 2.30265C25.7436 1.77982 25.9557 1.33832 26.3797 0.97815C26.8096 0.61217 27.3818 0.42918 28.0963 0.42918C29.0258 0.42918 29.7287 0.742877 30.2051 1.37027C30.4026 1.64911 30.542 1.95991 30.6234 2.30265H29.2727C29.2379 2.18066 29.1711 2.06447 29.0723 1.9541C28.8515 1.72173 28.5262 1.60554 28.0963 1.60554C27.7652 1.60554 27.5154 1.66945 27.347 1.79725C27.1785 1.91924 27.0943 2.07319 27.0943 2.25908C27.0943 2.59601 27.4777 2.85162 28.2445 3.0259C28.442 3.07237 28.564 3.10142 28.6105 3.11303C28.6627 3.12465 28.7818 3.1566 28.9677 3.20889C29.1594 3.26117 29.2872 3.30474 29.3511 3.33959C29.4208 3.36864 29.5341 3.41802 29.691 3.48773C29.8536 3.55163 29.9669 3.61263 30.0308 3.67072C30.1005 3.72881 30.1877 3.80723 30.2922 3.90599C30.4026 3.99894 30.481 4.09479 30.5275 4.19355C30.574 4.2923 30.6146 4.40849 30.6495 4.5421C30.6902 4.6699 30.7105 4.80932 30.7105 4.96036C30.7105 5.50062 30.4926 5.95664 30.057 6.32843C29.6213 6.69441 29.0113 6.8774 28.2271 6.8774C27.193 6.8774 26.4349 6.52885 25.9527 5.83174C25.7262 5.52966 25.5693 5.18111 25.4822 4.78609ZM33.2389 6.70312L34.8509 0.603456H37.5958L39.2078 6.70312H37.8572L37.5086 5.35248H34.9381L34.5895 6.70312H33.2389ZM35.243 4.13255H37.2036L36.5937 1.82339H35.853L35.243 4.13255ZM39.8205 6.70312V0.603456H41.5197L43.916 4.91679H44.0031L43.916 4.17612V0.603456H45.2231V6.70312H43.5239L41.1276 2.38979H41.0404L41.1276 3.13046V6.70312H39.8205ZM46.3559 6.70312V0.603456H48.5779C49.5422 0.603456 50.3352 0.896821 50.9568 1.48355C51.5784 2.07028 51.8891 2.79353 51.8891 3.65329C51.8891 4.51305 51.5784 5.2363 50.9568 5.82303C50.3352 6.40976 49.5422 6.70312 48.5779 6.70312H46.3559ZM47.6629 5.48319H48.5779C49.1821 5.48319 49.6584 5.31763 50.007 4.9865C50.3613 4.64957 50.5385 4.20517 50.5385 3.65329C50.5385 3.10142 50.3613 2.65992 50.007 2.32879C49.6584 1.99186 49.1821 1.82339 48.5779 1.82339H47.6629V5.48319ZM55.8855 5.96245C55.2581 5.34667 54.9444 4.57695 54.9444 3.65329C54.9444 2.72963 55.2581 1.96281 55.8855 1.35284C56.5187 0.737068 57.3233 0.42918 58.2992 0.42918C59.3972 0.42918 60.2395 0.815492 60.8262 1.58812C61.0935 1.93086 61.2823 2.31427 61.3926 2.73834H60.042C59.9665 2.54083 59.8503 2.36074 59.6934 2.19808C59.3275 1.8321 58.8627 1.64911 58.2992 1.64911C57.7299 1.64911 57.2594 1.83791 56.8876 2.21551C56.5216 2.5873 56.3386 3.06656 56.3386 3.65329C56.3386 4.26326 56.5158 4.75123 56.8702 5.11721C57.2303 5.47738 57.7067 5.65747 58.2992 5.65747C58.8918 5.65747 59.3681 5.45415 59.7283 5.0475C59.891 4.8558 60.01 4.65247 60.0856 4.43753H61.4362C61.3026 4.89646 61.1022 5.30311 60.835 5.65747C60.2076 6.47076 59.3623 6.8774 58.2992 6.8774C57.3233 6.8774 56.5187 6.57242 55.8855 5.96245ZM62.9574 5.94502C62.3184 5.31763 61.9989 4.55372 61.9989 3.65329C61.9989 2.75286 62.3184 1.99186 62.9574 1.37027C63.6022 0.742877 64.401 0.42918 65.3537 0.42918C66.3064 0.42918 67.1023 0.742877 67.7413 1.37027C68.3861 1.99186 68.7085 2.75286 68.7085 3.65329C68.7085 4.55372 68.3861 5.31763 67.7413 5.94502C67.1023 6.56661 66.3064 6.8774 65.3537 6.8774C64.401 6.8774 63.6022 6.56661 62.9574 5.94502ZM63.942 2.21551C63.5761 2.5873 63.3931 3.06656 63.3931 3.65329C63.3931 4.24002 63.5761 4.72218 63.942 5.09978C64.3138 5.47157 64.7844 5.65747 65.3537 5.65747C65.923 5.65747 66.3906 5.47157 66.7566 5.09978C67.1284 4.72218 67.3143 4.24002 67.3143 3.65329C67.3143 3.06656 67.1284 2.5873 66.7566 2.21551C66.3906 1.83791 65.923 1.64911 65.3537 1.64911C64.7844 1.64911 64.3138 1.83791 63.942 2.21551ZM69.5785 6.70312V0.603456H71.2777L73.674 4.91679H73.7612L73.674 4.17612V0.603456H74.9811V6.70312H73.2819L70.8856 2.38979H70.7985L70.8856 3.13046V6.70312H69.5785ZM76.1139 6.70312V0.603456H78.3359C79.3002 0.603456 80.0932 0.896821 80.7148 1.48355C81.3364 2.07028 81.6472 2.79353 81.6472 3.65329C81.6472 4.51305 81.3364 5.2363 80.7148 5.82303C80.0932 6.40976 79.3002 6.70312 78.3359 6.70312H76.1139ZM77.421 5.48319H78.3359C78.9401 5.48319 79.4164 5.31763 79.765 4.9865C80.1193 4.64957 80.2965 4.20517 80.2965 3.65329C80.2965 3.10142 80.1193 2.65992 79.765 2.32879C79.4164 1.99186 78.9401 1.82339 78.3359 1.82339H77.421V5.48319ZM82.5216 6.70312V0.603456H83.8287V6.70312H82.5216ZM84.4846 1.82339V0.603456H89.7129V1.82339H87.7523V6.70312H86.4452V1.82339H84.4846ZM90.3674 6.70312V0.603456H91.6745V6.70312H90.3674ZM93.5068 5.94502C92.8678 5.31763 92.5483 4.55372 92.5483 3.65329C92.5483 2.75286 92.8678 1.99186 93.5068 1.37027C94.1516 0.742877 94.9504 0.42918 95.9031 0.42918C96.8558 0.42918 97.6517 0.742877 98.2907 1.37027C98.9355 1.99186 99.2579 2.75286 99.2579 3.65329C99.2579 4.55372 98.9355 5.31763 98.2907 5.94502C97.6517 6.56661 96.8558 6.8774 95.9031 6.8774C94.9504 6.8774 94.1516 6.56661 93.5068 5.94502ZM94.4914 2.21551C94.1255 2.5873 93.9425 3.06656 93.9425 3.65329C93.9425 4.24002 94.1255 4.72218 94.4914 5.09978C94.8632 5.47157 95.3338 5.65747 95.9031 5.65747C96.4724 5.65747 96.94 5.47157 97.306 5.09978C97.6778 4.72218 97.8637 4.24002 97.8637 3.65329C97.8637 3.06656 97.6778 2.5873 97.306 2.21551C96.94 1.83791 96.4724 1.64911 95.9031 1.64911C95.3338 1.64911 94.8632 1.83791 94.4914 2.21551ZM100.128 6.70312V0.603456H101.827L104.223 4.91679H104.311L104.223 4.17612V0.603456H105.53V6.70312H103.831L101.435 2.38979H101.348L101.435 3.13046V6.70312H100.128ZM106.315 4.78609H107.665C107.718 4.96036 107.802 5.11431 107.918 5.24792C108.174 5.55 108.554 5.70104 109.06 5.70104C109.815 5.70104 110.192 5.46867 110.192 5.00393C110.192 4.88775 110.152 4.78318 110.07 4.69023C109.995 4.59729 109.873 4.51596 109.704 4.44625C109.542 4.37654 109.382 4.32135 109.225 4.28068C109.074 4.23421 108.877 4.17902 108.633 4.11512C108.598 4.10931 108.569 4.1035 108.545 4.09769C108.528 4.09189 108.502 4.08608 108.467 4.08027C108.438 4.06865 108.412 4.05994 108.389 4.05413C107.18 3.76367 106.576 3.17984 106.576 2.30265C106.576 1.77982 106.788 1.33832 107.212 0.97815C107.642 0.61217 108.214 0.42918 108.929 0.42918C109.858 0.42918 110.561 0.742877 111.038 1.37027C111.235 1.64911 111.375 1.95991 111.456 2.30265H110.105C110.07 2.18066 110.004 2.06447 109.905 1.9541C109.684 1.72173 109.359 1.60554 108.929 1.60554C108.598 1.60554 108.348 1.66945 108.179 1.79725C108.011 1.91924 107.927 2.07319 107.927 2.25908C107.927 2.59601 108.31 2.85162 109.077 3.0259C109.275 3.07237 109.397 3.10142 109.443 3.11303C109.495 3.12465 109.614 3.1566 109.8 3.20889C109.992 3.26117 110.12 3.30474 110.184 3.33959C110.253 3.36864 110.367 3.41802 110.524 3.48773C110.686 3.55163 110.799 3.61263 110.863 3.67072C110.933 3.72881 111.02 3.80723 111.125 3.90599C111.235 3.99894 111.314 4.09479 111.36 4.19355C111.407 4.2923 111.447 4.40849 111.482 4.5421C111.523 4.6699 111.543 4.80932 111.543 4.96036C111.543 5.50062 111.325 5.95664 110.889 6.32843C110.454 6.69441 109.844 6.8774 109.06 6.8774C108.026 6.8774 107.267 6.52885 106.785 5.83174C106.559 5.52966 106.402 5.18111 106.315 4.78609Z" fill="black"/>
</svg>
