<svg width="227" height="66" viewBox="0 0 227 66" fill="none" xmlns="http://www.w3.org/2000/svg">
<path d="M19.3839 24.1885L26.1839 0.388475H31.0459L31.7599 11.4045L38.4579 0.388475H43.9319L37.1319 24.1885H32.2019L34.0379 17.7965L35.8739 12.1185H35.7039L30.8079 20.2445H27.9519L27.6799 12.1185H27.5099L26.1499 17.7965L24.3139 24.1885H19.3839ZM39.3284 24.1885L48.5084 0.388475H57.7564L53.4724 24.1885H48.5764L49.4264 20.0405H45.6524L44.1904 24.1885H39.3284ZM47.2844 15.4165H50.3444L52.4184 5.08048H50.9224L47.2844 15.4165ZM53.7146 24.1885L61.9766 11.6425L60.7186 0.388475H65.6146L66.0906 7.25648H66.2266L70.1366 0.388475H75.5426L67.8586 12.1865L69.0826 24.1885H64.0506L63.6426 17.2525H63.5066L59.4266 24.1885H53.7146ZM70.797 24.1885L77.597 0.388475H82.697L75.897 24.1885H70.797ZM79.119 24.1885L85.919 0.388475H90.781L91.495 11.4045L98.193 0.388475H103.667L96.867 24.1885H91.937L93.773 17.7965L95.609 12.1185H95.439L90.543 20.2445H87.687L87.415 12.1185H87.245L85.885 17.7965L84.049 24.1885H79.119ZM100.083 24.1885L106.883 0.388475H111.983L105.183 24.1885H100.083ZM107.385 24.1885L108.507 20.2445L119.421 5.14848H113.097L114.457 0.388475H126.561L125.439 4.33247L114.559 19.4285H121.495L120.135 24.1885H107.385ZM122.53 24.1885L129.33 0.388475H139.564L138.204 5.14848H133.002L131.642 9.90848H136.47L135.11 14.6685H130.282L128.922 19.4285H134.124L132.764 24.1885H122.53ZM143.033 24.1885L145.379 16.0285L144.835 0.388475H150.071L149.833 5.69248L149.391 10.2485H149.561L154.287 0.388475H159.863L150.479 15.9605L148.133 24.1885H143.033ZM159.332 24.3585C155.626 24.3585 154.47 21.7065 155.388 18.5105L159.094 5.48848C160.182 1.64647 162.018 0.218475 165.112 0.218475H168.444C172.15 0.218475 173.306 2.87048 172.388 6.06647L168.682 19.0885C167.594 22.9305 165.758 24.3585 162.664 24.3585H159.332ZM161.032 19.7345H162.698C163.242 19.7345 163.48 19.4285 163.65 18.8165L167.39 5.76047C167.56 5.14848 167.39 4.84248 166.778 4.84248H165.078C164.534 4.84248 164.262 5.21648 164.126 5.76047L160.386 18.8845C160.216 19.4625 160.386 19.7345 161.032 19.7345ZM175.689 24.3585C171.983 24.3585 170.827 21.7065 171.745 18.5105L176.913 0.388475H182.013L176.845 18.4765C176.607 19.3265 176.845 19.7345 177.729 19.7345H178.749C179.565 19.7345 179.871 19.2585 180.143 18.4085L185.277 0.388475H190.377L185.039 19.0885C183.951 22.9305 182.115 24.3585 179.021 24.3585H175.689ZM186.632 24.1885L193.432 0.388475H200.742C204.448 0.388475 205.604 3.04048 204.686 6.23648L203.7 9.67048C202.952 12.2885 201.864 13.8185 200.232 14.4985L200.368 24.1885H195.37V14.9405H194.384L191.732 24.1885H186.632ZM195.608 10.6225H197.648C198.192 10.6225 198.43 10.3165 198.6 9.70448L199.654 5.96448C199.824 5.35248 199.654 5.04648 199.042 5.04648H197.206L195.608 10.6225ZM0.000871584 65.1885L3.33287 41.3885H8.26287L7.03887 49.9225L5.84887 56.0085H5.98487L11.1869 44.0745H14.8589L13.5329 56.0085H13.6689L16.1169 49.6845L19.5849 41.3885H24.7529L14.4169 65.1885H9.01087L10.0309 55.3285H9.89487L5.40687 65.1885H0.000871584ZM19.4962 65.1885L26.2962 41.3885H31.3962L24.5962 65.1885H19.4962ZM27.8182 65.1885L34.6182 41.3885H39.3782L40.1262 52.9485H40.2962L41.6222 47.5085L43.3562 41.3885H48.2182L41.4182 65.1885H36.6582L35.9102 53.6285H35.7402L34.4142 59.0685L32.6802 65.1885H27.8182ZM44.8022 65.1885L51.6022 41.3885H56.3622L57.1102 52.9485H57.2802L58.6062 47.5085L60.3402 41.3885H65.2022L58.4022 65.1885H53.6422L52.8942 53.6285H52.7242L51.3982 59.0685L49.6642 65.1885H44.8022ZM61.6163 65.1885L68.4163 41.3885H73.5163L66.7163 65.1885H61.6163ZM69.9383 65.1885L76.7383 41.3885H81.4983L82.2463 52.9485H82.4163L83.7423 47.5085L85.4763 41.3885H90.3383L83.5383 65.1885H78.7783L78.0303 53.6285H77.8603L76.5343 59.0685L74.8003 65.1885H69.9383ZM92.1584 65.3585C88.4524 65.3585 87.2964 62.7065 88.2144 59.5105L91.9204 46.4885C93.0084 42.6465 94.8444 41.2185 97.9384 41.2185H100.998C104.704 41.2185 105.86 43.8705 104.942 47.0665L104.024 50.2965H99.0264L100.046 46.7605C100.216 46.1485 100.046 45.8425 99.4344 45.8425H97.9044C97.3604 45.8425 97.0884 46.2165 96.9524 46.7605L93.1104 60.2245C92.9404 60.8025 93.1444 61.0745 93.7904 61.0745H95.6604C96.2044 61.0745 96.4084 60.7685 96.5784 60.1565L97.4284 57.1985H95.3884L96.7144 52.5405H103.582L99.9784 65.1885H96.5784L96.5104 63.6925C95.4564 64.7805 94.1644 65.3585 92.7704 65.3585H92.1584ZM112.513 65.3585C108.807 65.3585 107.651 62.7065 108.569 59.5105L112.275 46.4885C113.363 42.6465 115.199 41.2185 118.293 41.2185H121.353C125.059 41.2185 126.215 43.8705 125.297 47.0665L124.005 51.6565H119.007L120.401 46.7605C120.571 46.1485 120.401 45.8425 119.789 45.8425H118.259C117.715 45.8425 117.443 46.2165 117.307 46.7605L113.567 59.8845C113.397 60.4625 113.567 60.7345 114.213 60.7345H115.709C116.253 60.7345 116.491 60.4285 116.661 59.8165L117.953 55.2945H122.951L121.591 60.0885C120.503 63.9305 118.769 65.3585 115.675 65.3585H112.513ZM122.863 65.1885L129.663 41.3885H134.763L132.043 50.9085H135.307L138.027 41.3885H143.127L136.327 65.1885H131.227L133.947 55.6685H130.683L127.963 65.1885H122.863ZM138.362 65.1885L147.542 41.3885H156.79L152.506 65.1885H147.61L148.46 61.0405H144.686L143.224 65.1885H138.362ZM146.318 56.4165H149.378L151.452 46.0805H149.956L146.318 56.4165ZM154.61 65.1885L161.41 41.3885H166.17L166.918 52.9485H167.088L168.414 47.5085L170.148 41.3885H175.01L168.21 65.1885H163.45L162.702 53.6285H162.532L161.206 59.0685L159.472 65.1885H154.61ZM176.83 65.3585C173.124 65.3585 171.968 62.7065 172.886 59.5105L176.592 46.4885C177.68 42.6465 179.516 41.2185 182.61 41.2185H185.67C189.376 41.2185 190.532 43.8705 189.614 47.0665L188.322 51.6565H183.324L184.718 46.7605C184.888 46.1485 184.718 45.8425 184.106 45.8425H182.576C182.032 45.8425 181.76 46.2165 181.624 46.7605L177.884 59.8845C177.714 60.4625 177.884 60.7345 178.53 60.7345H180.026C180.57 60.7345 180.808 60.4285 180.978 59.8165L182.27 55.2945H187.268L185.908 60.0885C184.82 63.9305 183.086 65.3585 179.992 65.3585H176.83ZM187.18 65.1885L193.98 41.3885H204.214L202.854 46.1485H197.652L196.292 50.9085H201.12L199.76 55.6685H194.932L193.572 60.4285H198.774L197.414 65.1885H187.18ZM204.132 65.3585C200.426 65.3585 199.27 62.7065 200.188 59.5105L201.038 56.4505H205.9L204.88 60.1225C204.71 60.7005 204.88 60.9725 205.526 60.9725H207.26C207.804 60.9725 208.042 60.7005 208.212 60.0545L208.552 58.8985C208.892 57.7425 208.722 57.0965 208.246 56.5185L204.982 52.5745C203.792 51.0785 203.18 49.3785 203.69 47.6105L203.996 46.4885C205.118 42.5785 206.92 41.2185 210.014 41.2185H212.768C216.474 41.2185 217.63 43.8705 216.712 47.0665L215.862 50.0925H210.864L211.884 46.4885C212.054 45.8765 211.884 45.5705 211.272 45.5705H210.014C209.47 45.5705 209.232 45.9445 209.062 46.4885L208.756 47.6105C208.382 48.8345 208.348 49.1405 209.096 50.0585L212.292 54.0365C213.618 55.7365 213.992 57.4705 213.482 59.2725L213.244 60.0885C212.156 63.9305 210.32 65.3585 207.226 65.3585H204.132ZM216.503 57.7085L221.161 41.3885H226.669L220.413 57.7085H216.503ZM214.021 65.1885L215.653 59.5105H220.923L219.291 65.1885H214.021Z" fill="#F8FF13"/>
</svg>
