<svg width="201" height="238" viewBox="0 0 201 238" fill="none" xmlns="http://www.w3.org/2000/svg">
<path d="M54.5941 107.22L54.4784 69.9617L188.114 69.9617L188.135 107.22L54.5941 107.22Z" fill="white"/>
<path d="M54.5936 69.9615L54.4784 32.7031L187.522 32.7031L187.544 69.9615L54.5936 69.9615Z" fill="#E72687"/>
<path d="M80.7304 97.3566C78.6164 95.2619 77.5595 92.7443 77.5595 89.8041C77.5595 86.8638 78.6164 84.3559 80.7304 82.2803C82.8635 80.1856 85.554 79.1383 88.8018 79.1383C92.0496 79.1383 94.7304 80.1856 96.8444 82.2803C98.9775 84.3559 100.044 86.8638 100.044 89.8041C100.044 92.7443 98.9775 95.2619 96.8444 97.3566C94.7304 99.4321 92.0496 100.47 88.8018 100.47C85.554 100.47 82.8635 99.4321 80.7304 97.3566ZM84.7373 85.6242C83.6995 86.6812 83.1806 88.0745 83.1806 89.8041C83.1806 91.5336 83.6995 92.9269 84.7373 93.9839C85.775 95.0409 87.1298 95.5693 88.8018 95.5693C90.4737 95.5693 91.8286 95.0409 92.8663 93.9839C93.9041 92.9269 94.4229 91.5336 94.4229 89.8041C94.4229 88.0745 93.9041 86.6812 92.8663 85.6242C91.8286 84.5672 90.4737 84.0388 88.8018 84.0388C87.1298 84.0388 85.775 84.5672 84.7373 85.6242ZM102.915 99.8933V79.7148H110.727C114.052 79.7148 116.752 80.6853 118.828 82.6263C120.903 84.548 121.941 86.9406 121.941 89.8041C121.941 92.6675 120.903 95.0697 118.828 97.0107C116.752 98.9324 114.052 99.8933 110.727 99.8933H102.915ZM108.248 94.9928H110.699C112.486 94.9928 113.87 94.5316 114.85 93.6091C115.83 92.6867 116.32 91.4183 116.32 89.8041C116.32 88.1898 115.83 86.9214 114.85 85.999C113.87 85.0765 112.486 84.6153 110.699 84.6153H108.248V94.9928ZM124.817 99.8933V79.7148H132.629C135.953 79.7148 138.654 80.6853 140.729 82.6263C142.805 84.548 143.842 86.9406 143.842 89.8041C143.842 92.6675 142.805 95.0697 140.729 97.0107C138.654 98.9324 135.953 99.8933 132.629 99.8933H124.817ZM130.15 94.9928H132.6C134.387 94.9928 135.771 94.5316 136.751 93.6091C137.731 92.6867 138.221 91.4183 138.221 89.8041C138.221 88.1898 137.731 86.9214 136.751 85.999C135.771 85.0765 134.387 84.6153 132.6 84.6153H130.15V94.9928ZM145.565 93.4074H151.042C151.215 93.8878 151.475 94.301 151.82 94.6469C152.628 95.454 153.761 95.8576 155.222 95.8576C156.241 95.8576 157 95.6943 157.499 95.3676C157.999 95.0409 158.249 94.6277 158.249 94.128C158.249 93.9166 158.191 93.7244 158.076 93.5515C157.98 93.3593 157.807 93.1864 157.557 93.0326C157.326 92.8789 157.096 92.754 156.865 92.6579C156.634 92.5426 156.298 92.4273 155.856 92.312C155.433 92.1774 155.078 92.0717 154.79 91.9949C154.501 91.918 154.079 91.8123 153.521 91.6778C152.983 91.5432 152.57 91.4376 152.282 91.3607C150.456 90.861 148.995 90.1692 147.9 89.2852C146.824 88.4012 146.286 87.1328 146.286 85.4801C146.286 83.7313 147.035 82.2419 148.534 81.012C150.052 79.7628 152.09 79.1383 154.645 79.1383C157.912 79.1383 160.353 80.1952 161.967 82.3092C162.678 83.2316 163.168 84.2886 163.438 85.4801H157.96C157.845 85.1726 157.653 84.8843 157.384 84.6153C156.769 84.0388 155.856 83.7505 154.645 83.7505C153.704 83.7505 153.012 83.8946 152.57 84.1829C152.128 84.4519 151.907 84.7882 151.907 85.1918C151.907 85.7299 152.224 86.1623 152.858 86.489C153.512 86.7965 154.463 87.0944 155.712 87.3826C156.442 87.5556 156.961 87.6901 157.269 87.7862C157.595 87.8631 158.105 88.0168 158.796 88.2474C159.508 88.4588 160.046 88.6606 160.411 88.8528C160.776 89.045 161.208 89.314 161.708 89.6599C162.227 89.9866 162.611 90.3421 162.861 90.7265C163.13 91.0916 163.361 91.5432 163.553 92.0813C163.764 92.6194 163.87 93.2056 163.87 93.8398C163.87 95.6846 163.111 97.2509 161.593 98.5385C160.074 99.826 157.951 100.47 155.222 100.47C151.801 100.47 149.168 99.2976 147.324 96.953C146.536 95.9345 145.949 94.7526 145.565 93.4074Z" fill="black"/>
<path d="M83.7341 61.5435V41.3649H89.067V48.8598H96.8501V41.3649H102.183V61.5435H96.8501V53.7603H89.067V61.5435H83.7341ZM105.917 61.5435V41.3649H111.25V61.5435H105.917ZM117.287 59.0932C115.192 57.0561 114.145 54.5098 114.145 51.4542C114.145 48.3986 115.192 45.8619 117.287 43.844C119.401 41.8069 122.101 40.7884 125.387 40.7884C129.039 40.7884 131.892 42.0664 133.949 44.6223C134.852 45.7562 135.505 47.0245 135.909 48.4274H130.432C130.163 47.9085 129.807 47.4569 129.365 47.0726C128.327 46.1501 127.001 45.6889 125.387 45.6889C123.715 45.6889 122.36 46.2174 121.323 47.2744C120.285 48.3313 119.766 49.7246 119.766 51.4542C119.766 53.1838 120.285 54.5771 121.323 55.634C122.36 56.691 123.715 57.2195 125.387 57.2195C127.04 57.2195 128.385 56.739 129.423 55.7782C129.884 55.3169 130.22 54.8365 130.432 54.3368H127.693V50.3011H138.215V54.3368H135.938C135.476 55.7974 134.785 57.0946 133.862 58.2284C131.767 60.8228 128.942 62.12 125.387 62.12C122.101 62.12 119.401 61.1111 117.287 59.0932ZM140.233 61.5435V41.3649H145.566V48.8598H153.349V41.3649H158.682V61.5435H153.349V53.7603H145.566V61.5435H140.233Z" fill="white"/>
<path d="M58.7017 22.7258C56.6069 20.6887 55.5596 18.1424 55.5596 15.0868C55.5596 12.0312 56.6069 9.49443 58.7017 7.47658C60.8156 5.43951 63.5157 4.42098 66.8019 4.42098C70.434 4.42098 73.2879 5.74699 75.3634 8.39903C76.2858 9.60974 76.9392 10.9261 77.3236 12.3483H71.8465C71.5583 11.7525 71.2027 11.2528 70.78 10.8493C69.7614 9.83074 68.4354 9.32148 66.8019 9.32148C65.13 9.32148 63.7751 9.84996 62.7374 10.9069C61.6996 11.9639 61.1807 13.3572 61.1807 15.0868C61.1807 16.8164 61.6996 18.2096 62.7374 19.2666C63.7751 20.3236 65.13 20.8521 66.8019 20.8521C68.6084 20.8521 70.0112 20.2755 71.0106 19.1225C71.4718 18.6036 71.7985 18.0271 71.9907 17.3929H77.4677C77.0449 18.9495 76.3627 20.3428 75.421 21.5727C73.3647 24.3593 70.4917 25.7526 66.8019 25.7526C63.5157 25.7526 60.8156 24.7436 58.7017 22.7258ZM80.2118 25.176V4.99751H85.5447V12.4924H93.3279V4.99751H98.6608V25.176H93.3279V17.3929H85.5447V25.176H80.2118ZM104.701 22.6393C102.587 20.5446 101.53 18.0271 101.53 15.0868C101.53 12.1465 102.587 9.63857 104.701 7.56306C106.834 5.46834 109.524 4.42098 112.772 4.42098C116.02 4.42098 118.701 5.46834 120.815 7.56306C122.948 9.63857 124.015 12.1465 124.015 15.0868C124.015 18.0271 122.948 20.5446 120.815 22.6393C118.701 24.7148 116.02 25.7526 112.772 25.7526C109.524 25.7526 106.834 24.7148 104.701 22.6393ZM108.708 10.9069C107.67 11.9639 107.151 13.3572 107.151 15.0868C107.151 16.8164 107.67 18.2096 108.708 19.2666C109.745 20.3236 111.1 20.8521 112.772 20.8521C114.444 20.8521 115.799 20.3236 116.837 19.2666C117.874 18.2096 118.393 16.8164 118.393 15.0868C118.393 13.3572 117.874 11.9639 116.837 10.9069C115.799 9.84996 114.444 9.32148 112.772 9.32148C111.1 9.32148 109.745 9.84996 108.708 10.9069ZM129.192 22.6393C127.078 20.5446 126.021 18.0271 126.021 15.0868C126.021 12.1465 127.078 9.63857 129.192 7.56306C131.325 5.46834 134.016 4.42098 137.263 4.42098C140.511 4.42098 143.192 5.46834 145.306 7.56306C147.439 9.63857 148.506 12.1465 148.506 15.0868C148.506 18.0271 147.439 20.5446 145.306 22.6393C143.192 24.7148 140.511 25.7526 137.263 25.7526C134.016 25.7526 131.325 24.7148 129.192 22.6393ZM133.199 10.9069C132.161 11.9639 131.642 13.3572 131.642 15.0868C131.642 16.8164 132.161 18.2096 133.199 19.2666C134.237 20.3236 135.592 20.8521 137.263 20.8521C138.935 20.8521 140.29 20.3236 141.328 19.2666C142.366 18.2096 142.885 16.8164 142.885 15.0868C142.885 13.3572 142.366 11.9639 141.328 10.9069C140.29 9.84996 138.935 9.32148 137.263 9.32148C135.592 9.32148 134.237 9.84996 133.199 10.9069ZM150.224 18.6901H155.701C155.874 19.1705 156.134 19.5837 156.479 19.9296C157.287 20.7368 158.42 21.1403 159.881 21.1403C160.899 21.1403 161.659 20.977 162.158 20.6503C162.658 20.3236 162.908 19.9104 162.908 19.4107C162.908 19.1993 162.85 19.0072 162.735 18.8342C162.639 18.642 162.466 18.4691 162.216 18.3153C161.985 18.1616 161.755 18.0367 161.524 17.9406C161.293 17.8253 160.957 17.71 160.515 17.5947C160.092 17.4601 159.737 17.3544 159.449 17.2776C159.16 17.2007 158.738 17.095 158.18 16.9605C157.642 16.826 157.229 16.7203 156.941 16.6434C155.115 16.1437 153.654 15.4519 152.559 14.5679C151.483 13.6839 150.945 12.4155 150.945 10.7628C150.945 9.01399 151.694 7.52463 153.193 6.2947C154.711 5.04555 156.748 4.42098 159.304 4.42098C162.571 4.42098 165.012 5.47795 166.626 7.59189C167.337 8.51433 167.827 9.5713 168.096 10.7628H162.619C162.504 10.4553 162.312 10.1671 162.043 9.898C161.428 9.32148 160.515 9.03321 159.304 9.03321C158.363 9.03321 157.671 9.17734 157.229 9.46561C156.787 9.73465 156.566 10.071 156.566 10.4745C156.566 11.0126 156.883 11.445 157.517 11.7717C158.171 12.0792 159.122 12.3771 160.371 12.6653C161.101 12.8383 161.62 12.9728 161.928 13.0689C162.254 13.1458 162.764 13.2995 163.455 13.5301C164.166 13.7415 164.705 13.9433 165.07 14.1355C165.435 14.3277 165.867 14.5967 166.367 14.9426C166.886 15.2693 167.27 15.6249 167.52 16.0092C167.789 16.3743 168.02 16.826 168.212 17.3641C168.423 17.9021 168.529 18.4883 168.529 19.1225C168.529 20.9674 167.77 22.5336 166.252 23.8212C164.733 25.1088 162.61 25.7526 159.881 25.7526C156.46 25.7526 153.827 24.5803 151.983 22.2357C151.195 21.2172 150.608 20.0353 150.224 18.6901ZM171.28 25.176V4.99751H186.846V9.898H176.613V12.9248H184.828V17.2488H176.613V20.2755H186.846V25.176H171.28Z" fill="black"/>
<path d="M7.75044 85.2839L22.5952 33.4655H14.8501L18.4461 20.7414H39.5607L21.12 85.2839H7.75044ZM30.2218 85.2839L32.1031 78.7385H38.1782L36.2969 85.2839H30.2218Z" fill="#130655"/>
<path d="M60.4994 237.101L60.3781 199.842L200.518 199.842L200.541 237.101L60.4994 237.101Z" fill="white"/>
<path d="M60.5111 199.842L60.3898 162.584L200.53 162.584L200.552 199.842L60.5111 199.842Z" fill="#E72687"/>
<path d="M93.0049 229.774V209.595H103.815C105.89 209.595 107.514 210.076 108.687 211.037C109.859 211.998 110.445 213.199 110.445 214.64C110.445 216.081 109.916 217.215 108.859 218.042C108.36 218.387 107.831 218.647 107.274 218.82V218.964C108.004 219.175 108.648 219.473 109.205 219.858C110.512 220.761 111.166 222.096 111.166 223.865C111.166 225.594 110.503 227.016 109.177 228.131C107.851 229.226 105.967 229.774 103.527 229.774H93.0049ZM98.3378 217.379H102.662C103.373 217.379 103.911 217.225 104.276 216.917C104.641 216.591 104.824 216.168 104.824 215.649C104.824 215.13 104.641 214.717 104.276 214.409C103.911 214.083 103.373 213.919 102.662 213.919H98.3378V217.379ZM98.3378 225.45H102.95C103.853 225.45 104.536 225.267 104.997 224.902C105.458 224.537 105.689 224.047 105.689 223.432C105.689 222.817 105.458 222.327 104.997 221.962C104.536 221.597 103.853 221.414 102.95 221.414H98.3378V225.45ZM114.062 229.774V209.595H129.628V214.496H119.395V217.523H127.61V221.847H119.395V224.873H129.628V229.774H114.062ZM131.056 214.496V209.595H149.072V214.496H142.731V229.774H137.398V214.496H131.056ZM150.068 223.288H155.545C155.718 223.768 155.977 224.182 156.323 224.528C157.13 225.335 158.264 225.738 159.725 225.738C160.743 225.738 161.502 225.575 162.002 225.248C162.502 224.921 162.751 224.508 162.751 224.009C162.751 223.797 162.694 223.605 162.578 223.432C162.482 223.24 162.309 223.067 162.06 222.913C161.829 222.759 161.598 222.635 161.368 222.538C161.137 222.423 160.801 222.308 160.359 222.193C159.936 222.058 159.581 221.952 159.292 221.875C159.004 221.799 158.581 221.693 158.024 221.558C157.486 221.424 157.073 221.318 156.784 221.241C154.959 220.742 153.498 220.05 152.403 219.166C151.327 218.282 150.788 217.013 150.788 215.361C150.788 213.612 151.538 212.123 153.037 210.893C154.555 209.643 156.592 209.019 159.148 209.019C162.415 209.019 164.856 210.076 166.47 212.19C167.181 213.112 167.671 214.169 167.94 215.361H162.463C162.348 215.053 162.156 214.765 161.887 214.496C161.272 213.919 160.359 213.631 159.148 213.631C158.206 213.631 157.515 213.775 157.073 214.064C156.631 214.333 156.41 214.669 156.41 215.072C156.41 215.611 156.727 216.043 157.361 216.37C158.014 216.677 158.966 216.975 160.215 217.263C160.945 217.436 161.464 217.571 161.771 217.667C162.098 217.744 162.607 217.897 163.299 218.128C164.01 218.339 164.548 218.541 164.913 218.733C165.279 218.926 165.711 219.195 166.211 219.541C166.73 219.867 167.114 220.223 167.364 220.607C167.633 220.972 167.863 221.424 168.056 221.962C168.267 222.5 168.373 223.086 168.373 223.72C168.373 225.565 167.614 227.132 166.095 228.419C164.577 229.707 162.454 230.35 159.725 230.35C156.304 230.35 153.671 229.178 151.826 226.834C151.038 225.815 150.452 224.633 150.068 223.288Z" fill="black"/>
<path d="M73.5018 191.424V171.246H83.3028C85.7818 171.246 87.7901 171.957 89.3275 173.379C90.8841 174.782 91.6624 176.521 91.6624 178.597C91.6624 180.672 90.8841 182.421 89.3275 183.843C87.7901 185.246 85.7818 185.947 83.3028 185.947H78.8347V191.424H73.5018ZM78.8347 181.047H83.1586C84.158 181.047 84.9074 180.826 85.4071 180.384C85.926 179.942 86.1854 179.346 86.1854 178.597C86.1854 177.847 85.926 177.251 85.4071 176.809C84.9074 176.367 84.158 176.146 83.1586 176.146H78.8347V181.047ZM91.953 191.424L97.43 171.246H107.231L112.708 191.424H107.231L106.222 187.389H98.4389L97.43 191.424H91.953ZM99.592 182.776H105.069L103.339 176.146H101.322L99.592 182.776ZM114.574 191.424V171.246H124.663C127.065 171.246 129.006 171.928 130.486 173.292C131.985 174.638 132.735 176.31 132.735 178.308C132.735 180.903 131.389 182.921 128.699 184.362L132.879 191.424H127.113L123.51 185.371H119.907V191.424H114.574ZM119.907 180.47H124.519C125.345 180.47 126.008 180.259 126.508 179.836C127.008 179.413 127.257 178.904 127.257 178.308C127.257 177.713 127.008 177.203 126.508 176.78C126.008 176.358 125.345 176.146 124.519 176.146H119.907V180.47ZM135.771 191.424V171.246H141.104V186.524H150.761V191.424H135.771ZM151.042 191.424L156.519 171.246H166.32L171.797 191.424H166.32L165.311 187.389H157.528L156.519 191.424H151.042ZM158.681 182.776H164.158L162.428 176.146H160.41L158.681 182.776ZM170.065 171.246H175.686L180.01 179.029H180.442L184.766 171.246H190.387L182.893 184.218V191.424H177.56V184.218L170.065 171.246Z" fill="white"/>
<path d="M101.473 139.779V134.878H119.489V139.779H113.148V155.057H107.815V139.779H101.473ZM121.638 155.057V134.878H131.727C134.129 134.878 136.07 135.561 137.55 136.925C139.049 138.27 139.799 139.942 139.799 141.941C139.799 144.535 138.453 146.553 135.763 147.994L139.943 155.057H134.177L130.574 149.003H126.971V155.057H121.638ZM126.971 144.103H131.583C132.409 144.103 133.072 143.891 133.572 143.469C134.072 143.046 134.322 142.537 134.322 141.941C134.322 141.345 134.072 140.836 133.572 140.413C133.072 139.99 132.409 139.779 131.583 139.779H126.971V144.103ZM140.111 134.878H145.732L150.056 142.662H150.488L154.812 134.878H160.433L152.938 147.85V155.057H147.605V147.85L140.111 134.878Z" fill="black"/>
<path d="M0.193082 215.129L3.2358 204.433C4.61885 199.639 6.83174 195.858 10.7043 192.078L31.5423 171.978C32.8331 170.687 33.5708 169.58 34.0318 168.013L34.8616 165.155C35.5071 162.849 34.7694 161.743 32.3721 161.743H30.8047C28.5918 161.743 27.762 163.034 27.1165 165.339L24.9958 172.715H12.2717L14.669 164.417C17.6196 153.998 22.5986 150.125 30.9891 150.125H37.0745C47.1247 150.125 50.2596 157.317 47.7701 165.984L47.0325 168.751C45.9261 172.623 44.082 175.481 40.9471 178.524L20.3857 198.532C19.0948 199.823 18.3572 200.653 17.9884 202.036L17.8962 202.405H37.3511L33.7552 215.129H0.193082ZM39.4715 215.129L41.3528 208.584H47.4278L45.5465 215.129H39.4715Z" fill="#130655"/>
</svg>
