<svg width="10" height="15" viewBox="0 0 10 15" fill="none" xmlns="http://www.w3.org/2000/svg">
<path fill-rule="evenodd" clip-rule="evenodd" d="M9.05387 0.959759C9.05387 0.753679 8.88676 0.586426 8.68251 0.586426H6.82567C4.77423 0.586426 3.11199 2.09096 3.11199 3.94643V5.96243H1.25516C1.05016 5.96243 0.883789 6.12968 0.883789 6.33576V8.27709C0.883789 8.48317 1.05016 8.65043 1.25516 8.65043H3.11199V13.6531C3.11199 13.8592 3.27837 14.0264 3.48336 14.0264H5.71157C5.91582 14.0264 6.08293 13.8592 6.08293 13.6531V8.65043H8.02816C8.19527 8.65043 8.34159 8.53843 8.3869 8.37715L8.92241 6.43581C8.98851 6.19837 8.81026 5.96243 8.56515 5.96243H6.08293V3.94643C6.08293 3.57533 6.41494 3.27443 6.82567 3.27443H8.68251C8.88676 3.27443 9.05387 3.10717 9.05387 2.90109V0.959759Z" fill="#525252"/>
</svg>
