<svg width="61" height="13" viewBox="0 0 61 13" fill="none" xmlns="http://www.w3.org/2000/svg">
<path d="M0.48 5.52V2.4L2.8 0.799999H5.52V12H2.48V4.16L0.48 5.52ZM11.4469 12V0.799999H17.0469C18.3802 0.799999 19.4575 1.17867 20.2789 1.936C21.1109 2.68267 21.5269 3.61067 21.5269 4.72C21.5269 6.16 20.7802 7.28 19.2869 8.08L21.6069 12H18.4069L16.4069 8.64H14.4069V12H11.4469ZM14.4069 5.92H16.9669C17.4255 5.92 17.7935 5.80267 18.0709 5.568C18.3482 5.33333 18.4869 5.05067 18.4869 4.72C18.4869 4.38933 18.3482 4.10667 18.0709 3.872C17.7935 3.63733 17.4255 3.52 16.9669 3.52H14.4069V5.92ZM23.284 10.944C22.388 10.08 21.94 9.04533 21.94 7.84C21.94 6.63467 22.388 5.6 23.284 4.736C24.18 3.872 25.2787 3.44 26.58 3.44C27.8813 3.44 28.98 3.872 29.876 4.736C30.772 5.6 31.22 6.63467 31.22 7.84C31.22 9.04533 30.772 10.08 29.876 10.944C28.98 11.808 27.8813 12.24 26.58 12.24C25.2787 12.24 24.18 11.808 23.284 10.944ZM25.252 6.336C24.9107 6.70933 24.74 7.21067 24.74 7.84C24.74 8.46933 24.9107 8.976 25.252 9.36C25.604 9.73333 26.0467 9.92 26.58 9.92C27.1133 9.92 27.5507 9.73333 27.892 9.36C28.244 8.976 28.42 8.46933 28.42 7.84C28.42 7.21067 28.244 6.70933 27.892 6.336C27.5507 5.952 27.1133 5.76 26.58 5.76C26.0467 5.76 25.604 5.952 25.252 6.336ZM32.0981 8.8V3.68H34.8181V8.4C34.8181 8.88 34.9461 9.25333 35.2021 9.52C35.4581 9.78667 35.8101 9.92 36.2581 9.92C36.7168 9.92 37.0955 9.75467 37.3941 9.424C37.7035 9.08267 37.8581 8.63467 37.8581 8.08V3.68H40.5781V12H37.8581V10.88H37.6981C37.5595 11.1467 37.3675 11.376 37.1221 11.568C36.5888 12.016 35.9541 12.24 35.2181 12.24C34.2368 12.24 33.4688 11.9467 32.9141 11.36C32.3701 10.7627 32.0981 9.90933 32.0981 8.8ZM41.8563 12V3.68H44.5763V4.8H44.7363C44.8856 4.544 45.0776 4.32 45.3123 4.128C45.8563 3.66933 46.4909 3.44 47.2163 3.44C48.1976 3.44 48.9603 3.73867 49.5043 4.336C50.0589 4.92267 50.3363 5.77067 50.3363 6.88V12H47.6163V7.28C47.6163 6.8 47.4883 6.42667 47.2323 6.16C46.9763 5.89333 46.6243 5.76 46.1763 5.76C45.7176 5.76 45.3336 5.93067 45.0243 6.272C44.7256 6.60267 44.5763 7.04533 44.5763 7.6V12H41.8563ZM52.2883 11.04C51.5736 10.2293 51.2163 9.16267 51.2163 7.84C51.2163 6.51733 51.5736 5.456 52.2883 4.656C53.0029 3.84533 53.8723 3.44 54.8963 3.44C55.5576 3.44 56.1816 3.66933 56.7683 4.128C57.0136 4.33067 57.2163 4.55467 57.3763 4.8H57.5363V0.799999H60.2563V12H57.5363V10.88H57.3763C57.2269 11.136 57.0243 11.3653 56.7683 11.568C56.1923 12.016 55.5683 12.24 54.8963 12.24C53.8723 12.24 53.0029 11.84 52.2883 11.04ZM54.4963 6.304C54.1763 6.66667 54.0163 7.17867 54.0163 7.84C54.0163 8.50133 54.1763 9.01333 54.4963 9.376C54.8163 9.73867 55.2429 9.92 55.7763 9.92C56.3096 9.92 56.7363 9.73867 57.0563 9.376C57.3763 9.01333 57.5363 8.50133 57.5363 7.84C57.5363 7.17867 57.3763 6.66667 57.0563 6.304C56.7363 5.94133 56.3096 5.76 55.7763 5.76C55.2429 5.76 54.8163 5.94133 54.4963 6.304Z" fill="white"/>
</svg>
