<svg width="264" height="60" viewBox="0 0 264 60" fill="none" xmlns="http://www.w3.org/2000/svg">
<path d="M21.7953 25.2872L17.3013 51.9463H12.5788L13.5309 46.9191H9.72248L7.85634 51.9463H2.98152L13.569 25.2872H21.7953ZM14.3688 42.5013L16.8062 29.6669H16.0445L11.322 42.5013H14.3688ZM28.147 25.2872H32.5267L33.2884 40.4067H33.4789L35.2307 33.2849L37.5158 25.2872H42.0479L34.431 51.9463H30.0513L29.2896 36.8268H29.0991L27.3473 43.9485L25.0622 51.9463H20.5301L28.147 25.2872ZM54.0198 25.2872C56.0256 25.2872 57.3966 25.9092 58.1329 27.1533C58.8692 28.3974 58.9708 29.9588 58.4376 31.8377L54.3625 46.0432C53.7532 48.1505 52.9153 49.6612 51.849 50.5752C50.7826 51.4893 49.3735 51.9463 47.6216 51.9463H38.8241L46.441 25.2872H54.0198ZM53.9055 31.1141C54.1594 30.1747 53.8167 29.705 52.8772 29.705H49.9447L44.8414 47.5285H48.0786C48.5102 47.5285 48.8276 47.4142 49.0307 47.1857C49.2592 46.9318 49.4496 46.551 49.602 46.0432L53.9055 31.1141Z" fill="black"/>
<mask id="path-2-outside-1_562_1924" maskUnits="userSpaceOnUse" x="62.6992" y="11" width="198" height="51" fill="black">
<rect fill="white" x="62.6992" y="11" width="198" height="51"/>
<path d="M75.4658 52L68.3057 35.677L68.8565 33.2736H71.31C74.0472 33.2736 76.1501 32.8062 77.6189 31.8716C79.0876 30.9036 80.039 29.6017 80.4729 27.9661H69.7077L70.4087 24.7615H80.7232C80.5897 22.9924 79.9388 21.6739 78.7705 20.806C77.6356 19.9047 75.833 19.4541 73.3629 19.4541H71.5603L72.2112 16.2495H92.7402L92.0893 19.4541H82.5759C83.2435 19.8546 83.861 20.5222 84.4285 21.4569C85.0293 22.3582 85.3464 23.4597 85.3798 24.7615H90.8876L90.1866 27.9661H85.0794C84.779 29.3013 84.1948 30.5864 83.3269 31.8215C82.459 33.0232 81.1906 34.0246 79.5216 34.8258C77.8859 35.6269 75.6995 36.0942 72.9623 36.2277L80.3728 52H75.4658ZM115.694 16.7002C118.331 16.7002 120.134 17.518 121.102 19.1536C122.07 20.7893 122.203 22.8422 121.502 25.3123L120.401 29.2178C120 30.7533 119.499 31.9217 118.899 32.7228C118.298 33.5239 117.497 34.1248 116.495 34.5253C117.897 35.8272 118.281 37.563 117.647 39.7327L116.295 44.4894C115.494 47.26 114.392 49.2461 112.99 50.4478C111.588 51.6495 109.736 52.2504 107.432 52.2504H104.829C102.192 52.2504 100.389 51.4492 99.4211 49.847C98.4531 48.2113 98.3196 46.1417 99.0206 43.6382L100.122 39.7327C100.556 38.097 101.09 36.8953 101.724 36.1276C102.392 35.3265 103.277 34.7089 104.378 34.275C103.11 33.0399 102.776 31.3542 103.377 29.2178L104.729 24.4611C105.53 21.6572 106.631 19.671 108.033 18.5027C109.435 17.301 111.288 16.7002 113.591 16.7002H115.694ZM112.289 31.9217C112.857 31.9217 113.274 31.7714 113.541 31.471C113.841 31.1372 114.092 30.6365 114.292 29.9689L116.045 23.8603C116.378 22.6252 115.928 22.0077 114.693 22.0077H112.79C112.223 22.0077 111.789 22.1746 111.488 22.5084C111.221 22.8088 110.987 23.2928 110.787 23.9604L109.035 30.069C108.701 31.3041 109.152 31.9217 110.387 31.9217H112.289ZM111.739 38.8815C112.072 37.6464 111.622 37.0289 110.387 37.0289H108.484C107.916 37.0289 107.483 37.1958 107.182 37.5296C106.915 37.83 106.681 38.314 106.481 38.9816L104.879 44.5895C104.545 45.8246 104.996 46.4422 106.231 46.4422H108.133C108.701 46.4422 109.118 46.2919 109.385 45.9915C109.686 45.6577 109.936 45.157 110.136 44.4894L111.739 38.8815ZM122.625 56.5064H117.618L120.923 44.9901H127.432L122.625 56.5064ZM149.887 44.4894C149.086 47.26 147.985 49.2461 146.583 50.4478C145.181 51.6495 143.328 52.2504 141.025 52.2504H138.421C135.784 52.2504 133.981 51.4325 133.013 49.7969C132.045 48.1612 131.912 46.1083 132.613 43.6382L138.071 24.4611C138.872 21.6905 139.973 19.7044 141.375 18.5027C142.777 17.301 144.63 16.7002 146.933 16.7002H149.537C152.174 16.7002 153.976 17.518 154.944 19.1536C155.912 20.7893 156.046 22.8422 155.345 25.3123L149.887 44.4894ZM149.487 24.361C149.821 23.1259 149.37 22.5084 148.135 22.5084H146.232C145.665 22.5084 145.231 22.6753 144.93 23.0091C144.663 23.3095 144.43 23.7935 144.229 24.4611L138.471 44.5895C138.137 45.8246 138.588 46.4422 139.823 46.4422H141.726C142.293 46.4422 142.71 46.2919 142.978 45.9915C143.278 45.6577 143.528 45.157 143.729 44.4894L149.487 24.361ZM171.94 44.4894C171.139 47.26 170.037 49.2461 168.635 50.4478C167.233 51.6495 165.381 52.2504 163.077 52.2504H160.474C157.837 52.2504 156.034 51.4325 155.066 49.7969C154.098 48.1612 153.965 46.1083 154.666 43.6382L160.123 24.4611C160.924 21.6905 162.026 19.7044 163.428 18.5027C164.83 17.301 166.682 16.7002 168.986 16.7002H171.589C174.226 16.7002 176.029 17.518 176.997 19.1536C177.965 20.7893 178.099 22.8422 177.398 25.3123L171.94 44.4894ZM171.539 24.361C171.873 23.1259 171.423 22.5084 170.187 22.5084H168.285C167.717 22.5084 167.283 22.6753 166.983 23.0091C166.716 23.3095 166.482 23.7935 166.282 24.4611L160.524 44.5895C160.19 45.8246 160.641 46.4422 161.876 46.4422H163.778C164.346 46.4422 164.763 46.2919 165.03 45.9915C165.331 45.6577 165.581 45.157 165.781 44.4894L171.539 24.361ZM178.27 56.5064H173.263L176.568 44.9901H183.077L178.27 56.5064ZM205.532 44.4894C204.731 47.26 203.63 49.2461 202.228 50.4478C200.826 51.6495 198.973 52.2504 196.67 52.2504H194.066C191.429 52.2504 189.626 51.4325 188.658 49.7969C187.69 48.1612 187.557 46.1083 188.258 43.6382L193.716 24.4611C194.517 21.6905 195.618 19.7044 197.02 18.5027C198.422 17.301 200.275 16.7002 202.578 16.7002H205.182C207.819 16.7002 209.621 17.518 210.589 19.1536C211.557 20.7893 211.691 22.8422 210.99 25.3123L205.532 44.4894ZM205.132 24.361C205.465 23.1259 205.015 22.5084 203.78 22.5084H201.877C201.31 22.5084 200.876 22.6753 200.575 23.0091C200.308 23.3095 200.075 23.7935 199.874 24.4611L194.116 44.5895C193.782 45.8246 194.233 46.4422 195.468 46.4422H197.371C197.938 46.4422 198.355 46.2919 198.622 45.9915C198.923 45.6577 199.173 45.157 199.374 44.4894L205.132 24.361ZM227.585 44.4894C226.784 47.26 225.682 49.2461 224.28 50.4478C222.878 51.6495 221.026 52.2504 218.722 52.2504H216.119C213.482 52.2504 211.679 51.4325 210.711 49.7969C209.743 48.1612 209.609 46.1083 210.31 43.6382L215.768 24.4611C216.569 21.6905 217.671 19.7044 219.073 18.5027C220.475 17.301 222.327 16.7002 224.631 16.7002H227.234C229.871 16.7002 231.674 17.518 232.642 19.1536C233.61 20.7893 233.744 22.8422 233.043 25.3123L227.585 44.4894ZM227.184 24.361C227.518 23.1259 227.067 22.5084 225.832 22.5084H223.93C223.362 22.5084 222.928 22.6753 222.628 23.0091C222.361 23.3095 222.127 23.7935 221.927 24.4611L216.169 44.5895C215.835 45.8246 216.286 46.4422 217.521 46.4422H219.423C219.991 46.4422 220.408 46.2919 220.675 45.9915C220.976 45.6577 221.226 45.157 221.426 44.4894L227.184 24.361ZM249.637 44.4894C248.836 47.26 247.735 49.2461 246.333 50.4478C244.931 51.6495 243.078 52.2504 240.775 52.2504H238.171C235.534 52.2504 233.732 51.4325 232.764 49.7969C231.796 48.1612 231.662 46.1083 232.363 43.6382L237.821 24.4611C238.622 21.6905 239.723 19.7044 241.125 18.5027C242.527 17.301 244.38 16.7002 246.683 16.7002H249.287C251.924 16.7002 253.727 17.518 254.695 19.1536C255.663 20.7893 255.796 22.8422 255.095 25.3123L249.637 44.4894ZM249.237 24.361C249.571 23.1259 249.12 22.5084 247.885 22.5084H245.982C245.415 22.5084 244.981 22.6753 244.68 23.0091C244.413 23.3095 244.18 23.7935 243.979 24.4611L238.221 44.5895C237.888 45.8246 238.338 46.4422 239.573 46.4422H241.476C242.043 46.4422 242.461 46.2919 242.728 45.9915C243.028 45.6577 243.278 45.157 243.479 44.4894L249.237 24.361Z"/>
</mask>
<path d="M75.4658 52L68.3057 35.677L68.8565 33.2736H71.31C74.0472 33.2736 76.1501 32.8062 77.6189 31.8716C79.0876 30.9036 80.039 29.6017 80.4729 27.9661H69.7077L70.4087 24.7615H80.7232C80.5897 22.9924 79.9388 21.6739 78.7705 20.806C77.6356 19.9047 75.833 19.4541 73.3629 19.4541H71.5603L72.2112 16.2495H92.7402L92.0893 19.4541H82.5759C83.2435 19.8546 83.861 20.5222 84.4285 21.4569C85.0293 22.3582 85.3464 23.4597 85.3798 24.7615H90.8876L90.1866 27.9661H85.0794C84.779 29.3013 84.1948 30.5864 83.3269 31.8215C82.459 33.0232 81.1906 34.0246 79.5216 34.8258C77.8859 35.6269 75.6995 36.0942 72.9623 36.2277L80.3728 52H75.4658ZM115.694 16.7002C118.331 16.7002 120.134 17.518 121.102 19.1536C122.07 20.7893 122.203 22.8422 121.502 25.3123L120.401 29.2178C120 30.7533 119.499 31.9217 118.899 32.7228C118.298 33.5239 117.497 34.1248 116.495 34.5253C117.897 35.8272 118.281 37.563 117.647 39.7327L116.295 44.4894C115.494 47.26 114.392 49.2461 112.99 50.4478C111.588 51.6495 109.736 52.2504 107.432 52.2504H104.829C102.192 52.2504 100.389 51.4492 99.4211 49.847C98.4531 48.2113 98.3196 46.1417 99.0206 43.6382L100.122 39.7327C100.556 38.097 101.09 36.8953 101.724 36.1276C102.392 35.3265 103.277 34.7089 104.378 34.275C103.11 33.0399 102.776 31.3542 103.377 29.2178L104.729 24.4611C105.53 21.6572 106.631 19.671 108.033 18.5027C109.435 17.301 111.288 16.7002 113.591 16.7002H115.694ZM112.289 31.9217C112.857 31.9217 113.274 31.7714 113.541 31.471C113.841 31.1372 114.092 30.6365 114.292 29.9689L116.045 23.8603C116.378 22.6252 115.928 22.0077 114.693 22.0077H112.79C112.223 22.0077 111.789 22.1746 111.488 22.5084C111.221 22.8088 110.987 23.2928 110.787 23.9604L109.035 30.069C108.701 31.3041 109.152 31.9217 110.387 31.9217H112.289ZM111.739 38.8815C112.072 37.6464 111.622 37.0289 110.387 37.0289H108.484C107.916 37.0289 107.483 37.1958 107.182 37.5296C106.915 37.83 106.681 38.314 106.481 38.9816L104.879 44.5895C104.545 45.8246 104.996 46.4422 106.231 46.4422H108.133C108.701 46.4422 109.118 46.2919 109.385 45.9915C109.686 45.6577 109.936 45.157 110.136 44.4894L111.739 38.8815ZM122.625 56.5064H117.618L120.923 44.9901H127.432L122.625 56.5064ZM149.887 44.4894C149.086 47.26 147.985 49.2461 146.583 50.4478C145.181 51.6495 143.328 52.2504 141.025 52.2504H138.421C135.784 52.2504 133.981 51.4325 133.013 49.7969C132.045 48.1612 131.912 46.1083 132.613 43.6382L138.071 24.4611C138.872 21.6905 139.973 19.7044 141.375 18.5027C142.777 17.301 144.63 16.7002 146.933 16.7002H149.537C152.174 16.7002 153.976 17.518 154.944 19.1536C155.912 20.7893 156.046 22.8422 155.345 25.3123L149.887 44.4894ZM149.487 24.361C149.821 23.1259 149.37 22.5084 148.135 22.5084H146.232C145.665 22.5084 145.231 22.6753 144.93 23.0091C144.663 23.3095 144.43 23.7935 144.229 24.4611L138.471 44.5895C138.137 45.8246 138.588 46.4422 139.823 46.4422H141.726C142.293 46.4422 142.71 46.2919 142.978 45.9915C143.278 45.6577 143.528 45.157 143.729 44.4894L149.487 24.361ZM171.94 44.4894C171.139 47.26 170.037 49.2461 168.635 50.4478C167.233 51.6495 165.381 52.2504 163.077 52.2504H160.474C157.837 52.2504 156.034 51.4325 155.066 49.7969C154.098 48.1612 153.965 46.1083 154.666 43.6382L160.123 24.4611C160.924 21.6905 162.026 19.7044 163.428 18.5027C164.83 17.301 166.682 16.7002 168.986 16.7002H171.589C174.226 16.7002 176.029 17.518 176.997 19.1536C177.965 20.7893 178.099 22.8422 177.398 25.3123L171.94 44.4894ZM171.539 24.361C171.873 23.1259 171.423 22.5084 170.187 22.5084H168.285C167.717 22.5084 167.283 22.6753 166.983 23.0091C166.716 23.3095 166.482 23.7935 166.282 24.4611L160.524 44.5895C160.19 45.8246 160.641 46.4422 161.876 46.4422H163.778C164.346 46.4422 164.763 46.2919 165.03 45.9915C165.331 45.6577 165.581 45.157 165.781 44.4894L171.539 24.361ZM178.27 56.5064H173.263L176.568 44.9901H183.077L178.27 56.5064ZM205.532 44.4894C204.731 47.26 203.63 49.2461 202.228 50.4478C200.826 51.6495 198.973 52.2504 196.67 52.2504H194.066C191.429 52.2504 189.626 51.4325 188.658 49.7969C187.69 48.1612 187.557 46.1083 188.258 43.6382L193.716 24.4611C194.517 21.6905 195.618 19.7044 197.02 18.5027C198.422 17.301 200.275 16.7002 202.578 16.7002H205.182C207.819 16.7002 209.621 17.518 210.589 19.1536C211.557 20.7893 211.691 22.8422 210.99 25.3123L205.532 44.4894ZM205.132 24.361C205.465 23.1259 205.015 22.5084 203.78 22.5084H201.877C201.31 22.5084 200.876 22.6753 200.575 23.0091C200.308 23.3095 200.075 23.7935 199.874 24.4611L194.116 44.5895C193.782 45.8246 194.233 46.4422 195.468 46.4422H197.371C197.938 46.4422 198.355 46.2919 198.622 45.9915C198.923 45.6577 199.173 45.157 199.374 44.4894L205.132 24.361ZM227.585 44.4894C226.784 47.26 225.682 49.2461 224.28 50.4478C222.878 51.6495 221.026 52.2504 218.722 52.2504H216.119C213.482 52.2504 211.679 51.4325 210.711 49.7969C209.743 48.1612 209.609 46.1083 210.31 43.6382L215.768 24.4611C216.569 21.6905 217.671 19.7044 219.073 18.5027C220.475 17.301 222.327 16.7002 224.631 16.7002H227.234C229.871 16.7002 231.674 17.518 232.642 19.1536C233.61 20.7893 233.744 22.8422 233.043 25.3123L227.585 44.4894ZM227.184 24.361C227.518 23.1259 227.067 22.5084 225.832 22.5084H223.93C223.362 22.5084 222.928 22.6753 222.628 23.0091C222.361 23.3095 222.127 23.7935 221.927 24.4611L216.169 44.5895C215.835 45.8246 216.286 46.4422 217.521 46.4422H219.423C219.991 46.4422 220.408 46.2919 220.675 45.9915C220.976 45.6577 221.226 45.157 221.426 44.4894L227.184 24.361ZM249.637 44.4894C248.836 47.26 247.735 49.2461 246.333 50.4478C244.931 51.6495 243.078 52.2504 240.775 52.2504H238.171C235.534 52.2504 233.732 51.4325 232.764 49.7969C231.796 48.1612 231.662 46.1083 232.363 43.6382L237.821 24.4611C238.622 21.6905 239.723 19.7044 241.125 18.5027C242.527 17.301 244.38 16.7002 246.683 16.7002H249.287C251.924 16.7002 253.727 17.518 254.695 19.1536C255.663 20.7893 255.796 22.8422 255.095 25.3123L249.637 44.4894ZM249.237 24.361C249.571 23.1259 249.12 22.5084 247.885 22.5084H245.982C245.415 22.5084 244.981 22.6753 244.68 23.0091C244.413 23.3095 244.18 23.7935 243.979 24.4611L238.221 44.5895C237.888 45.8246 238.338 46.4422 239.573 46.4422H241.476C242.043 46.4422 242.461 46.2919 242.728 45.9915C243.028 45.6577 243.278 45.157 243.479 44.4894L249.237 24.361Z" fill="#008A0E"/>
<path d="M75.4658 52L71.1715 53.8837L72.4022 56.6893H75.4658V52ZM68.3057 35.677L63.7349 34.6295L63.3886 36.1408L64.0114 37.5607L68.3057 35.677ZM68.8565 33.2736V28.5843H65.1203L64.2857 32.2261L68.8565 33.2736ZM77.6189 31.8716L80.1364 35.8278L80.1681 35.8076L80.1994 35.7869L77.6189 31.8716ZM80.4729 27.9661L85.0054 29.1686L86.5685 23.2768H80.4729V27.9661ZM69.7077 27.9661L65.1267 26.964L63.8818 32.6554H69.7077V27.9661ZM70.4087 24.7615V20.0723H66.6343L65.8277 23.7595L70.4087 24.7615ZM80.7232 24.7615V29.4508H85.7798L85.3992 24.4086L80.7232 24.7615ZM78.7705 20.806L75.8543 24.4782L75.9135 24.5252L75.9742 24.5703L78.7705 20.806ZM71.5603 19.4541L66.9649 18.5206L65.8228 24.1433H71.5603V19.4541ZM72.2112 16.2495V11.5602H68.3787L67.6158 15.3161L72.2112 16.2495ZM92.7402 16.2495L97.3357 17.183L98.4778 11.5602H92.7402V16.2495ZM92.0893 19.4541V24.1433H95.9218L96.6847 20.3875L92.0893 19.4541ZM82.5759 19.4541V14.7648H65.6461L80.1632 23.4751L82.5759 19.4541ZM84.4285 21.4569L80.4201 23.8905L80.4717 23.9754L80.5268 24.058L84.4285 21.4569ZM85.3798 24.7615L80.6921 24.8818L80.8092 29.4508H85.3798V24.7615ZM90.8876 24.7615L95.4686 25.7636L96.7136 20.0723H90.8876V24.7615ZM90.1866 27.9661V32.6554H93.961L94.7676 28.9682L90.1866 27.9661ZM85.0794 27.9661V23.2768H81.328L80.5045 26.9367L85.0794 27.9661ZM83.3269 31.8215L87.1284 34.567L87.1462 34.5424L87.1637 34.5176L83.3269 31.8215ZM79.5216 34.8258L77.4924 30.5983L77.4756 30.6063L77.4589 30.6145L79.5216 34.8258ZM72.9623 36.2277L72.7338 31.544L65.7409 31.8851L68.7181 38.2218L72.9623 36.2277ZM80.3728 52V56.6893H87.7571L84.6169 50.0059L80.3728 52ZM79.7601 50.1163L72.6 33.7933L64.0114 37.5607L71.1715 53.8837L79.7601 50.1163ZM72.8765 36.7244L73.4273 34.321L64.2857 32.2261L63.7349 34.6295L72.8765 36.7244ZM68.8565 37.9629H71.31V28.5843H68.8565V37.9629ZM71.31 37.9629C74.4712 37.9629 77.5996 37.4421 80.1364 35.8278L75.1013 27.9154C74.7007 28.1704 73.6231 28.5843 71.31 28.5843V37.9629ZM80.1994 35.7869C82.5883 34.2125 84.2635 31.9648 85.0054 29.1686L75.9404 26.7636C75.8144 27.2386 75.587 27.5946 75.0383 27.9562L80.1994 35.7869ZM80.4729 23.2768H69.7077V32.6554H80.4729V23.2768ZM74.2887 28.9682L74.9897 25.7636L65.8277 23.7595L65.1267 26.964L74.2887 28.9682ZM70.4087 29.4508H80.7232V20.0723H70.4087V29.4508ZM85.3992 24.4086C85.1878 21.6074 84.0628 18.8958 81.5668 17.0417L75.9742 24.5703C75.9744 24.5704 75.9613 24.5602 75.9451 24.5407C75.9289 24.5213 75.9249 24.511 75.9301 24.5216C75.9408 24.5432 76.0166 24.7083 76.0473 25.1145L85.3992 24.4086ZM81.6867 17.1337C79.3143 15.2498 76.2151 14.7648 73.3629 14.7648V24.1433C74.332 24.1433 74.9996 24.2337 75.4301 24.3413C75.8588 24.4485 75.9361 24.5432 75.8543 24.4782L81.6867 17.1337ZM73.3629 14.7648H71.5603V24.1433H73.3629V14.7648ZM76.1558 20.3875L76.8067 17.183L67.6158 15.3161L66.9649 18.5206L76.1558 20.3875ZM72.2112 20.9388H92.7402V11.5602H72.2112V20.9388ZM88.1448 15.3161L87.4939 18.5206L96.6847 20.3875L97.3357 17.183L88.1448 15.3161ZM92.0893 14.7648H82.5759V24.1433H92.0893V14.7648ZM80.1632 23.4751C80.0582 23.412 80.0411 23.3786 80.0973 23.4394C80.1551 23.5019 80.2679 23.6397 80.4201 23.8905L88.4368 19.0232C87.6248 17.6857 86.5191 16.3514 84.9885 15.433L80.1632 23.4751ZM80.5268 24.058C80.5454 24.0861 80.6768 24.2841 80.6921 24.8818L90.0676 24.6413C90.0161 22.6354 89.5132 20.6303 88.3302 18.8557L80.5268 24.058ZM85.3798 29.4508H90.8876V20.0723H85.3798V29.4508ZM86.3066 23.7595L85.6056 26.964L94.7676 28.9682L95.4686 25.7636L86.3066 23.7595ZM90.1866 23.2768H85.0794V32.6554H90.1866V23.2768ZM80.5045 26.9367C80.352 27.6146 80.0418 28.3405 79.4902 29.1254L87.1637 34.5176C88.3478 32.8324 89.206 30.988 89.6543 28.9954L80.5045 26.9367ZM79.5254 29.076C79.2158 29.5047 78.6289 30.0527 77.4924 30.5983L81.5508 39.0533C83.7523 37.9965 85.7023 36.5417 87.1284 34.567L79.5254 29.076ZM77.4589 30.6145C76.6102 31.0302 75.1252 31.4274 72.7338 31.544L73.1908 40.9114C76.2738 40.7611 79.1616 40.2236 81.5842 39.037L77.4589 30.6145ZM68.7181 38.2218L76.1286 53.9941L84.6169 50.0059L77.2065 34.2336L68.7181 38.2218ZM80.3728 47.3107H75.4658V56.6893H80.3728V47.3107ZM121.102 19.1536L117.066 21.542L121.102 19.1536ZM121.502 25.3123L116.991 24.0321L116.989 24.0394L121.502 25.3123ZM120.401 29.2178L115.888 27.9449L115.875 27.9894L115.863 28.0342L120.401 29.2178ZM118.899 32.7228L122.65 35.5364L122.65 35.5364L118.899 32.7228ZM116.495 34.5253L114.754 30.1714L107.877 32.922L113.304 37.9616L116.495 34.5253ZM117.647 39.7327L113.146 38.417L113.141 38.4338L113.136 38.4507L117.647 39.7327ZM116.295 44.4894L120.8 45.792L120.803 45.7817L120.806 45.7714L116.295 44.4894ZM112.99 50.4478L109.939 46.8874V46.8874L112.99 50.4478ZM99.4211 49.847L95.3856 52.2353L95.3965 52.2536L95.4075 52.2719L99.4211 49.847ZM99.0206 43.6382L94.5074 42.3652L94.5049 42.3738L99.0206 43.6382ZM100.122 39.7327L104.635 41.0056L104.645 40.9705L104.655 40.9352L100.122 39.7327ZM101.724 36.1276L98.122 33.1256L98.1155 33.1333L98.1091 33.1411L101.724 36.1276ZM104.378 34.275L106.097 38.6379L112.849 35.978L107.649 30.9152L104.378 34.275ZM103.377 29.2178L98.866 27.9359L98.8626 27.9482L103.377 29.2178ZM104.729 24.4611L100.22 23.1729L100.218 23.1792L104.729 24.4611ZM108.033 18.5027L111.035 22.1051L111.06 22.0843L111.085 22.0631L108.033 18.5027ZM113.541 31.471L110.056 28.3341L110.046 28.3448L110.036 28.3556L113.541 31.471ZM114.292 29.9689L118.784 31.3164L118.792 31.2892L118.8 31.262L114.292 29.9689ZM116.045 23.8603L120.552 25.1534L120.562 25.1187L120.571 25.0838L116.045 23.8603ZM111.488 22.5084L108.003 19.3714L107.993 19.3822L107.983 19.393L111.488 22.5084ZM110.787 23.9604L106.296 22.613L106.288 22.6401L106.28 22.6673L110.787 23.9604ZM109.035 30.069L104.527 28.7759L104.517 28.8107L104.508 28.8456L109.035 30.069ZM111.739 38.8815L116.247 40.1697L116.257 40.1374L116.265 40.105L111.739 38.8815ZM107.182 37.5296L103.697 34.3926L103.687 34.4034L103.677 34.4142L107.182 37.5296ZM106.481 38.9816L101.99 37.6342L101.981 37.6637L101.972 37.6934L106.481 38.9816ZM104.879 44.5895L100.37 43.3013L100.361 43.3336L100.352 43.3661L104.879 44.5895ZM109.385 45.9915L105.9 42.8546L105.89 42.8653L105.88 42.8761L109.385 45.9915ZM110.136 44.4894L114.628 45.8369L114.637 45.8073L114.645 45.7776L110.136 44.4894ZM115.694 21.3895C116.555 21.3895 116.96 21.5267 117.086 21.5839C117.14 21.6084 117.138 21.6154 117.11 21.5909C117.081 21.5652 117.066 21.5416 117.066 21.542L125.137 16.7653C123.015 13.179 119.272 12.0109 115.694 12.0109V21.3895ZM117.066 21.542C117.175 21.7251 117.469 22.3486 116.991 24.0321L126.013 26.5925C126.938 23.3358 126.965 19.8534 125.137 16.7653L117.066 21.542ZM116.989 24.0394L115.888 27.9449L124.914 30.4908L126.015 26.5853L116.989 24.0394ZM115.863 28.0342C115.537 29.2854 115.232 29.7961 115.147 29.9092L122.65 35.5364C123.767 34.0472 124.463 32.2212 124.938 30.4015L115.863 28.0342ZM115.147 29.9092C115.102 29.9693 115.02 30.0647 114.754 30.1714L118.237 38.8792C119.973 38.1848 121.493 37.0785 122.65 35.5364L115.147 29.9092ZM113.304 37.9616C113.35 38.0036 113.34 38.0049 113.313 37.9597C113.285 37.9118 113.265 37.8578 113.256 37.8161C113.237 37.7322 113.301 37.8882 113.146 38.417L122.148 41.0483C122.627 39.4075 122.816 37.6107 122.413 35.791C122 33.9211 121.029 32.3362 119.686 31.0891L113.304 37.9616ZM113.136 38.4507L111.784 43.2074L120.806 45.7714L122.158 41.0147L113.136 38.4507ZM111.79 43.1868C111.111 45.5341 110.358 46.5279 109.939 46.8874L116.042 54.0082C118.427 51.9643 119.876 48.9858 120.8 45.792L111.79 43.1868ZM109.939 46.8874C109.581 47.1939 108.902 47.5611 107.432 47.5611V56.9396C110.569 56.9396 113.596 56.1051 116.042 54.0082L109.939 46.8874ZM107.432 47.5611H104.829V56.9396H107.432V47.5611ZM104.829 47.5611C103.957 47.5611 103.54 47.4248 103.404 47.3644C103.345 47.3383 103.347 47.3305 103.376 47.3562C103.408 47.3835 103.429 47.4122 103.435 47.4221L95.4075 52.2719C97.5485 55.8155 101.292 56.9396 104.829 56.9396V47.5611ZM103.457 47.4586C103.352 47.2814 103.049 46.6412 103.536 44.9026L94.5049 42.3738C93.5898 45.6423 93.5544 49.1412 95.3856 52.2353L103.457 47.4586ZM103.534 44.9112L104.635 41.0056L95.6089 38.4597L94.5074 42.3652L103.534 44.9112ZM104.655 40.9352C104.825 40.2932 104.991 39.8293 105.133 39.5092C105.279 39.1812 105.365 39.0838 105.34 39.1141L98.1091 33.1411C96.8431 34.6737 96.0921 36.6364 95.5896 38.5302L104.655 40.9352ZM105.327 39.1296C105.426 39.0108 105.627 38.823 106.097 38.6379L102.659 29.912C100.926 30.5948 99.3582 31.6422 98.122 33.1256L105.327 39.1296ZM107.649 30.9152C107.645 30.9105 107.676 30.9413 107.713 31.0088C107.751 31.0775 107.77 31.1395 107.776 31.1735C107.788 31.2337 107.734 31.0458 107.891 30.4874L98.8626 27.9482C97.9353 31.2452 98.2788 34.8812 101.107 37.6347L107.649 30.9152ZM107.887 30.4998L109.239 25.7431L100.218 23.1792L98.8661 27.9359L107.887 30.4998ZM109.237 25.7494C109.922 23.3545 110.671 22.4086 111.035 22.1051L105.031 14.9003C102.591 16.9335 101.138 19.9599 100.22 23.1729L109.237 25.7494ZM111.085 22.0631C111.443 21.7567 112.121 21.3895 113.591 21.3895V12.0109C110.455 12.0109 107.428 12.8454 104.982 14.9423L111.085 22.0631ZM113.591 21.3895H115.694V12.0109H113.591V21.3895ZM112.289 36.6109C113.628 36.6109 115.571 36.2462 117.046 34.5864L110.036 28.3556C110.977 27.2967 112.086 27.2324 112.289 27.2324V36.6109ZM117.027 34.608C117.976 33.5534 118.483 32.3178 118.784 31.3164L109.801 28.6214C109.76 28.757 109.74 28.7886 109.76 28.748C109.779 28.7099 109.865 28.5462 110.056 28.3341L117.027 34.608ZM118.8 31.262L120.552 25.1534L111.537 22.5672L109.785 28.6758L118.8 31.262ZM120.571 25.0838C120.865 23.9974 121.237 21.7514 119.745 19.7066C118.203 17.5941 115.877 17.3184 114.693 17.3184V26.6969C114.643 26.6969 114.319 26.6951 113.859 26.5266C113.354 26.3414 112.693 25.9532 112.169 25.235C111.652 24.527 111.497 23.8124 111.468 23.3449C111.441 22.9126 111.514 22.6492 111.518 22.6368L120.571 25.0838ZM114.693 17.3184H112.79V26.6969H114.693V17.3184ZM112.79 17.3184C111.268 17.3184 109.416 17.8013 108.003 19.3714L114.974 25.6453C114.612 26.0477 114.17 26.3373 113.722 26.5096C113.298 26.6727 112.959 26.6969 112.79 26.6969V17.3184ZM107.983 19.393C107.044 20.4494 106.569 21.7034 106.296 22.613L115.279 25.3079C115.327 25.1456 115.353 25.1003 115.336 25.1354C115.326 25.1561 115.298 25.2115 115.247 25.2911C115.196 25.3702 115.114 25.4873 114.993 25.6238L107.983 19.393ZM106.28 22.6673L104.527 28.7759L113.542 31.3622L115.295 25.2535L106.28 22.6673ZM104.508 28.8456C104.214 29.9319 103.842 32.1779 105.334 34.2227C106.876 36.3352 109.202 36.6109 110.387 36.6109V27.2324C110.436 27.2324 110.76 27.2342 111.22 27.4027C111.726 27.5879 112.386 27.9761 112.91 28.6943C113.427 29.4023 113.582 30.1169 113.611 30.5844C113.639 31.0167 113.565 31.2801 113.562 31.2925L104.508 28.8456ZM110.387 36.6109H112.289V27.2324H110.387V36.6109ZM116.265 40.105C116.559 39.0186 116.931 36.7726 115.439 34.7278C113.897 32.6154 111.571 32.3396 110.387 32.3396V41.7182C110.337 41.7182 110.013 41.7163 109.553 41.5478C109.047 41.3627 108.387 40.9744 107.863 40.2562C107.346 39.5482 107.191 38.8336 107.162 38.3661C107.135 37.9338 107.208 37.6704 107.212 37.658L116.265 40.105ZM110.387 32.3396H108.484V41.7182H110.387V32.3396ZM108.484 32.3396C106.962 32.3396 105.11 32.8225 103.697 34.3926L110.668 40.6665C110.305 41.0689 109.864 41.3585 109.416 41.5308C108.992 41.6939 108.653 41.7182 108.484 41.7182V32.3396ZM103.677 34.4142C102.738 35.4706 102.262 36.7246 101.99 37.6342L110.973 40.3291C111.021 40.1669 111.046 40.1215 111.029 40.1566C111.019 40.1773 110.992 40.2327 110.941 40.3123C110.89 40.3915 110.808 40.5085 110.687 40.645L103.677 34.4142ZM101.972 37.6934L100.37 43.3013L109.388 45.8778L110.99 40.2699L101.972 37.6934ZM100.352 43.3661C100.058 44.4524 99.6863 46.6984 101.178 48.7432C102.72 50.8557 105.046 51.1314 106.231 51.1314V41.7529C106.28 41.7529 106.604 41.7547 107.065 41.9232C107.57 42.1084 108.23 42.4966 108.754 43.2148C109.271 43.9228 109.426 44.6374 109.456 45.1049C109.483 45.5372 109.409 45.8006 109.406 45.813L100.352 43.3661ZM106.231 51.1314H108.133V41.7529H106.231V51.1314ZM108.133 51.1314C109.472 51.1314 111.415 50.7667 112.89 49.1069L105.88 42.8761C106.822 41.8172 107.93 41.7529 108.133 41.7529V51.1314ZM112.871 49.1285C113.82 48.0739 114.327 46.8383 114.628 45.8369L105.645 43.1419C105.604 43.2775 105.584 43.309 105.604 43.2685C105.623 43.2304 105.709 43.0667 105.9 42.8546L112.871 49.1285ZM114.645 45.7776L116.247 40.1697L107.23 37.5932L105.627 43.2012L114.645 45.7776ZM122.625 56.5064V61.1956H125.749L126.953 58.3126L122.625 56.5064ZM117.618 56.5064L113.111 55.2129L111.394 61.1956H117.618V56.5064ZM120.923 44.9901V40.3008H117.39L116.416 43.6967L120.923 44.9901ZM127.432 44.9901L131.76 46.7963L134.471 40.3008H127.432V44.9901ZM122.625 51.8171H117.618V61.1956H122.625V51.8171ZM122.126 57.7998L125.43 46.2835L116.416 43.6967L113.111 55.2129L122.126 57.7998ZM120.923 49.6794H127.432V40.3008H120.923V49.6794ZM123.105 43.1839L118.298 54.7001L126.953 58.3126L131.76 46.7963L123.105 43.1839ZM149.887 44.4894L154.392 45.792L154.395 45.7825L154.397 45.773L149.887 44.4894ZM146.583 50.4478L143.531 46.8874L143.531 46.8874L146.583 50.4478ZM133.013 49.7969L137.049 47.4085L133.013 49.7969ZM132.613 43.6382L128.103 42.3546L128.102 42.358L132.613 43.6382ZM138.071 24.4611L133.566 23.1586L133.563 23.168L133.56 23.1775L138.071 24.4611ZM141.375 18.5027L144.427 22.0631V22.0631L141.375 18.5027ZM154.944 19.1536L150.909 21.542L154.944 19.1536ZM155.345 25.3123L159.855 26.5959L159.856 26.5925L155.345 25.3123ZM149.487 24.361L153.995 25.6507L154.005 25.6177L154.014 25.5845L149.487 24.361ZM144.93 23.0091L141.445 19.8721L141.435 19.8829L141.425 19.8937L144.93 23.0091ZM144.229 24.4611L139.738 23.1137L139.729 23.1425L139.721 23.1714L144.229 24.4611ZM138.471 44.5895L133.963 43.2998L133.953 43.3329L133.944 43.3661L138.471 44.5895ZM142.978 45.9915L139.492 42.8546L139.482 42.8653L139.473 42.8761L142.978 45.9915ZM143.729 44.4894L148.22 45.8369L148.229 45.808L148.237 45.7791L143.729 44.4894ZM145.383 43.1868C144.704 45.5341 143.95 46.5279 143.531 46.8874L149.634 54.0082C152.019 51.9643 153.468 48.9858 154.392 45.792L145.383 43.1868ZM143.531 46.8874C143.173 47.1939 142.495 47.5611 141.025 47.5611V56.9396C144.161 56.9396 147.188 56.1051 149.634 54.0082L143.531 46.8874ZM141.025 47.5611H138.421V56.9396H141.025V47.5611ZM138.421 47.5611C137.56 47.5611 137.155 47.4239 137.029 47.3667C136.975 47.3421 136.977 47.3352 137.005 47.3596C137.034 47.3853 137.049 47.4089 137.049 47.4085L128.978 52.1852C131.1 55.7716 134.844 56.9396 138.421 56.9396V47.5611ZM137.049 47.4085C136.941 47.2254 136.646 46.602 137.124 44.9184L128.102 42.358C127.178 45.6147 127.15 49.0971 128.978 52.1852L137.049 47.4085ZM137.123 44.9218L142.581 25.7447L133.56 23.1775L128.103 42.3546L137.123 44.9218ZM142.575 25.7637C143.254 23.4164 144.008 22.4226 144.427 22.0631L138.324 14.9423C135.939 16.9862 134.489 19.9647 133.566 23.1586L142.575 25.7637ZM144.427 22.0631C144.785 21.7567 145.463 21.3895 146.933 21.3895V12.0109C143.797 12.0109 140.77 12.8454 138.324 14.9423L144.427 22.0631ZM146.933 21.3895H149.537V12.0109H146.933V21.3895ZM149.537 21.3895C150.398 21.3895 150.803 21.5267 150.929 21.5839C150.983 21.6084 150.981 21.6154 150.953 21.5909C150.924 21.5652 150.909 21.5416 150.909 21.542L158.98 16.7653C156.857 13.179 153.114 12.0109 149.537 12.0109V21.3895ZM150.909 21.542C151.017 21.7251 151.312 22.3486 150.834 24.0321L159.856 26.5925C160.78 23.3358 160.808 19.8534 158.98 16.7653L150.909 21.542ZM150.835 24.0287L145.377 43.2058L154.397 45.773L159.855 26.5959L150.835 24.0287ZM154.014 25.5845C154.307 24.4981 154.679 22.2521 153.187 20.2073C151.646 18.0949 149.319 17.8191 148.135 17.8191V27.1977C148.086 27.1977 147.761 27.1958 147.301 27.0273C146.796 26.8422 146.135 26.4539 145.611 25.7357C145.094 25.0277 144.939 24.3131 144.91 23.8456C144.883 23.4133 144.956 23.1499 144.96 23.1375L154.014 25.5845ZM148.135 17.8191H146.232V27.1977H148.135V17.8191ZM146.232 17.8191C144.71 17.8191 142.858 18.302 141.445 19.8721L148.416 26.146C148.054 26.5484 147.612 26.838 147.164 27.0103C146.74 27.1734 146.401 27.1977 146.232 27.1977V17.8191ZM141.425 19.8937C140.486 20.9501 140.011 22.2041 139.738 23.1137L148.721 25.8086C148.769 25.6464 148.795 25.601 148.778 25.6361C148.768 25.6568 148.74 25.7122 148.689 25.7918C148.638 25.871 148.556 25.988 148.435 26.1245L141.425 19.8937ZM139.721 23.1714L133.963 43.2998L142.98 45.8793L148.738 25.7509L139.721 23.1714ZM133.944 43.3661C133.651 44.4524 133.279 46.6984 134.771 48.7432C136.312 50.8557 138.639 51.1314 139.823 51.1314V41.7529C139.872 41.7529 140.197 41.7547 140.657 41.9232C141.162 42.1084 141.823 42.4966 142.347 43.2148C142.863 43.9228 143.018 44.6374 143.048 45.1049C143.075 45.5372 143.001 45.8006 142.998 45.813L133.944 43.3661ZM139.823 51.1314H141.726V41.7529H139.823V51.1314ZM141.726 51.1314C143.064 51.1314 145.007 50.7667 146.482 49.1069L139.473 42.8761C140.414 41.8172 141.522 41.7529 141.726 41.7529V51.1314ZM146.463 49.1285C147.412 48.0739 147.92 46.8383 148.22 45.8369L139.237 43.1419C139.196 43.2775 139.176 43.309 139.196 43.2685C139.215 43.2304 139.301 43.0667 139.492 42.8546L146.463 49.1285ZM148.237 45.7791L153.995 25.6507L144.978 23.0713L139.22 43.1997L148.237 45.7791ZM171.94 44.4894L176.445 45.792L176.447 45.7825L176.45 45.773L171.94 44.4894ZM168.635 50.4478L165.583 46.8874L165.583 46.8874L168.635 50.4478ZM155.066 49.7969L159.102 47.4085L155.066 49.7969ZM154.666 43.6382L150.155 42.3546L150.154 42.358L154.666 43.6382ZM160.123 24.4611L155.618 23.1586L155.616 23.168L155.613 23.1775L160.123 24.4611ZM163.428 18.5027L166.48 22.0631V22.0631L163.428 18.5027ZM176.997 19.1536L172.962 21.542L176.997 19.1536ZM177.398 25.3123L181.908 26.5959L181.909 26.5925L177.398 25.3123ZM171.539 24.361L176.048 25.6507L176.057 25.6177L176.066 25.5845L171.539 24.361ZM166.983 23.0091L163.497 19.8721L163.488 19.8829L163.478 19.8937L166.983 23.0091ZM166.282 24.4611L161.79 23.1137L161.782 23.1425L161.773 23.1714L166.282 24.4611ZM160.524 44.5895L156.015 43.2998L156.006 43.3329L155.997 43.3661L160.524 44.5895ZM165.03 45.9915L161.545 42.8546L161.535 42.8653L161.525 42.8761L165.03 45.9915ZM165.781 44.4894L170.273 45.8369L170.281 45.808L170.29 45.7791L165.781 44.4894ZM167.435 43.1868C166.756 45.5341 166.003 46.5279 165.583 46.8874L171.687 54.0082C174.072 51.9643 175.521 48.9858 176.445 45.792L167.435 43.1868ZM165.583 46.8874C165.226 47.1939 164.547 47.5611 163.077 47.5611V56.9396C166.214 56.9396 169.241 56.1051 171.687 54.0082L165.583 46.8874ZM163.077 47.5611H160.474V56.9396H163.077V47.5611ZM160.474 47.5611C159.612 47.5611 159.208 47.4239 159.081 47.3667C159.027 47.3421 159.03 47.3352 159.057 47.3596C159.086 47.3853 159.102 47.4089 159.102 47.4085L151.031 52.1852C153.153 55.7716 156.896 56.9396 160.474 56.9396V47.5611ZM159.102 47.4085C158.993 47.2254 158.699 46.602 159.177 44.9184L150.154 42.358C149.23 45.6147 149.203 49.0971 151.031 52.1852L159.102 47.4085ZM159.176 44.9218L164.633 25.7447L155.613 23.1775L150.155 42.3546L159.176 44.9218ZM164.628 25.7637C165.307 23.4164 166.06 22.4226 166.48 22.0631L160.376 14.9423C157.992 16.9862 156.542 19.9647 155.618 23.1586L164.628 25.7637ZM166.48 22.0631C166.837 21.7567 167.516 21.3895 168.986 21.3895V12.0109C165.849 12.0109 162.823 12.8454 160.376 14.9423L166.48 22.0631ZM168.986 21.3895H171.589V12.0109H168.986V21.3895ZM171.589 21.3895C172.451 21.3895 172.856 21.5267 172.982 21.5839C173.036 21.6084 173.033 21.6154 173.006 21.5909C172.977 21.5652 172.961 21.5416 172.962 21.542L181.033 16.7653C178.91 13.179 175.167 12.0109 171.589 12.0109V21.3895ZM172.962 21.542C173.07 21.7251 173.364 22.3486 172.886 24.0321L181.909 26.5925C182.833 23.3358 182.86 19.8534 181.033 16.7653L172.962 21.542ZM172.887 24.0287L167.43 43.2058L176.45 45.773L181.908 26.5959L172.887 24.0287ZM176.066 25.5845C176.36 24.4981 176.732 22.2521 175.24 20.2073C173.698 18.0949 171.372 17.8191 170.187 17.8191V27.1977C170.138 27.1977 169.814 27.1958 169.354 27.0273C168.848 26.8422 168.188 26.4539 167.664 25.7357C167.147 25.0277 166.992 24.3131 166.963 23.8456C166.935 23.4133 167.009 23.1499 167.012 23.1375L176.066 25.5845ZM170.187 17.8191H168.285V27.1977H170.187V17.8191ZM168.285 17.8191C166.763 17.8191 164.91 18.302 163.497 19.8721L170.468 26.146C170.106 26.5484 169.665 26.838 169.217 27.0103C168.793 27.1734 168.453 27.1977 168.285 27.1977V17.8191ZM163.478 19.8937C162.539 20.9501 162.063 22.2041 161.79 23.1137L170.773 25.8086C170.822 25.6464 170.847 25.601 170.83 25.6361C170.82 25.6568 170.792 25.7122 170.742 25.7918C170.691 25.871 170.609 25.988 170.488 26.1245L163.478 19.8937ZM161.773 23.1714L156.015 43.2998L165.032 45.8793L170.79 25.7509L161.773 23.1714ZM155.997 43.3661C155.703 44.4524 155.331 46.6984 156.823 48.7432C158.365 50.8557 160.691 51.1314 161.876 51.1314V41.7529C161.925 41.7529 162.249 41.7547 162.71 41.9232C163.215 42.1084 163.875 42.4966 164.399 43.2148C164.916 43.9228 165.071 44.6374 165.101 45.1049C165.128 45.5372 165.054 45.8006 165.051 45.813L155.997 43.3661ZM161.876 51.1314H163.778V41.7529H161.876V51.1314ZM163.778 51.1314C165.117 51.1314 167.06 50.7667 168.535 49.1069L161.525 42.8761C162.467 41.8172 163.575 41.7529 163.778 41.7529V51.1314ZM168.516 49.1285C169.465 48.0739 169.972 46.8383 170.273 45.8369L161.29 43.1419C161.249 43.2775 161.229 43.309 161.249 43.2685C161.268 43.2304 161.354 43.0667 161.545 42.8546L168.516 49.1285ZM170.29 45.7791L176.048 25.6507L167.031 23.0713L161.273 43.1997L170.29 45.7791ZM178.27 56.5064V61.1956H181.394L182.598 58.3126L178.27 56.5064ZM173.263 56.5064L168.756 55.2129L167.039 61.1956H173.263V56.5064ZM176.568 44.9901V40.3008H173.035L172.061 43.6967L176.568 44.9901ZM183.077 44.9901L187.405 46.7963L190.116 40.3008H183.077V44.9901ZM178.27 51.8171H173.263V61.1956H178.27V51.8171ZM177.771 57.7998L181.075 46.2835L172.061 43.6967L168.756 55.2129L177.771 57.7998ZM176.568 49.6794H183.077V40.3008H176.568V49.6794ZM178.75 43.1839L173.943 54.7001L182.598 58.3126L187.405 46.7963L178.75 43.1839ZM205.532 44.4894L210.037 45.792L210.04 45.7825L210.042 45.773L205.532 44.4894ZM202.228 50.4478L199.176 46.8874V46.8874L202.228 50.4478ZM188.658 49.7969L192.694 47.4085L188.658 49.7969ZM188.258 43.6382L183.748 42.3546L183.747 42.358L188.258 43.6382ZM193.716 24.4611L189.211 23.1586L189.208 23.168L189.205 23.1775L193.716 24.4611ZM197.02 18.5027L200.072 22.0631V22.0631L197.02 18.5027ZM210.589 19.1536L206.554 21.542L210.589 19.1536ZM210.99 25.3123L215.5 26.5959L215.501 26.5925L210.99 25.3123ZM205.132 24.361L209.64 25.6507L209.65 25.6177L209.659 25.5845L205.132 24.361ZM200.575 23.0091L197.09 19.8721L197.08 19.8829L197.07 19.8937L200.575 23.0091ZM199.874 24.4611L195.383 23.1137L195.374 23.1425L195.366 23.1714L199.874 24.4611ZM194.116 44.5895L189.608 43.2998L189.598 43.3329L189.589 43.3661L194.116 44.5895ZM198.622 45.9915L195.137 42.8546L195.127 42.8653L195.118 42.8761L198.622 45.9915ZM199.374 44.4894L203.865 45.8369L203.874 45.808L203.882 45.7791L199.374 44.4894ZM201.027 43.1868C200.349 45.5341 199.595 46.5279 199.176 46.8874L205.279 54.0082C207.664 51.9643 209.113 48.9858 210.037 45.792L201.027 43.1868ZM199.176 46.8874C198.818 47.1939 198.14 47.5611 196.67 47.5611V56.9396C199.806 56.9396 202.833 56.1051 205.279 54.0082L199.176 46.8874ZM196.67 47.5611H194.066V56.9396H196.67V47.5611ZM194.066 47.5611C193.205 47.5611 192.8 47.4239 192.674 47.3667C192.62 47.3421 192.622 47.3352 192.65 47.3596C192.679 47.3853 192.694 47.4089 192.694 47.4085L184.623 52.1852C186.745 55.7716 190.489 56.9396 194.066 56.9396V47.5611ZM192.694 47.4085C192.586 47.2254 192.291 46.602 192.769 44.9184L183.747 42.358C182.822 45.6147 182.795 49.0971 184.623 52.1852L192.694 47.4085ZM192.768 44.9218L198.226 25.7447L189.205 23.1775L183.748 42.3546L192.768 44.9218ZM198.22 25.7637C198.899 23.4164 199.653 22.4226 200.072 22.0631L193.968 14.9423C191.584 16.9862 190.134 19.9647 189.211 23.1586L198.22 25.7637ZM200.072 22.0631C200.429 21.7567 201.108 21.3895 202.578 21.3895V12.0109C199.442 12.0109 196.415 12.8454 193.968 14.9423L200.072 22.0631ZM202.578 21.3895H205.182V12.0109H202.578V21.3895ZM205.182 21.3895C206.043 21.3895 206.448 21.5267 206.574 21.5839C206.628 21.6084 206.626 21.6154 206.598 21.5909C206.569 21.5652 206.554 21.5416 206.554 21.542L214.625 16.7653C212.502 13.179 208.759 12.0109 205.182 12.0109V21.3895ZM206.554 21.542C206.662 21.7251 206.957 22.3486 206.479 24.0321L215.501 26.5925C216.425 23.3358 216.453 19.8534 214.625 16.7653L206.554 21.542ZM206.48 24.0287L201.022 43.2058L210.042 45.773L215.5 26.5959L206.48 24.0287ZM209.659 25.5845C209.952 24.4981 210.324 22.2521 208.832 20.2073C207.29 18.0949 204.964 17.8191 203.78 17.8191V27.1977C203.73 27.1977 203.406 27.1958 202.946 27.0273C202.441 26.8422 201.78 26.4539 201.256 25.7357C200.739 25.0277 200.584 24.3131 200.555 23.8456C200.528 23.4133 200.601 23.1499 200.605 23.1375L209.659 25.5845ZM203.78 17.8191H201.877V27.1977H203.78V17.8191ZM201.877 17.8191C200.355 17.8191 198.503 18.302 197.09 19.8721L204.061 26.146C203.699 26.5484 203.257 26.838 202.809 27.0103C202.385 27.1734 202.046 27.1977 201.877 27.1977V17.8191ZM197.07 19.8937C196.131 20.9501 195.656 22.2041 195.383 23.1137L204.366 25.8086C204.414 25.6464 204.44 25.601 204.423 25.6361C204.413 25.6568 204.385 25.7122 204.334 25.7918C204.283 25.871 204.201 25.988 204.08 26.1245L197.07 19.8937ZM195.366 23.1714L189.608 43.2998L198.625 45.8793L204.383 25.7509L195.366 23.1714ZM189.589 43.3661C189.296 44.4524 188.924 46.6984 190.416 48.7432C191.957 50.8557 194.283 51.1314 195.468 51.1314V41.7529C195.517 41.7529 195.842 41.7547 196.302 41.9232C196.807 42.1084 197.468 42.4966 197.992 43.2148C198.508 43.9228 198.663 44.6374 198.693 45.1049C198.72 45.5372 198.646 45.8006 198.643 45.813L189.589 43.3661ZM195.468 51.1314H197.371V41.7529H195.468V51.1314ZM197.371 51.1314C198.709 51.1314 200.652 50.7667 202.127 49.1069L195.118 42.8761C196.059 41.8172 197.167 41.7529 197.371 41.7529V51.1314ZM202.108 49.1285C203.057 48.0739 203.565 46.8383 203.865 45.8369L194.882 43.1419C194.841 43.2775 194.821 43.309 194.841 43.2685C194.86 43.2304 194.946 43.0667 195.137 42.8546L202.108 49.1285ZM203.882 45.7791L209.64 25.6507L200.623 23.0713L194.865 43.1997L203.882 45.7791ZM227.585 44.4894L232.09 45.792L232.092 45.7825L232.095 45.773L227.585 44.4894ZM224.28 50.4478L221.228 46.8874V46.8874L224.28 50.4478ZM210.711 49.7969L214.747 47.4085L210.711 49.7969ZM210.31 43.6382L205.8 42.3546L205.799 42.358L210.31 43.6382ZM215.768 24.4611L211.263 23.1586L211.261 23.168L211.258 23.1775L215.768 24.4611ZM219.073 18.5027L222.125 22.0631V22.0631L219.073 18.5027ZM232.642 19.1536L228.607 21.542L232.642 19.1536ZM233.043 25.3123L237.553 26.5959L237.554 26.5925L233.043 25.3123ZM227.184 24.361L231.693 25.6507L231.702 25.6177L231.711 25.5845L227.184 24.361ZM222.628 23.0091L219.142 19.8721L219.133 19.8829L219.123 19.8937L222.628 23.0091ZM221.927 24.4611L217.435 23.1137L217.427 23.1425L217.418 23.1714L221.927 24.4611ZM216.169 44.5895L211.66 43.2998L211.651 43.3329L211.642 43.3661L216.169 44.5895ZM220.675 45.9915L217.19 42.8546L217.18 42.8653L217.17 42.8761L220.675 45.9915ZM221.426 44.4894L225.918 45.8369L225.926 45.808L225.935 45.7791L221.426 44.4894ZM223.08 43.1868C222.401 45.5341 221.648 46.5279 221.228 46.8874L227.332 54.0082C229.716 51.9643 231.166 48.9858 232.09 45.792L223.08 43.1868ZM221.228 46.8874C220.871 47.1939 220.192 47.5611 218.722 47.5611V56.9396C221.859 56.9396 224.885 56.1051 227.332 54.0082L221.228 46.8874ZM218.722 47.5611H216.119V56.9396H218.722V47.5611ZM216.119 47.5611C215.257 47.5611 214.853 47.4239 214.726 47.3667C214.672 47.3421 214.675 47.3352 214.702 47.3596C214.731 47.3853 214.747 47.4089 214.747 47.4085L206.676 52.1852C208.798 55.7716 212.541 56.9396 216.119 56.9396V47.5611ZM214.747 47.4085C214.638 47.2254 214.344 46.602 214.822 44.9184L205.799 42.358C204.875 45.6147 204.848 49.0971 206.676 52.1852L214.747 47.4085ZM214.821 44.9218L220.278 25.7447L211.258 23.1775L205.8 42.3546L214.821 44.9218ZM220.273 25.7637C220.952 23.4164 221.705 22.4226 222.125 22.0631L216.021 14.9423C213.637 16.9862 212.187 19.9647 211.263 23.1586L220.273 25.7637ZM222.125 22.0631C222.482 21.7567 223.161 21.3895 224.631 21.3895V12.0109C221.494 12.0109 218.468 12.8454 216.021 14.9423L222.125 22.0631ZM224.631 21.3895H227.234V12.0109H224.631V21.3895ZM227.234 21.3895C228.096 21.3895 228.501 21.5267 228.627 21.5839C228.681 21.6084 228.678 21.6154 228.651 21.5909C228.622 21.5652 228.606 21.5416 228.607 21.542L236.677 16.7653C234.555 13.179 230.812 12.0109 227.234 12.0109V21.3895ZM228.607 21.542C228.715 21.7251 229.009 22.3486 228.531 24.0321L237.554 26.5925C238.478 23.3358 238.505 19.8534 236.677 16.7653L228.607 21.542ZM228.532 24.0287L223.075 43.2058L232.095 45.773L237.553 26.5959L228.532 24.0287ZM231.711 25.5845C232.005 24.4981 232.377 22.2521 230.885 20.2073C229.343 18.0949 227.017 17.8191 225.832 17.8191V27.1977C225.783 27.1977 225.459 27.1958 224.999 27.0273C224.493 26.8422 223.833 26.4539 223.309 25.7357C222.792 25.0277 222.637 24.3131 222.608 23.8456C222.58 23.4133 222.654 23.1499 222.657 23.1375L231.711 25.5845ZM225.832 17.8191H223.93V27.1977H225.832V17.8191ZM223.93 17.8191C222.408 17.8191 220.555 18.302 219.142 19.8721L226.113 26.146C225.751 26.5484 225.31 26.838 224.862 27.0103C224.438 27.1734 224.098 27.1977 223.93 27.1977V17.8191ZM219.123 19.8937C218.184 20.9501 217.708 22.2041 217.435 23.1137L226.418 25.8086C226.467 25.6464 226.492 25.601 226.475 25.6361C226.465 25.6568 226.437 25.7122 226.387 25.7918C226.336 25.871 226.254 25.988 226.133 26.1245L219.123 19.8937ZM217.418 23.1714L211.66 43.2998L220.677 45.8793L226.435 25.7509L217.418 23.1714ZM211.642 43.3661C211.348 44.4524 210.976 46.6984 212.468 48.7432C214.01 50.8557 216.336 51.1314 217.521 51.1314V41.7529C217.57 41.7529 217.894 41.7547 218.354 41.9232C218.86 42.1084 219.52 42.4966 220.044 43.2148C220.561 43.9228 220.716 44.6374 220.745 45.1049C220.773 45.5372 220.699 45.8006 220.696 45.813L211.642 43.3661ZM217.521 51.1314H219.423V41.7529H217.521V51.1314ZM219.423 51.1314C220.762 51.1314 222.705 50.7667 224.18 49.1069L217.17 42.8761C218.112 41.8172 219.22 41.7529 219.423 41.7529V51.1314ZM224.161 49.1285C225.11 48.0739 225.617 46.8383 225.918 45.8369L216.935 43.1419C216.894 43.2775 216.874 43.309 216.894 43.2685C216.913 43.2304 216.999 43.0667 217.19 42.8546L224.161 49.1285ZM225.935 45.7791L231.693 25.6507L222.676 23.0713L216.918 43.1997L225.935 45.7791ZM249.637 44.4894L254.142 45.792L254.145 45.7825L254.148 45.773L249.637 44.4894ZM246.333 50.4478L243.281 46.8874V46.8874L246.333 50.4478ZM232.764 49.7969L236.799 47.4085L232.764 49.7969ZM232.363 43.6382L227.853 42.3546L227.852 42.358L232.363 43.6382ZM237.821 24.4611L233.316 23.1586L233.313 23.168L233.311 23.1775L237.821 24.4611ZM241.125 18.5027L244.177 22.0631V22.0631L241.125 18.5027ZM254.695 19.1536L250.659 21.542L254.695 19.1536ZM255.095 25.3123L259.605 26.5959L259.606 26.5925L255.095 25.3123ZM249.237 24.361L253.745 25.6507L253.755 25.6177L253.764 25.5845L249.237 24.361ZM244.68 23.0091L241.195 19.8721L241.185 19.8829L241.176 19.8937L244.68 23.0091ZM243.979 24.4611L239.488 23.1137L239.479 23.1425L239.471 23.1714L243.979 24.4611ZM238.221 44.5895L233.713 43.2998L233.703 43.3329L233.694 43.3661L238.221 44.5895ZM242.728 45.9915L239.242 42.8546L239.233 42.8653L239.223 42.8761L242.728 45.9915ZM243.479 44.4894L247.97 45.8369L247.979 45.808L247.987 45.7791L243.479 44.4894ZM245.133 43.1868C244.454 45.5341 243.701 46.5279 243.281 46.8874L249.385 54.0082C251.769 51.9643 253.219 48.9858 254.142 45.792L245.133 43.1868ZM243.281 46.8874C242.924 47.1939 242.245 47.5611 240.775 47.5611V56.9396C243.911 56.9396 246.938 56.1051 249.385 54.0082L243.281 46.8874ZM240.775 47.5611H238.171V56.9396H240.775V47.5611ZM238.171 47.5611C237.31 47.5611 236.905 47.4239 236.779 47.3667C236.725 47.3421 236.727 47.3352 236.755 47.3596C236.784 47.3853 236.799 47.4089 236.799 47.4085L228.728 52.1852C230.851 55.7716 234.594 56.9396 238.171 56.9396V47.5611ZM236.799 47.4085C236.691 47.2254 236.396 46.602 236.874 44.9184L227.852 42.358C226.928 45.6147 226.9 49.0971 228.728 52.1852L236.799 47.4085ZM236.873 44.9218L242.331 25.7447L233.311 23.1775L227.853 42.3546L236.873 44.9218ZM242.326 25.7637C243.004 23.4164 243.758 22.4226 244.177 22.0631L238.074 14.9423C235.689 16.9862 234.24 19.9647 233.316 23.1586L242.326 25.7637ZM244.177 22.0631C244.535 21.7567 245.213 21.3895 246.683 21.3895V12.0109C243.547 12.0109 240.52 12.8454 238.074 14.9423L244.177 22.0631ZM246.683 21.3895H249.287V12.0109H246.683V21.3895ZM249.287 21.3895C250.148 21.3895 250.553 21.5267 250.679 21.5839C250.733 21.6084 250.731 21.6154 250.703 21.5909C250.674 21.5652 250.659 21.5416 250.659 21.542L258.73 16.7653C256.608 13.179 252.864 12.0109 249.287 12.0109V21.3895ZM250.659 21.542C250.768 21.7251 251.062 22.3486 250.584 24.0321L259.606 26.5925C260.531 23.3358 260.558 19.8534 258.73 16.7653L250.659 21.542ZM250.585 24.0287L245.127 43.2058L254.148 45.773L259.605 26.5959L250.585 24.0287ZM253.764 25.5845C254.057 24.4981 254.429 22.2521 252.937 20.2073C251.396 18.0949 249.07 17.8191 247.885 17.8191V27.1977C247.836 27.1977 247.511 27.1958 247.051 27.0273C246.546 26.8422 245.885 26.4539 245.361 25.7357C244.845 25.0277 244.69 24.3131 244.66 23.8456C244.633 23.4133 244.707 23.1499 244.71 23.1375L253.764 25.5845ZM247.885 17.8191H245.982V27.1977H247.885V17.8191ZM245.982 17.8191C244.461 17.8191 242.608 18.302 241.195 19.8721L248.166 26.146C247.804 26.5484 247.363 26.838 246.915 27.0103C246.49 27.1734 246.151 27.1977 245.982 27.1977V17.8191ZM241.176 19.8937C240.237 20.9501 239.761 22.2041 239.488 23.1137L248.471 25.8086C248.52 25.6464 248.545 25.601 248.528 25.6361C248.518 25.6568 248.49 25.7122 248.439 25.7918C248.389 25.871 248.307 25.988 248.185 26.1245L241.176 19.8937ZM239.471 23.1714L233.713 43.2998L242.73 45.8793L248.488 25.7509L239.471 23.1714ZM233.694 43.3661C233.401 44.4524 233.029 46.6984 234.521 48.7432C236.063 50.8557 238.389 51.1314 239.573 51.1314V41.7529C239.623 41.7529 239.947 41.7547 240.407 41.9232C240.912 42.1084 241.573 42.4966 242.097 43.2148C242.614 43.9228 242.769 44.6374 242.798 45.1049C242.825 45.5372 242.752 45.8006 242.748 45.813L233.694 43.3661ZM239.573 51.1314H241.476V41.7529H239.573V51.1314ZM241.476 51.1314C242.814 51.1314 244.757 50.7667 246.233 49.1069L239.223 42.8761C240.164 41.8172 241.273 41.7529 241.476 41.7529V51.1314ZM246.213 49.1285C247.162 48.0739 247.67 46.8383 247.97 45.8369L238.987 43.1419C238.947 43.2775 238.926 43.309 238.947 43.2685C238.966 43.2304 239.051 43.0667 239.242 42.8546L246.213 49.1285ZM247.987 45.7791L253.745 25.6507L244.728 23.0713L238.97 43.1997L247.987 45.7791Z" fill="#FF682F" mask="url(#path-2-outside-1_562_1924)"/>
<mask id="path-4-outside-2_562_1924" maskUnits="userSpaceOnUse" x="65.5391" y="14" width="192" height="45" fill="black">
<rect fill="white" x="65.5391" y="14" width="192" height="45"/>
<path d="M75.3057 52L68.1456 35.677L68.6963 33.2736H71.1498C73.887 33.2736 75.99 32.8062 77.4587 31.8716C78.9275 30.9036 79.8788 29.6017 80.3127 27.9661H69.5475L70.2485 24.7615H80.5631C80.4296 22.9924 79.7787 21.6739 78.6103 20.806C77.4754 19.9047 75.6729 19.4541 73.2027 19.4541H71.4002L72.0511 16.2495H92.5801L91.9291 19.4541H82.4157C83.0833 19.8546 83.7009 20.5222 84.2683 21.4569C84.8692 22.3582 85.1863 23.4597 85.2197 24.7615H90.7274L90.0265 27.9661H84.9192C84.6188 29.3013 84.0347 30.5864 83.1668 31.8215C82.2989 33.0232 81.0304 34.0246 79.3614 34.8258C77.7258 35.6269 75.5393 36.0942 72.8021 36.2277L80.2126 52H75.3057ZM115.534 16.7002C118.171 16.7002 119.974 17.518 120.942 19.1536C121.91 20.7893 122.043 22.8422 121.342 25.3123L120.241 29.2178C119.84 30.7533 119.339 31.9217 118.738 32.7228C118.138 33.5239 117.336 34.1248 116.335 34.5253C117.737 35.8272 118.121 37.563 117.487 39.7327L116.135 44.4894C115.334 47.26 114.232 49.2461 112.83 50.4478C111.428 51.6495 109.576 52.2504 107.272 52.2504H104.669C102.032 52.2504 100.229 51.4492 99.261 49.847C98.2929 48.2113 98.1594 46.1417 98.8604 43.6382L99.962 39.7327C100.396 38.097 100.93 36.8953 101.564 36.1276C102.232 35.3265 103.116 34.7089 104.218 34.275C102.95 33.0399 102.616 31.3542 103.217 29.2178L104.568 24.4611C105.37 21.6572 106.471 19.671 107.873 18.5027C109.275 17.301 111.128 16.7002 113.431 16.7002H115.534ZM112.129 31.9217C112.697 31.9217 113.114 31.7714 113.381 31.471C113.681 31.1372 113.932 30.6365 114.132 29.9689L115.884 23.8603C116.218 22.6252 115.768 22.0077 114.533 22.0077H112.63C112.062 22.0077 111.628 22.1746 111.328 22.5084C111.061 22.8088 110.827 23.2928 110.627 23.9604L108.875 30.069C108.541 31.3041 108.991 31.9217 110.226 31.9217H112.129ZM111.578 38.8815C111.912 37.6464 111.462 37.0289 110.226 37.0289H108.324C107.756 37.0289 107.322 37.1958 107.022 37.5296C106.755 37.83 106.521 38.314 106.321 38.9816L104.719 44.5895C104.385 45.8246 104.836 46.4422 106.071 46.4422H107.973C108.541 46.4422 108.958 46.2919 109.225 45.9915C109.525 45.6577 109.776 45.157 109.976 44.4894L111.578 38.8815ZM122.465 56.5064H117.458L120.763 44.9901H127.272L122.465 56.5064ZM149.727 44.4894C148.926 47.26 147.824 49.2461 146.422 50.4478C145.02 51.6495 143.168 52.2504 140.865 52.2504H138.261C135.624 52.2504 133.821 51.4325 132.853 49.7969C131.885 48.1612 131.752 46.1083 132.453 43.6382L137.91 24.4611C138.712 21.6905 139.813 19.7044 141.215 18.5027C142.617 17.301 144.47 16.7002 146.773 16.7002H149.377C152.014 16.7002 153.816 17.518 154.784 19.1536C155.752 20.7893 155.886 22.8422 155.185 25.3123L149.727 44.4894ZM149.327 24.361C149.66 23.1259 149.21 22.5084 147.975 22.5084H146.072C145.505 22.5084 145.071 22.6753 144.77 23.0091C144.503 23.3095 144.269 23.7935 144.069 24.4611L138.311 44.5895C137.977 45.8246 138.428 46.4422 139.663 46.4422H141.566C142.133 46.4422 142.55 46.2919 142.817 45.9915C143.118 45.6577 143.368 45.157 143.568 44.4894L149.327 24.361ZM171.78 44.4894C170.979 47.26 169.877 49.2461 168.475 50.4478C167.073 51.6495 165.22 52.2504 162.917 52.2504H160.314C157.677 52.2504 155.874 51.4325 154.906 49.7969C153.938 48.1612 153.804 46.1083 154.505 43.6382L159.963 24.4611C160.764 21.6905 161.866 19.7044 163.268 18.5027C164.67 17.301 166.522 16.7002 168.826 16.7002H171.429C174.066 16.7002 175.869 17.518 176.837 19.1536C177.805 20.7893 177.938 22.8422 177.237 25.3123L171.78 44.4894ZM171.379 24.361C171.713 23.1259 171.262 22.5084 170.027 22.5084H168.125C167.557 22.5084 167.123 22.6753 166.823 23.0091C166.556 23.3095 166.322 23.7935 166.122 24.4611L160.364 44.5895C160.03 45.8246 160.48 46.4422 161.716 46.4422H163.618C164.186 46.4422 164.603 46.2919 164.87 45.9915C165.17 45.6577 165.421 45.157 165.621 44.4894L171.379 24.361ZM178.11 56.5064H173.103L176.408 44.9901H182.917L178.11 56.5064ZM205.372 44.4894C204.571 47.26 203.469 49.2461 202.067 50.4478C200.665 51.6495 198.813 52.2504 196.51 52.2504H193.906C191.269 52.2504 189.466 51.4325 188.498 49.7969C187.53 48.1612 187.397 46.1083 188.098 43.6382L193.555 24.4611C194.357 21.6905 195.458 19.7044 196.86 18.5027C198.262 17.301 200.115 16.7002 202.418 16.7002H205.022C207.659 16.7002 209.461 17.518 210.429 19.1536C211.397 20.7893 211.531 22.8422 210.83 25.3123L205.372 44.4894ZM204.972 24.361C205.305 23.1259 204.855 22.5084 203.62 22.5084H201.717C201.149 22.5084 200.716 22.6753 200.415 23.0091C200.148 23.3095 199.914 23.7935 199.714 24.4611L193.956 44.5895C193.622 45.8246 194.073 46.4422 195.308 46.4422H197.211C197.778 46.4422 198.195 46.2919 198.462 45.9915C198.763 45.6577 199.013 45.157 199.213 44.4894L204.972 24.361ZM227.425 44.4894C226.624 47.26 225.522 49.2461 224.12 50.4478C222.718 51.6495 220.865 52.2504 218.562 52.2504H215.959C213.321 52.2504 211.519 51.4325 210.551 49.7969C209.583 48.1612 209.449 46.1083 210.15 43.6382L215.608 24.4611C216.409 21.6905 217.511 19.7044 218.913 18.5027C220.315 17.301 222.167 16.7002 224.471 16.7002H227.074C229.711 16.7002 231.514 17.518 232.482 19.1536C233.45 20.7893 233.583 22.8422 232.882 25.3123L227.425 44.4894ZM227.024 24.361C227.358 23.1259 226.907 22.5084 225.672 22.5084H223.77C223.202 22.5084 222.768 22.6753 222.468 23.0091C222.201 23.3095 221.967 23.7935 221.767 24.4611L216.009 44.5895C215.675 45.8246 216.125 46.4422 217.36 46.4422H219.263C219.831 46.4422 220.248 46.2919 220.515 45.9915C220.815 45.6577 221.066 45.157 221.266 44.4894L227.024 24.361ZM249.477 44.4894C248.676 47.26 247.575 49.2461 246.173 50.4478C244.771 51.6495 242.918 52.2504 240.615 52.2504H238.011C235.374 52.2504 233.572 51.4325 232.603 49.7969C231.635 48.1612 231.502 46.1083 232.203 43.6382L237.661 24.4611C238.462 21.6905 239.563 19.7044 240.965 18.5027C242.367 17.301 244.22 16.7002 246.523 16.7002H249.127C251.764 16.7002 253.566 17.518 254.534 19.1536C255.502 20.7893 255.636 22.8422 254.935 25.3123L249.477 44.4894ZM249.077 24.361C249.411 23.1259 248.96 22.5084 247.725 22.5084H245.822C245.255 22.5084 244.821 22.6753 244.52 23.0091C244.253 23.3095 244.02 23.7935 243.819 24.4611L238.061 44.5895C237.727 45.8246 238.178 46.4422 239.413 46.4422H241.316C241.883 46.4422 242.301 46.2919 242.568 45.9915C242.868 45.6577 243.118 45.157 243.319 44.4894L249.077 24.361Z"/>
</mask>
<path d="M75.3057 52L68.1456 35.677L68.6963 33.2736H71.1498C73.887 33.2736 75.99 32.8062 77.4587 31.8716C78.9275 30.9036 79.8788 29.6017 80.3127 27.9661H69.5475L70.2485 24.7615H80.5631C80.4296 22.9924 79.7787 21.6739 78.6103 20.806C77.4754 19.9047 75.6729 19.4541 73.2027 19.4541H71.4002L72.0511 16.2495H92.5801L91.9291 19.4541H82.4157C83.0833 19.8546 83.7009 20.5222 84.2683 21.4569C84.8692 22.3582 85.1863 23.4597 85.2197 24.7615H90.7274L90.0265 27.9661H84.9192C84.6188 29.3013 84.0347 30.5864 83.1668 31.8215C82.2989 33.0232 81.0304 34.0246 79.3614 34.8258C77.7258 35.6269 75.5393 36.0942 72.8021 36.2277L80.2126 52H75.3057ZM115.534 16.7002C118.171 16.7002 119.974 17.518 120.942 19.1536C121.91 20.7893 122.043 22.8422 121.342 25.3123L120.241 29.2178C119.84 30.7533 119.339 31.9217 118.738 32.7228C118.138 33.5239 117.336 34.1248 116.335 34.5253C117.737 35.8272 118.121 37.563 117.487 39.7327L116.135 44.4894C115.334 47.26 114.232 49.2461 112.83 50.4478C111.428 51.6495 109.576 52.2504 107.272 52.2504H104.669C102.032 52.2504 100.229 51.4492 99.261 49.847C98.2929 48.2113 98.1594 46.1417 98.8604 43.6382L99.962 39.7327C100.396 38.097 100.93 36.8953 101.564 36.1276C102.232 35.3265 103.116 34.7089 104.218 34.275C102.95 33.0399 102.616 31.3542 103.217 29.2178L104.568 24.4611C105.37 21.6572 106.471 19.671 107.873 18.5027C109.275 17.301 111.128 16.7002 113.431 16.7002H115.534ZM112.129 31.9217C112.697 31.9217 113.114 31.7714 113.381 31.471C113.681 31.1372 113.932 30.6365 114.132 29.9689L115.884 23.8603C116.218 22.6252 115.768 22.0077 114.533 22.0077H112.63C112.062 22.0077 111.628 22.1746 111.328 22.5084C111.061 22.8088 110.827 23.2928 110.627 23.9604L108.875 30.069C108.541 31.3041 108.991 31.9217 110.226 31.9217H112.129ZM111.578 38.8815C111.912 37.6464 111.462 37.0289 110.226 37.0289H108.324C107.756 37.0289 107.322 37.1958 107.022 37.5296C106.755 37.83 106.521 38.314 106.321 38.9816L104.719 44.5895C104.385 45.8246 104.836 46.4422 106.071 46.4422H107.973C108.541 46.4422 108.958 46.2919 109.225 45.9915C109.525 45.6577 109.776 45.157 109.976 44.4894L111.578 38.8815ZM122.465 56.5064H117.458L120.763 44.9901H127.272L122.465 56.5064ZM149.727 44.4894C148.926 47.26 147.824 49.2461 146.422 50.4478C145.02 51.6495 143.168 52.2504 140.865 52.2504H138.261C135.624 52.2504 133.821 51.4325 132.853 49.7969C131.885 48.1612 131.752 46.1083 132.453 43.6382L137.91 24.4611C138.712 21.6905 139.813 19.7044 141.215 18.5027C142.617 17.301 144.47 16.7002 146.773 16.7002H149.377C152.014 16.7002 153.816 17.518 154.784 19.1536C155.752 20.7893 155.886 22.8422 155.185 25.3123L149.727 44.4894ZM149.327 24.361C149.66 23.1259 149.21 22.5084 147.975 22.5084H146.072C145.505 22.5084 145.071 22.6753 144.77 23.0091C144.503 23.3095 144.269 23.7935 144.069 24.4611L138.311 44.5895C137.977 45.8246 138.428 46.4422 139.663 46.4422H141.566C142.133 46.4422 142.55 46.2919 142.817 45.9915C143.118 45.6577 143.368 45.157 143.568 44.4894L149.327 24.361ZM171.78 44.4894C170.979 47.26 169.877 49.2461 168.475 50.4478C167.073 51.6495 165.22 52.2504 162.917 52.2504H160.314C157.677 52.2504 155.874 51.4325 154.906 49.7969C153.938 48.1612 153.804 46.1083 154.505 43.6382L159.963 24.4611C160.764 21.6905 161.866 19.7044 163.268 18.5027C164.67 17.301 166.522 16.7002 168.826 16.7002H171.429C174.066 16.7002 175.869 17.518 176.837 19.1536C177.805 20.7893 177.938 22.8422 177.237 25.3123L171.78 44.4894ZM171.379 24.361C171.713 23.1259 171.262 22.5084 170.027 22.5084H168.125C167.557 22.5084 167.123 22.6753 166.823 23.0091C166.556 23.3095 166.322 23.7935 166.122 24.4611L160.364 44.5895C160.03 45.8246 160.48 46.4422 161.716 46.4422H163.618C164.186 46.4422 164.603 46.2919 164.87 45.9915C165.17 45.6577 165.421 45.157 165.621 44.4894L171.379 24.361ZM178.11 56.5064H173.103L176.408 44.9901H182.917L178.11 56.5064ZM205.372 44.4894C204.571 47.26 203.469 49.2461 202.067 50.4478C200.665 51.6495 198.813 52.2504 196.51 52.2504H193.906C191.269 52.2504 189.466 51.4325 188.498 49.7969C187.53 48.1612 187.397 46.1083 188.098 43.6382L193.555 24.4611C194.357 21.6905 195.458 19.7044 196.86 18.5027C198.262 17.301 200.115 16.7002 202.418 16.7002H205.022C207.659 16.7002 209.461 17.518 210.429 19.1536C211.397 20.7893 211.531 22.8422 210.83 25.3123L205.372 44.4894ZM204.972 24.361C205.305 23.1259 204.855 22.5084 203.62 22.5084H201.717C201.149 22.5084 200.716 22.6753 200.415 23.0091C200.148 23.3095 199.914 23.7935 199.714 24.4611L193.956 44.5895C193.622 45.8246 194.073 46.4422 195.308 46.4422H197.211C197.778 46.4422 198.195 46.2919 198.462 45.9915C198.763 45.6577 199.013 45.157 199.213 44.4894L204.972 24.361ZM227.425 44.4894C226.624 47.26 225.522 49.2461 224.12 50.4478C222.718 51.6495 220.865 52.2504 218.562 52.2504H215.959C213.321 52.2504 211.519 51.4325 210.551 49.7969C209.583 48.1612 209.449 46.1083 210.15 43.6382L215.608 24.4611C216.409 21.6905 217.511 19.7044 218.913 18.5027C220.315 17.301 222.167 16.7002 224.471 16.7002H227.074C229.711 16.7002 231.514 17.518 232.482 19.1536C233.45 20.7893 233.583 22.8422 232.882 25.3123L227.425 44.4894ZM227.024 24.361C227.358 23.1259 226.907 22.5084 225.672 22.5084H223.77C223.202 22.5084 222.768 22.6753 222.468 23.0091C222.201 23.3095 221.967 23.7935 221.767 24.4611L216.009 44.5895C215.675 45.8246 216.125 46.4422 217.36 46.4422H219.263C219.831 46.4422 220.248 46.2919 220.515 45.9915C220.815 45.6577 221.066 45.157 221.266 44.4894L227.024 24.361ZM249.477 44.4894C248.676 47.26 247.575 49.2461 246.173 50.4478C244.771 51.6495 242.918 52.2504 240.615 52.2504H238.011C235.374 52.2504 233.572 51.4325 232.603 49.7969C231.635 48.1612 231.502 46.1083 232.203 43.6382L237.661 24.4611C238.462 21.6905 239.563 19.7044 240.965 18.5027C242.367 17.301 244.22 16.7002 246.523 16.7002H249.127C251.764 16.7002 253.566 17.518 254.534 19.1536C255.502 20.7893 255.636 22.8422 254.935 25.3123L249.477 44.4894ZM249.077 24.361C249.411 23.1259 248.96 22.5084 247.725 22.5084H245.822C245.255 22.5084 244.821 22.6753 244.52 23.0091C244.253 23.3095 244.02 23.7935 243.819 24.4611L238.061 44.5895C237.727 45.8246 238.178 46.4422 239.413 46.4422H241.316C241.883 46.4422 242.301 46.2919 242.568 45.9915C242.868 45.6577 243.118 45.157 243.319 44.4894L249.077 24.361Z" fill="#008A0E"/>
<path d="M75.3057 52L73.3537 52.8562L73.9131 54.1315H75.3057V52ZM68.1456 35.677L66.0679 35.2008L65.9105 35.8878L66.1936 36.5332L68.1456 35.677ZM68.6963 33.2736V31.1421H66.9981L66.6187 32.7974L68.6963 33.2736ZM77.4587 31.8716L78.6031 33.6698L78.6175 33.6607L78.6317 33.6513L77.4587 31.8716ZM80.3127 27.9661L82.373 28.5127L83.0835 25.8346H80.3127V27.9661ZM69.5475 27.9661L67.4653 27.5106L66.8994 30.0976H69.5475V27.9661ZM70.2485 24.7615V22.6301H68.5329L68.1663 24.3061L70.2485 24.7615ZM80.5631 24.7615V26.893H82.8615L82.6885 24.6011L80.5631 24.7615ZM78.6103 20.806L77.2848 22.4752L77.3117 22.4965L77.3393 22.517L78.6103 20.806ZM71.4002 19.4541L69.3113 19.0298L68.7922 21.5856H71.4002V19.4541ZM72.0511 16.2495V14.118H70.309L69.9622 15.8252L72.0511 16.2495ZM92.5801 16.2495L94.6689 16.6738L95.188 14.118H92.5801V16.2495ZM91.9291 19.4541V21.5856H93.6712L94.018 19.8784L91.9291 19.4541ZM82.4157 19.4541V17.3226H74.7203L81.3191 21.2818L82.4157 19.4541ZM84.2683 21.4569L82.4464 22.5631L82.4698 22.6017L82.4948 22.6392L84.2683 21.4569ZM85.2197 24.7615L83.0889 24.8162L83.1421 26.893H85.2197V24.7615ZM90.7274 24.7615L92.8097 25.217L93.3756 22.6301H90.7274V24.7615ZM90.0265 27.9661V30.0976H91.7421L92.1087 28.4216L90.0265 27.9661ZM84.9192 27.9661V25.8346H83.214L82.8397 27.4982L84.9192 27.9661ZM83.1668 31.8215L84.8947 33.0695L84.9028 33.0583L84.9107 33.047L83.1668 31.8215ZM79.3614 34.8258L78.439 32.9042L78.4314 32.9078L78.4238 32.9115L79.3614 34.8258ZM72.8021 36.2277L72.6983 34.0988L69.5197 34.2538L70.873 37.1341L72.8021 36.2277ZM80.2126 52V54.1315H83.5691L82.1418 51.0936L80.2126 52ZM77.2576 51.1438L70.0975 34.8207L66.1936 36.5332L73.3537 52.8562L77.2576 51.1438ZM70.2232 36.1531L70.774 33.7497L66.6187 32.7974L66.0679 35.2008L70.2232 36.1531ZM68.6963 35.4051H71.1498V31.1421H68.6963V35.4051ZM71.1498 35.4051C74.0797 35.4051 76.6488 34.9135 78.6031 33.6698L76.3144 30.0733C75.3311 30.699 73.6943 31.1421 71.1498 31.1421V35.4051ZM78.6317 33.6513C80.5187 32.4076 81.7991 30.6759 82.373 28.5127L78.2525 27.4195C77.9585 28.5276 77.3362 29.3995 76.2857 30.0919L78.6317 33.6513ZM80.3127 25.8346H69.5475V30.0976H80.3127V25.8346ZM71.6298 28.4216L72.3308 25.217L68.1663 24.3061L67.4653 27.5106L71.6298 28.4216ZM70.2485 26.893H80.5631V22.6301H70.2485V26.893ZM82.6885 24.6011C82.5196 22.3628 81.6532 20.4111 79.8814 19.0949L77.3393 22.517C77.9041 22.9366 78.3395 23.6219 78.4376 24.922L82.6885 24.6011ZM79.9359 19.1368C78.2384 17.7888 75.8465 17.3226 73.2027 17.3226V21.5856C75.4992 21.5856 76.7124 22.0206 77.2848 22.4752L79.9359 19.1368ZM73.2027 17.3226H71.4002V21.5856H73.2027V17.3226ZM73.489 19.8784L74.1399 16.6738L69.9622 15.8252L69.3113 19.0298L73.489 19.8784ZM72.0511 18.381H92.5801V14.118H72.0511V18.381ZM90.4912 15.8252L89.8403 19.0298L94.018 19.8784L94.6689 16.6738L90.4912 15.8252ZM91.9291 17.3226H82.4157V21.5856H91.9291V17.3226ZM81.3191 21.2818C81.5944 21.447 81.9901 21.8116 82.4464 22.5631L86.0903 20.3507C85.4116 19.2329 84.5723 18.2623 83.5124 17.6263L81.3191 21.2818ZM82.4948 22.6392C82.831 23.1436 83.0637 23.8344 83.0889 24.8162L87.3505 24.7069C87.3089 23.085 86.9073 21.5728 86.0418 20.2745L82.4948 22.6392ZM85.2197 26.893H90.7274V22.6301H85.2197V26.893ZM88.6452 24.3061L87.9442 27.5106L92.1087 28.4216L92.8097 25.217L88.6452 24.3061ZM90.0265 25.8346H84.9192V30.0976H90.0265V25.8346ZM82.8397 27.4982C82.6065 28.5346 82.1469 29.5655 81.4228 30.596L84.9107 33.047C85.9224 31.6073 86.6311 30.068 86.9987 28.434L82.8397 27.4982ZM81.4388 30.5735C80.8247 31.4239 79.866 32.2192 78.439 32.9042L80.2838 36.7473C82.1948 35.83 83.7731 34.6225 84.8947 33.0695L81.4388 30.5735ZM78.4238 32.9115C77.1459 33.5375 75.2783 33.9729 72.6983 34.0988L72.906 38.3567C75.8004 38.2155 78.3056 37.7163 80.299 36.74L78.4238 32.9115ZM70.873 37.1341L78.2834 52.9064L82.1418 51.0936L74.7313 35.3213L70.873 37.1341ZM80.2126 49.8685H75.3057V54.1315H80.2126V49.8685ZM120.942 19.1536L119.107 20.2392L120.942 19.1536ZM121.342 25.3123L119.292 24.7304L119.291 24.7337L121.342 25.3123ZM120.241 29.2178L118.189 28.6392L118.183 28.6595L118.178 28.6798L120.241 29.2178ZM118.738 32.7228L120.444 34.0017V34.0017L118.738 32.7228ZM116.335 34.5253L115.543 32.5463L112.418 33.7966L114.885 36.0873L116.335 34.5253ZM117.487 39.7327L115.441 39.1347L115.439 39.1423L115.436 39.15L117.487 39.7327ZM116.135 44.4894L118.182 45.0815L118.185 45.0721L116.135 44.4894ZM112.83 50.4478L111.443 48.8295V48.8295L112.83 50.4478ZM99.261 49.847L97.4267 50.9326L97.4316 50.9409L97.4366 50.9492L99.261 49.847ZM98.8604 43.6382L96.8089 43.0596L96.8079 43.0635L98.8604 43.6382ZM99.962 39.7327L102.013 40.3113L102.018 40.2953L102.022 40.2793L99.962 39.7327ZM101.564 36.1276L99.9267 34.763L99.9209 34.7701L101.564 36.1276ZM104.218 34.275L104.999 36.2581L108.068 35.0491L105.705 32.7478L104.218 34.275ZM103.217 29.2178L101.166 28.6351L101.165 28.6407L103.217 29.2178ZM104.568 24.4611L102.519 23.8756L102.518 23.8784L104.568 24.4611ZM107.873 18.5027L109.238 20.1402L109.249 20.1307L109.26 20.1211L107.873 18.5027ZM113.381 31.471L111.797 30.0451L111.788 30.0549L113.381 31.471ZM114.132 29.9689L116.174 30.5814L116.177 30.5691L116.181 30.5567L114.132 29.9689ZM115.884 23.8603L117.933 24.4481L117.938 24.4323L117.942 24.4164L115.884 23.8603ZM111.328 22.5084L109.744 21.0824L109.735 21.0923L111.328 22.5084ZM110.627 23.9604L108.585 23.3479L108.582 23.3603L108.578 23.3726L110.627 23.9604ZM108.875 30.069L106.826 29.4813L106.821 29.4971L106.817 29.5129L108.875 30.069ZM111.578 38.8815L113.628 39.467L113.632 39.4524L113.636 39.4376L111.578 38.8815ZM107.022 37.5296L105.438 36.1037L105.429 36.1135L107.022 37.5296ZM106.321 38.9816L104.279 38.3691L104.275 38.3826L104.271 38.3961L106.321 38.9816ZM104.719 44.5895L102.669 44.004L102.665 44.0187L102.661 44.0334L104.719 44.5895ZM109.225 45.9915L107.641 44.5656L107.632 44.5754L109.225 45.9915ZM109.976 44.4894L112.018 45.1019L112.022 45.0884L112.026 45.075L109.976 44.4894ZM115.534 18.8317C117.744 18.8317 118.664 19.4903 119.107 20.2392L122.776 18.068C121.283 15.5457 118.598 14.5687 115.534 14.5687V18.8317ZM119.107 20.2392C119.685 21.2147 119.891 22.6178 119.292 24.7304L123.393 25.8942C124.195 23.0665 124.135 20.3639 122.776 18.068L119.107 20.2392ZM119.291 24.7337L118.189 28.6392L122.292 29.7965L123.394 25.8909L119.291 24.7337ZM118.178 28.6798C117.811 30.0861 117.4 30.9555 117.033 31.4439L120.444 34.0017C121.279 32.8878 121.869 31.4206 122.303 29.7559L118.178 28.6798ZM117.033 31.4439C116.685 31.9082 116.211 32.2793 115.543 32.5463L117.127 36.5044C118.462 35.9702 119.59 35.1397 120.444 34.0017L117.033 31.4439ZM114.885 36.0873C115.294 36.4672 115.502 36.8514 115.593 37.2638C115.69 37.6991 115.684 38.3025 115.441 39.1347L119.533 40.3307C119.924 38.9931 120.043 37.6438 119.756 36.3433C119.463 35.0199 118.778 33.8853 117.785 32.9634L114.885 36.0873ZM115.436 39.15L114.084 43.9067L118.185 45.0721L119.537 40.3154L115.436 39.15ZM114.087 43.8973C113.342 46.4755 112.398 48.0106 111.443 48.8295L114.217 52.0662C116.066 50.4817 117.326 48.0445 118.182 45.0815L114.087 43.8973ZM111.443 48.8295C110.516 49.6242 109.197 50.1189 107.272 50.1189V54.3818C109.954 54.3818 112.341 53.6748 114.217 52.0662L111.443 48.8295ZM107.272 50.1189H104.669V54.3818H107.272V50.1189ZM104.669 50.1189C102.441 50.1189 101.52 49.4645 101.085 48.7447L97.4366 50.9492C98.9378 53.4339 101.622 54.3818 104.669 54.3818V50.1189ZM101.095 48.7613C100.52 47.7886 100.309 46.3688 100.913 44.2129L96.8079 43.0635C96.0095 45.9147 96.0663 48.634 97.4267 50.9326L101.095 48.7613ZM100.912 44.2168L102.013 40.3113L97.9105 39.1541L96.8089 43.0596L100.912 44.2168ZM102.022 40.2793C102.425 38.761 102.86 37.9052 103.208 37.4851L99.9209 34.7701C98.9995 35.8855 98.3668 37.4331 97.9017 39.1861L102.022 40.2793ZM103.202 37.4921C103.611 37.0012 104.185 36.579 104.999 36.2581L103.437 32.2918C102.048 32.8389 100.853 33.6518 99.9268 34.763L103.202 37.4921ZM105.705 32.7478C105.145 32.203 104.816 31.4037 105.268 29.7949L101.165 28.6407C100.415 31.3047 100.754 33.8768 102.731 35.8021L105.705 32.7478ZM105.267 29.8006L106.619 25.0438L102.518 23.8784L101.166 28.6351L105.267 29.8006ZM106.618 25.0467C107.366 22.4287 108.307 20.9154 109.238 20.1402L106.509 16.8653C104.635 18.4267 103.373 20.8857 102.519 23.8756L106.618 25.0467ZM109.26 20.1211C110.188 19.3263 111.506 18.8317 113.431 18.8317V14.5687C110.749 14.5687 108.363 15.2757 106.486 16.8844L109.26 20.1211ZM113.431 18.8317H115.534V14.5687H113.431V18.8317ZM112.129 34.0532C113.047 34.0532 114.158 33.8054 114.974 32.8871L111.788 30.0549C111.915 29.9123 112.055 29.8363 112.146 29.8035C112.223 29.7756 112.232 29.7902 112.129 29.7902V34.0532ZM114.965 32.8969C115.561 32.2355 115.928 31.4007 116.174 30.5814L112.09 29.3564C112.017 29.6001 111.947 29.7738 111.888 29.8919C111.828 30.0111 111.792 30.0505 111.797 30.0451L114.965 32.8969ZM116.181 30.5567L117.933 24.4481L113.836 23.2725L112.083 29.3811L116.181 30.5567ZM117.942 24.4164C118.167 23.5858 118.32 22.3122 117.519 21.2144C116.695 20.0857 115.408 19.8762 114.533 19.8762V24.1392C114.679 24.1392 114.673 24.1594 114.579 24.1249C114.464 24.0828 114.252 23.9695 114.075 23.7273C113.902 23.4896 113.866 23.2701 113.86 23.1839C113.856 23.1137 113.871 23.1414 113.827 23.3042L117.942 24.4164ZM114.533 19.8762H112.63V24.1392H114.533V19.8762ZM112.63 19.8762C111.629 19.8762 110.55 20.1867 109.744 21.0825L112.912 23.9343C112.875 23.9761 112.83 24.016 112.779 24.0504C112.729 24.0847 112.682 24.1077 112.644 24.1223C112.569 24.1509 112.552 24.1392 112.63 24.1392V19.8762ZM109.735 21.0923C109.162 21.7363 108.819 22.5704 108.585 23.3479L112.669 24.5729C112.745 24.3171 112.816 24.1394 112.872 24.0234C112.93 23.9031 112.954 23.8874 112.921 23.9245L109.735 21.0923ZM108.578 23.3726L106.826 29.4813L110.923 30.6568L112.676 24.5482L108.578 23.3726ZM106.817 29.5129C106.592 30.3435 106.439 31.6171 107.24 32.715C108.064 33.8436 109.351 34.0532 110.226 34.0532V29.7902C110.08 29.7902 110.086 29.7699 110.18 29.8044C110.295 29.8465 110.507 29.9598 110.684 30.2021C110.857 30.4397 110.893 30.6592 110.899 30.7454C110.903 30.8156 110.888 30.7879 110.932 30.6252L106.817 29.5129ZM110.226 34.0532H112.129V29.7902H110.226V34.0532ZM113.636 39.4376C113.861 38.607 114.014 37.3334 113.213 36.2356C112.389 35.1069 111.102 34.8974 110.226 34.8974V39.1604C110.372 39.1604 110.367 39.1806 110.272 39.1461C110.158 39.104 109.946 38.9907 109.769 38.7485C109.596 38.5109 109.56 38.2913 109.554 38.2051C109.55 38.1349 109.565 38.1626 109.521 38.3254L113.636 39.4376ZM110.226 34.8974H108.324V39.1604H110.226V34.8974ZM108.324 34.8974C107.323 34.8974 106.244 35.2079 105.438 36.1037L108.606 38.9555C108.569 38.9973 108.524 39.0372 108.473 39.0716C108.423 39.1059 108.376 39.1289 108.338 39.1435C108.263 39.1721 108.246 39.1604 108.324 39.1604V34.8974ZM105.429 36.1135C104.856 36.7575 104.513 37.5916 104.279 38.3691L108.363 39.5941C108.439 39.3383 108.51 39.1606 108.566 39.0446C108.624 38.9243 108.648 38.9086 108.615 38.9457L105.429 36.1135ZM104.271 38.3961L102.669 44.004L106.768 45.1751L108.37 39.5672L104.271 38.3961ZM102.661 44.0334C102.437 44.864 102.283 46.1376 103.084 47.2355C103.908 48.3641 105.195 48.5736 106.071 48.5736V44.3107C105.925 44.3107 105.93 44.2904 106.025 44.3249C106.139 44.367 106.351 44.4803 106.528 44.7225C106.701 44.9602 106.737 45.1797 106.743 45.2659C106.747 45.3361 106.732 45.3084 106.776 45.1457L102.661 44.0334ZM106.071 48.5736H107.973V44.3107H106.071V48.5736ZM107.973 48.5736C108.891 48.5736 110.002 48.3259 110.818 47.4076L107.632 44.5754C107.759 44.4328 107.899 44.3568 107.99 44.324C108.067 44.2961 108.076 44.3107 107.973 44.3107V48.5736ZM110.809 47.4174C111.405 46.756 111.772 45.9212 112.018 45.1019L107.934 43.8769C107.861 44.1206 107.791 44.2943 107.732 44.4124C107.672 44.5316 107.636 44.571 107.641 44.5656L110.809 47.4174ZM112.026 45.075L113.628 39.467L109.529 38.2959L107.927 43.9038L112.026 45.075ZM122.465 56.5064V58.6379H123.885L124.432 57.3274L122.465 56.5064ZM117.458 56.5064L115.409 55.9184L114.629 58.6379H117.458V56.5064ZM120.763 44.9901V42.8586H119.157L118.714 44.4022L120.763 44.9901ZM127.272 44.9901L129.239 45.8111L130.471 42.8586H127.272V44.9901ZM122.465 54.3749H117.458V58.6379H122.465V54.3749ZM119.507 57.0943L122.812 45.578L118.714 44.4022L115.409 55.9184L119.507 57.0943ZM120.763 47.1216H127.272V42.8586H120.763V47.1216ZM125.305 44.1691L120.498 55.6853L124.432 57.3274L129.239 45.8111L125.305 44.1691ZM149.727 44.4894L151.775 45.0815L151.777 45.0728L149.727 44.4894ZM146.422 50.4478L145.035 48.8295L145.035 48.8295L146.422 50.4478ZM132.853 49.7969L134.688 48.7113L132.853 49.7969ZM132.453 43.6382L130.403 43.0548L130.402 43.0563L132.453 43.6382ZM137.91 24.4611L135.863 23.869L135.86 23.8777L137.91 24.4611ZM141.215 18.5027L142.602 20.1211L141.215 18.5027ZM154.784 19.1536L152.95 20.2392L154.784 19.1536ZM155.185 25.3123L157.235 25.8958L157.235 25.8942L155.185 25.3123ZM149.327 24.361L151.376 24.9472L151.38 24.9322L151.384 24.9171L149.327 24.361ZM144.77 23.0091L143.186 21.5832L143.177 21.593L144.77 23.0091ZM144.069 24.4611L142.028 23.8486L142.024 23.8617L142.02 23.8749L144.069 24.4611ZM138.311 44.5895L136.262 44.0033L136.257 44.0183L136.253 44.0334L138.311 44.5895ZM142.817 45.9915L141.233 44.5656L141.224 44.5754L142.817 45.9915ZM143.568 44.4894L145.61 45.1019L145.614 45.0888L145.618 45.0756L143.568 44.4894ZM147.68 43.8973C146.934 46.4755 145.991 48.0106 145.035 48.8295L147.81 52.0662C149.658 50.4817 150.918 48.0445 151.775 45.0815L147.68 43.8973ZM145.035 48.8295C144.108 49.6242 142.789 50.1189 140.865 50.1189V54.3818C143.547 54.3818 145.933 53.6748 147.81 52.0662L145.035 48.8295ZM140.865 50.1189H138.261V54.3818H140.865V50.1189ZM138.261 50.1189C136.051 50.1189 135.131 49.4602 134.688 48.7113L131.019 50.8825C132.512 53.4048 135.196 54.3818 138.261 54.3818V50.1189ZM134.688 48.7113C134.11 47.7359 133.904 46.3327 134.503 44.2201L130.402 43.0563C129.6 45.884 129.66 48.5866 131.019 50.8825L134.688 48.7113ZM134.503 44.2216L139.961 25.0446L135.86 23.8777L130.403 43.0548L134.503 44.2216ZM139.958 25.0532C140.704 22.475 141.647 20.94 142.602 20.1211L139.828 16.8844C137.979 18.4689 136.72 20.9061 135.863 23.869L139.958 25.0532ZM142.602 20.1211C143.529 19.3263 144.848 18.8317 146.773 18.8317V14.5687C144.091 14.5687 141.705 15.2757 139.828 16.8844L142.602 20.1211ZM146.773 18.8317H149.377V14.5687H146.773V18.8317ZM149.377 18.8317C151.586 18.8317 152.507 19.4903 152.95 20.2392L156.619 18.068C155.126 15.5457 152.441 14.5687 149.377 14.5687V18.8317ZM152.95 20.2392C153.527 21.2147 153.734 22.6178 153.134 24.7304L157.235 25.8942C158.038 23.0665 157.977 20.3639 156.619 18.068L152.95 20.2392ZM153.135 24.7289L147.677 43.906L151.777 45.0728L157.235 25.8958L153.135 24.7289ZM151.384 24.9171C151.609 24.0865 151.762 22.8129 150.961 21.7151C150.137 20.5864 148.85 20.3769 147.975 20.3769V24.6399C148.121 24.6399 148.115 24.6601 148.021 24.6256C147.906 24.5835 147.694 24.4702 147.517 24.228C147.344 23.9904 147.308 23.7708 147.303 23.6846C147.298 23.6144 147.313 23.6421 147.269 23.8049L151.384 24.9171ZM147.975 20.3769H146.072V24.6399H147.975V20.3769ZM146.072 20.3769C145.071 20.3769 143.992 20.6874 143.186 21.5832L146.354 24.435C146.317 24.4768 146.272 24.5167 146.221 24.5511C146.171 24.5854 146.124 24.6084 146.086 24.623C146.012 24.6516 145.994 24.6399 146.072 24.6399V20.3769ZM143.177 21.593C142.605 22.237 142.261 23.0711 142.028 23.8486L146.111 25.0736C146.187 24.8178 146.258 24.6401 146.314 24.5241C146.372 24.4038 146.396 24.3881 146.363 24.4252L143.177 21.593ZM142.02 23.8749L136.262 44.0033L140.36 45.1758L146.118 25.0474L142.02 23.8749ZM136.253 44.0334C136.029 44.864 135.876 46.1376 136.677 47.2355C137.5 48.3641 138.788 48.5736 139.663 48.5736V44.3107C139.517 44.3107 139.523 44.2904 139.617 44.3249C139.732 44.367 139.944 44.4803 140.12 44.7225C140.294 44.9602 140.33 45.1797 140.335 45.2659C140.339 45.3361 140.325 45.3084 140.369 45.1457L136.253 44.0334ZM139.663 48.5736H141.566V44.3107H139.663V48.5736ZM141.566 48.5736C142.483 48.5736 143.594 48.3259 144.41 47.4076L141.224 44.5754C141.351 44.4328 141.491 44.3568 141.582 44.324C141.66 44.2961 141.669 44.3107 141.566 44.3107V48.5736ZM144.402 47.4174C144.997 46.756 145.364 45.9212 145.61 45.1019L141.527 43.8769C141.454 44.1206 141.383 44.2943 141.324 44.4124C141.264 44.5316 141.228 44.571 141.233 44.5656L144.402 47.4174ZM145.618 45.0756L151.376 24.9472L147.277 23.7747L141.519 43.9032L145.618 45.0756ZM171.78 44.4894L173.827 45.0815L173.83 45.0728L171.78 44.4894ZM168.475 50.4478L167.088 48.8295L167.088 48.8295L168.475 50.4478ZM154.906 49.7969L156.74 48.7113L154.906 49.7969ZM154.505 43.6382L152.455 43.0548L152.455 43.0563L154.505 43.6382ZM159.963 24.4611L157.915 23.869L157.913 23.8777L159.963 24.4611ZM163.268 18.5027L164.655 20.1211L163.268 18.5027ZM176.837 19.1536L175.003 20.2392L176.837 19.1536ZM177.237 25.3123L179.288 25.8958L179.288 25.8942L177.237 25.3123ZM171.379 24.361L173.428 24.9472L173.433 24.9322L173.437 24.9171L171.379 24.361ZM166.823 23.0091L165.238 21.5832L165.23 21.593L166.823 23.0091ZM166.122 24.4611L164.08 23.8486L164.076 23.8617L164.072 23.8749L166.122 24.4611ZM160.364 44.5895L158.314 44.0033L158.31 44.0183L158.306 44.0334L160.364 44.5895ZM164.87 45.9915L163.286 44.5656L163.277 44.5754L164.87 45.9915ZM165.621 44.4894L167.663 45.1019L167.667 45.0888L167.67 45.0756L165.621 44.4894ZM169.732 43.8973C168.987 46.4755 168.043 48.0106 167.088 48.8295L169.862 52.0662C171.711 50.4817 172.971 48.0445 173.827 45.0815L169.732 43.8973ZM167.088 48.8295C166.161 49.6242 164.842 50.1189 162.917 50.1189V54.3818C165.599 54.3818 167.985 53.6748 169.862 52.0662L167.088 48.8295ZM162.917 50.1189H160.314V54.3818H162.917V50.1189ZM160.314 50.1189C158.104 50.1189 157.184 49.4602 156.74 48.7113L153.072 50.8825C154.564 53.4048 157.249 54.3818 160.314 54.3818V50.1189ZM156.74 48.7113C156.163 47.7359 155.956 46.3327 156.556 44.2201L152.455 43.0563C151.652 45.884 151.713 48.5866 153.072 50.8825L156.74 48.7113ZM156.555 44.2216L162.013 25.0446L157.913 23.8777L152.455 43.0548L156.555 44.2216ZM162.011 25.0532C162.756 22.475 163.7 20.94 164.655 20.1211L161.881 16.8844C160.032 18.4689 158.772 20.9061 157.915 23.869L162.011 25.0532ZM164.655 20.1211C165.582 19.3263 166.901 18.8317 168.826 18.8317V14.5687C166.144 14.5687 163.757 15.2757 161.881 16.8844L164.655 20.1211ZM168.826 18.8317H171.429V14.5687H168.826V18.8317ZM171.429 18.8317C173.639 18.8317 174.559 19.4903 175.003 20.2392L178.671 18.068C177.178 15.5457 174.494 14.5687 171.429 14.5687V18.8317ZM175.003 20.2392C175.58 21.2147 175.786 22.6178 175.187 24.7304L179.288 25.8942C180.09 23.0665 180.03 20.3639 178.671 18.068L175.003 20.2392ZM175.187 24.7289L169.73 43.906L173.83 45.0728L179.288 25.8958L175.187 24.7289ZM173.437 24.9171C173.661 24.0865 173.815 22.8129 173.013 21.7151C172.19 20.5864 170.903 20.3769 170.027 20.3769V24.6399C170.173 24.6399 170.167 24.6601 170.073 24.6256C169.959 24.5835 169.747 24.4702 169.57 24.228C169.396 23.9904 169.361 23.7708 169.355 23.6846C169.351 23.6144 169.366 23.6421 169.322 23.8049L173.437 24.9171ZM170.027 20.3769H168.125V24.6399H170.027V20.3769ZM168.125 20.3769C167.123 20.3769 166.045 20.6874 165.238 21.5832L168.407 24.435C168.369 24.4768 168.324 24.5167 168.274 24.5511C168.224 24.5854 168.177 24.6084 168.139 24.623C168.064 24.6516 168.047 24.6399 168.125 24.6399V20.3769ZM165.23 21.593C164.657 22.237 164.313 23.0711 164.08 23.8486L168.163 25.0736C168.24 24.8178 168.311 24.6401 168.367 24.5241C168.425 24.4038 168.449 24.3881 168.416 24.4252L165.23 21.593ZM164.072 23.8749L158.314 44.0033L162.413 45.1758L168.171 25.0474L164.072 23.8749ZM158.306 44.0334C158.081 44.864 157.928 46.1376 158.729 47.2355C159.553 48.3641 160.84 48.5736 161.716 48.5736V44.3107C161.57 44.3107 161.575 44.2904 161.67 44.3249C161.784 44.367 161.996 44.4803 162.173 44.7225C162.346 44.9602 162.382 45.1797 162.388 45.2659C162.392 45.3361 162.377 45.3084 162.421 45.1457L158.306 44.0334ZM161.716 48.5736H163.618V44.3107H161.716V48.5736ZM163.618 48.5736C164.536 48.5736 165.647 48.3259 166.463 47.4076L163.277 44.5754C163.404 44.4328 163.544 44.3568 163.635 44.324C163.712 44.2961 163.721 44.3107 163.618 44.3107V48.5736ZM166.454 47.4174C167.05 46.756 167.417 45.9212 167.663 45.1019L163.579 43.8769C163.506 44.1206 163.436 44.2943 163.377 44.4124C163.317 44.5316 163.281 44.571 163.286 44.5656L166.454 47.4174ZM167.67 45.0756L173.428 24.9472L169.33 23.7747L163.572 43.9032L167.67 45.0756ZM178.11 56.5064V58.6379H179.53L180.077 57.3274L178.11 56.5064ZM173.103 56.5064L171.054 55.9184L170.274 58.6379H173.103V56.5064ZM176.408 44.9901V42.8586H174.802L174.359 44.4022L176.408 44.9901ZM182.917 44.9901L184.884 45.8111L186.116 42.8586H182.917V44.9901ZM178.11 54.3749H173.103V58.6379H178.11V54.3749ZM175.152 57.0943L178.457 45.578L174.359 44.4022L171.054 55.9184L175.152 57.0943ZM176.408 47.1216H182.917V42.8586H176.408V47.1216ZM180.95 44.1691L176.143 55.6853L180.077 57.3274L184.884 45.8111L180.95 44.1691ZM205.372 44.4894L207.42 45.0815L207.422 45.0728L205.372 44.4894ZM202.067 50.4478L200.68 48.8295V48.8295L202.067 50.4478ZM188.498 49.7969L190.333 48.7113L188.498 49.7969ZM188.098 43.6382L186.048 43.0548L186.047 43.0563L188.098 43.6382ZM193.555 24.4611L191.508 23.869L191.505 23.8777L193.555 24.4611ZM196.86 18.5027L198.247 20.1211L196.86 18.5027ZM210.429 19.1536L208.595 20.2392L210.429 19.1536ZM210.83 25.3123L212.88 25.8958L212.88 25.8942L210.83 25.3123ZM204.972 24.361L207.021 24.9472L207.025 24.9322L207.029 24.9171L204.972 24.361ZM200.415 23.0091L198.831 21.5832L198.822 21.593L200.415 23.0091ZM199.714 24.4611L197.673 23.8486L197.669 23.8617L197.665 23.8749L199.714 24.4611ZM193.956 44.5895L191.907 44.0033L191.902 44.0183L191.898 44.0334L193.956 44.5895ZM198.462 45.9915L196.878 44.5656L196.869 44.5754L198.462 45.9915ZM199.213 44.4894L201.255 45.1019L201.259 45.0888L201.263 45.0756L199.213 44.4894ZM203.324 43.8973C202.579 46.4755 201.636 48.0106 200.68 48.8295L203.455 52.0662C205.303 50.4817 206.563 48.0445 207.42 45.0815L203.324 43.8973ZM200.68 48.8295C199.753 49.6242 198.434 50.1189 196.51 50.1189V54.3818C199.192 54.3818 201.578 53.6748 203.455 52.0662L200.68 48.8295ZM196.51 50.1189H193.906V54.3818H196.51V50.1189ZM193.906 50.1189C191.696 50.1189 190.776 49.4602 190.333 48.7113L186.664 50.8825C188.157 53.4048 190.841 54.3818 193.906 54.3818V50.1189ZM190.333 48.7113C189.755 47.7359 189.549 46.3327 190.148 44.2201L186.047 43.0563C185.245 45.884 185.305 48.5866 186.664 50.8825L190.333 48.7113ZM190.148 44.2216L195.605 25.0446L191.505 23.8777L186.048 43.0548L190.148 44.2216ZM195.603 25.0532C196.349 22.475 197.292 20.94 198.247 20.1211L195.473 16.8844C193.624 18.4689 192.365 20.9061 191.508 23.869L195.603 25.0532ZM198.247 20.1211C199.174 19.3263 200.493 18.8317 202.418 18.8317V14.5687C199.736 14.5687 197.35 15.2757 195.473 16.8844L198.247 20.1211ZM202.418 18.8317H205.022V14.5687H202.418V18.8317ZM205.022 18.8317C207.231 18.8317 208.152 19.4903 208.595 20.2392L212.264 18.068C210.771 15.5457 208.086 14.5687 205.022 14.5687V18.8317ZM208.595 20.2392C209.172 21.2147 209.379 22.6178 208.779 24.7304L212.88 25.8942C213.683 23.0665 213.622 20.3639 212.264 18.068L208.595 20.2392ZM208.78 24.7289L203.322 43.906L207.422 45.0728L212.88 25.8958L208.78 24.7289ZM207.029 24.9171C207.254 24.0865 207.407 22.8129 206.606 21.7151C205.782 20.5864 204.495 20.3769 203.62 20.3769V24.6399C203.766 24.6399 203.76 24.6601 203.666 24.6256C203.551 24.5835 203.339 24.4702 203.162 24.228C202.989 23.9904 202.953 23.7708 202.948 23.6846C202.943 23.6144 202.958 23.6421 202.914 23.8049L207.029 24.9171ZM203.62 20.3769H201.717V24.6399H203.62V20.3769ZM201.717 20.3769C200.716 20.3769 199.637 20.6874 198.831 21.5832L201.999 24.435C201.962 24.4768 201.917 24.5167 201.866 24.5511C201.816 24.5854 201.769 24.6084 201.731 24.623C201.657 24.6516 201.639 24.6399 201.717 24.6399V20.3769ZM198.822 21.593C198.249 22.237 197.906 23.0711 197.673 23.8486L201.756 25.0736C201.832 24.8178 201.903 24.6401 201.959 24.5241C202.017 24.4038 202.041 24.3881 202.008 24.4252L198.822 21.593ZM197.665 23.8749L191.907 44.0033L196.005 45.1758L201.763 25.0474L197.665 23.8749ZM191.898 44.0334C191.674 44.864 191.521 46.1376 192.322 47.2355C193.145 48.3641 194.433 48.5736 195.308 48.5736V44.3107C195.162 44.3107 195.168 44.2904 195.262 44.3249C195.377 44.367 195.589 44.4803 195.765 44.7225C195.939 44.9602 195.975 45.1797 195.98 45.2659C195.984 45.3361 195.97 45.3084 196.014 45.1457L191.898 44.0334ZM195.308 48.5736H197.211V44.3107H195.308V48.5736ZM197.211 48.5736C198.128 48.5736 199.239 48.3259 200.055 47.4076L196.869 44.5754C196.996 44.4328 197.136 44.3568 197.227 44.324C197.305 44.2961 197.314 44.3107 197.211 44.3107V48.5736ZM200.047 47.4174C200.642 46.756 201.009 45.9212 201.255 45.1019L197.172 43.8769C197.099 44.1206 197.028 44.2943 196.969 44.4124C196.909 44.5316 196.873 44.571 196.878 44.5656L200.047 47.4174ZM201.263 45.0756L207.021 24.9472L202.922 23.7747L197.164 43.9032L201.263 45.0756ZM227.425 44.4894L229.472 45.0815L229.475 45.0728L227.425 44.4894ZM224.12 50.4478L222.733 48.8295V48.8295L224.12 50.4478ZM210.551 49.7969L212.385 48.7113L210.551 49.7969ZM210.15 43.6382L208.1 43.0548L208.1 43.0563L210.15 43.6382ZM215.608 24.4611L213.56 23.869L213.558 23.8777L215.608 24.4611ZM218.913 18.5027L220.3 20.1211L218.913 18.5027ZM232.482 19.1536L230.648 20.2392L232.482 19.1536ZM232.882 25.3123L234.932 25.8958L234.933 25.8942L232.882 25.3123ZM227.024 24.361L229.073 24.9472L229.078 24.9322L229.082 24.9171L227.024 24.361ZM222.468 23.0091L220.883 21.5832L220.875 21.593L222.468 23.0091ZM221.767 24.4611L219.725 23.8486L219.721 23.8617L219.717 23.8749L221.767 24.4611ZM216.009 44.5895L213.959 44.0033L213.955 44.0183L213.951 44.0334L216.009 44.5895ZM220.515 45.9915L218.931 44.5656L218.922 44.5754L220.515 45.9915ZM221.266 44.4894L223.308 45.1019L223.312 45.0888L223.315 45.0756L221.266 44.4894ZM225.377 43.8973C224.632 46.4755 223.688 48.0106 222.733 48.8295L225.507 52.0662C227.356 50.4817 228.616 48.0445 229.472 45.0815L225.377 43.8973ZM222.733 48.8295C221.806 49.6242 220.487 50.1189 218.562 50.1189V54.3818C221.244 54.3818 223.63 53.6748 225.507 52.0662L222.733 48.8295ZM218.562 50.1189H215.959V54.3818H218.562V50.1189ZM215.959 50.1189C213.749 50.1189 212.828 49.4602 212.385 48.7113L208.717 50.8825C210.209 53.4048 212.894 54.3818 215.959 54.3818V50.1189ZM212.385 48.7113C211.808 47.7359 211.601 46.3327 212.201 44.2201L208.1 43.0563C207.297 45.884 207.358 48.5866 208.717 50.8825L212.385 48.7113ZM212.2 44.2216L217.658 25.0446L213.558 23.8777L208.1 43.0548L212.2 44.2216ZM217.656 25.0532C218.401 22.475 219.344 20.94 220.3 20.1211L217.526 16.8844C215.677 18.4689 214.417 20.9061 213.56 23.869L217.656 25.0532ZM220.3 20.1211C221.227 19.3263 222.546 18.8317 224.471 18.8317V14.5687C221.789 14.5687 219.402 15.2757 217.526 16.8844L220.3 20.1211ZM224.471 18.8317H227.074V14.5687H224.471V18.8317ZM227.074 18.8317C229.284 18.8317 230.204 19.4903 230.648 20.2392L234.316 18.068C232.823 15.5457 230.139 14.5687 227.074 14.5687V18.8317ZM230.648 20.2392C231.225 21.2147 231.431 22.6178 230.832 24.7304L234.933 25.8942C235.735 23.0665 235.675 20.3639 234.316 18.068L230.648 20.2392ZM230.832 24.7289L225.375 43.906L229.475 45.0728L234.932 25.8958L230.832 24.7289ZM229.082 24.9171C229.306 24.0865 229.459 22.8129 228.658 21.7151C227.835 20.5864 226.548 20.3769 225.672 20.3769V24.6399C225.818 24.6399 225.812 24.6601 225.718 24.6256C225.603 24.5835 225.391 24.4702 225.215 24.228C225.041 23.9904 225.006 23.7708 225 23.6846C224.996 23.6144 225.01 23.6421 224.966 23.8049L229.082 24.9171ZM225.672 20.3769H223.77V24.6399H225.672V20.3769ZM223.77 20.3769C222.768 20.3769 221.69 20.6874 220.883 21.5832L224.052 24.435C224.014 24.4768 223.969 24.5167 223.919 24.5511C223.869 24.5854 223.822 24.6084 223.784 24.623C223.709 24.6516 223.691 24.6399 223.77 24.6399V20.3769ZM220.875 21.593C220.302 22.237 219.958 23.0711 219.725 23.8486L223.808 25.0736C223.885 24.8178 223.956 24.6401 224.012 24.5241C224.07 24.4038 224.094 24.3881 224.061 24.4252L220.875 21.593ZM219.717 23.8749L213.959 44.0033L218.058 45.1758L223.816 25.0474L219.717 23.8749ZM213.951 44.0334C213.726 44.864 213.573 46.1376 214.374 47.2355C215.198 48.3641 216.485 48.5736 217.361 48.5736V44.3107C217.214 44.3107 217.22 44.2904 217.314 44.3249C217.429 44.367 217.641 44.4803 217.818 44.7225C217.991 44.9602 218.027 45.1797 218.033 45.2659C218.037 45.3361 218.022 45.3084 218.066 45.1457L213.951 44.0334ZM217.361 48.5736H219.263V44.3107H217.361V48.5736ZM219.263 48.5736C220.181 48.5736 221.292 48.3259 222.108 47.4076L218.922 44.5754C219.049 44.4328 219.189 44.3568 219.28 44.324C219.357 44.2961 219.366 44.3107 219.263 44.3107V48.5736ZM222.099 47.4174C222.695 46.756 223.062 45.9212 223.308 45.1019L219.224 43.8769C219.151 44.1206 219.081 44.2943 219.022 44.4124C218.962 44.5316 218.926 44.571 218.931 44.5656L222.099 47.4174ZM223.315 45.0756L229.073 24.9472L224.975 23.7747L219.217 43.9032L223.315 45.0756ZM249.477 44.4894L251.525 45.0815L251.527 45.0728L249.477 44.4894ZM246.173 50.4478L244.785 48.8295V48.8295L246.173 50.4478ZM232.604 49.7969L234.438 48.7113L232.604 49.7969ZM232.203 43.6382L230.153 43.0548L230.152 43.0563L232.203 43.6382ZM237.661 24.4611L235.613 23.869L235.611 23.8777L237.661 24.4611ZM240.965 18.5027L242.352 20.1211L240.965 18.5027ZM254.534 19.1536L252.7 20.2392L254.534 19.1536ZM254.935 25.3123L256.985 25.8958L256.986 25.8942L254.935 25.3123ZM249.077 24.361L251.126 24.9472L251.13 24.9322L251.134 24.9171L249.077 24.361ZM244.52 23.0091L242.936 21.5832L242.927 21.593L244.52 23.0091ZM243.819 24.4611L241.778 23.8486L241.774 23.8617L241.77 23.8749L243.819 24.4611ZM238.061 44.5895L236.012 44.0033L236.008 44.0183L236.004 44.0334L238.061 44.5895ZM242.568 45.9915L240.983 44.5656L240.974 44.5754L242.568 45.9915ZM243.319 44.4894L245.36 45.1019L245.364 45.0888L245.368 45.0756L243.319 44.4894ZM247.43 43.8973C246.684 46.4755 245.741 48.0106 244.785 48.8295L247.56 52.0662C249.408 50.4817 250.668 48.0445 251.525 45.0815L247.43 43.8973ZM244.785 48.8295C243.858 49.6242 242.539 50.1189 240.615 50.1189V54.3818C243.297 54.3818 245.683 53.6748 247.56 52.0662L244.785 48.8295ZM240.615 50.1189H238.011V54.3818H240.615V50.1189ZM238.011 50.1189C235.802 50.1189 234.881 49.4602 234.438 48.7113L230.769 50.8825C232.262 53.4048 234.947 54.3818 238.011 54.3818V50.1189ZM234.438 48.7113C233.861 47.7359 233.654 46.3327 234.253 44.2201L230.152 43.0563C229.35 45.884 229.41 48.5866 230.769 50.8825L234.438 48.7113ZM234.253 44.2216L239.711 25.0446L235.611 23.8777L230.153 43.0548L234.253 44.2216ZM239.708 25.0532C240.454 22.475 241.397 20.94 242.352 20.1211L239.578 16.8844C237.73 18.4689 236.47 20.9061 235.613 23.869L239.708 25.0532ZM242.352 20.1211C243.28 19.3263 244.599 18.8317 246.523 18.8317V14.5687C243.841 14.5687 241.455 15.2757 239.578 16.8844L242.352 20.1211ZM246.523 18.8317H249.127V14.5687H246.523V18.8317ZM249.127 18.8317C251.336 18.8317 252.257 19.4903 252.7 20.2392L256.369 18.068C254.876 15.5457 252.191 14.5687 249.127 14.5687V18.8317ZM252.7 20.2392C253.277 21.2147 253.484 22.6178 252.884 24.7304L256.986 25.8942C257.788 23.0665 257.728 20.3639 256.369 18.068L252.7 20.2392ZM252.885 24.7289L247.427 43.906L251.527 45.0728L256.985 25.8958L252.885 24.7289ZM251.134 24.9171C251.359 24.0865 251.512 22.8129 250.711 21.7151C249.887 20.5864 248.6 20.3769 247.725 20.3769V24.6399C247.871 24.6399 247.865 24.6601 247.771 24.6256C247.656 24.5835 247.444 24.4702 247.267 24.228C247.094 23.9904 247.058 23.7708 247.053 23.6846C247.048 23.6144 247.063 23.6421 247.019 23.8049L251.134 24.9171ZM247.725 20.3769H245.822V24.6399H247.725V20.3769ZM245.822 20.3769C244.821 20.3769 243.742 20.6874 242.936 21.5832L246.105 24.435C246.067 24.4768 246.022 24.5167 245.971 24.5511C245.921 24.5854 245.874 24.6084 245.836 24.623C245.762 24.6516 245.744 24.6399 245.822 24.6399V20.3769ZM242.927 21.593C242.355 22.237 242.011 23.0711 241.778 23.8486L245.861 25.0736C245.938 24.8178 246.008 24.6401 246.064 24.5241C246.122 24.4038 246.146 24.3881 246.113 24.4252L242.927 21.593ZM241.77 23.8749L236.012 44.0033L240.11 45.1758L245.869 25.0474L241.77 23.8749ZM236.004 44.0334C235.779 44.864 235.626 46.1376 236.427 47.2355C237.251 48.3641 238.538 48.5736 239.413 48.5736V44.3107C239.267 44.3107 239.273 44.2904 239.367 44.3249C239.482 44.367 239.694 44.4803 239.871 44.7225C240.044 44.9602 240.08 45.1797 240.085 45.2659C240.09 45.3361 240.075 45.3084 240.119 45.1457L236.004 44.0334ZM239.413 48.5736H241.316V44.3107H239.413V48.5736ZM241.316 48.5736C242.234 48.5736 243.344 48.3259 244.161 47.4076L240.974 44.5754C241.101 44.4328 241.241 44.3568 241.332 44.324C241.41 44.2961 241.419 44.3107 241.316 44.3107V48.5736ZM244.152 47.4174C244.747 46.756 245.114 45.9212 245.36 45.1019L241.277 43.8769C241.204 44.1206 241.133 44.2943 241.074 44.4124C241.015 44.5316 240.978 44.571 240.983 44.5656L244.152 47.4174ZM245.368 45.0756L251.126 24.9472L247.027 23.7747L241.269 43.9032L245.368 45.0756Z" fill="white" mask="url(#path-4-outside-2_562_1924)"/>
</svg>
