<svg width="167" height="28" viewBox="0 0 167 28" fill="none" xmlns="http://www.w3.org/2000/svg">
<path d="M14.7485 0.258841C16.7543 0.258841 18.1253 0.880888 18.8616 2.12498C19.5979 3.36907 19.6995 4.93054 19.1663 6.80937L18.2523 10.0466H13.6821L14.8628 6.08577C15.1166 5.14635 14.7739 4.67664 13.8345 4.67664H12.1968C11.7652 4.67664 11.4351 4.80359 11.2066 5.05748C11.0035 5.28599 10.8258 5.65414 10.6735 6.16194L6.29374 21.4719C6.03985 22.4113 6.38261 22.881 7.32202 22.881H8.95966C9.92446 22.881 10.5465 22.3859 10.8258 21.3957L11.8922 17.7015H9.68326L10.902 13.398H17.5667L13.644 27.1084H10.5973L10.6354 24.5567C9.39128 26.3848 7.93138 27.2988 6.25566 27.2988H6.17949C4.17371 27.2988 2.80267 26.6768 2.06637 25.4327C1.33007 24.1886 1.22851 22.6271 1.76169 20.7483L5.9129 6.16194C6.52225 4.05459 7.36011 2.54391 8.42647 1.62988C9.49284 0.715855 10.902 0.258841 12.6539 0.258841H14.7485ZM33.2516 21.3957C32.6423 23.5285 31.8044 25.0518 30.738 25.9659C29.6971 26.8545 28.3006 27.2988 26.5487 27.2988H24.1113C22.1055 27.2988 20.7218 26.6768 19.9601 25.4327C19.2238 24.1886 19.135 22.6271 19.6935 20.7483L25.4443 0.449263H30.2048L24.1875 21.4719C23.9336 22.4113 24.2891 22.881 25.2539 22.881H27.0057C27.4374 22.881 27.7547 22.7668 27.9579 22.5383C28.161 22.3098 28.3387 21.9289 28.491 21.3957L34.5084 0.449263H39.2309L33.2516 21.3957ZM53.0903 0.449263L48.5964 27.1084H43.8739L44.826 22.0812H41.0176L39.1514 27.1084H34.2766L44.8641 0.449263H53.0903ZM45.6639 17.6634L48.1013 4.82898H47.3396L42.6171 17.6634H45.6639ZM51.6348 27.1084L59.2517 0.449263H66.145C68.1254 0.449263 69.4837 1.084 70.22 2.35349C70.9817 3.59758 71.096 5.14635 70.5628 6.99979L69.4964 10.694C68.6586 13.563 67.2621 15.3784 65.3071 16.1401L65.5356 27.1084H60.8893L60.8132 16.5971H59.404L56.3954 27.1084H51.6348ZM60.6227 12.3316H63.1744C63.606 12.3316 63.9234 12.2174 64.1265 11.9889C64.355 11.735 64.5454 11.3541 64.6978 10.8463L66.0688 6.12385C66.3227 5.18443 65.98 4.71473 65.0405 4.71473H62.7936L60.6227 12.3316ZM86.2655 0.449263L81.7715 27.1084H77.049L78.0012 22.0812H74.1927L72.3266 27.1084H67.4518L78.0392 0.449263H86.2655ZM78.839 17.6634L81.2764 4.82898H80.5147L75.7923 17.6634H78.839ZM92.6173 0.449263H96.997L97.7587 15.5688H97.9491L99.701 8.447L101.986 0.449263H106.518L98.9012 27.1084H94.5215L93.7598 11.9889H93.5694L91.8175 19.1107L89.5324 27.1084H85.0004L92.6173 0.449263ZM121.841 4.86706H117.462L111.102 27.1084H106.341L112.701 4.86706H108.321L109.578 0.449263H123.098L121.841 4.86706ZM129.364 4.86706L127.46 11.5699H132.678L131.383 15.9877H126.165L124.261 22.6906H129.859L128.603 27.1084H118.32L125.937 0.449263H136.22L134.963 4.86706H129.364ZM143.46 4.86706L141.556 11.5699H146.773L145.479 15.9877H140.261L138.357 22.6906H143.955L142.698 27.1084H132.416L140.032 0.449263H150.315L149.058 4.86706H143.46ZM161.707 0.449263C163.713 0.449263 165.084 1.07131 165.82 2.3154C166.556 3.5595 166.658 5.12096 166.125 6.99979L162.05 21.2053C161.44 23.3126 160.603 24.8233 159.536 25.7374C158.47 26.6514 157.061 27.1084 155.309 27.1084H146.511L154.128 0.449263H161.707ZM161.593 6.27619C161.847 5.33677 161.504 4.86706 160.564 4.86706H157.632L152.529 22.6906H155.766C156.197 22.6906 156.515 22.5763 156.718 22.3478C156.946 22.0939 157.137 21.7131 157.289 21.2053L161.593 6.27619Z" fill="black"/>
</svg>
