<svg width="19" height="20" viewBox="0 0 19 20" fill="none" xmlns="http://www.w3.org/2000/svg">
<g clip-path="url(#clip0_151_464)">
<path d="M9.61975 18.3997C14.2029 18.3997 17.9182 14.6843 17.9182 10.1012C17.9182 5.51808 14.2029 1.80273 9.61975 1.80273C5.03664 1.80273 1.32129 5.51808 1.32129 10.1012C1.32129 14.6843 5.03664 18.3997 9.61975 18.3997Z" fill="white" stroke="#B7322E" stroke-width="1.71692"/>
<path d="M6.86401 12.8863H5.94117V8.63225L5.04108 9.04159V8.13875L6.76653 7.30859H6.86401V12.8863Z" fill="black"/>
<path d="M10.8577 8.79676C10.8577 9.0671 10.809 9.30684 10.7115 9.51597C10.614 9.72511 10.4797 9.89215 10.3086 10.0171C10.5035 10.1472 10.6573 10.327 10.77 10.5565C10.8826 10.7835 10.939 11.0513 10.939 11.3599C10.939 11.8547 10.8177 12.2462 10.575 12.5344C10.3324 12.82 10.002 12.9628 9.58395 12.9628C9.16586 12.9628 8.83334 12.82 8.58637 12.5344C8.33942 12.2462 8.21594 11.8547 8.21594 11.3599C8.21594 11.0513 8.27227 10.7822 8.38491 10.5527C8.49756 10.3232 8.65245 10.1446 8.84958 10.0171C8.67627 9.89215 8.54089 9.72511 8.4434 9.51597C8.34591 9.30684 8.29718 9.0671 8.29718 8.79676C8.29718 8.30963 8.41307 7.92835 8.64486 7.65291C8.87666 7.37747 9.18753 7.23975 9.57745 7.23975C9.97173 7.23975 10.2837 7.37874 10.5133 7.65673C10.7429 7.93472 10.8577 8.31473 10.8577 8.79676V8.79676ZM9.58395 12.0638C9.7226 12.0638 9.82875 11.9949 9.9024 11.8572C9.97821 11.717 10.0161 11.5231 10.0161 11.2757C10.0161 11.0284 9.97714 10.8345 9.89914 10.6943C9.82116 10.554 9.71393 10.4838 9.57745 10.4838C9.44098 10.4838 9.33266 10.554 9.25252 10.6943C9.17452 10.8345 9.13553 11.0284 9.13553 11.2757C9.13553 11.5231 9.17452 11.717 9.25252 11.8572C9.33266 11.9949 9.44314 12.0638 9.58395 12.0638ZM9.94139 8.85415C9.94139 8.63736 9.91106 8.46394 9.85041 8.33386C9.79192 8.2038 9.70093 8.13876 9.57745 8.13876C9.46047 8.13876 9.37166 8.20252 9.31101 8.33004C9.25034 8.45501 9.22002 8.62971 9.22002 8.85415C9.22002 9.07348 9.25034 9.25073 9.31101 9.3859C9.37166 9.51852 9.46265 9.58483 9.58395 9.58483C9.70527 9.58483 9.79517 9.51852 9.85366 9.3859C9.91215 9.25073 9.94139 9.07348 9.94139 8.85415Z" fill="black"/>
<path d="M13.2786 9.76492H14.1981V10.771H13.2786V12.3281H12.4077V10.771H11.4719V9.76492H12.4077V8.27295H13.2786V9.76492Z" fill="black"/>
</g>
<defs>
<clipPath id="clip0_151_464">
<rect width="18.3138" height="18.3138" fill="white" transform="translate(0.46283 0.944336)"/>
</clipPath>
</defs>
</svg>
