<svg width="12" height="13" viewBox="0 0 12 13" fill="none" xmlns="http://www.w3.org/2000/svg">
<path d="M10.6863 1.53677C9.91413 0.760482 8.89142 0.333008 7.80651 0.333008H4.07724C2.99234 0.333008 1.96953 0.760482 1.19742 1.53677C0.425223 2.31297 0 3.34118 0 4.43184V8.18075C0 9.2715 0.425223 10.2997 1.19742 11.0759C1.96953 11.8522 2.99234 12.2797 4.07724 12.2797H7.80651C8.89142 12.2797 9.91422 11.8522 10.6863 11.0759C11.4584 10.2997 11.8838 9.2715 11.8838 8.18075V4.43184C11.8838 3.34118 11.4584 2.31297 10.6863 1.53677ZM5.94188 9.46801C4.20771 9.46801 2.79686 8.04969 2.79686 6.30634C2.79686 4.56299 4.20771 3.14467 5.94188 3.14467C7.67605 3.14467 9.0869 4.56299 9.0869 6.30634C9.0869 8.04969 7.67605 9.46801 5.94188 9.46801ZM9.42599 3.2988C9.36125 3.36388 9.2714 3.40125 9.17983 3.40125C9.08817 3.40125 8.9985 3.36388 8.93376 3.2988C8.86876 3.23363 8.83167 3.1434 8.83167 3.05125C8.83167 2.9591 8.86876 2.86878 8.93376 2.8037C8.9985 2.73853 9.08808 2.70125 9.17983 2.70125C9.2714 2.70125 9.36125 2.73853 9.42599 2.8037C9.49081 2.86878 9.52799 2.9591 9.52799 3.05125C9.52799 3.14331 9.49081 3.23363 9.42599 3.2988Z" fill="#525252"/>
</svg>
