<svg width="297" height="65" viewBox="0 0 297 65" fill="none" xmlns="http://www.w3.org/2000/svg">
<mask id="mask0_562_2017" style="mask-type:alpha" maskUnits="userSpaceOnUse" x="0" y="0" width="297" height="65">
<path d="M19.8432 0H297L277.157 64.5652H0L19.8432 0Z" fill="#D9D9D9"/>
</mask>
<g mask="url(#mask0_562_2017)">
<rect x="-43.7072" y="-90.3911" width="519.502" height="272.167" fill="#E72687"/>
<path d="M487.716 -60.592H-25.8262V144.03H487.716V-60.592Z" fill="#E72687"/>
<g style="mix-blend-mode:hard-light" filter="url(#filter0_f_562_2017)">
<circle cx="234.42" cy="37.746" r="28.806" fill="#D9D9D9"/>
</g>
<g opacity="0.44" filter="url(#filter1_f_562_2017)">
<ellipse cx="192.701" cy="46.1891" rx="84.4314" ry="84.9281" fill="#F8FF13"/>
</g>
<g opacity="0.46">
<g opacity="0.22" filter="url(#filter2_d_562_2017)">
<path d="M218.953 -54.7479L245.116 -2.58523L295.949 -30.9451L271.699 22.1915L325.399 44.4658L268.996 58.5633L285.126 114.699L239.043 79.1414L205.457 126.867L204.395 68.4301L146.383 71.8074L191.142 34.4952L152.389 -9.01882L209.265 2.89044L218.953 -54.7479Z" fill="url(#paint0_linear_562_2017)" shape-rendering="crispEdges"/>
</g>
<g opacity="0.18" filter="url(#filter3_d_562_2017)">
<path d="M212.697 -79.5068L246.168 -12.6282L311.125 -48.9515L280.159 19.1466L348.809 47.7292L276.725 65.7675L297.373 137.733L238.452 92.1279L195.55 153.284L194.159 78.378L120.013 82.6738L177.201 34.8717L127.645 -20.9281L200.347 -5.62984L212.697 -79.5068Z" fill="url(#paint1_linear_562_2017)" shape-rendering="crispEdges"/>
</g>
<path opacity="0.15" d="M206.396 -109.827L248.25 -26.3051L329.522 -71.6905L290.766 13.3723L376.64 49.0532L286.457 71.6026L312.269 161.481L238.569 104.537L184.882 180.933L183.162 87.3755L90.4038 92.7611L161.959 33.0408L99.9785 -36.6395L190.926 -17.5518L206.396 -109.827Z" fill="url(#paint2_linear_562_2017)"/>
<g opacity="0.45" filter="url(#filter4_d_562_2017)">
<path d="M222.251 -30.6825L240.593 5.94672L276.198 -13.9524L259.222 23.3486L296.848 38.9999L257.337 48.8843L268.65 88.3003L236.357 63.3249L212.839 96.8245L212.081 55.7963L171.441 58.1537L202.789 31.9678L175.63 1.4077L215.478 9.78261L222.251 -30.6825Z" fill="url(#paint3_linear_562_2017)" shape-rendering="crispEdges"/>
</g>
<g filter="url(#filter5_d_562_2017)">
<path d="M224.934 -13.1584L238.387 13.7625L264.475 -0.848709L252.045 26.5551L279.624 38.0671L250.671 45.3182L258.974 74.2846L235.3 55.9229L218.074 80.5314L217.506 50.3835L187.723 52.1034L210.689 32.8714L190.776 10.4075L219.982 16.5735L224.934 -13.1584Z" fill="white" fill-opacity="0.31" shape-rendering="crispEdges"/>
</g>
</g>
<g opacity="0.46">
<g opacity="0.22" filter="url(#filter6_d_562_2017)">
<path d="M218.953 -54.7479L245.116 -2.58523L295.949 -30.9451L271.699 22.1915L325.399 44.4658L268.996 58.5633L285.126 114.699L239.043 79.1414L205.457 126.867L204.395 68.4301L146.383 71.8074L191.142 34.4952L152.389 -9.01882L209.265 2.89044L218.953 -54.7479Z" fill="url(#paint4_linear_562_2017)" shape-rendering="crispEdges"/>
</g>
<g opacity="0.18" filter="url(#filter7_d_562_2017)">
<path d="M212.697 -79.5068L246.168 -12.6282L311.125 -48.9515L280.159 19.1466L348.809 47.7292L276.725 65.7675L297.373 137.733L238.452 92.1279L195.55 153.284L194.159 78.378L120.013 82.6738L177.201 34.8717L127.645 -20.9281L200.347 -5.62984L212.697 -79.5068Z" fill="url(#paint5_linear_562_2017)" shape-rendering="crispEdges"/>
</g>
<path opacity="0.15" d="M206.396 -109.827L248.25 -26.3051L329.522 -71.6905L290.766 13.3723L376.64 49.0532L286.457 71.6026L312.269 161.481L238.569 104.537L184.882 180.933L183.162 87.3755L90.4038 92.7611L161.959 33.0408L99.9785 -36.6395L190.926 -17.5518L206.396 -109.827Z" fill="url(#paint6_linear_562_2017)"/>
<g opacity="0.45" filter="url(#filter8_d_562_2017)">
<path d="M222.251 -30.6825L240.593 5.94672L276.198 -13.9524L259.222 23.3486L296.848 38.9999L257.337 48.8843L268.65 88.3003L236.357 63.3249L212.839 96.8245L212.081 55.7963L171.441 58.1537L202.789 31.9678L175.63 1.4077L215.478 9.78261L222.251 -30.6825Z" fill="url(#paint7_linear_562_2017)" shape-rendering="crispEdges"/>
</g>
<g filter="url(#filter9_d_562_2017)">
<path d="M224.934 -13.1584L238.387 13.7625L264.475 -0.848709L252.045 26.5551L279.624 38.0671L250.671 45.3182L258.974 74.2846L235.3 55.9229L218.074 80.5314L217.506 50.3835L187.723 52.1034L210.689 32.8714L190.776 10.4075L219.982 16.5735L224.934 -13.1584Z" fill="white" fill-opacity="0.31" shape-rendering="crispEdges"/>
</g>
</g>
<g style="mix-blend-mode:hard-light" opacity="0.89">
<rect x="-8.94055" y="-12.9131" width="320.839" height="92.3779" rx="9.93311" fill="#E72687"/>
<rect x="-8.94055" y="-12.9131" width="320.839" height="92.3779" rx="9.93311" fill="url(#paint8_linear_562_2017)"/>
</g>
<g opacity="0.46">
<g opacity="0.22" filter="url(#filter10_d_562_2017)">
<path d="M218.954 -54.7471L245.118 -2.58424L295.951 -30.9435L271.701 22.1927L325.402 44.4674L268.999 58.5643L285.129 114.7L239.045 79.1421L205.459 126.867L204.397 68.4305L146.385 71.8072L191.144 34.4956L152.391 -9.01867L209.266 2.89108L218.954 -54.7471Z" fill="url(#paint9_linear_562_2017)" shape-rendering="crispEdges"/>
</g>
<g opacity="0.18" filter="url(#filter11_d_562_2017)">
<path d="M212.698 -79.5057L246.17 -12.6269L311.126 -48.9495L280.162 19.1481L348.812 47.7313L276.728 65.7688L297.377 137.734L238.454 92.1288L195.553 153.285L194.162 78.3785L120.016 82.6736L177.203 34.8722L127.646 -20.9279L200.349 -5.62903L212.698 -79.5057Z" fill="url(#paint10_linear_562_2017)" shape-rendering="crispEdges"/>
</g>
<path opacity="0.15" d="M206.394 -109.846L248.237 -26.3262L329.51 -71.7234L290.745 13.3474L376.612 49.0191L286.43 71.5804L312.23 161.459L238.54 104.522L184.845 180.928L183.137 87.3668L90.3817 92.764L161.942 33.0327L99.9717 -36.6426L190.914 -17.5654L206.394 -109.846Z" fill="url(#paint11_linear_562_2017)"/>
<g opacity="0.45" filter="url(#filter12_d_562_2017)">
<path d="M222.252 -30.6819L240.594 5.94741L276.2 -13.9513L259.224 23.3494L296.85 39.0011L257.339 48.885L268.653 88.301L236.359 63.3254L212.841 96.8247L212.083 55.7966L171.443 58.1536L202.791 31.968L175.631 1.4078L215.479 9.78306L222.252 -30.6819Z" fill="url(#paint12_linear_562_2017)" shape-rendering="crispEdges"/>
</g>
<g filter="url(#filter13_d_562_2017)">
<path d="M224.935 -13.1579L238.388 13.763L264.477 -0.847916L252.046 26.5557L279.626 38.0679L250.673 45.3187L258.976 74.2852L235.302 55.9232L218.076 80.5315L217.508 50.3837L187.725 52.1033L210.691 32.8716L190.777 10.4076L219.983 16.5738L224.935 -13.1579Z" fill="white" fill-opacity="0.31" shape-rendering="crispEdges"/>
</g>
</g>
<g opacity="0.46">
<g opacity="0.22" filter="url(#filter14_d_562_2017)">
<path d="M218.954 -54.7471L245.118 -2.58424L295.951 -30.9435L271.701 22.1927L325.402 44.4674L268.999 58.5643L285.129 114.7L239.045 79.1421L205.459 126.867L204.397 68.4305L146.385 71.8072L191.144 34.4956L152.391 -9.01867L209.266 2.89108L218.954 -54.7471Z" fill="url(#paint13_linear_562_2017)" shape-rendering="crispEdges"/>
</g>
<g opacity="0.18" filter="url(#filter15_d_562_2017)">
<path d="M212.698 -79.5057L246.17 -12.6269L311.126 -48.9495L280.162 19.1481L348.812 47.7313L276.728 65.7688L297.377 137.734L238.454 92.1288L195.553 153.285L194.162 78.3785L120.016 82.6736L177.203 34.8722L127.646 -20.9279L200.349 -5.62903L212.698 -79.5057Z" fill="url(#paint14_linear_562_2017)" shape-rendering="crispEdges"/>
</g>
<path opacity="0.15" d="M206.394 -109.846L248.237 -26.3262L329.51 -71.7234L290.745 13.3474L376.612 49.0191L286.43 71.5804L312.23 161.459L238.54 104.522L184.845 180.928L183.137 87.3668L90.3817 92.764L161.942 33.0327L99.9717 -36.6426L190.914 -17.5654L206.394 -109.846Z" fill="url(#paint15_linear_562_2017)"/>
<g opacity="0.45" filter="url(#filter16_d_562_2017)">
<path d="M222.252 -30.6819L240.594 5.94741L276.2 -13.9513L259.224 23.3494L296.85 39.0011L257.339 48.885L268.653 88.301L236.359 63.3254L212.841 96.8247L212.083 55.7966L171.443 58.1536L202.791 31.968L175.631 1.4078L215.479 9.78306L222.252 -30.6819Z" fill="url(#paint16_linear_562_2017)" shape-rendering="crispEdges"/>
</g>
<g filter="url(#filter17_d_562_2017)">
<path d="M224.935 -13.1579L238.388 13.763L264.477 -0.847916L252.046 26.5557L279.626 38.0679L250.673 45.3187L258.976 74.2852L235.302 55.9232L218.076 80.5315L217.508 50.3837L187.725 52.1033L210.691 32.8716L190.777 10.4076L219.983 16.5738L224.935 -13.1579Z" fill="white" fill-opacity="0.31" shape-rendering="crispEdges"/>
</g>
</g>
<g opacity="0.22" filter="url(#filter18_d_562_2017)">
<path d="M218.954 -54.7471L245.118 -2.58424L295.951 -30.9435L271.701 22.1927L325.402 44.4674L268.999 58.5643L285.129 114.7L239.045 79.1421L205.459 126.867L204.397 68.4305L146.385 71.8072L191.144 34.4956L152.391 -9.01867L209.266 2.89108L218.954 -54.7471Z" fill="url(#paint17_linear_562_2017)" shape-rendering="crispEdges"/>
</g>
<g opacity="0.18" filter="url(#filter19_d_562_2017)">
<path d="M212.698 -79.5057L246.17 -12.6269L311.126 -48.9495L280.162 19.1481L348.812 47.7313L276.728 65.7688L297.377 137.734L238.454 92.1288L195.553 153.285L194.162 78.3785L120.016 82.6736L177.203 34.8722L127.646 -20.9279L200.349 -5.62903L212.698 -79.5057Z" fill="url(#paint18_linear_562_2017)" shape-rendering="crispEdges"/>
</g>
<path opacity="0.15" d="M206.394 -109.846L248.237 -26.3262L329.51 -71.7234L290.745 13.3474L376.612 49.0191L286.43 71.5804L312.23 161.459L238.54 104.522L184.845 180.928L183.137 87.3668L90.3817 92.764L161.942 33.0327L99.9717 -36.6426L190.914 -17.5654L206.394 -109.846Z" fill="url(#paint19_linear_562_2017)"/>
<g opacity="0.45" filter="url(#filter20_d_562_2017)">
<path d="M222.252 -30.6819L240.594 5.94741L276.2 -13.9513L259.224 23.3494L296.85 39.0011L257.339 48.885L268.653 88.301L236.359 63.3254L212.841 96.8247L212.083 55.7966L171.443 58.1536L202.791 31.968L175.631 1.4078L215.479 9.78306L222.252 -30.6819Z" fill="url(#paint20_linear_562_2017)" shape-rendering="crispEdges"/>
</g>
<g filter="url(#filter21_d_562_2017)">
<path d="M224.935 -13.1579L238.388 13.763L264.477 -0.847916L252.046 26.5557L279.626 38.0679L250.673 45.3187L258.976 74.2852L235.302 55.9232L218.076 80.5315L217.508 50.3837L187.725 52.1033L210.691 32.8716L190.777 10.4076L219.983 16.5738L224.935 -13.1579Z" fill="white" fill-opacity="0.31" shape-rendering="crispEdges"/>
</g>
<g style="mix-blend-mode:hard-light" opacity="0.89">
<rect x="-18.8732" y="-2.97998" width="327.793" height="72.5117" rx="6.95318" fill="#E72687"/>
<rect x="-18.8732" y="-2.97998" width="327.793" height="72.5117" rx="6.95318" fill="url(#paint21_linear_562_2017)"/>
</g>
<g style="mix-blend-mode:plus-darker" filter="url(#filter22_f_562_2017)">
<ellipse cx="247.831" cy="66.552" rx="55.1288" ry="37.7458" fill="white"/>
</g>
<g style="mix-blend-mode:overlay" filter="url(#filter23_f_562_2017)">
<ellipse cx="247.831" cy="66.552" rx="55.1288" ry="37.7458" fill="white"/>
</g>
<g style="mix-blend-mode:plus-lighter" filter="url(#filter24_f_562_2017)">
<ellipse cx="55.1288" cy="37.2492" rx="55.1288" ry="37.2492" transform="matrix(0.734171 -0.678964 0.671987 0.740563 -57.6125 6.95337)" fill="white"/>
</g>
<g style="mix-blend-mode:plus-lighter" filter="url(#filter25_f_562_2017)">
<ellipse cx="282.596" cy="88.4048" rx="55.1288" ry="37.7458" fill="white"/>
</g>
</g>
<path d="M68.0106 25.8205V35.098C68.0106 36.6741 67.5802 37.8793 66.7193 38.7137C65.8717 39.548 64.6996 39.9652 63.203 39.9652C61.6137 39.9652 60.3422 39.5216 59.3887 38.6342C58.4483 37.7468 57.9782 36.4688 57.9782 34.8H61.8322C61.8455 35.8993 62.2494 36.4489 63.044 36.4489C63.7592 36.4489 64.1168 35.9986 64.1168 35.098V25.8205H68.0106ZM77.0494 39.9652C75.7383 39.9652 74.533 39.6606 73.4338 39.0514C72.3345 38.4289 71.4604 37.5747 70.8114 36.4886C70.1757 35.3894 69.8578 34.1511 69.8578 32.7737C69.8578 31.3963 70.1757 30.1646 70.8114 29.0785C71.4604 27.9793 72.3345 27.125 73.4338 26.5158C74.533 25.9066 75.7383 25.602 77.0494 25.602C78.3738 25.602 79.5791 25.9066 80.6651 26.5158C81.7643 27.125 82.6318 27.9793 83.2676 29.0785C83.9033 30.1646 84.2211 31.3963 84.2211 32.7737C84.2211 34.1511 83.9033 35.3894 83.2676 36.4886C82.6318 37.5747 81.7643 38.4289 80.6651 39.0514C79.5658 39.6606 78.3606 39.9652 77.0494 39.9652ZM77.0494 36.3496C78.0427 36.3496 78.8241 36.0251 79.3936 35.3761C79.9764 34.7272 80.2678 33.8597 80.2678 32.7737C80.2678 31.6612 79.9764 30.787 79.3936 30.1513C78.8241 29.5024 78.0427 29.1779 77.0494 29.1779C76.0429 29.1779 75.2548 29.5024 74.6853 30.1513C74.1158 30.787 73.8311 31.6612 73.8311 32.7737C73.8311 33.8729 74.1158 34.747 74.6853 35.396C75.2548 36.0317 76.0429 36.3496 77.0494 36.3496ZM89.8653 25.8205V39.8262H85.9715V25.8205H89.8653ZM105.055 39.8262H101.162L95.9765 31.9989V39.8262H92.0827V25.8205H95.9765L101.162 33.7471V25.8205H105.055V39.8262ZM121.625 25.8205V28.9196H117.89V39.8262H113.996V28.9196H110.301V25.8205H121.625ZM135.601 25.8205V39.8262H131.707V34.204H126.959V39.8262H123.065V25.8205H126.959V31.085H131.707V25.8205H135.601ZM141.723 28.9395V31.2241H146.193V34.1842H141.723V36.7072H146.789V39.8262H137.829V25.8205H146.789V28.9395H141.723ZM161.376 37.5416H156.409L155.654 39.8262H151.562L156.668 25.8205H161.157L166.243 39.8262H162.131L161.376 37.5416ZM160.403 34.5616L158.893 30.0321L157.403 34.5616H160.403ZM167.035 32.7935C167.035 31.4161 167.32 30.1911 167.89 29.1183C168.472 28.0323 169.294 27.1913 170.353 26.5953C171.413 25.986 172.631 25.6814 174.009 25.6814C175.757 25.6814 177.227 26.1516 178.419 27.0919C179.611 28.019 180.379 29.2838 180.723 30.8864H176.532C176.28 30.3566 175.929 29.9527 175.479 29.6745C175.042 29.3964 174.532 29.2573 173.949 29.2573C173.048 29.2573 172.327 29.5818 171.784 30.2308C171.254 30.8665 170.989 31.7208 170.989 32.7935C170.989 33.8795 171.254 34.747 171.784 35.396C172.327 36.0317 173.048 36.3496 173.949 36.3496C174.532 36.3496 175.042 36.2105 175.479 35.9324C175.929 35.6543 176.28 35.2503 176.532 34.7206H180.723C180.379 36.3231 179.611 37.5945 178.419 38.5349C177.227 39.462 175.757 39.9255 174.009 39.9255C172.631 39.9255 171.413 39.6275 170.353 39.0315C169.294 38.4223 168.472 37.5813 167.89 36.5085C167.32 35.4225 167.035 34.1842 167.035 32.7935ZM193.116 25.8205V28.9196H189.381V39.8262H185.487V28.9196H181.792V25.8205H193.116ZM198.451 25.8205V39.8262H194.557V25.8205H198.451ZM207.383 39.9652C206.072 39.9652 204.866 39.6606 203.767 39.0514C202.668 38.4289 201.794 37.5747 201.145 36.4886C200.509 35.3894 200.191 34.1511 200.191 32.7737C200.191 31.3963 200.509 30.1646 201.145 29.0785C201.794 27.9793 202.668 27.125 203.767 26.5158C204.866 25.9066 206.072 25.602 207.383 25.602C208.707 25.602 209.912 25.9066 210.998 26.5158C212.098 27.125 212.965 27.9793 213.601 29.0785C214.237 30.1646 214.554 31.3963 214.554 32.7737C214.554 34.1511 214.237 35.3894 213.601 36.4886C212.965 37.5747 212.098 38.4289 210.998 39.0514C209.899 39.6606 208.694 39.9652 207.383 39.9652ZM207.383 36.3496C208.376 36.3496 209.157 36.0251 209.727 35.3761C210.31 34.7272 210.601 33.8597 210.601 32.7737C210.601 31.6612 210.31 30.787 209.727 30.1513C209.157 29.5024 208.376 29.1779 207.383 29.1779C206.376 29.1779 205.588 29.5024 205.019 30.1513C204.449 30.787 204.164 31.6612 204.164 32.7737C204.164 33.8729 204.449 34.747 205.019 35.396C205.588 36.0317 206.376 36.3496 207.383 36.3496ZM229.277 39.8262H225.384L220.199 31.9989V39.8262H216.305V25.8205H220.199L225.384 33.7471V25.8205H229.277V39.8262ZM236.7 25.1053L236.244 34.5815H232.926L232.469 25.1053H236.7ZM234.595 39.9851C233.906 39.9851 233.35 39.7997 232.926 39.4288C232.515 39.0448 232.31 38.5614 232.31 37.9786C232.31 37.3959 232.515 36.9125 232.926 36.5284C233.35 36.1443 233.906 35.9523 234.595 35.9523C235.27 35.9523 235.813 36.1443 236.224 36.5284C236.647 36.9125 236.859 37.3959 236.859 37.9786C236.859 38.5481 236.647 39.0249 236.224 39.409C235.813 39.7931 235.27 39.9851 234.595 39.9851Z" fill="white"/>
<defs>
<filter id="filter0_f_562_2017" x="140.172" y="-56.5025" width="188.497" height="188.497" filterUnits="userSpaceOnUse" color-interpolation-filters="sRGB">
<feFlood flood-opacity="0" result="BackgroundImageFix"/>
<feBlend mode="normal" in="SourceGraphic" in2="BackgroundImageFix" result="shape"/>
<feGaussianBlur stdDeviation="32.7212" result="effect1_foregroundBlur_562_2017"/>
</filter>
<filter id="filter1_f_562_2017" x="42.8271" y="-104.181" width="299.748" height="300.741" filterUnits="userSpaceOnUse" color-interpolation-filters="sRGB">
<feFlood flood-opacity="0" result="BackgroundImageFix"/>
<feBlend mode="normal" in="SourceGraphic" in2="BackgroundImageFix" result="shape"/>
<feGaussianBlur stdDeviation="32.7212" result="effect1_foregroundBlur_562_2017"/>
</filter>
<filter id="filter2_d_562_2017" x="136.019" y="-64.5692" width="199.744" height="202.343" filterUnits="userSpaceOnUse" color-interpolation-filters="sRGB">
<feFlood flood-opacity="0" result="BackgroundImageFix"/>
<feColorMatrix in="SourceAlpha" type="matrix" values="0 0 0 0 0 0 0 0 0 0 0 0 0 0 0 0 0 0 127 0" result="hardAlpha"/>
<feOffset dy="0.542605"/>
<feGaussianBlur stdDeviation="5.18188"/>
<feComposite in2="hardAlpha" operator="out"/>
<feColorMatrix type="matrix" values="0 0 0 0 0 0 0 0 0 0 0 0 0 0 0 0 0 0 0.83 0"/>
<feBlend mode="normal" in2="BackgroundImageFix" result="effect1_dropShadow_562_2017"/>
<feBlend mode="normal" in="SourceGraphic" in2="effect1_dropShadow_562_2017" result="shape"/>
</filter>
<filter id="filter3_d_562_2017" x="109.649" y="-89.328" width="249.524" height="253.519" filterUnits="userSpaceOnUse" color-interpolation-filters="sRGB">
<feFlood flood-opacity="0" result="BackgroundImageFix"/>
<feColorMatrix in="SourceAlpha" type="matrix" values="0 0 0 0 0 0 0 0 0 0 0 0 0 0 0 0 0 0 127 0" result="hardAlpha"/>
<feOffset dy="0.542605"/>
<feGaussianBlur stdDeviation="5.18188"/>
<feComposite in2="hardAlpha" operator="out"/>
<feColorMatrix type="matrix" values="0 0 0 0 0 0 0 0 0 0 0 0 0 0 0 0 0 0 0.83 0"/>
<feBlend mode="normal" in2="BackgroundImageFix" result="effect1_dropShadow_562_2017"/>
<feBlend mode="normal" in="SourceGraphic" in2="effect1_dropShadow_562_2017" result="shape"/>
</filter>
<filter id="filter4_d_562_2017" x="169.27" y="-30.6826" width="129.748" height="131.848" filterUnits="userSpaceOnUse" color-interpolation-filters="sRGB">
<feFlood flood-opacity="0" result="BackgroundImageFix"/>
<feColorMatrix in="SourceAlpha" type="matrix" values="0 0 0 0 0 0 0 0 0 0 0 0 0 0 0 0 0 0 127 0" result="hardAlpha"/>
<feOffset dy="2.17042"/>
<feGaussianBlur stdDeviation="1.08521"/>
<feComposite in2="hardAlpha" operator="out"/>
<feColorMatrix type="matrix" values="0 0 0 0 0 0 0 0 0 0 0 0 0 0 0 0 0 0 0.25 0"/>
<feBlend mode="normal" in2="BackgroundImageFix" result="effect1_dropShadow_562_2017"/>
<feBlend mode="normal" in="SourceGraphic" in2="effect1_dropShadow_562_2017" result="shape"/>
</filter>
<filter id="filter5_d_562_2017" x="184.684" y="-14.0266" width="95.8081" height="97.5967" filterUnits="userSpaceOnUse" color-interpolation-filters="sRGB">
<feFlood flood-opacity="0" result="BackgroundImageFix"/>
<feColorMatrix in="SourceAlpha" type="matrix" values="0 0 0 0 0 0 0 0 0 0 0 0 0 0 0 0 0 0 127 0" result="hardAlpha"/>
<feOffset dx="-1.08521" dy="1.08521"/>
<feGaussianBlur stdDeviation="0.976689"/>
<feComposite in2="hardAlpha" operator="out"/>
<feColorMatrix type="matrix" values="0 0 0 0 0 0 0 0 0 0 0 0 0 0 0 0 0 0 0.14 0"/>
<feBlend mode="normal" in2="BackgroundImageFix" result="effect1_dropShadow_562_2017"/>
<feBlend mode="normal" in="SourceGraphic" in2="effect1_dropShadow_562_2017" result="shape"/>
</filter>
<filter id="filter6_d_562_2017" x="136.019" y="-64.5692" width="199.744" height="202.343" filterUnits="userSpaceOnUse" color-interpolation-filters="sRGB">
<feFlood flood-opacity="0" result="BackgroundImageFix"/>
<feColorMatrix in="SourceAlpha" type="matrix" values="0 0 0 0 0 0 0 0 0 0 0 0 0 0 0 0 0 0 127 0" result="hardAlpha"/>
<feOffset dy="0.542605"/>
<feGaussianBlur stdDeviation="5.18188"/>
<feComposite in2="hardAlpha" operator="out"/>
<feColorMatrix type="matrix" values="0 0 0 0 0 0 0 0 0 0 0 0 0 0 0 0 0 0 0.83 0"/>
<feBlend mode="normal" in2="BackgroundImageFix" result="effect1_dropShadow_562_2017"/>
<feBlend mode="normal" in="SourceGraphic" in2="effect1_dropShadow_562_2017" result="shape"/>
</filter>
<filter id="filter7_d_562_2017" x="109.649" y="-89.328" width="249.524" height="253.519" filterUnits="userSpaceOnUse" color-interpolation-filters="sRGB">
<feFlood flood-opacity="0" result="BackgroundImageFix"/>
<feColorMatrix in="SourceAlpha" type="matrix" values="0 0 0 0 0 0 0 0 0 0 0 0 0 0 0 0 0 0 127 0" result="hardAlpha"/>
<feOffset dy="0.542605"/>
<feGaussianBlur stdDeviation="5.18188"/>
<feComposite in2="hardAlpha" operator="out"/>
<feColorMatrix type="matrix" values="0 0 0 0 0 0 0 0 0 0 0 0 0 0 0 0 0 0 0.83 0"/>
<feBlend mode="normal" in2="BackgroundImageFix" result="effect1_dropShadow_562_2017"/>
<feBlend mode="normal" in="SourceGraphic" in2="effect1_dropShadow_562_2017" result="shape"/>
</filter>
<filter id="filter8_d_562_2017" x="169.27" y="-30.6826" width="129.748" height="131.848" filterUnits="userSpaceOnUse" color-interpolation-filters="sRGB">
<feFlood flood-opacity="0" result="BackgroundImageFix"/>
<feColorMatrix in="SourceAlpha" type="matrix" values="0 0 0 0 0 0 0 0 0 0 0 0 0 0 0 0 0 0 127 0" result="hardAlpha"/>
<feOffset dy="2.17042"/>
<feGaussianBlur stdDeviation="1.08521"/>
<feComposite in2="hardAlpha" operator="out"/>
<feColorMatrix type="matrix" values="0 0 0 0 0 0 0 0 0 0 0 0 0 0 0 0 0 0 0.25 0"/>
<feBlend mode="normal" in2="BackgroundImageFix" result="effect1_dropShadow_562_2017"/>
<feBlend mode="normal" in="SourceGraphic" in2="effect1_dropShadow_562_2017" result="shape"/>
</filter>
<filter id="filter9_d_562_2017" x="184.684" y="-14.0266" width="95.8081" height="97.5967" filterUnits="userSpaceOnUse" color-interpolation-filters="sRGB">
<feFlood flood-opacity="0" result="BackgroundImageFix"/>
<feColorMatrix in="SourceAlpha" type="matrix" values="0 0 0 0 0 0 0 0 0 0 0 0 0 0 0 0 0 0 127 0" result="hardAlpha"/>
<feOffset dx="-1.08521" dy="1.08521"/>
<feGaussianBlur stdDeviation="0.976689"/>
<feComposite in2="hardAlpha" operator="out"/>
<feColorMatrix type="matrix" values="0 0 0 0 0 0 0 0 0 0 0 0 0 0 0 0 0 0 0.14 0"/>
<feBlend mode="normal" in2="BackgroundImageFix" result="effect1_dropShadow_562_2017"/>
<feBlend mode="normal" in="SourceGraphic" in2="effect1_dropShadow_562_2017" result="shape"/>
</filter>
<filter id="filter10_d_562_2017" x="136.021" y="-64.5682" width="199.744" height="202.342" filterUnits="userSpaceOnUse" color-interpolation-filters="sRGB">
<feFlood flood-opacity="0" result="BackgroundImageFix"/>
<feColorMatrix in="SourceAlpha" type="matrix" values="0 0 0 0 0 0 0 0 0 0 0 0 0 0 0 0 0 0 127 0" result="hardAlpha"/>
<feOffset dy="0.542605"/>
<feGaussianBlur stdDeviation="5.18188"/>
<feComposite in2="hardAlpha" operator="out"/>
<feColorMatrix type="matrix" values="0 0 0 0 0 0 0 0 0 0 0 0 0 0 0 0 0 0 0.83 0"/>
<feBlend mode="normal" in2="BackgroundImageFix" result="effect1_dropShadow_562_2017"/>
<feBlend mode="normal" in="SourceGraphic" in2="effect1_dropShadow_562_2017" result="shape"/>
</filter>
<filter id="filter11_d_562_2017" x="109.652" y="-89.3268" width="249.524" height="253.518" filterUnits="userSpaceOnUse" color-interpolation-filters="sRGB">
<feFlood flood-opacity="0" result="BackgroundImageFix"/>
<feColorMatrix in="SourceAlpha" type="matrix" values="0 0 0 0 0 0 0 0 0 0 0 0 0 0 0 0 0 0 127 0" result="hardAlpha"/>
<feOffset dy="0.542605"/>
<feGaussianBlur stdDeviation="5.18188"/>
<feComposite in2="hardAlpha" operator="out"/>
<feColorMatrix type="matrix" values="0 0 0 0 0 0 0 0 0 0 0 0 0 0 0 0 0 0 0.83 0"/>
<feBlend mode="normal" in2="BackgroundImageFix" result="effect1_dropShadow_562_2017"/>
<feBlend mode="normal" in="SourceGraphic" in2="effect1_dropShadow_562_2017" result="shape"/>
</filter>
<filter id="filter12_d_562_2017" x="169.272" y="-30.6819" width="129.748" height="131.847" filterUnits="userSpaceOnUse" color-interpolation-filters="sRGB">
<feFlood flood-opacity="0" result="BackgroundImageFix"/>
<feColorMatrix in="SourceAlpha" type="matrix" values="0 0 0 0 0 0 0 0 0 0 0 0 0 0 0 0 0 0 127 0" result="hardAlpha"/>
<feOffset dy="2.17042"/>
<feGaussianBlur stdDeviation="1.08521"/>
<feComposite in2="hardAlpha" operator="out"/>
<feColorMatrix type="matrix" values="0 0 0 0 0 0 0 0 0 0 0 0 0 0 0 0 0 0 0.25 0"/>
<feBlend mode="normal" in2="BackgroundImageFix" result="effect1_dropShadow_562_2017"/>
<feBlend mode="normal" in="SourceGraphic" in2="effect1_dropShadow_562_2017" result="shape"/>
</filter>
<filter id="filter13_d_562_2017" x="184.686" y="-14.0261" width="95.8082" height="97.5962" filterUnits="userSpaceOnUse" color-interpolation-filters="sRGB">
<feFlood flood-opacity="0" result="BackgroundImageFix"/>
<feColorMatrix in="SourceAlpha" type="matrix" values="0 0 0 0 0 0 0 0 0 0 0 0 0 0 0 0 0 0 127 0" result="hardAlpha"/>
<feOffset dx="-1.08521" dy="1.08521"/>
<feGaussianBlur stdDeviation="0.976689"/>
<feComposite in2="hardAlpha" operator="out"/>
<feColorMatrix type="matrix" values="0 0 0 0 0 0 0 0 0 0 0 0 0 0 0 0 0 0 0.14 0"/>
<feBlend mode="normal" in2="BackgroundImageFix" result="effect1_dropShadow_562_2017"/>
<feBlend mode="normal" in="SourceGraphic" in2="effect1_dropShadow_562_2017" result="shape"/>
</filter>
<filter id="filter14_d_562_2017" x="136.021" y="-64.5682" width="199.744" height="202.342" filterUnits="userSpaceOnUse" color-interpolation-filters="sRGB">
<feFlood flood-opacity="0" result="BackgroundImageFix"/>
<feColorMatrix in="SourceAlpha" type="matrix" values="0 0 0 0 0 0 0 0 0 0 0 0 0 0 0 0 0 0 127 0" result="hardAlpha"/>
<feOffset dy="0.542605"/>
<feGaussianBlur stdDeviation="5.18188"/>
<feComposite in2="hardAlpha" operator="out"/>
<feColorMatrix type="matrix" values="0 0 0 0 0 0 0 0 0 0 0 0 0 0 0 0 0 0 0.83 0"/>
<feBlend mode="normal" in2="BackgroundImageFix" result="effect1_dropShadow_562_2017"/>
<feBlend mode="normal" in="SourceGraphic" in2="effect1_dropShadow_562_2017" result="shape"/>
</filter>
<filter id="filter15_d_562_2017" x="109.652" y="-89.3268" width="249.524" height="253.518" filterUnits="userSpaceOnUse" color-interpolation-filters="sRGB">
<feFlood flood-opacity="0" result="BackgroundImageFix"/>
<feColorMatrix in="SourceAlpha" type="matrix" values="0 0 0 0 0 0 0 0 0 0 0 0 0 0 0 0 0 0 127 0" result="hardAlpha"/>
<feOffset dy="0.542605"/>
<feGaussianBlur stdDeviation="5.18188"/>
<feComposite in2="hardAlpha" operator="out"/>
<feColorMatrix type="matrix" values="0 0 0 0 0 0 0 0 0 0 0 0 0 0 0 0 0 0 0.83 0"/>
<feBlend mode="normal" in2="BackgroundImageFix" result="effect1_dropShadow_562_2017"/>
<feBlend mode="normal" in="SourceGraphic" in2="effect1_dropShadow_562_2017" result="shape"/>
</filter>
<filter id="filter16_d_562_2017" x="169.272" y="-30.6819" width="129.748" height="131.847" filterUnits="userSpaceOnUse" color-interpolation-filters="sRGB">
<feFlood flood-opacity="0" result="BackgroundImageFix"/>
<feColorMatrix in="SourceAlpha" type="matrix" values="0 0 0 0 0 0 0 0 0 0 0 0 0 0 0 0 0 0 127 0" result="hardAlpha"/>
<feOffset dy="2.17042"/>
<feGaussianBlur stdDeviation="1.08521"/>
<feComposite in2="hardAlpha" operator="out"/>
<feColorMatrix type="matrix" values="0 0 0 0 0 0 0 0 0 0 0 0 0 0 0 0 0 0 0.25 0"/>
<feBlend mode="normal" in2="BackgroundImageFix" result="effect1_dropShadow_562_2017"/>
<feBlend mode="normal" in="SourceGraphic" in2="effect1_dropShadow_562_2017" result="shape"/>
</filter>
<filter id="filter17_d_562_2017" x="184.686" y="-14.0261" width="95.8082" height="97.5962" filterUnits="userSpaceOnUse" color-interpolation-filters="sRGB">
<feFlood flood-opacity="0" result="BackgroundImageFix"/>
<feColorMatrix in="SourceAlpha" type="matrix" values="0 0 0 0 0 0 0 0 0 0 0 0 0 0 0 0 0 0 127 0" result="hardAlpha"/>
<feOffset dx="-1.08521" dy="1.08521"/>
<feGaussianBlur stdDeviation="0.976689"/>
<feComposite in2="hardAlpha" operator="out"/>
<feColorMatrix type="matrix" values="0 0 0 0 0 0 0 0 0 0 0 0 0 0 0 0 0 0 0.14 0"/>
<feBlend mode="normal" in2="BackgroundImageFix" result="effect1_dropShadow_562_2017"/>
<feBlend mode="normal" in="SourceGraphic" in2="effect1_dropShadow_562_2017" result="shape"/>
</filter>
<filter id="filter18_d_562_2017" x="136.021" y="-64.5682" width="199.744" height="202.342" filterUnits="userSpaceOnUse" color-interpolation-filters="sRGB">
<feFlood flood-opacity="0" result="BackgroundImageFix"/>
<feColorMatrix in="SourceAlpha" type="matrix" values="0 0 0 0 0 0 0 0 0 0 0 0 0 0 0 0 0 0 127 0" result="hardAlpha"/>
<feOffset dy="0.542605"/>
<feGaussianBlur stdDeviation="5.18188"/>
<feComposite in2="hardAlpha" operator="out"/>
<feColorMatrix type="matrix" values="0 0 0 0 0 0 0 0 0 0 0 0 0 0 0 0 0 0 0.83 0"/>
<feBlend mode="normal" in2="BackgroundImageFix" result="effect1_dropShadow_562_2017"/>
<feBlend mode="normal" in="SourceGraphic" in2="effect1_dropShadow_562_2017" result="shape"/>
</filter>
<filter id="filter19_d_562_2017" x="109.652" y="-89.3268" width="249.524" height="253.518" filterUnits="userSpaceOnUse" color-interpolation-filters="sRGB">
<feFlood flood-opacity="0" result="BackgroundImageFix"/>
<feColorMatrix in="SourceAlpha" type="matrix" values="0 0 0 0 0 0 0 0 0 0 0 0 0 0 0 0 0 0 127 0" result="hardAlpha"/>
<feOffset dy="0.542605"/>
<feGaussianBlur stdDeviation="5.18188"/>
<feComposite in2="hardAlpha" operator="out"/>
<feColorMatrix type="matrix" values="0 0 0 0 0 0 0 0 0 0 0 0 0 0 0 0 0 0 0.83 0"/>
<feBlend mode="normal" in2="BackgroundImageFix" result="effect1_dropShadow_562_2017"/>
<feBlend mode="normal" in="SourceGraphic" in2="effect1_dropShadow_562_2017" result="shape"/>
</filter>
<filter id="filter20_d_562_2017" x="169.272" y="-30.6819" width="129.748" height="131.847" filterUnits="userSpaceOnUse" color-interpolation-filters="sRGB">
<feFlood flood-opacity="0" result="BackgroundImageFix"/>
<feColorMatrix in="SourceAlpha" type="matrix" values="0 0 0 0 0 0 0 0 0 0 0 0 0 0 0 0 0 0 127 0" result="hardAlpha"/>
<feOffset dy="2.17042"/>
<feGaussianBlur stdDeviation="1.08521"/>
<feComposite in2="hardAlpha" operator="out"/>
<feColorMatrix type="matrix" values="0 0 0 0 0 0 0 0 0 0 0 0 0 0 0 0 0 0 0.25 0"/>
<feBlend mode="normal" in2="BackgroundImageFix" result="effect1_dropShadow_562_2017"/>
<feBlend mode="normal" in="SourceGraphic" in2="effect1_dropShadow_562_2017" result="shape"/>
</filter>
<filter id="filter21_d_562_2017" x="184.686" y="-14.0261" width="95.8082" height="97.5962" filterUnits="userSpaceOnUse" color-interpolation-filters="sRGB">
<feFlood flood-opacity="0" result="BackgroundImageFix"/>
<feColorMatrix in="SourceAlpha" type="matrix" values="0 0 0 0 0 0 0 0 0 0 0 0 0 0 0 0 0 0 127 0" result="hardAlpha"/>
<feOffset dx="-1.08521" dy="1.08521"/>
<feGaussianBlur stdDeviation="0.976689"/>
<feComposite in2="hardAlpha" operator="out"/>
<feColorMatrix type="matrix" values="0 0 0 0 0 0 0 0 0 0 0 0 0 0 0 0 0 0 0.14 0"/>
<feBlend mode="normal" in2="BackgroundImageFix" result="effect1_dropShadow_562_2017"/>
<feBlend mode="normal" in="SourceGraphic" in2="effect1_dropShadow_562_2017" result="shape"/>
</filter>
<filter id="filter22_f_562_2017" x="134.99" y="-28.9052" width="225.68" height="190.914" filterUnits="userSpaceOnUse" color-interpolation-filters="sRGB">
<feFlood flood-opacity="0" result="BackgroundImageFix"/>
<feBlend mode="normal" in="SourceGraphic" in2="BackgroundImageFix" result="shape"/>
<feGaussianBlur stdDeviation="28.8557" result="effect1_foregroundBlur_562_2017"/>
</filter>
<filter id="filter23_f_562_2017" x="134.99" y="-28.9052" width="225.68" height="190.914" filterUnits="userSpaceOnUse" color-interpolation-filters="sRGB">
<feFlood flood-opacity="0" result="BackgroundImageFix"/>
<feBlend mode="normal" in="SourceGraphic" in2="BackgroundImageFix" result="shape"/>
<feGaussianBlur stdDeviation="28.8557" result="effect1_foregroundBlur_562_2017"/>
</filter>
<filter id="filter24_f_562_2017" x="-123.439" y="-133.128" width="262.663" height="260.473" filterUnits="userSpaceOnUse" color-interpolation-filters="sRGB">
<feFlood flood-opacity="0" result="BackgroundImageFix"/>
<feBlend mode="normal" in="SourceGraphic" in2="BackgroundImageFix" result="shape"/>
<feGaussianBlur stdDeviation="41.8681" result="effect1_foregroundBlur_562_2017"/>
</filter>
<filter id="filter25_f_562_2017" x="93.1718" y="-83.6367" width="378.849" height="344.083" filterUnits="userSpaceOnUse" color-interpolation-filters="sRGB">
<feFlood flood-opacity="0" result="BackgroundImageFix"/>
<feBlend mode="normal" in="SourceGraphic" in2="BackgroundImageFix" result="shape"/>
<feGaussianBlur stdDeviation="67.1478" result="effect1_foregroundBlur_562_2017"/>
</filter>
<linearGradient id="paint0_linear_562_2017" x1="145.122" y1="-56.965" x2="281.632" y2="64.0701" gradientUnits="userSpaceOnUse">
<stop stop-color="#D9D9D9"/>
<stop offset="1" stop-color="white" stop-opacity="0"/>
</linearGradient>
<linearGradient id="paint1_linear_562_2017" x1="118.329" y1="-82.391" x2="293.336" y2="72.3171" gradientUnits="userSpaceOnUse">
<stop stop-color="#D9D9D9"/>
<stop offset="1" stop-color="white" stop-opacity="0"/>
</linearGradient>
<linearGradient id="paint2_linear_562_2017" x1="88.3405" y1="-113.404" x2="306.915" y2="80.1395" gradientUnits="userSpaceOnUse">
<stop stop-color="#D9D9D9"/>
<stop offset="1" stop-color="white" stop-opacity="0"/>
</linearGradient>
<linearGradient id="paint3_linear_562_2017" x1="170.527" y1="-32.2567" x2="266.38" y2="52.5394" gradientUnits="userSpaceOnUse">
<stop stop-color="#D9D9D9"/>
<stop offset="1" stop-color="white" stop-opacity="0"/>
</linearGradient>
<linearGradient id="paint4_linear_562_2017" x1="145.122" y1="-56.965" x2="281.632" y2="64.0701" gradientUnits="userSpaceOnUse">
<stop stop-color="#D9D9D9"/>
<stop offset="1" stop-color="white" stop-opacity="0"/>
</linearGradient>
<linearGradient id="paint5_linear_562_2017" x1="118.329" y1="-82.391" x2="293.336" y2="72.3171" gradientUnits="userSpaceOnUse">
<stop stop-color="#D9D9D9"/>
<stop offset="1" stop-color="white" stop-opacity="0"/>
</linearGradient>
<linearGradient id="paint6_linear_562_2017" x1="88.3405" y1="-113.404" x2="306.915" y2="80.1395" gradientUnits="userSpaceOnUse">
<stop stop-color="#D9D9D9"/>
<stop offset="1" stop-color="white" stop-opacity="0"/>
</linearGradient>
<linearGradient id="paint7_linear_562_2017" x1="170.527" y1="-32.2567" x2="266.38" y2="52.5394" gradientUnits="userSpaceOnUse">
<stop stop-color="#D9D9D9"/>
<stop offset="1" stop-color="white" stop-opacity="0"/>
</linearGradient>
<linearGradient id="paint8_linear_562_2017" x1="142.567" y1="-12.9131" x2="142.567" y2="79.4648" gradientUnits="userSpaceOnUse">
<stop stop-color="#E72687"/>
<stop offset="1" stop-color="#3F001F"/>
</linearGradient>
<linearGradient id="paint9_linear_562_2017" x1="145.123" y1="-56.9648" x2="281.634" y2="64.0718" gradientUnits="userSpaceOnUse">
<stop stop-color="#D9D9D9"/>
<stop offset="1" stop-color="white" stop-opacity="0"/>
</linearGradient>
<linearGradient id="paint10_linear_562_2017" x1="118.329" y1="-82.3908" x2="293.338" y2="72.3191" gradientUnits="userSpaceOnUse">
<stop stop-color="#D9D9D9"/>
<stop offset="1" stop-color="white" stop-opacity="0"/>
</linearGradient>
<linearGradient id="paint11_linear_562_2017" x1="88.3435" y1="-113.409" x2="306.895" y2="80.1051" gradientUnits="userSpaceOnUse">
<stop stop-color="#D9D9D9"/>
<stop offset="1" stop-color="white" stop-opacity="0"/>
</linearGradient>
<linearGradient id="paint12_linear_562_2017" x1="170.528" y1="-32.2565" x2="266.382" y2="52.5406" gradientUnits="userSpaceOnUse">
<stop stop-color="#D9D9D9"/>
<stop offset="1" stop-color="white" stop-opacity="0"/>
</linearGradient>
<linearGradient id="paint13_linear_562_2017" x1="145.123" y1="-56.9648" x2="281.634" y2="64.0718" gradientUnits="userSpaceOnUse">
<stop stop-color="#D9D9D9"/>
<stop offset="1" stop-color="white" stop-opacity="0"/>
</linearGradient>
<linearGradient id="paint14_linear_562_2017" x1="118.329" y1="-82.3908" x2="293.338" y2="72.3191" gradientUnits="userSpaceOnUse">
<stop stop-color="#D9D9D9"/>
<stop offset="1" stop-color="white" stop-opacity="0"/>
</linearGradient>
<linearGradient id="paint15_linear_562_2017" x1="88.3435" y1="-113.409" x2="306.895" y2="80.1051" gradientUnits="userSpaceOnUse">
<stop stop-color="#D9D9D9"/>
<stop offset="1" stop-color="white" stop-opacity="0"/>
</linearGradient>
<linearGradient id="paint16_linear_562_2017" x1="170.528" y1="-32.2565" x2="266.382" y2="52.5406" gradientUnits="userSpaceOnUse">
<stop stop-color="#D9D9D9"/>
<stop offset="1" stop-color="white" stop-opacity="0"/>
</linearGradient>
<linearGradient id="paint17_linear_562_2017" x1="145.123" y1="-56.9648" x2="281.634" y2="64.0718" gradientUnits="userSpaceOnUse">
<stop stop-color="#D9D9D9"/>
<stop offset="1" stop-color="white" stop-opacity="0"/>
</linearGradient>
<linearGradient id="paint18_linear_562_2017" x1="118.329" y1="-82.3908" x2="293.338" y2="72.3191" gradientUnits="userSpaceOnUse">
<stop stop-color="#D9D9D9"/>
<stop offset="1" stop-color="white" stop-opacity="0"/>
</linearGradient>
<linearGradient id="paint19_linear_562_2017" x1="88.3435" y1="-113.409" x2="306.895" y2="80.1051" gradientUnits="userSpaceOnUse">
<stop stop-color="#D9D9D9"/>
<stop offset="1" stop-color="white" stop-opacity="0"/>
</linearGradient>
<linearGradient id="paint20_linear_562_2017" x1="170.528" y1="-32.2565" x2="266.382" y2="52.5406" gradientUnits="userSpaceOnUse">
<stop stop-color="#D9D9D9"/>
<stop offset="1" stop-color="white" stop-opacity="0"/>
</linearGradient>
<linearGradient id="paint21_linear_562_2017" x1="135.918" y1="-2.97998" x2="135.918" y2="69.5317" gradientUnits="userSpaceOnUse">
<stop stop-color="#E72687"/>
<stop offset="1" stop-color="#3F001F"/>
</linearGradient>
</defs>
</svg>
