<svg width="339" height="203" viewBox="0 0 339 203" fill="none" xmlns="http://www.w3.org/2000/svg">
<path d="M36.5714 169.204L36.3563 145.203L284.707 145.203L284.747 169.204L36.5714 169.204Z" fill="white"/>
<path d="M53.7637 164.434V150.434H58.9637L61.8637 157.634H62.3637L65.2637 150.434H70.4637V164.434H66.7637V156.434L67.0637 154.634H66.8637L64.1637 161.234H60.0637L57.3637 154.634H57.1637L57.4637 156.434V164.434H53.7637ZM74.6606 162.674C73.194 161.221 72.4606 159.474 72.4606 157.434C72.4606 155.394 73.194 153.654 74.6606 152.214C76.1406 150.761 78.0073 150.034 80.2606 150.034C82.514 150.034 84.374 150.761 85.8406 152.214C87.3206 153.654 88.0606 155.394 88.0606 157.434C88.0606 159.474 87.3206 161.221 85.8406 162.674C84.374 164.114 82.514 164.834 80.2606 164.834C78.0073 164.834 76.1406 164.114 74.6606 162.674ZM77.4406 154.534C76.7206 155.268 76.3606 156.234 76.3606 157.434C76.3606 158.634 76.7206 159.601 77.4406 160.334C78.1606 161.068 79.1006 161.434 80.2606 161.434C81.4206 161.434 82.3606 161.068 83.0806 160.334C83.8006 159.601 84.1606 158.634 84.1606 157.434C84.1606 156.234 83.8006 155.268 83.0806 154.534C82.3606 153.801 81.4206 153.434 80.2606 153.434C79.1006 153.434 78.1606 153.801 77.4406 154.534ZM90.0528 164.434V150.434H97.0528C98.7195 150.434 100.066 150.908 101.093 151.854C102.133 152.788 102.653 153.948 102.653 155.334C102.653 157.134 101.719 158.534 99.8528 159.534L102.753 164.434H98.7528L96.2528 160.234H93.7528V164.434H90.0528ZM93.7528 156.834H96.9528C97.5261 156.834 97.9861 156.688 98.3328 156.394C98.6795 156.101 98.8528 155.748 98.8528 155.334C98.8528 154.921 98.6795 154.568 98.3328 154.274C97.9861 153.981 97.5261 153.834 96.9528 153.834H93.7528V156.834ZM104.76 164.434V150.434H115.56V153.834H108.46V155.934H114.16V158.934H108.46V161.034H115.56V164.434H104.76ZM123.256 164.434V150.434H130.056C131.776 150.434 133.169 150.928 134.236 151.914C135.316 152.888 135.856 154.094 135.856 155.534C135.856 156.974 135.316 158.188 134.236 159.174C133.169 160.148 131.776 160.634 130.056 160.634H126.956V164.434H123.256ZM126.956 157.234H129.956C130.649 157.234 131.169 157.081 131.516 156.774C131.876 156.468 132.056 156.054 132.056 155.534C132.056 155.014 131.876 154.601 131.516 154.294C131.169 153.988 130.649 153.834 129.956 153.834H126.956V157.234ZM137.748 164.434V150.434H144.748C146.415 150.434 147.761 150.908 148.788 151.854C149.828 152.788 150.348 153.948 150.348 155.334C150.348 157.134 149.415 158.534 147.548 159.534L150.448 164.434H146.448L143.948 160.234H141.448V164.434H137.748ZM141.448 156.834H144.648C145.221 156.834 145.681 156.688 146.028 156.394C146.375 156.101 146.548 155.748 146.548 155.334C146.548 154.921 146.375 154.568 146.028 154.274C145.681 153.981 145.221 153.834 144.648 153.834H141.448V156.834ZM152.455 164.434V150.434H156.155V164.434H152.455ZM158.164 164.434V161.034L165.064 154.034V153.834H158.364V150.434H169.864V153.834L162.964 160.834V161.034H170.064V164.434H158.164ZM172.065 164.434V150.434H182.865V153.834H175.765V155.934H181.465V158.934H175.765V161.034H182.865V164.434H172.065ZM190.561 164.434V150.434H197.361C199.081 150.434 200.474 150.928 201.541 151.914C202.621 152.888 203.161 154.094 203.161 155.534C203.161 156.974 202.621 158.188 201.541 159.174C200.474 160.148 199.081 160.634 197.361 160.634H194.261V164.434H190.561ZM194.261 157.234H197.261C197.954 157.234 198.474 157.081 198.821 156.774C199.181 156.468 199.361 156.054 199.361 155.534C199.361 155.014 199.181 154.601 198.821 154.294C198.474 153.988 197.954 153.834 197.261 153.834H194.261V157.234ZM206.653 162.674C205.186 161.221 204.453 159.474 204.453 157.434C204.453 155.394 205.186 153.654 206.653 152.214C208.133 150.761 209.999 150.034 212.253 150.034C214.506 150.034 216.366 150.761 217.833 152.214C219.313 153.654 220.053 155.394 220.053 157.434C220.053 159.474 219.313 161.221 217.833 162.674C216.366 164.114 214.506 164.834 212.253 164.834C209.999 164.834 208.133 164.114 206.653 162.674ZM209.433 154.534C208.713 155.268 208.353 156.234 208.353 157.434C208.353 158.634 208.713 159.601 209.433 160.334C210.153 161.068 211.093 161.434 212.253 161.434C213.413 161.434 214.353 161.068 215.073 160.334C215.793 159.601 216.153 158.634 216.153 157.434C216.153 156.234 215.793 155.268 215.073 154.534C214.353 153.801 213.413 153.434 212.253 153.434C211.093 153.434 210.153 153.801 209.433 154.534ZM222.045 164.434V150.434H225.745V164.434H222.045ZM228.354 164.434V150.434H232.854L237.754 159.234H237.954L237.654 157.434V150.434H241.354V164.434H236.854L231.954 155.634H231.754L232.054 157.434V164.434H228.354ZM242.859 153.834V150.434H255.359V153.834H250.959V164.434H247.259V153.834H242.859ZM256.05 159.934H259.85C259.97 160.268 260.15 160.554 260.39 160.794C260.95 161.354 261.736 161.634 262.75 161.634C263.456 161.634 263.983 161.521 264.33 161.294C264.676 161.068 264.85 160.781 264.85 160.434C264.85 160.288 264.81 160.154 264.73 160.034C264.663 159.901 264.543 159.781 264.37 159.674C264.21 159.568 264.05 159.481 263.89 159.414C263.73 159.334 263.496 159.254 263.19 159.174C262.896 159.081 262.65 159.008 262.45 158.954C262.25 158.901 261.956 158.828 261.57 158.734C261.196 158.641 260.91 158.568 260.71 158.514C259.443 158.168 258.43 157.688 257.67 157.074C256.923 156.461 256.55 155.581 256.55 154.434C256.55 153.221 257.07 152.188 258.11 151.334C259.163 150.468 260.576 150.034 262.35 150.034C264.616 150.034 266.31 150.768 267.43 152.234C267.923 152.874 268.263 153.608 268.45 154.434H264.65C264.57 154.221 264.436 154.021 264.25 153.834C263.823 153.434 263.19 153.234 262.35 153.234C261.696 153.234 261.216 153.334 260.91 153.534C260.603 153.721 260.45 153.954 260.45 154.234C260.45 154.608 260.67 154.908 261.11 155.134C261.563 155.348 262.223 155.554 263.09 155.754C263.596 155.874 263.956 155.968 264.17 156.034C264.396 156.088 264.75 156.194 265.23 156.354C265.723 156.501 266.096 156.641 266.35 156.774C266.603 156.908 266.903 157.094 267.25 157.334C267.61 157.561 267.876 157.808 268.05 158.074C268.236 158.328 268.396 158.641 268.53 159.014C268.676 159.388 268.75 159.794 268.75 160.234C268.75 161.514 268.223 162.601 267.17 163.494C266.116 164.388 264.643 164.834 262.75 164.834C260.376 164.834 258.55 164.021 257.27 162.394C256.723 161.688 256.316 160.868 256.05 159.934Z" fill="black"/>
<path d="M30.7117 24.0342L36.1517 4.99418H32.0717L33.4317 0.234178H46.6917L45.3317 4.99418H41.2517L35.8117 24.0342H30.7117ZM41.7511 24.0342L48.5511 0.234178H53.6511L50.9311 9.75418H54.1951L56.9151 0.234178H62.0151L55.2151 24.0342H50.1151L52.8351 14.5142H49.5711L46.8511 24.0342H41.7511ZM58.2703 24.0342L65.0703 0.234178H75.3043L73.9443 4.99418H68.7423L67.3823 9.75418H72.2103L70.8503 14.5142H66.0223L64.6623 19.2742H69.8643L68.5043 24.0342H58.2703ZM80.7109 24.2042C77.0049 24.2042 75.8489 21.5522 76.7669 18.3562L80.4729 5.33418C81.5609 1.49218 83.3969 0.0641782 86.4909 0.0641782H89.5509C93.2569 0.0641782 94.4129 2.71618 93.4949 5.91218L92.2029 10.5022H87.2049L88.5989 5.60618C88.7689 4.99418 88.5989 4.68818 87.9869 4.68818H86.4569C85.9129 4.68818 85.6409 5.06218 85.5049 5.60618L81.7649 18.7302C81.5949 19.3082 81.7649 19.5802 82.4109 19.5802H83.9069C84.4509 19.5802 84.6889 19.2742 84.8589 18.6622L86.1509 14.1402H91.1489L89.7889 18.9342C88.7009 22.7762 86.9669 24.2042 83.8729 24.2042H80.7109ZM91.0604 24.0342L97.8604 0.234178H105.17C108.876 0.234178 110.032 2.88618 109.114 6.08218L108.128 9.51618C107.38 12.1342 106.292 13.6642 104.66 14.3442L104.796 24.0342H99.7984V14.7862H98.8124L96.1604 24.0342H91.0604ZM100.036 10.4682H102.076C102.62 10.4682 102.858 10.1622 103.028 9.55018L104.082 5.81018C104.252 5.19818 104.082 4.89218 103.47 4.89218H101.634L100.036 10.4682ZM106.65 24.0342L113.45 0.234178H118.55L111.75 24.0342H106.65ZM120.208 24.2042C116.502 24.2042 115.346 21.5522 116.264 18.3562L119.97 5.33418C121.058 1.49218 122.894 0.0641782 125.988 0.0641782H129.048C132.754 0.0641782 133.91 2.71618 132.992 5.91218L131.7 10.5022H126.702L128.096 5.60618C128.266 4.99418 128.096 4.68818 127.484 4.68818H125.954C125.41 4.68818 125.138 5.06218 125.002 5.60618L121.262 18.7302C121.092 19.3082 121.262 19.5802 121.908 19.5802H123.404C123.948 19.5802 124.186 19.2742 124.356 18.6622L125.648 14.1402H130.646L129.286 18.9342C128.198 22.7762 126.464 24.2042 123.37 24.2042H120.208ZM130.558 24.0342L137.358 0.234178H142.458L139.738 9.75418H140.384L145.688 0.234178H150.788L144.124 12.1682L144.294 24.0342H139.296V14.5142H138.378L135.658 24.0342H130.558ZM146.213 24.0342L153.013 0.234178H163.247L161.887 4.99418H156.685L155.325 9.75418H160.153L158.793 14.5142H153.965L152.605 19.2742H157.807L156.447 24.0342H146.213ZM161.041 24.0342L166.481 4.99418H162.401L163.761 0.234178H177.021L175.661 4.99418H171.581L166.141 24.0342H161.041ZM178.086 24.0342L181.418 0.234178H186.348L185.124 8.76818L183.934 14.8542H184.07L189.272 2.92018H192.944L191.618 14.8542H191.754L194.202 8.53018L197.67 0.234178H202.838L192.502 24.0342H187.096L188.116 14.1742H187.98L183.492 24.0342H178.086ZM202.489 24.2042C198.783 24.2042 197.627 21.5522 198.545 18.3562L202.251 5.33418C203.339 1.49218 205.175 0.0641782 208.269 0.0641782H211.601C215.307 0.0641782 216.463 2.71618 215.545 5.91218L211.839 18.9342C210.751 22.7762 208.915 24.2042 205.821 24.2042H202.489ZM204.189 19.5802H205.855C206.399 19.5802 206.637 19.2742 206.807 18.6622L210.547 5.60618C210.717 4.99418 210.547 4.68818 209.935 4.68818H208.235C207.691 4.68818 207.419 5.06218 207.283 5.60618L203.543 18.7302C203.373 19.3082 203.543 19.5802 204.189 19.5802ZM213.27 24.0342L220.07 0.234178H227.38C231.086 0.234178 232.242 2.88618 231.324 6.08218L230.338 9.51618C229.59 12.1342 228.502 13.6642 226.87 14.3442L227.006 24.0342H222.008V14.7862H221.022L218.37 24.0342H213.27ZM222.246 10.4682H224.286C224.83 10.4682 225.068 10.1622 225.238 9.55018L226.292 5.81018C226.462 5.19818 226.292 4.89218 225.68 4.89218H223.844L222.246 10.4682ZM228.86 24.0342L235.66 0.234178H240.76L235.32 19.2742H240.794L239.434 24.0342H228.86ZM241.295 24.0342L248.095 0.234178H255.915C259.621 0.234178 260.777 2.88618 259.859 6.08218L256.221 18.7642C255.133 22.6062 253.297 24.0342 250.203 24.0342H241.295ZM247.755 19.2742H250.305C250.849 19.2742 251.087 18.9682 251.257 18.3562L254.793 5.91218C254.963 5.30018 254.793 4.99418 254.181 4.99418H251.835L247.755 19.2742ZM267.089 24.2042C263.383 24.2042 262.227 21.5522 263.145 18.3562L266.851 5.33418C267.939 1.49218 269.775 0.0641782 272.869 0.0641782H275.929C279.635 0.0641782 280.791 2.71618 279.873 5.91218L278.581 10.5022H273.583L274.977 5.60618C275.147 4.99418 274.977 4.68818 274.365 4.68818H272.835C272.291 4.68818 272.019 5.06218 271.883 5.60618L268.143 18.7302C267.973 19.3082 268.143 19.5802 268.789 19.5802H270.285C270.829 19.5802 271.067 19.2742 271.237 18.6622L272.529 14.1402H277.527L276.167 18.9342C275.079 22.7762 273.345 24.2042 270.251 24.2042H267.089ZM283.015 24.2042C279.309 24.2042 278.153 21.5522 279.071 18.3562L284.239 0.234178H289.339L284.171 18.3222C283.933 19.1722 284.171 19.5802 285.055 19.5802H286.075C286.891 19.5802 287.197 19.1042 287.469 18.2542L292.603 0.234178H297.703L292.365 18.9342C291.277 22.7762 289.441 24.2042 286.347 24.2042H283.015ZM293.958 24.0342L300.758 0.234178H308.238C311.944 0.234178 313.1 2.88618 312.182 6.08218L311.094 9.92418C309.972 13.7662 308.136 15.1942 305.042 15.1942H301.574L299.058 24.0342H293.958ZM302.866 10.6722H305.076C305.62 10.6722 305.858 10.3662 306.028 9.75418L307.15 5.81018C307.32 5.19818 307.15 4.89218 306.538 4.89218H304.532L302.866 10.6722ZM91.9589 65.0342L97.3989 45.9942H93.3189L94.6789 41.2342H107.939L106.579 45.9942H102.499L97.0589 65.0342H91.9589ZM107.74 65.2042C104.034 65.2042 102.878 62.5522 103.796 59.3562L107.502 46.3342C108.59 42.4922 110.426 41.0642 113.52 41.0642H116.852C120.558 41.0642 121.714 43.7162 120.796 46.9122L117.09 59.9342C116.002 63.7762 114.166 65.2042 111.072 65.2042H107.74ZM109.44 60.5802H111.106C111.65 60.5802 111.888 60.2742 112.058 59.6622L115.798 46.6062C115.968 45.9942 115.798 45.6882 115.186 45.6882H113.486C112.942 45.6882 112.67 46.0622 112.534 46.6062L108.794 59.7302C108.624 60.3082 108.794 60.5802 109.44 60.5802ZM124.097 65.2042C120.391 65.2042 119.235 62.5522 120.153 59.3562L125.321 41.2342H130.421L125.253 59.3222C125.015 60.1722 125.253 60.5802 126.137 60.5802H127.157C127.973 60.5802 128.279 60.1042 128.551 59.2542L133.685 41.2342H138.785L133.447 59.9342C132.359 63.7762 130.523 65.2042 127.429 65.2042H124.097ZM135.041 65.0342L141.841 41.2342H149.151C152.857 41.2342 154.013 43.8862 153.095 47.0822L152.109 50.5162C151.361 53.1342 150.273 54.6642 148.641 55.3442L148.777 65.0342H143.779V55.7862H142.793L140.141 65.0342H135.041ZM144.017 51.4682H146.057C146.601 51.4682 146.839 51.1622 147.009 50.5502L148.063 46.8102C148.233 46.1982 148.063 45.8922 147.451 45.8922H145.615L144.017 51.4682ZM150.8 65.0342L157.6 41.2342H162.36L163.108 52.7942H163.278L164.604 47.3542L166.338 41.2342H171.2L164.4 65.0342H159.64L158.892 53.4742H158.722L157.396 58.9142L155.662 65.0342H150.8ZM166.594 65.0342L175.774 41.2342H185.022L180.738 65.0342H175.842L176.692 60.8862H172.918L171.456 65.0342H166.594ZM174.55 56.2622H177.61L179.684 45.9262H178.188L174.55 56.2622ZM182.842 65.0342L189.642 41.2342H194.504L195.218 52.2502L201.916 41.2342H207.39L200.59 65.0342H195.66L197.496 58.6422L199.332 52.9642H199.162L194.266 61.0902H191.41L191.138 52.9642H190.968L189.608 58.6422L187.772 65.0342H182.842ZM203.807 65.0342L210.607 41.2342H220.841L219.481 45.9942H214.279L212.919 50.7542H217.747L216.387 55.5142H211.559L210.199 60.2742H215.401L214.041 65.0342H203.807ZM216.943 65.0342L223.743 41.2342H228.503L229.251 52.7942H229.421L230.747 47.3542L232.481 41.2342H237.343L230.543 65.0342H225.783L225.035 53.4742H224.865L223.539 58.9142L221.805 65.0342H216.943ZM236.647 65.0342L242.087 45.9942H238.007L239.367 41.2342H252.627L251.267 45.9942H247.187L241.747 65.0342H236.647Z" fill="black"/>
<mask id="path-4-outside-1_562_2195" maskUnits="userSpaceOnUse" x="40.9998" y="79" width="257" height="46" fill="black">
<rect fill="white" x="40.9998" y="79" width="257" height="46"/>
<path d="M46.8016 120L57.2207 83.5329H63.7327L55.0327 113.957H63.1076L61.3884 120H46.8016ZM80.4278 89.576L77.823 98.7449H84.9601L83.1889 104.788H76.0517L73.447 113.957H81.105L79.3859 120H65.32L75.7392 83.5329H89.8051L88.0859 89.576H80.4278ZM108.774 83.5329L102.627 120H96.1669L97.4693 113.123H92.2597L89.707 120H83.0387L97.5213 83.5329H108.774ZM98.6154 107.08L101.949 89.5239H100.908L94.4477 107.08H98.6154ZM127.569 83.5329C130.313 83.5329 132.188 84.3838 133.196 86.0856C134.203 87.7874 134.342 89.9233 133.612 92.4934L128.038 111.925C127.205 114.808 126.058 116.874 124.6 118.125C123.141 119.375 121.214 120 118.817 120H106.783L117.202 83.5329H127.569ZM127.413 91.5036C127.76 90.2185 127.291 89.576 126.006 89.576H121.995L115.014 113.957H119.442C120.033 113.957 120.467 113.801 120.745 113.488C121.057 113.141 121.318 112.62 121.526 111.925L127.413 91.5036ZM146.311 89.576L143.706 98.7449H150.843L149.072 104.788H141.935L139.33 113.957H146.988L145.269 120H131.203L141.622 83.5329H155.688L153.969 89.576H146.311ZM150.485 120L160.904 83.5329H170.333C173.042 83.5329 174.9 84.4012 175.907 86.1377C176.949 87.8395 177.106 89.9581 176.376 92.4934L174.917 97.5467C173.771 101.471 171.861 103.954 169.187 104.996L169.5 120H163.144L163.04 105.622H161.112L156.997 120H150.485ZM162.779 99.7868H166.27C166.86 99.7868 167.294 99.6305 167.572 99.3179C167.885 98.9706 168.145 98.4497 168.353 97.7551L170.229 91.2952C170.576 90.0102 170.107 89.3676 168.822 89.3676H165.749L162.779 99.7868ZM193.167 83.5329C195.911 83.5329 197.786 84.3838 198.794 86.0856C199.836 87.7527 199.992 89.8886 199.263 92.4934L198.221 96.088C197.387 99.0401 195.98 100.985 194.001 101.923C195.633 103.347 196.05 105.396 195.251 108.07L194.157 111.925C193.324 114.808 192.177 116.874 190.719 118.125C189.26 119.375 187.333 120 184.936 120H173.944L184.363 83.5329H193.167ZM189.104 89.2634L186.291 99.0054H189.364C190.51 99.0054 191.274 98.3281 191.657 96.9736L193.376 91.191C193.723 89.906 193.254 89.2634 191.969 89.2634H189.104ZM189.208 106.455C189.555 105.17 189.052 104.528 187.697 104.528H184.728L181.967 114.217H185.509C186.1 114.217 186.534 114.061 186.812 113.748C187.124 113.401 187.385 112.88 187.593 112.186L189.208 106.455ZM217.878 112.186C217.045 115.068 215.899 117.135 214.44 118.385C212.981 119.635 211.054 120.26 208.657 120.26H205.115C202.371 120.26 200.496 119.41 199.488 117.708C198.481 116.006 198.342 113.87 199.072 111.3L204.75 91.3473C205.584 88.4646 206.73 86.3982 208.188 85.1479C209.647 83.8976 211.575 83.2724 213.971 83.2724H217.514C220.257 83.2724 222.133 84.1233 223.14 85.8251C224.147 87.5269 224.286 89.6628 223.557 92.2329L217.878 112.186ZM217.357 91.2431C217.705 89.9581 217.236 89.3155 215.951 89.3155H213.346C212.755 89.3155 212.304 89.4892 211.991 89.8365C211.714 90.1491 211.47 90.6527 211.262 91.3473L205.271 112.29C204.924 113.575 205.393 114.217 206.678 114.217H209.282C209.873 114.217 210.307 114.061 210.585 113.748C210.897 113.401 211.158 112.88 211.366 112.186L217.357 91.2431ZM245.017 83.5329L238.87 120H232.41L233.712 113.123H228.503L225.95 120H219.282L233.764 83.5329H245.017ZM234.858 107.08L238.192 89.5239H237.15L230.691 107.08H234.858ZM243.026 120L253.445 83.5329H262.874C265.583 83.5329 267.441 84.4012 268.449 86.1377C269.491 87.8395 269.647 89.9581 268.918 92.4934L267.459 97.5467C266.313 101.471 264.403 103.954 261.728 104.996L262.041 120H255.685L255.581 105.622H253.653L249.538 120H243.026ZM255.321 99.7868H258.811C259.401 99.7868 259.835 99.6305 260.113 99.3179C260.426 98.9706 260.686 98.4497 260.895 97.7551L262.77 91.2952C263.118 90.0102 262.649 89.3676 261.364 89.3676H258.29L255.321 99.7868ZM287.011 83.5329C289.755 83.5329 291.63 84.3838 292.637 86.0856C293.645 87.7874 293.784 89.9233 293.054 92.4934L287.48 111.925C286.646 114.808 285.5 116.874 284.042 118.125C282.583 119.375 280.655 120 278.259 120H266.225L276.644 83.5329H287.011ZM286.855 91.5036C287.202 90.2185 286.733 89.576 285.448 89.576H281.437L274.456 113.957H278.884C279.475 113.957 279.909 113.801 280.187 113.488C280.499 113.141 280.76 112.62 280.968 111.925L286.855 91.5036Z"/>
</mask>
<path d="M46.8016 120L57.2207 83.5329H63.7327L55.0327 113.957H63.1076L61.3884 120H46.8016ZM80.4278 89.576L77.823 98.7449H84.9601L83.1889 104.788H76.0517L73.447 113.957H81.105L79.3859 120H65.32L75.7392 83.5329H89.8051L88.0859 89.576H80.4278ZM108.774 83.5329L102.627 120H96.1669L97.4693 113.123H92.2597L89.707 120H83.0387L97.5213 83.5329H108.774ZM98.6154 107.08L101.949 89.5239H100.908L94.4477 107.08H98.6154ZM127.569 83.5329C130.313 83.5329 132.188 84.3838 133.196 86.0856C134.203 87.7874 134.342 89.9233 133.612 92.4934L128.038 111.925C127.205 114.808 126.058 116.874 124.6 118.125C123.141 119.375 121.214 120 118.817 120H106.783L117.202 83.5329H127.569ZM127.413 91.5036C127.76 90.2185 127.291 89.576 126.006 89.576H121.995L115.014 113.957H119.442C120.033 113.957 120.467 113.801 120.745 113.488C121.057 113.141 121.318 112.62 121.526 111.925L127.413 91.5036ZM146.311 89.576L143.706 98.7449H150.843L149.072 104.788H141.935L139.33 113.957H146.988L145.269 120H131.203L141.622 83.5329H155.688L153.969 89.576H146.311ZM150.485 120L160.904 83.5329H170.333C173.042 83.5329 174.9 84.4012 175.907 86.1377C176.949 87.8395 177.106 89.9581 176.376 92.4934L174.917 97.5467C173.771 101.471 171.861 103.954 169.187 104.996L169.5 120H163.144L163.04 105.622H161.112L156.997 120H150.485ZM162.779 99.7868H166.27C166.86 99.7868 167.294 99.6305 167.572 99.3179C167.885 98.9706 168.145 98.4497 168.353 97.7551L170.229 91.2952C170.576 90.0102 170.107 89.3676 168.822 89.3676H165.749L162.779 99.7868ZM193.167 83.5329C195.911 83.5329 197.786 84.3838 198.794 86.0856C199.836 87.7527 199.992 89.8886 199.263 92.4934L198.221 96.088C197.387 99.0401 195.98 100.985 194.001 101.923C195.633 103.347 196.05 105.396 195.251 108.07L194.157 111.925C193.324 114.808 192.177 116.874 190.719 118.125C189.26 119.375 187.333 120 184.936 120H173.944L184.363 83.5329H193.167ZM189.104 89.2634L186.291 99.0054H189.364C190.51 99.0054 191.274 98.3281 191.657 96.9736L193.376 91.191C193.723 89.906 193.254 89.2634 191.969 89.2634H189.104ZM189.208 106.455C189.555 105.17 189.052 104.528 187.697 104.528H184.728L181.967 114.217H185.509C186.1 114.217 186.534 114.061 186.812 113.748C187.124 113.401 187.385 112.88 187.593 112.186L189.208 106.455ZM217.878 112.186C217.045 115.068 215.899 117.135 214.44 118.385C212.981 119.635 211.054 120.26 208.657 120.26H205.115C202.371 120.26 200.496 119.41 199.488 117.708C198.481 116.006 198.342 113.87 199.072 111.3L204.75 91.3473C205.584 88.4646 206.73 86.3982 208.188 85.1479C209.647 83.8976 211.575 83.2724 213.971 83.2724H217.514C220.257 83.2724 222.133 84.1233 223.14 85.8251C224.147 87.5269 224.286 89.6628 223.557 92.2329L217.878 112.186ZM217.357 91.2431C217.705 89.9581 217.236 89.3155 215.951 89.3155H213.346C212.755 89.3155 212.304 89.4892 211.991 89.8365C211.714 90.1491 211.47 90.6527 211.262 91.3473L205.271 112.29C204.924 113.575 205.393 114.217 206.678 114.217H209.282C209.873 114.217 210.307 114.061 210.585 113.748C210.897 113.401 211.158 112.88 211.366 112.186L217.357 91.2431ZM245.017 83.5329L238.87 120H232.41L233.712 113.123H228.503L225.95 120H219.282L233.764 83.5329H245.017ZM234.858 107.08L238.192 89.5239H237.15L230.691 107.08H234.858ZM243.026 120L253.445 83.5329H262.874C265.583 83.5329 267.441 84.4012 268.449 86.1377C269.491 87.8395 269.647 89.9581 268.918 92.4934L267.459 97.5467C266.313 101.471 264.403 103.954 261.728 104.996L262.041 120H255.685L255.581 105.622H253.653L249.538 120H243.026ZM255.321 99.7868H258.811C259.401 99.7868 259.835 99.6305 260.113 99.3179C260.426 98.9706 260.686 98.4497 260.895 97.7551L262.77 91.2952C263.118 90.0102 262.649 89.3676 261.364 89.3676H258.29L255.321 99.7868ZM287.011 83.5329C289.755 83.5329 291.63 84.3838 292.637 86.0856C293.645 87.7874 293.784 89.9233 293.054 92.4934L287.48 111.925C286.646 114.808 285.5 116.874 284.042 118.125C282.583 119.375 280.655 120 278.259 120H266.225L276.644 83.5329H287.011ZM286.855 91.5036C287.202 90.2185 286.733 89.576 285.448 89.576H281.437L274.456 113.957H278.884C279.475 113.957 279.909 113.801 280.187 113.488C280.499 113.141 280.76 112.62 280.968 111.925L286.855 91.5036Z" fill="#008A0E"/>
<path d="M46.8016 120L43.1156 118.947L41.7194 123.833H46.8016V120ZM57.2207 83.5329V79.6994H54.3291L53.5348 82.4798L57.2207 83.5329ZM63.7327 83.5329L67.4184 84.5869L68.816 79.6994H63.7327V83.5329ZM55.0327 113.957L51.347 112.903L49.9494 117.79H55.0327V113.957ZM63.1076 113.957L66.7947 115.006L68.1837 110.123H63.1076V113.957ZM61.3884 120V123.833H64.2834L65.0756 121.049L61.3884 120ZM50.4875 121.053L60.9067 84.586L53.5348 82.4798L43.1156 118.947L50.4875 121.053ZM57.2207 87.3664H63.7327V79.6994H57.2207V87.3664ZM60.047 82.4789L51.347 112.903L58.7184 115.011L67.4184 84.5869L60.047 82.4789ZM55.0327 117.79H63.1076V110.123H55.0327V117.79ZM59.4204 112.908L57.7012 118.951L65.0756 121.049L66.7947 115.006L59.4204 112.908ZM61.3884 116.167H46.8016V123.833H61.3884V116.167ZM80.4278 89.576V85.7426H77.5317L76.7403 88.5284L80.4278 89.576ZM77.823 98.7449L74.1355 97.6973L72.7488 102.578H77.823V98.7449ZM84.9601 98.7449L88.6388 99.8231L90.0785 94.9114H84.9601V98.7449ZM83.1889 104.788V108.621H86.06L86.8676 105.866L83.1889 104.788ZM76.0517 104.788V100.955H73.1556L72.3642 103.74L76.0517 104.788ZM73.447 113.957L69.7594 112.909L68.3727 117.79H73.447V113.957ZM81.105 113.957L84.7922 115.006L86.1812 110.123H81.105V113.957ZM79.3859 120V123.833H82.2809L83.073 121.049L79.3859 120ZM65.32 120L61.634 118.947L60.2379 123.833H65.32V120ZM75.7392 83.5329V79.6994H72.8476L72.0532 82.4798L75.7392 83.5329ZM89.8051 83.5329L93.4922 84.5818L94.8812 79.6994H89.8051V83.5329ZM88.0859 89.576V93.4095H90.9809L91.7731 90.6249L88.0859 89.576ZM76.7403 88.5284L74.1355 97.6973L81.5105 99.7925L84.1153 90.6236L76.7403 88.5284ZM77.823 102.578H84.9601V94.9114H77.823V102.578ZM81.2814 97.6666L79.5102 103.71L86.8676 105.866L88.6388 99.8231L81.2814 97.6666ZM83.1889 100.955H76.0517V108.621H83.1889V100.955ZM72.3642 103.74L69.7594 112.909L77.1345 115.004L79.7393 105.836L72.3642 103.74ZM73.447 117.79H81.105V110.123H73.447V117.79ZM77.4179 112.908L75.6987 118.951L83.073 121.049L84.7922 115.006L77.4179 112.908ZM79.3859 116.167H65.32V123.833H79.3859V116.167ZM69.006 121.053L79.4251 84.586L72.0532 82.4798L61.634 118.947L69.006 121.053ZM75.7392 87.3664H89.8051V79.6994H75.7392V87.3664ZM86.1179 82.484L84.3987 88.5271L91.7731 90.6249L93.4922 84.5818L86.1179 82.484ZM88.0859 85.7426H80.4278V93.4095H88.0859V85.7426ZM108.774 83.5329L112.554 84.1701L113.308 79.6994H108.774V83.5329ZM102.627 120V123.833H105.868L106.407 120.637L102.627 120ZM96.1669 120L92.4004 119.287L91.5392 123.833H96.1669V120ZM97.4692 113.123L101.236 113.837L102.097 109.29H97.4692V113.123ZM92.2597 113.123V109.29H89.5936L88.6658 111.789L92.2597 113.123ZM89.707 120V123.833H92.373L93.3008 121.334L89.707 120ZM83.0387 120L79.4759 118.585L77.3916 123.833H83.0387V120ZM97.5213 83.5329V79.6994H94.9191L93.9586 82.118L97.5213 83.5329ZM98.6154 107.08V110.914H101.789L102.382 107.795L98.6154 107.08ZM101.949 89.5239L105.716 90.2392L106.579 85.6905H101.949V89.5239ZM100.908 89.5239V85.6905H98.2334L97.3099 88.2002L100.908 89.5239ZM94.4477 107.08L90.85 105.756L88.9524 110.914H94.4477V107.08ZM104.994 82.8957L98.8466 119.363L106.407 120.637L112.554 84.1701L104.994 82.8957ZM102.627 116.167H96.1669V123.833H102.627V116.167ZM99.9334 120.713L101.236 113.837L93.7027 112.41L92.4004 119.287L99.9334 120.713ZM97.4692 109.29H92.2597V116.957H97.4692V109.29ZM88.6658 111.789L86.1131 118.666L93.3008 121.334L95.8535 114.457L88.6658 111.789ZM89.707 116.167H83.0387V123.833H89.707V116.167ZM86.6015 121.415L101.084 84.9478L93.9586 82.118L79.4759 118.585L86.6015 121.415ZM97.5213 87.3664H108.774V79.6994H97.5213V87.3664ZM102.382 107.795L105.716 90.2392L98.1833 88.8087L94.8492 106.365L102.382 107.795ZM101.949 85.6905H100.908V93.3574H101.949V85.6905ZM97.3099 88.2002L90.85 105.756L98.0453 108.404L104.505 90.8477L97.3099 88.2002ZM94.4477 110.914H98.6154V103.247H94.4477V110.914ZM133.196 86.0856L129.897 88.0381L133.196 86.0856ZM133.612 92.4934L137.297 93.5504L137.3 93.5399L133.612 92.4934ZM128.038 111.925L131.721 112.99L131.723 112.982L128.038 111.925ZM124.6 118.125L122.105 115.214V115.214L124.6 118.125ZM106.783 120L103.097 118.947L101.701 123.833H106.783V120ZM117.202 83.5329V79.6994H114.311L113.516 82.4798L117.202 83.5329ZM127.413 91.5036L131.096 92.5654L131.105 92.5346L131.114 92.5037L127.413 91.5036ZM121.995 89.576V85.7426H119.105L118.31 88.5208L121.995 89.576ZM115.014 113.957L111.329 112.902L109.929 117.79H115.014V113.957ZM120.745 113.488L117.895 110.924L117.887 110.932L117.88 110.941L120.745 113.488ZM121.526 111.925L125.198 113.027L125.204 113.007L125.21 112.987L121.526 111.925ZM127.569 87.3664C129.544 87.3664 129.833 87.9309 129.897 88.0381L136.495 84.1331C134.544 80.8367 131.082 79.6994 127.569 79.6994V87.3664ZM129.897 88.0381C130.201 88.5524 130.471 89.5198 129.925 91.4468L137.3 93.5399C138.212 90.3269 138.205 87.0224 136.495 84.1331L129.897 88.0381ZM129.928 91.4363L124.353 110.868L131.723 112.982L137.297 93.5504L129.928 91.4363ZM124.356 110.86C123.622 113.397 122.76 114.652 122.105 115.214L127.095 121.035C129.356 119.096 130.787 116.219 131.721 112.99L124.356 110.86ZM122.105 115.214C121.5 115.732 120.532 116.167 118.817 116.167V123.833C121.895 123.833 124.782 123.017 127.095 121.035L122.105 115.214ZM118.817 116.167H106.783V123.833H118.817V116.167ZM110.469 121.053L120.888 84.586L113.516 82.4798L103.097 118.947L110.469 121.053ZM117.202 87.3664H127.569V79.6994H117.202V87.3664ZM131.114 92.5037C131.391 91.478 131.688 89.5387 130.418 87.7982C129.108 86.0024 127.112 85.7426 126.006 85.7426V93.4095C126.185 93.4095 125.067 93.4709 124.225 92.3176C123.424 91.2197 123.782 90.2441 123.712 90.5034L131.114 92.5037ZM126.006 85.7426H121.995V93.4095H126.006V85.7426ZM118.31 88.5208L111.329 112.902L118.7 115.012L125.68 90.6312L118.31 88.5208ZM115.014 117.79H119.442V110.123H115.014V117.79ZM119.442 117.79C120.663 117.79 122.344 117.459 123.61 116.035L117.88 110.941C118.589 110.143 119.403 110.123 119.442 110.123V117.79ZM123.594 116.052C124.437 115.116 124.908 113.994 125.198 113.027L117.854 110.824C117.827 110.914 117.803 110.983 117.783 111.034C117.764 111.085 117.75 111.113 117.746 111.122C117.741 111.132 117.748 111.117 117.77 111.083C117.792 111.05 117.832 110.994 117.895 110.924L123.594 116.052ZM125.21 112.987L131.096 92.5654L123.729 90.4417L117.843 110.863L125.21 112.987ZM146.311 89.576V85.7426H143.415L142.623 88.5284L146.311 89.576ZM143.706 98.7449L140.018 97.6973L138.632 102.578H143.706V98.7449ZM150.843 98.7449L154.522 99.8231L155.961 94.9114H150.843V98.7449ZM149.072 104.788V108.621H151.943L152.751 105.866L149.072 104.788ZM141.935 104.788V100.955H139.039L138.247 103.74L141.935 104.788ZM139.33 113.957L135.642 112.909L134.256 117.79H139.33V113.957ZM146.988 113.957L150.675 115.006L152.064 110.123H146.988V113.957ZM145.269 120V123.833H148.164L148.956 121.049L145.269 120ZM131.203 120L127.517 118.947L126.121 123.833H131.203V120ZM141.622 83.5329V79.6994H138.731L137.936 82.4798L141.622 83.5329ZM155.688 83.5329L159.375 84.5818L160.764 79.6994H155.688V83.5329ZM153.969 89.576V93.4095H156.864L157.656 90.6249L153.969 89.576ZM142.623 88.5284L140.018 97.6973L147.393 99.7925L149.998 90.6236L142.623 88.5284ZM143.706 102.578H150.843V94.9114H143.706V102.578ZM147.164 97.6666L145.393 103.71L152.751 105.866L154.522 99.8231L147.164 97.6666ZM149.072 100.955H141.935V108.621H149.072V100.955ZM138.247 103.74L135.642 112.909L143.017 115.004L145.622 105.836L138.247 103.74ZM139.33 117.79H146.988V110.123H139.33V117.79ZM143.301 112.908L141.582 118.951L148.956 121.049L150.675 115.006L143.301 112.908ZM145.269 116.167H131.203V123.833H145.269V116.167ZM134.889 121.053L145.308 84.586L137.936 82.4798L127.517 118.947L134.889 121.053ZM141.622 87.3664H155.688V79.6994H141.622V87.3664ZM152.001 82.484L150.282 88.5271L157.656 90.6249L159.375 84.5818L152.001 82.484ZM153.969 85.7426H146.311V93.4095H153.969V85.7426ZM150.485 120L146.799 118.947L145.402 123.833H150.485V120ZM160.904 83.5329V79.6994H158.012L157.218 82.4798L160.904 83.5329ZM175.907 86.1377L172.591 88.061L172.614 88.1005L172.638 88.1393L175.907 86.1377ZM176.376 92.4934L180.059 93.5565L180.06 93.5532L176.376 92.4934ZM174.917 97.5467L178.597 98.6213L178.601 98.6098L174.917 97.5467ZM169.187 104.996L167.795 101.424L165.298 102.397L165.354 105.076L169.187 104.996ZM169.5 120V123.833H173.414L173.332 119.92L169.5 120ZM163.144 120L159.31 120.028L159.338 123.833H163.144V120ZM163.04 105.622L166.873 105.594L166.845 101.788H163.04V105.622ZM161.112 105.622V101.788H158.222L157.427 104.567L161.112 105.622ZM156.997 120V123.833H159.887L160.682 121.055L156.997 120ZM162.779 99.7868L159.092 98.7361L157.701 103.62H162.779V99.7868ZM167.572 99.3179L164.723 96.7535L164.715 96.7623L164.707 96.7711L167.572 99.3179ZM168.353 97.7551L172.025 98.8566L172.03 98.8403L172.035 98.8239L168.353 97.7551ZM170.229 91.2952L173.91 92.364L173.92 92.3298L173.93 92.2954L170.229 91.2952ZM165.749 89.3676V85.5342H162.855L162.062 88.3169L165.749 89.3676ZM154.17 121.053L164.59 84.586L157.218 82.4798L146.799 118.947L154.17 121.053ZM160.904 87.3664H170.333V79.6994H160.904V87.3664ZM170.333 87.3664C172.216 87.3664 172.504 87.9101 172.591 88.061L179.223 84.2144C177.297 80.8922 173.868 79.6994 170.333 79.6994V87.3664ZM172.638 88.1393C172.953 88.6538 173.225 89.5819 172.692 91.4336L180.06 93.5532C180.986 90.3342 180.946 87.0252 179.177 84.136L172.638 88.1393ZM172.693 91.4302L171.234 96.4835L178.601 98.6098L180.059 93.5565L172.693 91.4302ZM171.238 96.4721C170.276 99.765 168.944 100.977 167.795 101.424L170.579 108.568C174.778 106.932 177.267 103.178 178.597 98.6213L171.238 96.4721ZM165.354 105.076L165.667 120.08L173.332 119.92L173.02 104.917L165.354 105.076ZM169.5 116.167H163.144V123.833H169.5V116.167ZM166.977 119.972L166.873 105.594L159.206 105.649L159.31 120.028L166.977 119.972ZM163.04 101.788H161.112V109.455H163.04V101.788ZM157.427 104.567L153.311 118.945L160.682 121.055L164.798 106.676L157.427 104.567ZM156.997 116.167H150.485V123.833H156.997V116.167ZM162.779 103.62H166.27V95.9533H162.779V103.62ZM166.27 103.62C167.49 103.62 169.172 103.289 170.437 101.865L164.707 96.7711C165.417 95.9725 166.23 95.9533 166.27 95.9533V103.62ZM170.421 101.882C171.264 100.946 171.735 99.8241 172.025 98.8566L164.682 96.6535C164.655 96.7437 164.63 96.8129 164.611 96.8639C164.591 96.9151 164.578 96.9432 164.573 96.9524C164.568 96.9617 164.575 96.9465 164.597 96.9133C164.619 96.88 164.66 96.8235 164.723 96.7535L170.421 101.882ZM172.035 98.8239L173.91 92.364L166.547 90.2264L164.672 96.6863L172.035 98.8239ZM173.93 92.2954C174.207 91.2696 174.504 89.3303 173.234 87.5898C171.924 85.794 169.928 85.5342 168.822 85.5342V93.2011C169.001 93.2011 167.883 93.2625 167.041 92.1092C166.24 91.0113 166.598 90.0357 166.528 90.295L173.93 92.2954ZM168.822 85.5342H165.749V93.2011H168.822V85.5342ZM162.062 88.3169L159.092 98.7361L166.466 100.838L169.435 90.4183L162.062 88.3169ZM198.794 86.0856L195.495 88.0381L195.518 88.078L195.543 88.1173L198.794 86.0856ZM199.263 92.4934L202.944 93.5606L202.949 93.5438L202.954 93.527L199.263 92.4934ZM198.221 96.088L194.539 95.0208L194.535 95.0335L194.531 95.0463L198.221 96.088ZM194.001 101.923L192.36 98.4583L187.07 100.964L191.481 104.812L194.001 101.923ZM195.251 108.07L191.578 106.973L191.57 106.998L191.563 107.023L195.251 108.07ZM194.157 111.925L197.84 112.99L197.842 112.981L197.845 112.972L194.157 111.925ZM173.944 120L170.258 118.947L168.862 123.833H173.944V120ZM184.363 83.5329V79.6994H181.472L180.677 82.4798L184.363 83.5329ZM189.104 89.2634V85.43H186.221L185.421 88.1999L189.104 89.2634ZM186.291 99.0054L182.608 97.9418L181.194 102.839H186.291V99.0054ZM191.657 96.9736L187.982 95.8812L187.974 95.907L187.967 95.933L191.657 96.9736ZM193.376 91.191L197.05 92.2834L197.064 92.2375L197.076 92.1912L193.376 91.191ZM189.208 106.455L192.898 107.495L192.903 107.475L192.909 107.455L189.208 106.455ZM184.728 104.528V100.694H181.834L181.041 103.477L184.728 104.528ZM181.967 114.217L178.28 113.167L176.888 118.051H181.967V114.217ZM186.812 113.748L183.962 111.184L183.954 111.193L183.946 111.202L186.812 113.748ZM187.593 112.186L191.265 113.287L191.274 113.256L191.283 113.225L187.593 112.186ZM193.167 87.3664C195.142 87.3664 195.431 87.9309 195.495 88.0381L202.093 84.1331C200.142 80.8367 196.68 79.6994 193.167 79.6994V87.3664ZM195.543 88.1173C195.823 88.5659 196.123 89.4886 195.571 91.4598L202.954 93.527C203.861 90.2886 203.848 86.9394 202.044 84.0539L195.543 88.1173ZM195.581 91.4262L194.539 95.0208L201.903 97.1552L202.944 93.5606L195.581 91.4262ZM194.531 95.0463C193.874 97.3755 192.987 98.1611 192.36 98.4583L195.642 105.387C198.974 103.809 200.9 100.705 201.91 97.1297L194.531 95.0463ZM191.481 104.812C191.687 104.992 191.747 105.123 191.781 105.292C191.829 105.526 191.855 106.046 191.578 106.973L198.924 109.167C199.446 107.42 199.663 105.578 199.294 103.763C198.912 101.883 197.947 100.278 196.521 99.034L191.481 104.812ZM191.563 107.023L190.469 110.879L197.845 112.972L198.939 109.117L191.563 107.023ZM190.475 110.86C189.741 113.397 188.879 114.652 188.224 115.214L193.214 121.035C195.475 119.096 196.906 116.219 197.84 112.99L190.475 110.86ZM188.224 115.214C187.619 115.732 186.651 116.167 184.936 116.167V123.833C188.014 123.833 190.901 123.017 193.214 121.035L188.224 115.214ZM184.936 116.167H173.944V123.833H184.936V116.167ZM177.63 121.053L188.049 84.586L180.677 82.4798L170.258 118.947L177.63 121.053ZM184.363 87.3664H193.167V79.6994H184.363V87.3664ZM185.421 88.1999L182.608 97.9418L189.974 100.069L192.787 90.327L185.421 88.1999ZM186.291 102.839H189.364V95.1719H186.291V102.839ZM189.364 102.839C190.751 102.839 192.169 102.403 193.34 101.366C194.442 100.389 195.028 99.1401 195.346 98.0143L187.967 95.933C187.903 96.1616 187.916 95.9286 188.254 95.6287C188.429 95.4736 188.642 95.3466 188.871 95.2653C189.094 95.1863 189.271 95.1719 189.364 95.1719V102.839ZM195.331 98.0661L197.05 92.2834L189.701 90.0986L187.982 95.8812L195.331 98.0661ZM197.076 92.1912C197.354 91.1654 197.651 89.2261 196.381 87.4856C195.071 85.6898 193.075 85.43 191.969 85.43V93.0969C192.148 93.0969 191.029 93.1583 190.188 92.005C189.387 90.9071 189.745 89.9315 189.675 90.1908L197.076 92.1912ZM191.969 85.43H189.104V93.0969H191.969V85.43ZM192.909 107.455C193.199 106.383 193.475 104.389 192.108 102.645C190.761 100.926 188.787 100.694 187.697 100.694V108.361C187.962 108.361 186.917 108.45 186.074 107.374C185.21 106.272 185.565 105.243 185.507 105.455L192.909 107.455ZM187.697 100.694H184.728V108.361H187.697V100.694ZM181.041 103.477L178.28 113.167L185.653 115.268L188.414 105.578L181.041 103.477ZM181.967 118.051H185.509V110.384H181.967V118.051ZM185.509 118.051C186.73 118.051 188.411 117.719 189.677 116.295L183.946 111.202C184.656 110.403 185.469 110.384 185.509 110.384V118.051ZM189.661 116.313C190.504 115.376 190.975 114.255 191.265 113.287L183.921 111.084C183.894 111.174 183.87 111.243 183.85 111.294C183.831 111.346 183.817 111.374 183.813 111.383C183.808 111.392 183.815 111.377 183.837 111.344C183.859 111.311 183.899 111.254 183.962 111.184L189.661 116.313ZM191.283 113.225L192.898 107.495L185.518 105.415L183.903 111.146L191.283 113.225ZM217.878 112.186L221.561 113.25L221.563 113.243L221.565 113.235L217.878 112.186ZM214.44 118.385L216.935 121.296L214.44 118.385ZM199.488 117.708L202.787 115.755L199.488 117.708ZM199.072 111.3L195.385 110.251L195.384 110.253L199.072 111.3ZM204.75 91.3473L201.067 90.2824L201.065 90.2902L201.063 90.298L204.75 91.3473ZM208.188 85.1479L205.694 82.2373L208.188 85.1479ZM223.14 85.8251L219.841 87.7776V87.7776L223.14 85.8251ZM223.557 92.2329L227.244 93.2822L227.245 93.2795L223.557 92.2329ZM217.357 91.2431L221.043 92.2974L221.051 92.2704L221.058 92.2433L217.357 91.2431ZM211.991 89.8365L209.142 87.272L209.134 87.2808L209.126 87.2897L211.991 89.8365ZM211.262 91.3473L207.59 90.2457L207.583 90.2693L207.576 90.2929L211.262 91.3473ZM205.271 112.29L201.585 111.235L201.578 111.262L201.57 111.29L205.271 112.29ZM210.585 113.748L207.735 111.184L207.728 111.193L207.72 111.202L210.585 113.748ZM211.366 112.186L215.038 113.287L215.045 113.264L215.052 113.24L211.366 112.186ZM214.196 111.121C213.462 113.657 212.601 114.913 211.945 115.474L216.935 121.296C219.197 119.357 220.627 116.479 221.561 113.25L214.196 111.121ZM211.945 115.474C211.34 115.993 210.372 116.427 208.657 116.427V124.094C211.735 124.094 214.622 123.278 216.935 121.296L211.945 115.474ZM208.657 116.427H205.115V124.094H208.657V116.427ZM205.115 116.427C203.14 116.427 202.851 115.862 202.787 115.755L196.189 119.66C198.14 122.957 201.602 124.094 205.115 124.094V116.427ZM202.787 115.755C202.483 115.241 202.213 114.274 202.759 112.347L195.384 110.253C194.472 113.467 194.479 116.771 196.189 119.66L202.787 115.755ZM202.759 112.349L208.437 92.3966L201.063 90.298L195.385 110.251L202.759 112.349ZM208.433 92.4121C209.166 89.8755 210.028 88.6203 210.683 88.0584L205.694 82.2373C203.432 84.1761 202.001 87.0538 201.067 90.2824L208.433 92.4121ZM210.683 88.0584C211.288 87.54 212.256 87.1059 213.971 87.1059V79.439C210.893 79.439 208.006 80.2551 205.694 82.2373L210.683 88.0584ZM213.971 87.1059H217.514V79.439H213.971V87.1059ZM217.514 87.1059C219.489 87.1059 219.778 87.6704 219.841 87.7776L226.439 83.8727C224.488 80.5762 221.026 79.439 217.514 79.439V87.1059ZM219.841 87.7776C220.145 88.292 220.416 89.2593 219.869 91.1864L227.245 93.2795C228.156 90.0664 228.149 86.7619 226.439 83.8727L219.841 87.7776ZM219.87 91.1836L214.191 111.136L221.565 113.235L227.244 93.2822L219.87 91.1836ZM221.058 92.2433C221.335 91.2175 221.633 89.2782 220.363 87.5377C219.052 85.7419 217.057 85.4821 215.951 85.4821V93.149C216.13 93.149 215.011 93.2104 214.169 92.0571C213.368 90.9592 213.727 89.9836 213.657 90.2429L221.058 92.2433ZM215.951 85.4821H213.346V93.149H215.951V85.4821ZM213.346 85.4821C211.975 85.4821 210.364 85.9141 209.142 87.272L214.841 92.4009C214.578 92.6926 214.258 92.9015 213.941 93.0237C213.642 93.1385 213.421 93.149 213.346 93.149V85.4821ZM209.126 87.2897C208.299 88.2203 207.858 89.3533 207.59 90.2457L214.934 92.4488C214.964 92.3487 214.99 92.2713 215.012 92.2138C215.034 92.156 215.048 92.1248 215.053 92.1152C215.058 92.1052 215.048 92.1261 215.021 92.1693C214.994 92.2121 214.941 92.2885 214.857 92.3833L209.126 87.2897ZM207.576 90.2929L201.585 111.235L208.957 113.344L214.948 92.4016L207.576 90.2929ZM201.57 111.29C201.293 112.315 200.996 114.255 202.266 115.995C203.576 117.791 205.572 118.051 206.678 118.051V110.384C206.499 110.384 207.617 110.323 208.459 111.476C209.26 112.574 208.902 113.549 208.972 113.29L201.57 111.29ZM206.678 118.051H209.282V110.384H206.678V118.051ZM209.282 118.051C210.503 118.051 212.184 117.719 213.45 116.295L207.72 111.202C208.43 110.403 209.243 110.384 209.282 110.384V118.051ZM213.434 116.313C214.277 115.376 214.748 114.255 215.038 113.287L207.694 111.084C207.667 111.174 207.643 111.243 207.624 111.294C207.604 111.346 207.59 111.374 207.586 111.383C207.581 111.392 207.588 111.377 207.61 111.344C207.632 111.311 207.672 111.254 207.735 111.184L213.434 116.313ZM215.052 113.24L221.043 92.2974L213.672 90.1887L207.681 111.131L215.052 113.24ZM245.017 83.5329L248.797 84.1701L249.551 79.6994H245.017V83.5329ZM238.87 120V123.833H242.111L242.65 120.637L238.87 120ZM232.41 120L228.643 119.287L227.782 123.833H232.41V120ZM233.712 113.123L237.479 113.837L238.34 109.29H233.712V113.123ZM228.503 113.123V109.29H225.837L224.909 111.789L228.503 113.123ZM225.95 120V123.833H228.616L229.544 121.334L225.95 120ZM219.282 120L215.719 118.585L213.634 123.833H219.282V120ZM233.764 83.5329V79.6994H231.162L230.201 82.118L233.764 83.5329ZM234.858 107.08V110.914H238.032L238.624 107.795L234.858 107.08ZM238.192 89.5239L241.959 90.2392L242.822 85.6905H238.192V89.5239ZM237.15 89.5239V85.6905H234.476L233.553 88.2002L237.15 89.5239ZM230.691 107.08L227.093 105.756L225.195 110.914H230.691V107.08ZM241.237 82.8957L235.089 119.363L242.65 120.637L248.797 84.1701L241.237 82.8957ZM238.87 116.167H232.41V123.833H238.87V116.167ZM236.176 120.713L237.479 113.837L229.946 112.41L228.643 119.287L236.176 120.713ZM233.712 109.29H228.503V116.957H233.712V109.29ZM224.909 111.789L222.356 118.666L229.544 121.334L232.096 114.457L224.909 111.789ZM225.95 116.167H219.282V123.833H225.95V116.167ZM222.844 121.415L237.327 84.9478L230.201 82.118L215.719 118.585L222.844 121.415ZM233.764 87.3664H245.017V79.6994H233.764V87.3664ZM238.624 107.795L241.959 90.2392L234.426 88.8087L231.092 106.365L238.624 107.795ZM238.192 85.6905H237.15V93.3574H238.192V85.6905ZM233.553 88.2002L227.093 105.756L234.288 108.404L240.748 90.8477L233.553 88.2002ZM230.691 110.914H234.858V103.247H230.691V110.914ZM243.026 120L239.34 118.947L237.944 123.833H243.026V120ZM253.445 83.5329V79.6994H250.553L249.759 82.4798L253.445 83.5329ZM268.449 86.1377L265.133 88.061L265.156 88.1005L265.179 88.1393L268.449 86.1377ZM268.918 92.4934L272.601 93.5565L272.602 93.5532L268.918 92.4934ZM267.459 97.5467L271.139 98.6213L271.142 98.6098L267.459 97.5467ZM261.728 104.996L260.337 101.424L257.84 102.397L257.896 105.076L261.728 104.996ZM262.041 120V123.833H265.955L265.874 119.92L262.041 120ZM255.685 120L251.852 120.028L251.879 123.833H255.685V120ZM255.581 105.622L259.414 105.594L259.387 101.788H255.581V105.622ZM253.653 105.622V101.788H250.763L249.968 104.567L253.653 105.622ZM249.538 120V123.833H252.428L253.223 121.055L249.538 120ZM255.321 99.7868L251.634 98.7361L250.242 103.62H255.321V99.7868ZM260.113 99.3179L257.264 96.7535L257.256 96.7623L257.248 96.7711L260.113 99.3179ZM260.895 97.7551L264.567 98.8566L264.571 98.8403L264.576 98.8239L260.895 97.7551ZM262.77 91.2952L266.452 92.364L266.462 92.3298L266.471 92.2954L262.77 91.2952ZM258.29 89.3676V85.5342H255.396L254.603 88.3169L258.29 89.3676ZM246.712 121.053L257.131 84.586L249.759 82.4798L239.34 118.947L246.712 121.053ZM253.445 87.3664H262.874V79.6994H253.445V87.3664ZM262.874 87.3664C264.757 87.3664 265.045 87.9101 265.133 88.061L271.765 84.2144C269.838 80.8922 266.409 79.6994 262.874 79.6994V87.3664ZM265.179 88.1393C265.494 88.6538 265.766 89.5819 265.233 91.4336L272.602 93.5532C273.528 90.3342 273.487 87.0252 271.718 84.136L265.179 88.1393ZM265.234 91.4302L263.776 96.4835L271.142 98.6098L272.601 93.5565L265.234 91.4302ZM263.779 96.4721C262.817 99.765 261.486 100.977 260.337 101.424L263.12 108.568C267.319 106.932 269.808 103.178 271.139 98.6213L263.779 96.4721ZM257.896 105.076L258.208 120.08L265.874 119.92L265.561 104.917L257.896 105.076ZM262.041 116.167H255.685V123.833H262.041V116.167ZM259.519 119.972L259.414 105.594L251.748 105.649L251.852 120.028L259.519 119.972ZM255.581 101.788H253.653V109.455H255.581V101.788ZM249.968 104.567L245.852 118.945L253.223 121.055L257.339 106.676L249.968 104.567ZM249.538 116.167H243.026V123.833H249.538V116.167ZM255.321 103.62H258.811V95.9533H255.321V103.62ZM258.811 103.62C260.032 103.62 261.713 103.289 262.979 101.865L257.248 96.7711C257.958 95.9725 258.771 95.9533 258.811 95.9533V103.62ZM262.963 101.882C263.806 100.946 264.276 99.8241 264.567 98.8566L257.223 96.6535C257.196 96.7437 257.172 96.8129 257.152 96.8639C257.132 96.9151 257.119 96.9432 257.114 96.9524C257.11 96.9617 257.117 96.9465 257.139 96.9133C257.161 96.88 257.201 96.8235 257.264 96.7535L262.963 101.882ZM264.576 98.8239L266.452 92.364L259.089 90.2264L257.213 96.6863L264.576 98.8239ZM266.471 92.2954C266.748 91.2696 267.046 89.3303 265.776 87.5898C264.465 85.794 262.47 85.5342 261.364 85.5342V93.2011C261.543 93.2011 260.424 93.2625 259.582 92.1092C258.781 91.0113 259.14 90.0357 259.07 90.295L266.471 92.2954ZM261.364 85.5342H258.29V93.2011H261.364V85.5342ZM254.603 88.3169L251.634 98.7361L259.007 100.838L261.977 90.4183L254.603 88.3169ZM292.637 86.0856L289.338 88.0381L292.637 86.0856ZM293.054 92.4934L296.739 93.5504L296.742 93.5399L293.054 92.4934ZM287.48 111.925L291.163 112.99L291.165 112.982L287.48 111.925ZM284.042 118.125L281.547 115.214V115.214L284.042 118.125ZM266.225 120L262.539 118.947L261.143 123.833H266.225V120ZM276.644 83.5329V79.6994H273.752L272.958 82.4798L276.644 83.5329ZM286.855 91.5036L290.538 92.5654L290.547 92.5346L290.555 92.5037L286.855 91.5036ZM281.437 89.576V85.7426H278.547L277.751 88.5208L281.437 89.576ZM274.456 113.957L270.771 112.902L269.371 117.79H274.456V113.957ZM280.187 113.488L277.337 110.924L277.329 110.932L277.321 110.941L280.187 113.488ZM280.968 111.925L284.64 113.027L284.646 113.007L284.651 112.987L280.968 111.925ZM287.011 87.3664C288.986 87.3664 289.275 87.9309 289.338 88.0381L295.936 84.1331C293.985 80.8367 290.524 79.6994 287.011 79.6994V87.3664ZM289.338 88.0381C289.643 88.5524 289.913 89.5198 289.366 91.4468L296.742 93.5399C297.654 90.3269 297.646 87.0224 295.936 84.1331L289.338 88.0381ZM289.369 91.4363L283.795 110.868L291.165 112.982L296.739 93.5504L289.369 91.4363ZM283.797 110.86C283.064 113.397 282.202 114.652 281.547 115.214L286.536 121.035C288.798 119.096 290.229 116.219 291.163 112.99L283.797 110.86ZM281.547 115.214C280.942 115.732 279.974 116.167 278.259 116.167V123.833C281.337 123.833 284.224 123.017 286.536 121.035L281.547 115.214ZM278.259 116.167H266.225V123.833H278.259V116.167ZM269.911 121.053L280.33 84.586L272.958 82.4798L262.539 118.947L269.911 121.053ZM276.644 87.3664H287.011V79.6994H276.644V87.3664ZM290.555 92.5037C290.833 91.478 291.13 89.5387 289.86 87.7982C288.55 86.0024 286.554 85.7426 285.448 85.7426V93.4095C285.627 93.4095 284.509 93.4709 283.667 92.3176C282.866 91.2197 283.224 90.2441 283.154 90.5034L290.555 92.5037ZM285.448 85.7426H281.437V93.4095H285.448V85.7426ZM277.751 88.5208L270.771 112.902L278.141 115.012L285.122 90.6312L277.751 88.5208ZM274.456 117.79H278.884V110.123H274.456V117.79ZM278.884 117.79C280.105 117.79 281.786 117.459 283.052 116.035L277.321 110.941C278.031 110.143 278.844 110.123 278.884 110.123V117.79ZM283.036 116.052C283.879 115.116 284.349 113.994 284.64 113.027L277.296 110.824C277.269 110.914 277.245 110.983 277.225 111.034C277.206 111.085 277.192 111.113 277.188 111.122C277.183 111.132 277.19 111.117 277.212 111.083C277.234 111.05 277.274 110.994 277.337 110.924L283.036 116.052ZM284.651 112.987L290.538 92.5654L283.171 90.4417L277.284 110.863L284.651 112.987Z" fill="#FF682F" mask="url(#path-4-outside-1_562_2195)"/>
<mask id="path-6-outside-2_562_2195" maskUnits="userSpaceOnUse" x="43.9998" y="81" width="252" height="42" fill="black">
<rect fill="white" x="43.9998" y="81" width="252" height="42"/>
<path d="M46.8016 120L57.2207 83.5329H63.7327L55.0327 113.957H63.1076L61.3884 120H46.8016ZM80.4278 89.576L77.823 98.7449H84.9601L83.1889 104.788H76.0517L73.447 113.957H81.105L79.3859 120H65.32L75.7392 83.5329H89.8051L88.0859 89.576H80.4278ZM108.774 83.5329L102.627 120H96.1669L97.4693 113.123H92.2597L89.707 120H83.0387L97.5213 83.5329H108.774ZM98.6154 107.08L101.949 89.5239H100.908L94.4477 107.08H98.6154ZM127.569 83.5329C130.313 83.5329 132.188 84.3838 133.196 86.0856C134.203 87.7874 134.342 89.9233 133.612 92.4934L128.038 111.925C127.205 114.808 126.058 116.874 124.6 118.125C123.141 119.375 121.214 120 118.817 120H106.783L117.202 83.5329H127.569ZM127.413 91.5036C127.76 90.2185 127.291 89.576 126.006 89.576H121.995L115.014 113.957H119.442C120.033 113.957 120.467 113.801 120.745 113.488C121.057 113.141 121.318 112.62 121.526 111.925L127.413 91.5036ZM146.311 89.576L143.706 98.7449H150.843L149.072 104.788H141.935L139.33 113.957H146.988L145.269 120H131.203L141.622 83.5329H155.688L153.969 89.576H146.311ZM150.485 120L160.904 83.5329H170.333C173.042 83.5329 174.9 84.4012 175.907 86.1377C176.949 87.8395 177.106 89.9581 176.376 92.4934L174.917 97.5467C173.771 101.471 171.861 103.954 169.187 104.996L169.5 120H163.144L163.04 105.622H161.112L156.997 120H150.485ZM162.779 99.7868H166.27C166.86 99.7868 167.294 99.6305 167.572 99.3179C167.885 98.9706 168.145 98.4497 168.353 97.7551L170.229 91.2952C170.576 90.0102 170.107 89.3676 168.822 89.3676H165.749L162.779 99.7868ZM193.167 83.5329C195.911 83.5329 197.786 84.3838 198.794 86.0856C199.836 87.7527 199.992 89.8886 199.263 92.4934L198.221 96.088C197.387 99.0401 195.98 100.985 194.001 101.923C195.633 103.347 196.05 105.396 195.251 108.07L194.157 111.925C193.324 114.808 192.177 116.874 190.719 118.125C189.26 119.375 187.333 120 184.936 120H173.944L184.363 83.5329H193.167ZM189.104 89.2634L186.291 99.0054H189.364C190.51 99.0054 191.274 98.3281 191.657 96.9736L193.376 91.191C193.723 89.906 193.254 89.2634 191.969 89.2634H189.104ZM189.208 106.455C189.555 105.17 189.052 104.528 187.697 104.528H184.728L181.967 114.217H185.509C186.1 114.217 186.534 114.061 186.812 113.748C187.124 113.401 187.385 112.88 187.593 112.186L189.208 106.455ZM217.878 112.186C217.045 115.068 215.899 117.135 214.44 118.385C212.981 119.635 211.054 120.26 208.657 120.26H205.115C202.371 120.26 200.496 119.41 199.488 117.708C198.481 116.006 198.342 113.87 199.072 111.3L204.75 91.3473C205.584 88.4646 206.73 86.3982 208.188 85.1479C209.647 83.8976 211.575 83.2724 213.971 83.2724H217.514C220.257 83.2724 222.133 84.1233 223.14 85.8251C224.147 87.5269 224.286 89.6628 223.557 92.2329L217.878 112.186ZM217.357 91.2431C217.705 89.9581 217.236 89.3155 215.951 89.3155H213.346C212.755 89.3155 212.304 89.4892 211.991 89.8365C211.714 90.1491 211.47 90.6527 211.262 91.3473L205.271 112.29C204.924 113.575 205.393 114.217 206.678 114.217H209.282C209.873 114.217 210.307 114.061 210.585 113.748C210.897 113.401 211.158 112.88 211.366 112.186L217.357 91.2431ZM245.017 83.5329L238.87 120H232.41L233.712 113.123H228.503L225.95 120H219.282L233.764 83.5329H245.017ZM234.858 107.08L238.192 89.5239H237.15L230.691 107.08H234.858ZM243.026 120L253.445 83.5329H262.874C265.583 83.5329 267.441 84.4012 268.449 86.1377C269.491 87.8395 269.647 89.9581 268.918 92.4934L267.459 97.5467C266.313 101.471 264.403 103.954 261.728 104.996L262.041 120H255.685L255.581 105.622H253.653L249.538 120H243.026ZM255.321 99.7868H258.811C259.401 99.7868 259.835 99.6305 260.113 99.3179C260.426 98.9706 260.686 98.4497 260.895 97.7551L262.77 91.2952C263.118 90.0102 262.649 89.3676 261.364 89.3676H258.29L255.321 99.7868ZM287.011 83.5329C289.755 83.5329 291.63 84.3838 292.637 86.0856C293.645 87.7874 293.784 89.9233 293.054 92.4934L287.48 111.925C286.646 114.808 285.5 116.874 284.042 118.125C282.583 119.375 280.655 120 278.259 120H266.225L276.644 83.5329H287.011ZM286.855 91.5036C287.202 90.2185 286.733 89.576 285.448 89.576H281.437L274.456 113.957H278.884C279.475 113.957 279.909 113.801 280.187 113.488C280.499 113.141 280.76 112.62 280.968 111.925L286.855 91.5036Z"/>
</mask>
<path d="M46.8016 120L57.2207 83.5329H63.7327L55.0327 113.957H63.1076L61.3884 120H46.8016ZM80.4278 89.576L77.823 98.7449H84.9601L83.1889 104.788H76.0517L73.447 113.957H81.105L79.3859 120H65.32L75.7392 83.5329H89.8051L88.0859 89.576H80.4278ZM108.774 83.5329L102.627 120H96.1669L97.4693 113.123H92.2597L89.707 120H83.0387L97.5213 83.5329H108.774ZM98.6154 107.08L101.949 89.5239H100.908L94.4477 107.08H98.6154ZM127.569 83.5329C130.313 83.5329 132.188 84.3838 133.196 86.0856C134.203 87.7874 134.342 89.9233 133.612 92.4934L128.038 111.925C127.205 114.808 126.058 116.874 124.6 118.125C123.141 119.375 121.214 120 118.817 120H106.783L117.202 83.5329H127.569ZM127.413 91.5036C127.76 90.2185 127.291 89.576 126.006 89.576H121.995L115.014 113.957H119.442C120.033 113.957 120.467 113.801 120.745 113.488C121.057 113.141 121.318 112.62 121.526 111.925L127.413 91.5036ZM146.311 89.576L143.706 98.7449H150.843L149.072 104.788H141.935L139.33 113.957H146.988L145.269 120H131.203L141.622 83.5329H155.688L153.969 89.576H146.311ZM150.485 120L160.904 83.5329H170.333C173.042 83.5329 174.9 84.4012 175.907 86.1377C176.949 87.8395 177.106 89.9581 176.376 92.4934L174.917 97.5467C173.771 101.471 171.861 103.954 169.187 104.996L169.5 120H163.144L163.04 105.622H161.112L156.997 120H150.485ZM162.779 99.7868H166.27C166.86 99.7868 167.294 99.6305 167.572 99.3179C167.885 98.9706 168.145 98.4497 168.353 97.7551L170.229 91.2952C170.576 90.0102 170.107 89.3676 168.822 89.3676H165.749L162.779 99.7868ZM193.167 83.5329C195.911 83.5329 197.786 84.3838 198.794 86.0856C199.836 87.7527 199.992 89.8886 199.263 92.4934L198.221 96.088C197.387 99.0401 195.98 100.985 194.001 101.923C195.633 103.347 196.05 105.396 195.251 108.07L194.157 111.925C193.324 114.808 192.177 116.874 190.719 118.125C189.26 119.375 187.333 120 184.936 120H173.944L184.363 83.5329H193.167ZM189.104 89.2634L186.291 99.0054H189.364C190.51 99.0054 191.274 98.3281 191.657 96.9736L193.376 91.191C193.723 89.906 193.254 89.2634 191.969 89.2634H189.104ZM189.208 106.455C189.555 105.17 189.052 104.528 187.697 104.528H184.728L181.967 114.217H185.509C186.1 114.217 186.534 114.061 186.812 113.748C187.124 113.401 187.385 112.88 187.593 112.186L189.208 106.455ZM217.878 112.186C217.045 115.068 215.899 117.135 214.44 118.385C212.981 119.635 211.054 120.26 208.657 120.26H205.115C202.371 120.26 200.496 119.41 199.488 117.708C198.481 116.006 198.342 113.87 199.072 111.3L204.75 91.3473C205.584 88.4646 206.73 86.3982 208.188 85.1479C209.647 83.8976 211.575 83.2724 213.971 83.2724H217.514C220.257 83.2724 222.133 84.1233 223.14 85.8251C224.147 87.5269 224.286 89.6628 223.557 92.2329L217.878 112.186ZM217.357 91.2431C217.705 89.9581 217.236 89.3155 215.951 89.3155H213.346C212.755 89.3155 212.304 89.4892 211.991 89.8365C211.714 90.1491 211.47 90.6527 211.262 91.3473L205.271 112.29C204.924 113.575 205.393 114.217 206.678 114.217H209.282C209.873 114.217 210.307 114.061 210.585 113.748C210.897 113.401 211.158 112.88 211.366 112.186L217.357 91.2431ZM245.017 83.5329L238.87 120H232.41L233.712 113.123H228.503L225.95 120H219.282L233.764 83.5329H245.017ZM234.858 107.08L238.192 89.5239H237.15L230.691 107.08H234.858ZM243.026 120L253.445 83.5329H262.874C265.583 83.5329 267.441 84.4012 268.449 86.1377C269.491 87.8395 269.647 89.9581 268.918 92.4934L267.459 97.5467C266.313 101.471 264.403 103.954 261.728 104.996L262.041 120H255.685L255.581 105.622H253.653L249.538 120H243.026ZM255.321 99.7868H258.811C259.401 99.7868 259.835 99.6305 260.113 99.3179C260.426 98.9706 260.686 98.4497 260.895 97.7551L262.77 91.2952C263.118 90.0102 262.649 89.3676 261.364 89.3676H258.29L255.321 99.7868ZM287.011 83.5329C289.755 83.5329 291.63 84.3838 292.637 86.0856C293.645 87.7874 293.784 89.9233 293.054 92.4934L287.48 111.925C286.646 114.808 285.5 116.874 284.042 118.125C282.583 119.375 280.655 120 278.259 120H266.225L276.644 83.5329H287.011ZM286.855 91.5036C287.202 90.2185 286.733 89.576 285.448 89.576H281.437L274.456 113.957H278.884C279.475 113.957 279.909 113.801 280.187 113.488C280.499 113.141 280.76 112.62 280.968 111.925L286.855 91.5036Z" fill="#008A0E"/>
<path d="M46.8016 120L45.1261 119.521L44.4915 121.742H46.8016V120ZM57.2207 83.5329V81.7904H55.9064L55.5453 83.0542L57.2207 83.5329ZM63.7327 83.5329L65.408 84.012L66.0433 81.7904H63.7327V83.5329ZM55.0327 113.957L53.3574 113.478L52.7221 115.699H55.0327V113.957ZM63.1076 113.957L64.7835 114.434L65.4149 112.214H63.1076V113.957ZM61.3884 120V121.742H62.7043L63.0644 120.477L61.3884 120ZM48.477 120.479L58.8962 84.0116L55.5453 83.0542L45.1261 119.521L48.477 120.479ZM57.2207 85.2754H63.7327V81.7904H57.2207V85.2754ZM62.0574 83.0538L53.3574 113.478L56.708 114.436L65.408 84.012L62.0574 83.0538ZM55.0327 115.699H63.1076V112.214H55.0327V115.699ZM61.4316 113.48L59.7124 119.523L63.0644 120.477L64.7835 114.434L61.4316 113.48ZM61.3884 118.258H46.8016V121.742H61.3884V118.258ZM80.4278 89.576V87.8335H79.1114L78.7516 89.0998L80.4278 89.576ZM77.823 98.7449L76.1469 98.2687L75.5166 100.487H77.823V98.7449ZM84.9601 98.7449L86.6323 99.235L87.2867 97.0024H84.9601V98.7449ZM83.1889 104.788V106.53H84.4939L84.861 105.278L83.1889 104.788ZM76.0517 104.788V103.046H74.7353L74.3756 104.312L76.0517 104.788ZM73.447 113.957L71.7708 113.481L71.1405 115.699H73.447V113.957ZM81.105 113.957L82.781 114.434L83.4124 112.214H81.105V113.957ZM79.3859 120V121.742H80.7018L81.0619 120.477L79.3859 120ZM65.32 120L63.6446 119.521L63.0099 121.742H65.32V120ZM75.7392 83.5329V81.7904H74.4248L74.0637 83.0542L75.7392 83.5329ZM89.8051 83.5329L91.481 84.0097L92.1124 81.7904H89.8051V83.5329ZM88.0859 89.576V91.3185H89.4018L89.7619 90.0528L88.0859 89.576ZM78.7516 89.0998L76.1469 98.2687L79.4992 99.2211L82.104 90.0522L78.7516 89.0998ZM77.823 100.487H84.9601V97.0024H77.823V100.487ZM83.288 98.2548L81.5167 104.298L84.861 105.278L86.6323 99.235L83.288 98.2548ZM83.1889 103.046H76.0517V106.53H83.1889V103.046ZM74.3756 104.312L71.7708 113.481L75.1231 114.433L77.7279 105.264L74.3756 104.312ZM73.447 115.699H81.105V112.214H73.447V115.699ZM79.4291 113.48L77.7099 119.523L81.0619 120.477L82.781 114.434L79.4291 113.48ZM79.3859 118.258H65.32V121.742H79.3859V118.258ZM66.9954 120.479L77.4146 84.0116L74.0637 83.0542L63.6446 119.521L66.9954 120.479ZM75.7392 85.2754H89.8051V81.7904H75.7392V85.2754ZM88.1291 83.0561L86.4099 89.0992L89.7619 90.0528L91.481 84.0097L88.1291 83.0561ZM88.0859 87.8335H80.4278V91.3185H88.0859V87.8335ZM108.774 83.5329L110.492 83.8225L110.835 81.7904H108.774V83.5329ZM102.627 120V121.742H104.1L104.345 120.29L102.627 120ZM96.1669 120L94.4548 119.676L94.0634 121.742H96.1669V120ZM97.4692 113.123L99.1813 113.448L99.5727 111.381H97.4692V113.123ZM92.2597 113.123V111.381H91.0478L90.6261 112.517L92.2597 113.123ZM89.707 120V121.742H90.9188L91.3405 120.606L89.707 120ZM83.0387 120L81.4193 119.357L80.4718 121.742H83.0387V120ZM97.5213 83.5329V81.7904H96.3385L95.9019 82.8897L97.5213 83.5329ZM98.6154 107.08V108.823H100.058L100.327 107.405L98.6154 107.08ZM101.949 89.5239L103.661 89.849L104.054 87.7814H101.949V89.5239ZM100.908 89.5239V87.7814H99.692L99.2723 88.9222L100.908 89.5239ZM94.4477 107.08L92.8124 106.479L91.9498 108.823H94.4477V107.08ZM107.056 83.2432L100.909 119.71L104.345 120.29L110.492 83.8225L107.056 83.2432ZM102.627 118.258H96.1669V121.742H102.627V118.258ZM97.8789 120.324L99.1813 113.448L95.7572 112.799L94.4548 119.676L97.8789 120.324ZM97.4692 111.381H92.2597V114.866H97.4692V111.381ZM90.6261 112.517L88.0734 119.394L91.3405 120.606L93.8932 113.73L90.6261 112.517ZM89.707 118.258H83.0387V121.742H89.707V118.258ZM84.6581 120.643L99.1408 84.176L95.9019 82.8897L81.4193 119.357L84.6581 120.643ZM97.5213 85.2754H108.774V81.7904H97.5213V85.2754ZM100.327 107.405L103.661 89.849L100.238 89.1988L96.9035 106.755L100.327 107.405ZM101.949 87.7814H100.908V91.2664H101.949V87.7814ZM99.2723 88.9222L92.8124 106.479L96.083 107.682L102.543 90.1256L99.2723 88.9222ZM94.4477 108.823H98.6154V105.338H94.4477V108.823ZM133.196 86.0856L131.696 86.9731V86.9731L133.196 86.0856ZM133.612 92.4934L135.287 92.9739L135.289 92.9691L133.612 92.4934ZM128.038 111.925L129.712 112.409L129.713 112.406L128.038 111.925ZM124.6 118.125L123.466 116.802L124.6 118.125ZM106.783 120L105.108 119.521L104.473 121.742H106.783V120ZM117.202 83.5329V81.7904H115.888L115.527 83.0542L117.202 83.5329ZM127.413 91.5036L129.087 91.9862L129.091 91.9722L129.095 91.9582L127.413 91.5036ZM121.995 89.576V87.8335H120.681L120.32 89.0964L121.995 89.576ZM115.014 113.957L113.339 113.477L112.703 115.699H115.014V113.957ZM120.745 113.488L119.45 112.322L119.442 112.33L120.745 113.488ZM121.526 111.925L123.195 112.426L123.198 112.417L123.2 112.408L121.526 111.925ZM127.569 85.2754C129.964 85.2754 131.118 85.9961 131.696 86.9731L134.695 85.1981C133.259 82.7715 130.662 81.7904 127.569 81.7904V85.2754ZM131.696 86.9731C132.384 88.1351 132.582 89.7399 131.936 92.0177L135.289 92.9691C136.101 90.1067 136.022 87.4396 134.695 85.1981L131.696 86.9731ZM131.937 92.0129L126.363 111.445L129.713 112.406L135.287 92.9739L131.937 92.0129ZM126.364 111.441C125.576 114.166 124.559 115.864 123.466 116.802L125.734 119.448C127.558 117.884 128.833 115.449 129.712 112.409L126.364 111.441ZM123.466 116.802C122.395 117.719 120.904 118.258 118.817 118.258V121.742C121.523 121.742 123.887 121.031 125.734 119.448L123.466 116.802ZM118.817 118.258H106.783V121.742H118.817V118.258ZM108.458 120.479L118.878 84.0116L115.527 83.0542L105.108 119.521L108.458 120.479ZM117.202 85.2754H127.569V81.7904H117.202V85.2754ZM129.095 91.9582C129.316 91.1415 129.435 89.9971 128.729 89.0308C128.006 88.0393 126.86 87.8335 126.006 87.8335V91.3185C126.195 91.3185 126.248 91.3436 126.218 91.3326C126.198 91.3255 126.152 91.3059 126.093 91.2638C126.033 91.2203 125.969 91.1607 125.914 91.085C125.798 90.9252 125.783 90.7888 125.781 90.7699C125.781 90.7642 125.785 90.847 125.731 91.0489L129.095 91.9582ZM126.006 87.8335H121.995V91.3185H126.006V87.8335ZM120.32 89.0964L113.339 113.477L116.689 114.437L123.67 90.0557L120.32 89.0964ZM115.014 115.699H119.442V112.214H115.014V115.699ZM119.442 115.699C120.319 115.699 121.32 115.463 122.047 114.646L119.442 112.33C119.476 112.293 119.513 112.261 119.549 112.238C119.584 112.215 119.61 112.204 119.621 112.2C119.63 112.197 119.623 112.2 119.593 112.205C119.563 112.21 119.514 112.214 119.442 112.214V115.699ZM122.04 114.654C122.594 114.039 122.95 113.245 123.195 112.426L119.857 111.424C119.686 111.995 119.521 112.243 119.45 112.322L122.04 114.654ZM123.2 112.408L129.087 91.9862L125.739 91.0209L119.852 111.442L123.2 112.408ZM146.311 89.576V87.8335H144.994L144.635 89.0998L146.311 89.576ZM143.706 98.7449L142.03 98.2687L141.399 100.487H143.706V98.7449ZM150.843 98.7449L152.515 99.235L153.17 97.0024H150.843V98.7449ZM149.072 104.788V106.53H150.377L150.744 105.278L149.072 104.788ZM141.935 104.788V103.046H140.618L140.259 104.312L141.935 104.788ZM139.33 113.957L137.654 113.481L137.023 115.699H139.33V113.957ZM146.988 113.957L148.664 114.434L149.295 112.214H146.988V113.957ZM145.269 120V121.742H146.585L146.945 120.477L145.269 120ZM131.203 120L129.528 119.521L128.893 121.742H131.203V120ZM141.622 83.5329V81.7904H140.308L139.947 83.0542L141.622 83.5329ZM155.688 83.5329L157.364 84.0097L157.995 81.7904H155.688V83.5329ZM153.969 89.576V91.3185H155.285L155.645 90.0528L153.969 89.576ZM144.635 89.0998L142.03 98.2687L145.382 99.2211L147.987 90.0522L144.635 89.0998ZM143.706 100.487H150.843V97.0024H143.706V100.487ZM149.171 98.2548L147.4 104.298L150.744 105.278L152.515 99.235L149.171 98.2548ZM149.072 103.046H141.935V106.53H149.072V103.046ZM140.259 104.312L137.654 113.481L141.006 114.433L143.611 105.264L140.259 104.312ZM139.33 115.699H146.988V112.214H139.33V115.699ZM145.312 113.48L143.593 119.523L146.945 120.477L148.664 114.434L145.312 113.48ZM145.269 118.258H131.203V121.742H145.269V118.258ZM132.878 120.479L143.298 84.0116L139.947 83.0542L129.528 119.521L132.878 120.479ZM141.622 85.2754H155.688V81.7904H141.622V85.2754ZM154.012 83.0561L152.293 89.0992L155.645 90.0528L157.364 84.0097L154.012 83.0561ZM153.969 87.8335H146.311V91.3185H153.969V87.8335ZM150.485 120L148.809 119.521L148.174 121.742H150.485V120ZM160.904 83.5329V81.7904H159.589L159.228 83.0542L160.904 83.5329ZM175.907 86.1377L174.4 87.0119L174.41 87.0299L174.421 87.0475L175.907 86.1377ZM176.376 92.4934L178.05 92.9766L178.051 92.9751L176.376 92.4934ZM174.917 97.5467L176.59 98.0351L176.592 98.0299L174.917 97.5467ZM169.187 104.996L168.554 103.373L167.419 103.815L167.445 105.033L169.187 104.996ZM169.5 120V121.742H171.279L171.242 119.964L169.5 120ZM163.144 120L161.401 120.013L161.414 121.742H163.144V120ZM163.04 105.622L164.782 105.609L164.77 103.879H163.04V105.622ZM161.112 105.622V103.879H159.798L159.437 105.142L161.112 105.622ZM156.997 120V121.742H158.31L158.672 120.479L156.997 120ZM162.779 99.7868L161.103 99.3092L160.471 101.529H162.779V99.7868ZM167.572 99.3179L166.277 98.1523L166.27 98.1603L167.572 99.3179ZM168.353 97.7551L170.022 98.2558L170.025 98.2483L170.027 98.2409L168.353 97.7551ZM170.229 91.2952L171.902 91.781L171.907 91.7654L171.911 91.7498L170.229 91.2952ZM165.749 89.3676V87.6252H164.433L164.073 88.89L165.749 89.3676ZM152.16 120.479L162.579 84.0116L159.228 83.0542L148.809 119.521L152.16 120.479ZM160.904 85.2754H170.333V81.7904H160.904V85.2754ZM170.333 85.2754C172.667 85.2754 173.811 85.9961 174.4 87.0119L177.415 85.2635C175.989 82.8062 173.417 81.7904 170.333 81.7904V85.2754ZM174.421 87.0475C175.133 88.2096 175.342 89.7871 174.702 92.0117L178.051 92.9751C178.869 90.129 178.766 87.4694 177.393 85.2278L174.421 87.0475ZM174.702 92.0101L173.243 97.0634L176.592 98.0299L178.05 92.9766L174.702 92.0101ZM173.245 97.0582C172.183 100.696 170.535 102.601 168.554 103.373L169.82 106.62C173.187 105.308 175.36 102.247 176.59 98.0351L173.245 97.0582ZM167.445 105.033L167.757 120.036L171.242 119.964L170.929 104.96L167.445 105.033ZM169.5 118.258H163.144V121.742H169.5V118.258ZM164.886 119.987L164.782 105.609L161.297 105.634L161.401 120.013L164.886 119.987ZM163.04 103.879H161.112V107.364H163.04V103.879ZM159.437 105.142L155.321 119.521L158.672 120.479L162.787 106.101L159.437 105.142ZM156.997 118.258H150.485V121.742H156.997V118.258ZM162.779 101.529H166.27V98.0443H162.779V101.529ZM166.27 101.529C167.146 101.529 168.147 101.293 168.874 100.476L166.27 98.1603C166.303 98.1224 166.34 98.0913 166.376 98.0678C166.411 98.0447 166.437 98.0339 166.448 98.0301C166.457 98.0266 166.45 98.0304 166.42 98.0349C166.39 98.0395 166.341 98.0443 166.27 98.0443V101.529ZM168.867 100.484C169.421 99.8685 169.777 99.0744 170.022 98.2558L166.684 97.2544C166.513 97.8249 166.348 98.0728 166.277 98.1523L168.867 100.484ZM170.027 98.2409L171.902 91.781L168.555 90.8094L166.68 97.2692L170.027 98.2409ZM171.911 91.7498C172.132 90.9331 172.25 89.7887 171.545 88.8224C170.822 87.8309 169.675 87.6252 168.822 87.6252V91.1101C169.01 91.1101 169.064 91.1353 169.034 91.1243C169.014 91.1171 168.968 91.0976 168.909 91.0554C168.848 91.012 168.785 90.9523 168.73 90.8767C168.613 90.7168 168.598 90.5804 168.597 90.5615C168.597 90.5558 168.601 90.6386 168.547 90.8406L171.911 91.7498ZM168.822 87.6252H165.749V91.1101H168.822V87.6252ZM164.073 88.89L161.103 99.3092L164.455 100.264L167.424 89.8452L164.073 88.89ZM198.794 86.0856L197.294 86.9731L197.305 86.9912L197.316 87.0091L198.794 86.0856ZM199.263 92.4934L200.936 92.9785L200.938 92.9709L200.94 92.9632L199.263 92.4934ZM198.221 96.088L196.547 95.6029L196.544 95.6145L198.221 96.088ZM194.001 101.923L193.255 100.348L190.851 101.487L192.855 103.236L194.001 101.923ZM195.251 108.07L193.582 107.571L193.578 107.583L193.575 107.594L195.251 108.07ZM194.157 111.925L195.831 112.409L195.833 112.401L194.157 111.925ZM173.944 120L172.268 119.521L171.634 121.742H173.944V120ZM184.363 83.5329V81.7904H183.049L182.688 83.0542L184.363 83.5329ZM189.104 89.2634V87.521H187.793L187.43 88.78L189.104 89.2634ZM186.291 99.0054L184.617 98.5219L183.974 100.748H186.291V99.0054ZM191.657 96.9736L189.986 96.4771L189.983 96.4888L189.979 96.5006L191.657 96.9736ZM193.376 91.191L195.046 91.6875L195.052 91.6667L195.058 91.6456L193.376 91.191ZM189.208 106.455L190.885 106.928L190.888 106.919L190.89 106.91L189.208 106.455ZM184.728 104.528V102.785H183.412L183.052 104.05L184.728 104.528ZM181.967 114.217L180.291 113.74L179.658 115.96H181.967V114.217ZM186.812 113.748L185.516 112.583L185.509 112.591L186.812 113.748ZM187.593 112.186L189.262 112.686L189.266 112.672L189.27 112.658L187.593 112.186ZM193.167 85.2754C195.562 85.2754 196.716 85.9961 197.294 86.9731L200.293 85.1981C198.857 82.7715 196.26 81.7904 193.167 81.7904V85.2754ZM197.316 87.0091C198.012 88.1223 198.233 89.7068 197.585 92.0236L200.94 92.9632C201.75 90.0704 201.659 87.383 200.271 85.1621L197.316 87.0091ZM197.589 92.0083L196.547 95.6029L199.894 96.5731L200.936 92.9785L197.589 92.0083ZM196.544 95.6145C195.79 98.2834 194.62 99.7014 193.255 100.348L194.747 103.497C197.341 102.269 198.984 99.7968 199.898 96.5615L196.544 95.6145ZM192.855 103.236C193.394 103.706 193.701 104.239 193.83 104.875C193.966 105.54 193.925 106.421 193.582 107.571L196.921 108.569C197.376 107.045 197.527 105.564 197.245 104.18C196.958 102.767 196.24 101.563 195.146 100.61L192.855 103.236ZM193.575 107.594L192.481 111.449L195.833 112.401L196.927 108.546L193.575 107.594ZM192.483 111.441C191.695 114.166 190.678 115.864 189.585 116.802L191.853 119.448C193.677 117.884 194.952 115.449 195.831 112.409L192.483 111.441ZM189.585 116.802C188.514 117.719 187.023 118.258 184.936 118.258V121.742C187.642 121.742 190.006 121.031 191.853 119.448L189.585 116.802ZM184.936 118.258H173.944V121.742H184.936V118.258ZM175.619 120.479L186.039 84.0116L182.688 83.0542L172.268 119.521L175.619 120.479ZM184.363 85.2754H193.167V81.7904H184.363V85.2754ZM187.43 88.78L184.617 98.5219L187.965 99.4888L190.778 89.7469L187.43 88.78ZM186.291 100.748H189.364V97.2629H186.291V100.748ZM189.364 100.748C190.307 100.748 191.212 100.458 191.953 99.8014C192.662 99.1725 193.085 98.3278 193.334 97.4466L189.979 96.5006C189.846 96.9739 189.696 97.1451 189.641 97.1935C189.617 97.2145 189.567 97.2629 189.364 97.2629V100.748ZM193.327 97.4702L195.046 91.6875L191.705 90.6944L189.986 96.4771L193.327 97.4702ZM195.058 91.6456C195.279 90.8289 195.397 89.6845 194.692 88.7182C193.969 87.7267 192.822 87.521 191.969 87.521V91.0059C192.157 91.0059 192.21 91.0311 192.18 91.0201C192.161 91.0129 192.115 90.9934 192.056 90.9512C191.995 90.9078 191.932 90.8481 191.877 90.7725C191.76 90.6126 191.745 90.4762 191.744 90.4574C191.744 90.4516 191.748 90.5345 191.694 90.7364L195.058 91.6456ZM191.969 87.521H189.104V91.0059H191.969V87.521ZM190.89 106.91C191.117 106.072 191.221 104.903 190.462 103.935C189.713 102.978 188.562 102.785 187.697 102.785V106.27C187.91 106.27 187.99 106.297 187.984 106.295C187.965 106.288 187.839 106.237 187.719 106.084C187.663 106.013 187.625 105.939 187.601 105.874C187.579 105.811 187.573 105.767 187.572 105.753C187.571 105.734 187.579 105.805 187.526 106L190.89 106.91ZM187.697 102.785H184.728V106.27H187.697V102.785ZM183.052 104.05L180.291 113.74L183.642 114.695L186.404 105.005L183.052 104.05ZM181.967 115.96H185.509V112.475H181.967V115.96ZM185.509 115.96C186.386 115.96 187.387 115.724 188.114 114.906L185.509 112.591C185.543 112.553 185.58 112.522 185.616 112.498C185.651 112.475 185.677 112.464 185.687 112.461C185.697 112.457 185.69 112.461 185.66 112.465C185.63 112.47 185.581 112.475 185.509 112.475V115.96ZM188.107 114.914C188.66 114.299 189.016 113.505 189.262 112.686L185.924 111.685C185.753 112.255 185.588 112.503 185.516 112.583L188.107 114.914ZM189.27 112.658L190.885 106.928L187.531 105.982L185.916 111.713L189.27 112.658ZM217.878 112.186L219.552 112.67L219.554 112.663L217.878 112.186ZM214.44 118.385L215.574 119.708L214.44 118.385ZM199.488 117.708L200.988 116.82L199.488 117.708ZM199.072 111.3L197.396 110.823L197.395 110.824L199.072 111.3ZM204.75 91.3473L203.076 90.8633L203.074 90.8703L204.75 91.3473ZM208.188 85.1479L207.054 83.8249L208.188 85.1479ZM223.14 85.8251L221.64 86.7126V86.7126L223.14 85.8251ZM223.557 92.2329L225.233 92.7099L225.233 92.7086L223.557 92.2329ZM217.357 91.2431L219.033 91.7223L219.036 91.71L219.039 91.6977L217.357 91.2431ZM211.991 89.8365L210.696 88.6708L210.689 88.6789L211.991 89.8365ZM211.262 91.3473L209.593 90.8466L209.59 90.8573L209.587 90.868L211.262 91.3473ZM205.271 112.29L203.596 111.811L203.592 111.823L203.589 111.835L205.271 112.29ZM210.585 113.748L209.29 112.583L209.282 112.591L210.585 113.748ZM211.366 112.186L213.035 112.686L213.038 112.676L213.042 112.665L211.366 112.186ZM216.204 111.702C215.416 114.427 214.4 116.125 213.306 117.062L215.574 119.708C217.398 118.145 218.673 115.71 219.552 112.67L216.204 111.702ZM213.306 117.062C212.235 117.98 210.744 118.518 208.657 118.518V122.003C211.363 122.003 213.727 121.291 215.574 119.708L213.306 117.062ZM208.657 118.518H205.115V122.003H208.657V118.518ZM205.115 118.518C202.72 118.518 201.566 117.797 200.988 116.82L197.989 118.595C199.425 121.022 202.022 122.003 205.115 122.003V118.518ZM200.988 116.82C200.3 115.658 200.102 114.053 200.748 111.776L197.395 110.824C196.583 113.687 196.662 116.354 197.989 118.595L200.988 116.82ZM200.748 111.777L206.426 91.8242L203.074 90.8703L197.396 110.823L200.748 111.777ZM206.424 91.8313C207.212 89.106 208.229 87.4082 209.322 86.4709L207.054 83.8249C205.231 85.3881 203.955 87.8233 203.076 90.8633L206.424 91.8313ZM209.322 86.4709C210.393 85.5532 211.884 85.0149 213.971 85.0149V81.5299C211.265 81.5299 208.901 82.2419 207.054 83.8249L209.322 86.4709ZM213.971 85.0149H217.514V81.5299H213.971V85.0149ZM217.514 85.0149C219.908 85.0149 221.062 85.7356 221.64 86.7126L224.639 84.9376C223.203 82.511 220.607 81.5299 217.514 81.5299V85.0149ZM221.64 86.7126C222.328 87.8747 222.527 89.4794 221.88 91.7572L225.233 92.7086C226.045 89.8463 225.966 87.1792 224.639 84.9376L221.64 86.7126ZM221.881 91.7559L216.202 111.709L219.554 112.663L225.233 92.7099L221.881 91.7559ZM219.039 91.6977C219.26 90.881 219.379 89.7366 218.674 88.7703C217.95 87.7788 216.804 87.5731 215.951 87.5731V91.058C216.139 91.058 216.192 91.0832 216.162 91.0722C216.143 91.065 216.096 91.0455 216.038 91.0033C215.977 90.9599 215.914 90.9002 215.859 90.8246C215.742 90.6647 215.727 90.5283 215.726 90.5095C215.725 90.5037 215.73 90.5865 215.675 90.7885L219.039 91.6977ZM215.951 87.5731H213.346V91.058H215.951V87.5731ZM213.346 87.5731C212.401 87.5731 211.422 87.8642 210.696 88.6708L213.287 91.0022C213.273 91.0178 213.254 91.0341 213.234 91.0483C213.213 91.0623 213.197 91.0695 213.19 91.0721C213.177 91.0769 213.219 91.058 213.346 91.058V87.5731ZM210.689 88.6789C210.162 89.2723 209.828 90.0621 209.593 90.8466L212.931 91.848C213.016 91.5644 213.098 91.355 213.17 91.2062C213.205 91.1329 213.235 91.0803 213.258 91.0443C213.281 91.0081 213.294 90.9937 213.294 90.9941L210.689 88.6789ZM209.587 90.868L203.596 111.811L206.946 112.769L212.937 91.8265L209.587 90.868ZM203.589 111.835C203.368 112.652 203.249 113.796 203.955 114.763C204.678 115.754 205.824 115.96 206.678 115.96V112.475C206.489 112.475 206.436 112.45 206.466 112.461C206.486 112.468 206.532 112.487 206.591 112.53C206.651 112.573 206.715 112.633 206.77 112.708C206.886 112.868 206.901 113.005 206.903 113.023C206.903 113.029 206.899 112.946 206.953 112.744L203.589 111.835ZM206.678 115.96H209.282V112.475H206.678V115.96ZM209.282 115.96C210.159 115.96 211.16 115.724 211.887 114.906L209.282 112.591C209.316 112.553 209.353 112.522 209.389 112.498C209.424 112.475 209.45 112.464 209.461 112.461C209.47 112.457 209.463 112.461 209.433 112.465C209.403 112.47 209.354 112.475 209.282 112.475V115.96ZM211.88 114.914C212.434 114.299 212.79 113.505 213.035 112.686L209.697 111.685C209.526 112.255 209.361 112.503 209.29 112.583L211.88 114.914ZM213.042 112.665L219.033 91.7223L215.682 90.7638L209.691 111.706L213.042 112.665ZM245.017 83.5329L246.735 83.8225L247.078 81.7904H245.017V83.5329ZM238.87 120V121.742H240.343L240.588 120.29L238.87 120ZM232.41 120L230.698 119.676L230.306 121.742H232.41V120ZM233.712 113.123L235.424 113.448L235.816 111.381H233.712V113.123ZM228.503 113.123V111.381H227.291L226.869 112.517L228.503 113.123ZM225.95 120V121.742H227.162L227.583 120.606L225.95 120ZM219.282 120L217.662 119.357L216.715 121.742H219.282V120ZM233.764 83.5329V81.7904H232.581L232.145 82.8897L233.764 83.5329ZM234.858 107.08V108.823H236.301L236.57 107.405L234.858 107.08ZM238.192 89.5239L239.904 89.849L240.297 87.7814H238.192V89.5239ZM237.15 89.5239V87.7814H235.935L235.515 88.9222L237.15 89.5239ZM230.691 107.08L229.055 106.479L228.193 108.823H230.691V107.08ZM243.299 83.2432L237.151 119.71L240.588 120.29L246.735 83.8225L243.299 83.2432ZM238.87 118.258H232.41V121.742H238.87V118.258ZM234.122 120.324L235.424 113.448L232 112.799L230.698 119.676L234.122 120.324ZM233.712 111.381H228.503V114.866H233.712V111.381ZM226.869 112.517L224.316 119.394L227.583 120.606L230.136 113.73L226.869 112.517ZM225.95 118.258H219.282V121.742H225.95V118.258ZM220.901 120.643L235.384 84.176L232.145 82.8897L217.662 119.357L220.901 120.643ZM233.764 85.2754H245.017V81.7904H233.764V85.2754ZM236.57 107.405L239.904 89.849L236.48 89.1988L233.146 106.755L236.57 107.405ZM238.192 87.7814H237.15V91.2664H238.192V87.7814ZM235.515 88.9222L229.055 106.479L232.326 107.682L238.786 90.1256L235.515 88.9222ZM230.691 108.823H234.858V105.338H230.691V108.823ZM243.026 120L241.35 119.521L240.716 121.742H243.026V120ZM253.445 83.5329V81.7904H252.131L251.77 83.0542L253.445 83.5329ZM268.449 86.1377L266.941 87.0119L266.952 87.0299L266.963 87.0475L268.449 86.1377ZM268.918 92.4934L270.592 92.9766L270.592 92.9751L268.918 92.4934ZM267.459 97.5467L269.131 98.0351L269.133 98.0299L267.459 97.5467ZM261.728 104.996L261.096 103.373L259.961 103.815L259.986 105.033L261.728 104.996ZM262.041 120V121.742H263.82L263.783 119.964L262.041 120ZM255.685 120L253.943 120.013L253.955 121.742H255.685V120ZM255.581 105.622L257.323 105.609L257.311 103.879H255.581V105.622ZM253.653 105.622V103.879H252.34L251.978 105.142L253.653 105.622ZM249.538 120V121.742H250.852L251.213 120.479L249.538 120ZM255.321 99.7868L253.645 99.3092L253.012 101.529H255.321V99.7868ZM260.113 99.3179L258.818 98.1523L258.811 98.1603L260.113 99.3179ZM260.895 97.7551L262.564 98.2558L262.566 98.2483L262.568 98.2409L260.895 97.7551ZM262.77 91.2952L264.444 91.781L264.448 91.7654L264.452 91.7498L262.77 91.2952ZM258.29 89.3676V87.6252H256.975L256.614 88.89L258.29 89.3676ZM244.701 120.479L255.121 84.0116L251.77 83.0542L241.35 119.521L244.701 120.479ZM253.445 85.2754H262.874V81.7904H253.445V85.2754ZM262.874 85.2754C265.208 85.2754 266.352 85.9961 266.941 87.0119L269.956 85.2635C268.531 82.8062 265.959 81.7904 262.874 81.7904V85.2754ZM266.963 87.0475C267.674 88.2096 267.883 89.7871 267.243 92.0117L270.592 92.9751C271.411 90.129 271.307 87.4694 269.935 85.2278L266.963 87.0475ZM267.243 92.0101L265.785 97.0634L269.133 98.0299L270.592 92.9766L267.243 92.0101ZM265.786 97.0582C264.724 100.696 263.077 102.601 261.096 103.373L262.361 106.62C265.728 105.308 267.902 102.247 269.131 98.0351L265.786 97.0582ZM259.986 105.033L260.299 120.036L263.783 119.964L263.47 104.96L259.986 105.033ZM262.041 118.258H255.685V121.742H262.041V118.258ZM257.428 119.987L257.323 105.609L253.839 105.634L253.943 120.013L257.428 119.987ZM255.581 103.879H253.653V107.364H255.581V103.879ZM251.978 105.142L247.863 119.521L251.213 120.479L255.329 106.101L251.978 105.142ZM249.538 118.258H243.026V121.742H249.538V118.258ZM255.321 101.529H258.811V98.0443H255.321V101.529ZM258.811 101.529C259.688 101.529 260.689 101.293 261.416 100.476L258.811 98.1603C258.845 98.1224 258.882 98.0913 258.917 98.0678C258.952 98.0447 258.979 98.0339 258.989 98.0301C258.999 98.0266 258.992 98.0304 258.962 98.0349C258.932 98.0395 258.882 98.0443 258.811 98.0443V101.529ZM261.409 100.484C261.962 99.8685 262.318 99.0744 262.564 98.2558L259.226 97.2544C259.055 97.8249 258.89 98.0728 258.818 98.1523L261.409 100.484ZM262.568 98.2409L264.444 91.781L261.097 90.8094L259.221 97.2692L262.568 98.2409ZM264.452 91.7498C264.673 90.9331 264.792 89.7887 264.087 88.8224C263.363 87.8309 262.217 87.6252 261.364 87.6252V91.1101C261.552 91.1101 261.605 91.1353 261.575 91.1243C261.556 91.1171 261.509 91.0976 261.45 91.0554C261.39 91.012 261.327 90.9523 261.271 90.8767C261.155 90.7168 261.14 90.5804 261.139 90.5615C261.138 90.5558 261.143 90.6386 261.088 90.8406L264.452 91.7498ZM261.364 87.6252H258.29V91.1101H261.364V87.6252ZM256.614 88.89L253.645 99.3092L256.996 100.264L259.966 89.8452L256.614 88.89ZM292.637 86.0856L291.138 86.9731V86.9731L292.637 86.0856ZM293.054 92.4934L294.729 92.9739L294.73 92.9691L293.054 92.4934ZM287.48 111.925L289.154 112.409L289.155 112.406L287.48 111.925ZM284.042 118.125L282.908 116.802L284.042 118.125ZM266.225 120L264.549 119.521L263.915 121.742H266.225V120ZM276.644 83.5329V81.7904H275.33L274.969 83.0542L276.644 83.5329ZM286.855 91.5036L288.529 91.9862L288.533 91.9722L288.537 91.9582L286.855 91.5036ZM281.437 89.576V87.8335H280.123L279.762 89.0964L281.437 89.576ZM274.456 113.957L272.781 113.477L272.145 115.699H274.456V113.957ZM280.187 113.488L278.891 112.322L278.884 112.33L280.187 113.488ZM280.968 111.925L282.637 112.426L282.64 112.417L282.642 112.408L280.968 111.925ZM287.011 85.2754C289.405 85.2754 290.56 85.9961 291.138 86.9731L294.137 85.1981C292.701 82.7715 290.104 81.7904 287.011 81.7904V85.2754ZM291.138 86.9731C291.826 88.1351 292.024 89.7399 291.378 92.0177L294.73 92.9691C295.543 90.1067 295.464 87.4396 294.137 85.1981L291.138 86.9731ZM291.379 92.0129L285.805 111.445L289.155 112.406L294.729 92.9739L291.379 92.0129ZM285.806 111.441C285.018 114.166 284.001 115.864 282.908 116.802L285.176 119.448C286.999 117.884 288.275 115.449 289.154 112.409L285.806 111.441ZM282.908 116.802C281.837 117.719 280.346 118.258 278.259 118.258V121.742C280.965 121.742 283.329 121.031 285.176 119.448L282.908 116.802ZM278.259 118.258H266.225V121.742H278.259V118.258ZM267.9 120.479L278.319 84.0116L274.969 83.0542L264.549 119.521L267.9 120.479ZM276.644 85.2754H287.011V81.7904H276.644V85.2754ZM288.537 91.9582C288.758 91.1415 288.876 89.9971 288.171 89.0308C287.448 88.0393 286.301 87.8335 285.448 87.8335V91.3185C285.636 91.3185 285.69 91.3436 285.66 91.3326C285.64 91.3255 285.594 91.3059 285.535 91.2638C285.474 91.2203 285.411 91.1607 285.356 91.085C285.239 90.9252 285.224 90.7888 285.223 90.7699C285.223 90.7642 285.227 90.847 285.173 91.0489L288.537 91.9582ZM285.448 87.8335H281.437V91.3185H285.448V87.8335ZM279.762 89.0964L272.781 113.477L276.131 114.437L283.112 90.0557L279.762 89.0964ZM274.456 115.699H278.884V112.214H274.456V115.699ZM278.884 115.699C279.761 115.699 280.762 115.463 281.489 114.646L278.884 112.33C278.918 112.293 278.955 112.261 278.99 112.238C279.026 112.215 279.052 112.204 279.062 112.2C279.072 112.197 279.065 112.2 279.035 112.205C279.005 112.21 278.956 112.214 278.884 112.214V115.699ZM281.482 114.654C282.035 114.039 282.391 113.245 282.637 112.426L279.299 111.424C279.128 111.995 278.963 112.243 278.891 112.322L281.482 114.654ZM282.642 112.408L288.529 91.9862L285.18 91.0209L279.294 111.442L282.642 112.408Z" fill="white" mask="url(#path-6-outside-2_562_2195)"/>
<path d="M299.47 163.203V160.248L305.381 157.82V157.609L299.47 155.181V152.225L308.442 156.025V159.403L299.47 163.203ZM310.871 163.203V160.248L316.782 157.82V157.609L310.871 155.181V152.225L319.843 156.025V159.403L310.871 163.203Z" fill="black"/>
<path d="M0.981583 201.64L0.689209 177.639L338.256 177.639L338.31 201.64L0.981583 201.64Z" fill="white"/>
<path d="M16.8426 196.869V182.869H22.0426L24.9426 190.069H25.4426L28.3426 182.869H33.5426V196.869H29.8426V188.869L30.1426 187.069H29.9426L27.2426 193.669H23.1426L20.4426 187.069H20.2426L20.5426 188.869V196.869H16.8426ZM37.7395 195.109C36.2728 193.656 35.5395 191.909 35.5395 189.869C35.5395 187.829 36.2728 186.089 37.7395 184.649C39.2195 183.196 41.0861 182.469 43.3395 182.469C45.5928 182.469 47.4528 183.196 48.9195 184.649C50.3995 186.089 51.1395 187.829 51.1395 189.869C51.1395 191.909 50.3995 193.656 48.9195 195.109C47.4528 196.549 45.5928 197.269 43.3395 197.269C41.0861 197.269 39.2195 196.549 37.7395 195.109ZM40.5195 186.969C39.7995 187.703 39.4395 188.669 39.4395 189.869C39.4395 191.069 39.7995 192.036 40.5195 192.769C41.2395 193.503 42.1795 193.869 43.3395 193.869C44.4995 193.869 45.4395 193.503 46.1595 192.769C46.8795 192.036 47.2395 191.069 47.2395 189.869C47.2395 188.669 46.8795 187.703 46.1595 186.969C45.4395 186.236 44.4995 185.869 43.3395 185.869C42.1795 185.869 41.2395 186.236 40.5195 186.969ZM53.1317 196.869V182.869H60.1317C61.7983 182.869 63.145 183.343 64.1717 184.289C65.2117 185.223 65.7317 186.383 65.7317 187.769C65.7317 189.569 64.7983 190.969 62.9317 191.969L65.8317 196.869H61.8317L59.3317 192.669H56.8317V196.869H53.1317ZM56.8317 189.269H60.0317C60.605 189.269 61.065 189.123 61.4117 188.829C61.7583 188.536 61.9317 188.183 61.9317 187.769C61.9317 187.356 61.7583 187.003 61.4117 186.709C61.065 186.416 60.605 186.269 60.0317 186.269H56.8317V189.269ZM67.8387 196.869V182.869H78.6387V186.269H71.5387V188.369H77.2387V191.369H71.5387V193.469H78.6387V196.869H67.8387ZM87.9148 195.169C86.4615 193.756 85.7348 191.989 85.7348 189.869C85.7348 187.749 86.4615 185.989 87.9148 184.589C89.3815 183.176 91.2548 182.469 93.5348 182.469C96.0548 182.469 98.0348 183.389 99.4748 185.229C100.115 186.069 100.568 186.983 100.835 187.969H97.0348C96.8348 187.556 96.5881 187.209 96.2948 186.929C95.5881 186.223 94.6681 185.869 93.5348 185.869C92.3748 185.869 91.4348 186.236 90.7148 186.969C89.9948 187.703 89.6348 188.669 89.6348 189.869C89.6348 191.069 89.9948 192.036 90.7148 192.769C91.4348 193.503 92.3748 193.869 93.5348 193.869C94.7881 193.869 95.7615 193.469 96.4548 192.669C96.7748 192.309 97.0015 191.909 97.1348 191.469H100.935C100.641 192.549 100.168 193.516 99.5148 194.369C98.0881 196.303 96.0948 197.269 93.5348 197.269C91.2548 197.269 89.3815 196.569 87.9148 195.169ZM102.839 196.869V182.869H106.539V188.069H111.939V182.869H115.639V196.869H111.939V191.469H106.539V196.869H102.839ZM116.929 196.869L120.729 182.869H127.529L131.329 196.869H127.529L126.829 194.069H121.429L120.729 196.869H116.929ZM122.229 190.869H126.029L124.829 186.269H123.429L122.229 190.869ZM132.624 196.869V182.869H137.124L142.024 191.669H142.224L141.924 189.869V182.869H145.624V196.869H141.124L136.224 188.069H136.024L136.324 189.869V196.869H132.624ZM149.809 195.169C148.356 193.756 147.629 191.989 147.629 189.869C147.629 187.749 148.356 185.989 149.809 184.589C151.276 183.176 153.149 182.469 155.429 182.469C157.949 182.469 159.929 183.389 161.369 185.229C162.009 186.069 162.463 186.983 162.729 187.969H158.929C158.729 187.556 158.483 187.209 158.189 186.929C157.483 186.223 156.563 185.869 155.429 185.869C154.269 185.869 153.329 186.236 152.609 186.969C151.889 187.703 151.529 188.669 151.529 189.869C151.529 191.069 151.889 192.036 152.609 192.769C153.329 193.503 154.269 193.869 155.429 193.869C156.683 193.869 157.656 193.469 158.349 192.669C158.669 192.309 158.896 191.909 159.029 191.469H162.829C162.536 192.549 162.063 193.516 161.409 194.369C159.983 196.303 157.989 197.269 155.429 197.269C153.149 197.269 151.276 196.569 149.809 195.169ZM164.733 196.869V182.869H175.533V186.269H168.433V188.369H174.133V191.369H168.433V193.469H175.533V196.869H164.733ZM176.824 192.369H180.624C180.744 192.703 180.924 192.989 181.164 193.229C181.724 193.789 182.511 194.069 183.524 194.069C184.231 194.069 184.757 193.956 185.104 193.729C185.451 193.503 185.624 193.216 185.624 192.869C185.624 192.723 185.584 192.589 185.504 192.469C185.437 192.336 185.317 192.216 185.144 192.109C184.984 192.003 184.824 191.916 184.664 191.849C184.504 191.769 184.271 191.689 183.964 191.609C183.671 191.516 183.424 191.443 183.224 191.389C183.024 191.336 182.731 191.263 182.344 191.169C181.971 191.076 181.684 191.003 181.484 190.949C180.217 190.603 179.204 190.123 178.444 189.509C177.697 188.896 177.324 188.016 177.324 186.869C177.324 185.656 177.844 184.623 178.884 183.769C179.937 182.903 181.351 182.469 183.124 182.469C185.391 182.469 187.084 183.203 188.204 184.669C188.697 185.309 189.037 186.043 189.224 186.869H185.424C185.344 186.656 185.211 186.456 185.024 186.269C184.597 185.869 183.964 185.669 183.124 185.669C182.471 185.669 181.991 185.769 181.684 185.969C181.377 186.156 181.224 186.389 181.224 186.669C181.224 187.043 181.444 187.343 181.884 187.569C182.337 187.783 182.997 187.989 183.864 188.189C184.371 188.309 184.731 188.403 184.944 188.469C185.171 188.523 185.524 188.629 186.004 188.789C186.497 188.936 186.871 189.076 187.124 189.209C187.377 189.343 187.677 189.529 188.024 189.769C188.384 189.996 188.651 190.243 188.824 190.509C189.011 190.763 189.171 191.076 189.304 191.449C189.451 191.823 189.524 192.229 189.524 192.669C189.524 193.949 188.997 195.036 187.944 195.929C186.891 196.823 185.417 197.269 183.524 197.269C181.151 197.269 179.324 196.456 178.044 194.829C177.497 194.123 177.091 193.303 176.824 192.369ZM194.942 186.269V182.869H207.442V186.269H203.042V196.869H199.342V186.269H194.942ZM210.532 195.109C209.066 193.656 208.332 191.909 208.332 189.869C208.332 187.829 209.066 186.089 210.532 184.649C212.012 183.196 213.879 182.469 216.132 182.469C218.386 182.469 220.246 183.196 221.712 184.649C223.192 186.089 223.932 187.829 223.932 189.869C223.932 191.909 223.192 193.656 221.712 195.109C220.246 196.549 218.386 197.269 216.132 197.269C213.879 197.269 212.012 196.549 210.532 195.109ZM213.312 186.969C212.592 187.703 212.232 188.669 212.232 189.869C212.232 191.069 212.592 192.036 213.312 192.769C214.032 193.503 214.972 193.869 216.132 193.869C217.292 193.869 218.232 193.503 218.952 192.769C219.672 192.036 220.032 191.069 220.032 189.869C220.032 188.669 219.672 187.703 218.952 186.969C218.232 186.236 217.292 185.869 216.132 185.869C214.972 185.869 214.032 186.236 213.312 186.969ZM230.53 182.869H234.23L236.03 192.669H236.23L238.11 182.869H242.55L244.43 192.669H244.63L246.43 182.869H250.13L247.23 196.869H242.23L240.43 187.469H240.23L238.43 196.869H233.43L230.53 182.869ZM251.725 196.869V182.869H255.425V196.869H251.725ZM258.034 196.869V182.869H262.534L267.434 191.669H267.634L267.334 189.869V182.869H271.034V196.869H266.534L261.634 188.069H261.434L261.734 189.869V196.869H258.034ZM279.245 196.869V182.869H286.745C288.185 182.869 289.312 183.203 290.125 183.869C290.938 184.536 291.345 185.369 291.345 186.369C291.345 187.369 290.978 188.156 290.245 188.729C289.898 188.969 289.532 189.149 289.145 189.269V189.369C289.652 189.516 290.098 189.723 290.485 189.989C291.392 190.616 291.845 191.543 291.845 192.769C291.845 193.969 291.385 194.956 290.465 195.729C289.545 196.489 288.238 196.869 286.545 196.869H279.245ZM282.945 188.269H285.945C286.438 188.269 286.812 188.163 287.065 187.949C287.318 187.723 287.445 187.429 287.445 187.069C287.445 186.709 287.318 186.423 287.065 186.209C286.812 185.983 286.438 185.869 285.945 185.869H282.945V188.269ZM282.945 193.869H286.145C286.772 193.869 287.245 193.743 287.565 193.489C287.885 193.236 288.045 192.896 288.045 192.469C288.045 192.043 287.885 191.703 287.565 191.449C287.245 191.196 286.772 191.069 286.145 191.069H282.945V193.869ZM293.854 196.869V182.869H297.554V196.869H293.854ZM301.743 195.169C300.29 193.756 299.563 191.989 299.563 189.869C299.563 187.749 300.29 185.989 301.743 184.589C303.21 183.176 305.083 182.469 307.363 182.469C309.896 182.469 311.876 183.356 313.303 185.129C313.93 185.916 314.383 186.796 314.663 187.769H310.863C310.676 187.409 310.43 187.096 310.123 186.829C309.403 186.189 308.483 185.869 307.363 185.869C306.203 185.869 305.263 186.236 304.543 186.969C303.823 187.703 303.463 188.669 303.463 189.869C303.463 191.069 303.823 192.036 304.543 192.769C305.263 193.503 306.203 193.869 307.363 193.869C308.51 193.869 309.443 193.536 310.163 192.869C310.483 192.549 310.716 192.216 310.863 191.869H308.963V189.069H316.263V191.869H314.683C314.363 192.883 313.883 193.783 313.243 194.569C311.79 196.369 309.83 197.269 307.363 197.269C305.083 197.269 303.21 196.569 301.743 195.169ZM317.763 189.069V182.869H321.163V189.069L320.563 192.269H318.363L317.763 189.069ZM318.183 196.649C317.836 196.303 317.663 195.876 317.663 195.369C317.663 194.863 317.836 194.436 318.183 194.089C318.53 193.743 318.956 193.569 319.463 193.569C319.97 193.569 320.396 193.743 320.743 194.089C321.09 194.436 321.263 194.863 321.263 195.369C321.263 195.876 321.09 196.303 320.743 196.649C320.396 196.996 319.97 197.169 319.463 197.169C318.956 197.169 318.53 196.996 318.183 196.649Z" fill="black"/>
</svg>
