<svg width="22" height="18" viewBox="0 0 22 18" fill="none" xmlns="http://www.w3.org/2000/svg">
<path d="M4.54792 17.1317V16.0519C4.55422 15.9611 4.54109 15.87 4.50941 15.7847C4.47773 15.6993 4.42823 15.6217 4.3642 15.557C4.30018 15.4923 4.2231 15.442 4.1381 15.4094C4.0531 15.3768 3.96214 15.3627 3.87127 15.3681C3.75232 15.3603 3.63346 15.3846 3.5271 15.4384C3.42074 15.4922 3.33077 15.5736 3.2666 15.674C3.20809 15.5766 3.12439 15.4967 3.0243 15.4429C2.92422 15.389 2.81146 15.3632 2.69792 15.3681C2.59894 15.3631 2.50037 15.384 2.41199 15.4288C2.3236 15.4737 2.24847 15.5408 2.19402 15.6236V15.4113H1.8197V17.1317H2.19762V16.1851C2.18958 16.1263 2.19464 16.0664 2.21243 16.0097C2.23023 15.9531 2.26031 15.9011 2.30055 15.8574C2.34078 15.8137 2.39016 15.7795 2.44517 15.7571C2.50017 15.7347 2.55944 15.7248 2.61873 15.728C2.86708 15.728 2.99305 15.89 2.99305 16.1815V17.1389H3.37097V16.1851C3.36326 16.1263 3.36855 16.0666 3.38647 16.0101C3.40438 15.9536 3.43448 15.9017 3.47465 15.8581C3.51481 15.8145 3.56406 15.7802 3.61891 15.7578C3.67376 15.7353 3.73288 15.7251 3.79208 15.728C4.04763 15.728 4.17 15.89 4.17 16.1815V17.1389L4.54792 17.1317ZM10.1393 15.4113H9.52387V14.8894H9.14595V15.4113H8.80402V15.7532H9.15315V16.545C9.15315 16.9445 9.30792 17.1821 9.75062 17.1821C9.91602 17.1826 10.0782 17.1365 10.2185 17.0489L10.1105 16.7286C10.0102 16.7885 9.89623 16.8219 9.77942 16.8258C9.59945 16.8258 9.53107 16.7106 9.53107 16.5378V15.7532H10.1429L10.1393 15.4113ZM13.3319 15.3681C13.2406 15.3654 13.1503 15.3874 13.0705 15.4317C12.9907 15.4761 12.9243 15.5411 12.8784 15.62V15.4113H12.5076V17.1317H12.882V16.1671C12.882 15.8828 13.0043 15.7244 13.2419 15.7244C13.3219 15.7233 13.4014 15.738 13.4758 15.7676L13.591 15.4077C13.5055 15.3771 13.4155 15.3613 13.3247 15.3609L13.3319 15.3681ZM8.50529 15.548C8.2934 15.4221 8.04979 15.3596 7.80343 15.3681C7.36793 15.3681 7.08359 15.5768 7.08359 15.9188C7.08359 16.1995 7.29234 16.3723 7.67746 16.4263L7.85742 16.4514C8.06258 16.4802 8.15976 16.5342 8.15976 16.6314C8.15976 16.7646 8.02299 16.8402 7.76744 16.8402C7.56189 16.8461 7.36032 16.7827 7.19516 16.6602L7.0152 16.9517C7.23325 17.104 7.49441 17.1822 7.76024 17.1749C8.25694 17.1749 8.54488 16.9409 8.54488 16.6134C8.54488 16.2859 8.31813 16.1527 7.9438 16.0987L7.76384 16.0735C7.60188 16.0519 7.4723 16.0195 7.4723 15.9044C7.4723 15.7892 7.59468 15.7028 7.79983 15.7028C7.98946 15.705 8.17534 15.7558 8.33972 15.8504L8.50529 15.548ZM18.531 15.3681C18.4397 15.3654 18.3494 15.3874 18.2696 15.4317C18.1898 15.4761 18.1234 15.5411 18.0775 15.62V15.4113H17.7067V17.1317H18.0811V16.1671C18.0811 15.8828 18.2034 15.7244 18.441 15.7244C18.521 15.7233 18.6005 15.738 18.6749 15.7676L18.7901 15.4077C18.7046 15.3771 18.6146 15.3613 18.5238 15.3609L18.531 15.3681ZM13.708 16.2679C13.7035 16.3888 13.7244 16.5093 13.7692 16.6217C13.8139 16.7341 13.8817 16.8359 13.9681 16.9206C14.0545 17.0053 14.1576 17.071 14.2709 17.1135C14.3841 17.1561 14.505 17.1745 14.6258 17.1677C14.8505 17.1791 15.0714 17.1059 15.2449 16.9625L15.0649 16.6602C14.9355 16.7589 14.7777 16.8132 14.615 16.815C14.4766 16.8038 14.3476 16.7409 14.2534 16.6389C14.1593 16.5368 14.1071 16.4031 14.1071 16.2643C14.1071 16.1255 14.1593 15.9917 14.2534 15.8897C14.3476 15.7877 14.4766 15.7248 14.615 15.7136C14.7777 15.7154 14.9355 15.7697 15.0649 15.8684L15.2449 15.566C15.0714 15.4226 14.8505 15.3494 14.6258 15.3609C14.505 15.354 14.3841 15.3725 14.2709 15.415C14.1576 15.4576 14.0545 15.5233 13.9681 15.608C13.8817 15.6927 13.8139 15.7945 13.7692 15.9069C13.7244 16.0193 13.7035 16.1398 13.708 16.2607V16.2679ZM17.2136 16.2679V15.4113H16.8393V15.62C16.7758 15.5382 16.6936 15.4727 16.5998 15.4289C16.5059 15.3851 16.403 15.3643 16.2994 15.3681C16.0608 15.3681 15.8319 15.4629 15.6632 15.6316C15.4944 15.8004 15.3996 16.0292 15.3996 16.2679C15.3996 16.5065 15.4944 16.7354 15.6632 16.9041C15.8319 17.0729 16.0608 17.1677 16.2994 17.1677C16.403 17.1715 16.5059 17.1507 16.5998 17.1069C16.6936 17.063 16.7758 16.9975 16.8393 16.9157V17.1245H17.2136V16.2679ZM15.8207 16.2679C15.8267 16.1666 15.8622 16.0693 15.9227 15.9879C15.9833 15.9066 16.0664 15.8447 16.1617 15.8099C16.257 15.7751 16.3604 15.769 16.4591 15.7922C16.5578 15.8155 16.6476 15.8671 16.7174 15.9407C16.7872 16.0144 16.8339 16.1068 16.8518 16.2066C16.8698 16.3065 16.8581 16.4094 16.8182 16.5027C16.7784 16.596 16.7122 16.6756 16.6277 16.7317C16.5431 16.7879 16.4441 16.818 16.3426 16.8186C16.2714 16.8195 16.2007 16.8056 16.1351 16.7779C16.0694 16.7501 16.0102 16.7091 15.9612 16.6574C15.9122 16.6057 15.8744 16.5444 15.8502 16.4773C15.8261 16.4103 15.816 16.339 15.8207 16.2679V16.2679ZM11.3037 15.3681C11.065 15.3714 10.8375 15.4694 10.6711 15.6405C10.5047 15.8116 10.4131 16.0418 10.4165 16.2805C10.4198 16.5191 10.5178 16.7467 10.6889 16.9131C10.86 17.0794 11.0902 17.171 11.3289 17.1677C11.5878 17.181 11.8424 17.0976 12.0433 16.9337L11.8634 16.6566C11.7213 16.7706 11.5452 16.8339 11.3631 16.8366C11.2393 16.8472 11.1163 16.8092 11.0202 16.7305C10.9241 16.6519 10.8625 16.5388 10.8484 16.4155H12.1261C12.1261 16.3687 12.1261 16.3219 12.1261 16.2715C12.1261 15.7316 11.7914 15.3717 11.3091 15.3717L11.3037 15.3681ZM11.3037 15.7028C11.3597 15.7016 11.4154 15.7115 11.4676 15.7318C11.5198 15.7521 11.5675 15.7826 11.6079 15.8213C11.6484 15.8601 11.6808 15.9065 11.7033 15.9578C11.7258 16.0091 11.738 16.0643 11.7392 16.1203H10.8394C10.8459 16.0048 10.8974 15.8964 10.9828 15.8184C11.0683 15.7403 11.1809 15.6989 11.2965 15.7028H11.3037ZM20.6815 16.2715V14.7202H20.3216V15.62C20.258 15.5382 20.1759 15.4727 20.082 15.4289C19.9882 15.3851 19.8852 15.3643 19.7817 15.3681C19.5431 15.3681 19.3142 15.4629 19.1454 15.6316C18.9767 15.8004 18.8819 16.0292 18.8819 16.2679C18.8819 16.5065 18.9767 16.7354 19.1454 16.9041C19.3142 17.0729 19.5431 17.1677 19.7817 17.1677C19.8852 17.1715 19.9882 17.1507 20.082 17.1069C20.1759 17.063 20.258 16.9975 20.3216 16.9157V17.1245H20.6815V16.2715ZM21.306 16.8816C21.3294 16.8813 21.3526 16.8855 21.3744 16.8942C21.395 16.9026 21.4139 16.9148 21.4301 16.9301C21.446 16.9457 21.4588 16.964 21.4679 16.9841C21.4771 17.0052 21.4818 17.0278 21.4818 17.0507C21.4818 17.0736 21.4771 17.0963 21.4679 17.1173C21.4588 17.1375 21.446 17.1558 21.4301 17.1713C21.4139 17.1867 21.395 17.1989 21.3744 17.2073C21.3528 17.2168 21.3295 17.2217 21.306 17.2217C21.2719 17.2214 21.2385 17.2115 21.2098 17.193C21.1812 17.1745 21.1583 17.1483 21.144 17.1173C21.135 17.0963 21.1304 17.0736 21.1304 17.0507C21.1304 17.0278 21.135 17.0052 21.144 16.9841C21.1532 16.964 21.166 16.9457 21.1818 16.9301C21.198 16.9148 21.2169 16.9026 21.2376 16.8942C21.261 16.8848 21.2862 16.8805 21.3114 16.8816H21.306ZM21.306 17.1857C21.3239 17.1858 21.3417 17.1821 21.3582 17.1749C21.3736 17.168 21.3877 17.1582 21.3996 17.1461C21.4221 17.1215 21.4346 17.0894 21.4346 17.0561C21.4346 17.0228 21.4221 16.9907 21.3996 16.9661C21.3877 16.954 21.3737 16.9442 21.3582 16.9373C21.3417 16.9302 21.3239 16.9265 21.306 16.9265C21.288 16.9266 21.2703 16.9303 21.2538 16.9373C21.2376 16.944 21.2229 16.9538 21.2106 16.9661C21.1881 16.9907 21.1756 17.0228 21.1756 17.0561C21.1756 17.0894 21.1881 17.1215 21.2106 17.1461C21.223 17.1584 21.2376 17.1682 21.2538 17.1749C21.2719 17.1827 21.2916 17.1864 21.3114 17.1857H21.306ZM21.3168 16.9715C21.3336 16.9707 21.3501 16.9758 21.3636 16.9859C21.3691 16.9905 21.3734 16.9963 21.3762 17.0029C21.379 17.0094 21.3803 17.0166 21.3798 17.0237C21.38 17.0297 21.379 17.0357 21.3769 17.0412C21.3747 17.0468 21.3714 17.0519 21.3672 17.0561C21.3567 17.0656 21.3434 17.0713 21.3294 17.0723L21.3816 17.1317H21.3402L21.2916 17.0723H21.2754V17.1317H21.2412V16.9733L21.3168 16.9715ZM21.2772 17.0021V17.0453H21.3168C21.3238 17.0474 21.3313 17.0474 21.3384 17.0453C21.3396 17.0428 21.3403 17.04 21.3403 17.0372C21.3403 17.0344 21.3396 17.0316 21.3384 17.0291C21.3396 17.0266 21.3403 17.0238 21.3403 17.021C21.3403 17.0182 21.3396 17.0154 21.3384 17.0129C21.3313 17.0108 21.3238 17.0108 21.3168 17.0129L21.2772 17.0021ZM19.2976 16.2715C19.3036 16.1702 19.339 16.0729 19.3996 15.9915C19.4602 15.9102 19.5432 15.8483 19.6385 15.8135C19.7338 15.7787 19.8372 15.7726 19.936 15.7958C20.0347 15.8191 20.1245 15.8707 20.1943 15.9443C20.2641 16.018 20.3108 16.1104 20.3287 16.2102C20.3466 16.3101 20.3349 16.413 20.2951 16.5063C20.2553 16.5996 20.189 16.6792 20.1045 16.7353C20.02 16.7915 19.9209 16.8216 19.8195 16.8222C19.7482 16.8231 19.6776 16.8092 19.6119 16.7815C19.5463 16.7537 19.4871 16.7127 19.4381 16.661C19.3891 16.6093 19.3513 16.548 19.3271 16.4809C19.3029 16.4139 19.2929 16.3426 19.2976 16.2715V16.2715ZM6.65888 16.2715V15.4113H6.28456V15.62C6.22099 15.5382 6.13888 15.4727 6.04501 15.4289C5.95114 15.3851 5.84819 15.3643 5.74467 15.3681C5.50603 15.3681 5.27716 15.4629 5.10841 15.6316C4.93966 15.8004 4.84486 16.0292 4.84486 16.2679C4.84486 16.5065 4.93966 16.7354 5.10841 16.9041C5.27716 17.0729 5.50603 17.1677 5.74467 17.1677C5.84819 17.1715 5.95114 17.1507 6.04501 17.1069C6.13888 17.063 6.22099 16.9975 6.28456 16.9157V17.1245H6.65888V16.2715ZM5.26597 16.2715C5.27194 16.1702 5.3074 16.0729 5.36797 15.9915C5.42855 15.9102 5.5116 15.8483 5.6069 15.8135C5.7022 15.7787 5.80559 15.7726 5.90434 15.7958C6.00308 15.8191 6.09287 15.8707 6.16266 15.9443C6.23244 16.018 6.27916 16.1104 6.29708 16.2102C6.31499 16.3101 6.30331 16.413 6.26348 16.5063C6.22364 16.5996 6.1574 16.6792 6.07289 16.7353C5.98838 16.7915 5.88931 16.8216 5.78786 16.8222C5.71631 16.8236 5.64524 16.8101 5.57917 16.7826C5.5131 16.7551 5.45347 16.7141 5.40406 16.6623C5.35465 16.6106 5.31654 16.5491 5.29215 16.4818C5.26776 16.4145 5.25762 16.3429 5.26237 16.2715H5.26597Z" fill="white"/>
<path d="M14.0498 2.30078H8.38098V12.4884H14.0498V2.30078Z" fill="#FF4F00"/>
<path d="M8.74124 7.39555C8.74019 6.41426 8.96244 5.44561 9.39115 4.56293C9.81986 3.68025 10.4438 2.90669 11.2157 2.30083C10.26 1.5497 9.11216 1.08263 7.90351 0.952974C6.69486 0.823323 5.47411 1.03633 4.38079 1.56765C3.28746 2.09897 2.36568 2.92716 1.72078 3.95758C1.07588 4.98799 0.733887 6.17906 0.733887 7.39465C0.733887 8.61024 1.07588 9.8013 1.72078 10.8317C2.36568 11.8621 3.28746 12.6903 4.38079 13.2216C5.47411 13.753 6.69486 13.966 7.90351 13.8363C9.11216 13.7067 10.26 13.2396 11.2157 12.4885C10.444 11.8828 9.82025 11.1095 9.39155 10.2272C8.96284 9.34483 8.74047 8.37653 8.74124 7.39555V7.39555Z" fill="#FF0000"/>
<path d="M21.6981 7.39532C21.6981 8.611 21.356 9.80214 20.711 10.8326C20.066 11.863 19.1441 12.6912 18.0506 13.2225C16.9571 13.7537 15.7363 13.9666 14.5275 13.8367C13.3188 13.7069 12.171 13.2396 11.2153 12.4882C11.9867 11.882 12.6103 11.1085 13.0391 10.2261C13.4679 9.34375 13.6908 8.37549 13.6908 7.39442C13.6908 6.41335 13.4679 5.44509 13.0391 4.56269C12.6103 3.68029 11.9867 2.90681 11.2153 2.3006C12.171 1.54924 13.3188 1.08194 14.5275 0.952099C15.7363 0.822261 16.9571 1.03513 18.0506 1.56637C19.1441 2.09762 20.066 2.9258 20.711 3.95625C21.356 4.9867 21.6981 6.17784 21.6981 7.39352V7.39532Z" fill="#FF9900"/>
<path d="M21.0795 11.4087V11.1999H21.1641V11.1567H20.95V11.1999H21.0417V11.4087H21.0795ZM21.4952 11.4087V11.1567H21.4305L21.3549 11.3367L21.2793 11.1567H21.2217V11.4087H21.2685V11.2197L21.3387 11.3835H21.3873L21.4574 11.2197V11.4105L21.4952 11.4087Z" fill="#FF9900"/>
</svg>
