<svg width="257" height="40" viewBox="0 0 257 40" fill="none" xmlns="http://www.w3.org/2000/svg">
<path d="M7.1385 3.67329L5.99752 7.68956H8.73588L7.96001 10.3366H5.22165L3.32761 17H0.475147L5.03909 1.0262H11.3145L10.5615 3.67329H7.1385ZM8.58684 17L13.1508 1.0262H17.2811C18.4678 1.0262 19.2817 1.40653 19.7229 2.16719C20.1793 2.91263 20.2477 3.84063 19.9282 4.95119L19.2893 7.16471C18.7872 8.88379 17.9505 9.97153 16.7791 10.4279L16.916 17H14.132L14.0864 10.7018H13.2421L11.4393 17H8.58684ZM13.9723 8.14595H15.5012C15.7598 8.14595 15.95 8.07749 16.0717 7.94058C16.2086 7.78844 16.3227 7.56025 16.414 7.25598L17.2355 4.42634C17.3876 3.86345 17.1823 3.58201 16.6194 3.58201H15.273L13.9723 8.14595ZM27.7451 13.577C27.3799 14.8397 26.8779 15.7449 26.239 16.2926C25.6 16.8403 24.7557 17.1141 23.706 17.1141H22.1542C20.9524 17.1141 20.1309 16.7414 19.6897 15.9959C19.2485 15.2505 19.1877 14.3149 19.5071 13.1891L21.9945 4.44916C22.3596 3.18647 22.8616 2.28129 23.5006 1.73361C24.1395 1.18594 24.9839 0.912105 26.0336 0.912105H27.5853C28.7872 0.912105 29.6087 1.28483 30.0498 2.03027C30.491 2.77571 30.5519 3.71132 30.2324 4.83709L27.7451 13.577ZM27.5169 4.40352C27.669 3.84063 27.4636 3.55919 26.9007 3.55919H25.7597C25.5011 3.55919 25.3033 3.63526 25.1664 3.78739C25.0447 3.92431 24.9382 4.1449 24.847 4.44916L22.2227 13.6227C22.0706 14.1856 22.2759 14.467 22.8388 14.467H23.9798C24.2384 14.467 24.4286 14.3986 24.5503 14.2616C24.6872 14.1095 24.8013 13.8813 24.8926 13.577L27.5169 4.40352ZM44.7873 1.0262L40.2233 17H37.5078L38.877 12.2079L40.2462 7.94058H40.1321L36.2071 14.3529H34.9292L34.5184 7.94058H34.4043L33.3546 12.2079L31.9854 17H29.2699L33.8338 1.0262H36.3896L36.9145 9.1272L41.8207 1.0262H44.7873ZM54.2862 8.7849L54.5144 17H51.6619L51.6391 10.3366H50.7719L48.8779 17H46.0254L50.5894 1.0262H53.4418L51.5478 7.68956H52.0726L55.952 1.0262H58.8729L54.2862 8.7849ZM66.8425 1.0262L64.1498 17H61.3202L61.8906 13.9878H59.6087L58.4905 17H55.5696L61.9135 1.0262H66.8425ZM62.3927 11.3407L63.8531 3.65047H63.3967L60.5671 11.3407H62.3927ZM68.8228 17.1141C67.6667 17.1141 66.8756 16.7414 66.4496 15.9959C66.0084 15.2505 65.9476 14.3149 66.267 13.1891L67.1342 10.1541H69.8041L68.8 13.6227C68.6479 14.1856 68.8609 14.467 69.439 14.467H69.8269C70.0855 14.467 70.2757 14.3986 70.3974 14.2616C70.5191 14.1247 70.6256 13.8965 70.7169 13.577L74.2996 1.0262H77.152L73.5693 13.577C73.2194 14.8397 72.725 15.7449 72.0861 16.2926C71.4471 16.8403 70.6028 17.1141 69.5531 17.1141H68.8228ZM85.4727 1.0262L82.78 17H79.9503L80.5208 13.9878H78.2388L77.1207 17H74.1997L80.5436 1.0262H85.4727ZM81.0228 11.3407L82.4833 3.65047H82.0269L79.1973 11.3407H81.0228ZM84.6005 17L89.1645 1.0262H92.0169L88.206 14.3529H91.7431L90.9901 17H84.6005ZM106.487 1.0262L103.795 17H100.965L101.535 13.9878H99.2535L98.1353 17H95.2144L101.558 1.0262H106.487ZM102.037 11.3407L103.498 3.65047H103.042L100.212 11.3407H102.037ZM114.267 0.912105C115.468 0.912105 116.29 1.28483 116.731 2.03027C117.172 2.77571 117.233 3.71132 116.914 4.83709L116.366 6.77677H113.628L114.335 4.40352C114.487 3.84063 114.282 3.55919 113.719 3.55919H112.738C112.479 3.55919 112.281 3.63526 112.144 3.78739C112.023 3.92431 111.916 4.1449 111.825 4.44916L109.201 13.6227C109.048 14.1856 109.254 14.467 109.817 14.467H110.798C111.376 14.467 111.749 14.1704 111.916 13.577L112.555 11.3635H111.231L111.962 8.7849H115.955L113.605 17H111.779L111.802 15.4711C111.057 16.5664 110.182 17.1141 109.178 17.1141H109.132C107.93 17.1141 107.109 16.7414 106.668 15.9959C106.226 15.2505 106.166 14.3149 106.485 13.1891L108.972 4.44916C109.337 3.18647 109.839 2.28129 110.478 1.73361C111.117 1.18594 111.962 0.912105 113.011 0.912105H114.267ZM124.874 0.912105C126.076 0.912105 126.897 1.28483 127.339 2.03027C127.78 2.77571 127.841 3.71132 127.521 4.83709L126.974 6.77677H124.235L124.943 4.40352C125.095 3.84063 124.889 3.55919 124.326 3.55919H123.345C123.087 3.55919 122.889 3.63526 122.752 3.78739C122.63 3.92431 122.524 4.1449 122.432 4.44916L119.808 13.6227C119.656 14.1856 119.861 14.467 120.424 14.467H121.406C121.984 14.467 122.356 14.1704 122.524 13.577L123.163 11.3635H121.839L122.569 8.7849H126.563L124.212 17H122.387L122.41 15.4711C121.664 16.5664 120.789 17.1141 119.785 17.1141H119.74C118.538 17.1141 117.716 16.7414 117.275 15.9959C116.834 15.2505 116.773 14.3149 117.093 13.1891L119.58 4.44916C119.945 3.18647 120.447 2.28129 121.086 1.73361C121.725 1.18594 122.569 0.912105 123.619 0.912105H124.874ZM137.307 1.0262L134.615 17H131.785L132.355 13.9878H130.073L128.955 17H126.034L132.378 1.0262H137.307ZM132.857 11.3407L134.318 3.65047H133.862L131.032 11.3407H132.857ZM136.435 17L140.999 1.0262H145.129C146.316 1.0262 147.13 1.40653 147.571 2.16719C148.028 2.91263 148.096 3.84063 147.777 4.95119L147.138 7.16471C146.636 8.88379 145.799 9.97153 144.627 10.4279L144.764 17H141.98L141.935 10.7018H141.09L139.288 17H136.435ZM141.821 8.14595H143.35C143.608 8.14595 143.798 8.07749 143.92 7.94058C144.057 7.78844 144.171 7.56025 144.262 7.25598L145.084 4.42634C145.236 3.86345 145.031 3.58201 144.468 3.58201H143.121L141.821 8.14595ZM153.152 1.0262L152.102 7.68956L151.349 11.6374H151.44L155.434 3.12562H157.214L156.575 11.6374H156.666L158.24 7.507L160.91 1.0262H163.831L156.917 17H154.11L154.658 9.4695H154.566L151.166 17H148.154L150.368 1.0262H153.152ZM171.359 1.0262L168.666 17H165.836L166.407 13.9878H164.125L163.007 17H160.086L166.43 1.0262H171.359ZM166.909 11.3407L168.369 3.65047H167.913L165.083 11.3407H166.909ZM170.486 17L175.05 1.0262H177.903L174.092 14.3529H177.629L176.876 17H170.486ZM98.9229 35.577C98.5578 36.8397 98.0558 37.7449 97.4168 38.2926C96.7779 38.8403 95.9335 39.1141 94.8838 39.1141H93.3321C92.1303 39.1141 91.3088 38.7414 90.8676 37.9959C90.4264 37.2505 90.3655 36.3149 90.685 35.1891L93.1724 26.4492C93.5375 25.1865 94.0395 24.2813 94.6785 23.7336C95.3174 23.1859 96.1617 22.9121 97.2115 22.9121H98.7632C99.965 22.9121 100.787 23.2848 101.228 24.0303C101.669 24.7757 101.73 25.7113 101.41 26.8371L98.9229 35.577ZM98.6947 26.4035C98.8469 25.8406 98.6415 25.5592 98.0786 25.5592H96.9376C96.679 25.5592 96.4812 25.6353 96.3443 25.7874C96.2226 25.9243 96.1161 26.1449 96.0248 26.4492L93.4006 35.6227C93.2484 36.1856 93.4538 36.467 94.0167 36.467H95.1577C95.4163 36.467 95.6065 36.3986 95.7282 36.2616C95.8651 36.1095 95.9792 35.8813 96.0705 35.577L98.6947 26.4035ZM100.334 39L104.898 23.0262H109.028C110.215 23.0262 111.028 23.4065 111.47 24.1672C111.926 24.9126 111.995 25.8406 111.675 26.9512L111.036 29.1647C110.534 30.8838 109.697 31.9715 108.526 32.4279L108.663 39H105.879L105.833 32.7018H104.989L103.186 39H100.334ZM105.719 30.146H107.248C107.507 30.146 107.697 30.0775 107.819 29.9406C107.955 29.7884 108.07 29.5602 108.161 29.256L108.982 26.4263C109.134 25.8635 108.929 25.582 108.366 25.582H107.02L105.719 30.146ZM118.36 23.0262H120.985L121.441 32.0856H121.555L122.605 27.8183L123.974 23.0262H126.69L122.126 39H119.501L119.045 29.9406H118.931L117.881 34.2079L116.512 39H113.796L118.36 23.0262ZM132.174 23.0262L127.61 39H124.758L129.322 23.0262H132.174ZM133.757 39.1141C132.555 39.1141 131.734 38.7414 131.292 37.9959C130.851 37.2505 130.79 36.3149 131.11 35.1891L133.597 26.4492C133.962 25.1865 134.464 24.2813 135.103 23.7336C135.742 23.1859 136.587 22.9121 137.636 22.9121H138.891C140.093 22.9121 140.915 23.2848 141.356 24.0303C141.797 24.7757 141.858 25.7113 141.538 26.8371L140.74 29.6439H137.956L138.891 26.4035C139.043 25.8406 138.838 25.5592 138.275 25.5592H137.362C137.104 25.5592 136.906 25.6353 136.769 25.7874C136.647 25.9243 136.541 26.1449 136.45 26.4492L133.825 35.6227C133.673 36.1856 133.879 36.467 134.441 36.467H135.354C135.613 36.467 135.803 36.3986 135.925 36.2616C136.062 36.1095 136.176 35.8813 136.267 35.577L137.111 32.6105H139.918L139.074 35.577C138.709 36.8397 138.207 37.7449 137.568 38.2926C136.929 38.8403 136.084 39.1141 135.035 39.1141H133.757ZM153.159 23.0262L148.595 39H145.742L147.636 32.3366H145.126L143.232 39H140.38L144.944 23.0262H147.796L145.902 29.6896H148.412L150.306 23.0262H153.159ZM160.318 35.577C159.953 36.8397 159.451 37.7449 158.812 38.2926C158.173 38.8403 157.328 39.1141 156.279 39.1141H154.727C153.525 39.1141 152.704 38.7414 152.262 37.9959C151.821 37.2505 151.76 36.3149 152.08 35.1891L154.567 26.4492C154.932 25.1865 155.434 24.2813 156.073 23.7336C156.712 23.1859 157.557 22.9121 158.606 22.9121H160.158C161.36 22.9121 162.181 23.2848 162.623 24.0303C163.064 24.7757 163.125 25.7113 162.805 26.8371L160.318 35.577ZM160.09 26.4035C160.242 25.8406 160.036 25.5592 159.473 25.5592H158.332C158.074 25.5592 157.876 25.6353 157.739 25.7874C157.617 25.9243 157.511 26.1449 157.42 26.4492L154.795 35.6227C154.643 36.1856 154.849 36.467 155.412 36.467H156.553C156.811 36.467 157.001 36.3986 157.123 36.2616C157.26 36.1095 157.374 35.8813 157.465 35.577L160.09 26.4035ZM161.728 39L166.292 23.0262H169.145L165.334 36.3529H168.871L168.118 39H161.728ZM180.429 23.0262L177.736 39H174.906L175.477 35.9878H173.195L172.076 39H169.156L175.499 23.0262H180.429ZM175.979 33.3407L177.439 25.6505H176.983L174.153 33.3407H175.979ZM182.731 39.1141C181.529 39.1141 180.708 38.7414 180.266 37.9959C179.825 37.2505 179.764 36.3149 180.084 35.1891L180.586 33.432H183.416L182.777 35.6227C182.624 36.1856 182.83 36.467 183.393 36.467H184.26C184.519 36.467 184.709 36.3986 184.83 36.2616C184.967 36.1095 185.081 35.8813 185.173 35.577L185.355 34.8925C185.37 34.8468 185.393 34.7631 185.424 34.6414C185.454 34.5197 185.469 34.4361 185.469 34.3904C185.485 34.3448 185.5 34.2687 185.515 34.1622C185.545 34.0557 185.553 33.9797 185.538 33.934C185.538 33.8884 185.53 33.8199 185.515 33.7286C185.515 33.6374 185.5 33.5613 185.469 33.5005C185.439 33.4396 185.401 33.3711 185.355 33.2951C185.31 33.2038 185.256 33.1201 185.196 33.0441L183.096 30.5111C182.29 29.5526 182.046 28.4801 182.366 27.2935L182.594 26.4492C182.929 25.2169 183.423 24.3193 184.077 23.7564C184.732 23.1935 185.583 22.9121 186.633 22.9121H187.637C188.839 22.9121 189.661 23.2848 190.102 24.0303C190.543 24.7757 190.604 25.7113 190.284 26.8371L189.782 28.617H186.953L187.614 26.4035C187.767 25.8406 187.561 25.5592 186.998 25.5592H186.359C186.101 25.5592 185.903 25.6353 185.766 25.7874C185.644 25.9243 185.538 26.1449 185.447 26.4492L185.241 27.1338C185.089 27.5141 185.021 27.8488 185.036 28.1378C185.051 28.4269 185.188 28.7235 185.447 29.0278L187.5 31.5836C188.352 32.6485 188.588 33.7743 188.208 34.9609L188.025 35.577C187.66 36.8397 187.158 37.7449 186.519 38.2926C185.88 38.8403 185.036 39.1141 183.986 39.1141H182.731ZM201.067 23.0262C202.253 23.0262 203.067 23.4065 203.508 24.1672C203.965 24.9126 204.033 25.8406 203.714 26.9512L203.052 29.256C202.687 30.5187 202.185 31.4239 201.546 31.9715C200.907 32.5192 200.063 32.793 199.013 32.793H196.913L195.134 39H192.281L196.845 23.0262H201.067ZM200.998 26.5176C201.15 25.9547 200.945 25.6733 200.382 25.6733H198.944L197.666 30.146H199.287C199.545 30.146 199.735 30.0775 199.857 29.9406C199.994 29.7884 200.108 29.5602 200.199 29.256L200.998 26.5176ZM211.439 35.577C211.074 36.8397 210.572 37.7449 209.933 38.2926C209.294 38.8403 208.45 39.1141 207.4 39.1141H205.848C204.647 39.1141 203.825 38.7414 203.384 37.9959C202.943 37.2505 202.882 36.3149 203.201 35.1891L205.689 26.4492C206.054 25.1865 206.556 24.2813 207.195 23.7336C207.834 23.1859 208.678 22.9121 209.728 22.9121H211.28C212.481 22.9121 213.303 23.2848 213.744 24.0303C214.185 24.7757 214.246 25.7113 213.927 26.8371L211.439 35.577ZM211.211 26.4035C211.363 25.8406 211.158 25.5592 210.595 25.5592H209.454C209.195 25.5592 208.998 25.6353 208.861 25.7874C208.739 25.9243 208.632 26.1449 208.541 26.4492L205.917 35.6227C205.765 36.1856 205.97 36.467 206.533 36.467H207.674C207.933 36.467 208.123 36.3986 208.244 36.2616C208.381 36.1095 208.496 35.8813 208.587 35.577L211.211 26.4035ZM222.069 35.577C221.704 36.8397 221.202 37.7449 220.563 38.2926C219.924 38.8403 219.08 39.1141 218.03 39.1141H216.478C215.276 39.1141 214.455 38.7414 214.014 37.9959C213.573 37.2505 213.512 36.3149 213.831 35.1891L216.319 26.4492C216.684 25.1865 217.186 24.2813 217.825 23.7336C218.464 23.1859 219.308 22.9121 220.358 22.9121H221.909C223.111 22.9121 223.933 23.2848 224.374 24.0303C224.815 24.7757 224.876 25.7113 224.556 26.8371L222.069 35.577ZM221.841 26.4035C221.993 25.8406 221.788 25.5592 221.225 25.5592H220.084C219.825 25.5592 219.627 25.6353 219.49 25.7874C219.369 25.9243 219.262 26.1449 219.171 26.4492L216.547 35.6227C216.395 36.1856 216.6 36.467 217.163 36.467H218.304C218.562 36.467 218.753 36.3986 218.874 36.2616C219.011 36.1095 219.125 35.8813 219.217 35.577L221.841 26.4035ZM223.48 39L228.044 23.0262H232.174C233.361 23.0262 234.175 23.4065 234.616 24.1672C235.072 24.9126 235.141 25.8406 234.821 26.9512L234.182 29.1647C233.68 30.8838 232.844 31.9715 231.672 32.4279L231.809 39H229.025L228.979 32.7018H228.135L226.332 39H223.48ZM228.865 30.146H230.394C230.653 30.146 230.843 30.0775 230.965 29.9406C231.102 29.7884 231.216 29.5602 231.307 29.256L232.129 26.4263C232.281 25.8635 232.075 25.582 231.512 25.582H230.166L228.865 30.146ZM244.23 23.0262L241.537 39H238.708L239.278 35.9878H236.996L235.878 39H232.957L239.301 23.0262H244.23ZM239.78 33.3407L241.241 25.6505H240.784L237.955 33.3407H239.78ZM248.036 23.0262H250.66L251.117 32.0856H251.231L252.28 27.8183L253.65 23.0262H256.365L251.801 39H249.177L248.721 29.9406H248.606L247.557 34.2079L246.188 39H243.472L248.036 23.0262Z" fill="black"/>
</svg>
