<svg width="333" height="79" viewBox="0 0 333 79" fill="none" xmlns="http://www.w3.org/2000/svg">
<mask id="path-1-outside-1_562_1921" maskUnits="userSpaceOnUse" x="2.55273" y="15.3223" width="329" height="60" fill="black">
<rect fill="white" x="2.55273" y="15.3223" width="329" height="60"/>
<path d="M55.7007 22.6975L42.6651 68.3223H34.9089L38.8196 54.6348L42.7303 42.4465H42.4044L31.1937 60.7616H27.5437L26.3705 42.4465H26.0446L23.0464 54.6348L19.1357 68.3223H11.3795L24.4152 22.6975H31.7151L33.2142 45.8358L47.2276 22.6975H55.7007ZM76.4671 58.5455C75.4243 62.1521 73.9904 64.7375 72.1654 66.3017C70.3404 67.866 67.9288 68.6482 64.9306 68.6482H60.4985C57.0658 68.6482 54.7193 67.5836 53.4592 65.4544C52.1991 63.3253 52.0253 60.653 52.9378 57.4375L60.0422 32.4742C61.0851 28.8677 62.519 26.2823 64.344 24.718C66.169 23.1537 68.5806 22.3716 71.5788 22.3716H76.0109C79.4436 22.3716 81.79 23.4362 83.0502 25.5653C84.3103 27.6945 84.4841 30.3668 83.5716 33.5822L76.4671 58.5455ZM75.8154 32.3439C76.2499 30.7361 75.6633 29.9323 74.0556 29.9323H70.7966C70.058 29.9323 69.4931 30.1495 69.102 30.584C68.7544 30.9751 68.4502 31.6052 68.1895 32.4742L60.694 58.6759C60.2595 60.2836 60.8461 61.0875 62.4538 61.0875H65.7127C66.4514 61.0875 66.9946 60.8919 67.3422 60.5009C67.7333 60.0664 68.0592 59.4146 68.3199 58.5455L75.8154 32.3439ZM110.965 30.2582H103.47L92.585 68.3223H84.4377L95.3225 30.2582H87.827L89.9779 22.6975H113.116L110.965 30.2582ZM129.997 58.5455C128.954 62.1521 127.521 64.7375 125.696 66.3017C123.871 67.866 121.459 68.6482 118.461 68.6482H114.029C110.596 68.6482 108.25 67.5836 106.989 65.4544C105.729 63.3253 105.555 60.653 106.468 57.4375L113.572 32.4742C114.615 28.8677 116.049 26.2823 117.874 24.718C119.699 23.1537 122.111 22.3716 125.109 22.3716H129.541C132.974 22.3716 135.32 23.4362 136.58 25.5653C137.84 27.6945 138.014 30.3668 137.102 33.5822L129.997 58.5455ZM129.346 32.3439C129.78 30.7361 129.193 29.9323 127.586 29.9323H124.327C123.588 29.9323 123.023 30.1495 122.632 30.584C122.285 30.9751 121.98 31.6052 121.72 32.4742L114.224 58.6759C113.79 60.2836 114.376 61.0875 115.984 61.0875H119.243C119.982 61.0875 120.525 60.8919 120.872 60.5009C121.263 60.0664 121.589 59.4146 121.85 58.5455L129.346 32.3439ZM134.027 68.3223L147.062 22.6975H158.86C162.249 22.6975 164.574 23.7838 165.834 25.9564C167.137 28.0856 167.333 30.7361 166.42 33.9081L164.595 40.2304C163.161 45.1405 160.772 48.2474 157.426 49.5509L157.817 68.3223H149.865L149.735 50.3331H147.323L142.174 68.3223H134.027ZM149.409 43.0331H153.776C154.514 43.0331 155.058 42.8376 155.405 42.4465C155.796 42.012 156.122 41.3602 156.383 40.4911L158.729 32.409C159.164 30.8013 158.577 29.9974 156.969 29.9974H153.124L149.409 43.0331ZM172.778 68.6482C169.345 68.6482 166.999 67.5836 165.739 65.4544C164.479 63.3253 164.305 60.653 165.218 57.4375L172.322 32.4742C173.365 28.8677 174.799 26.2823 176.624 24.718C178.449 23.1537 180.86 22.3716 183.859 22.3716H187.443C190.876 22.3716 193.222 23.4362 194.483 25.5653C195.743 27.6945 195.916 30.3668 195.004 33.5822L192.723 41.5992H184.771L187.443 32.3439C187.878 30.7361 187.291 29.9323 185.684 29.9323H183.076C182.338 29.9323 181.773 30.1495 181.382 30.584C181.034 30.9751 180.73 31.6052 180.469 32.4742L172.974 58.6759C172.539 60.2836 173.126 61.0875 174.734 61.0875H177.341C178.079 61.0875 178.623 60.8919 178.97 60.5009C179.361 60.0664 179.687 59.4146 179.948 58.5455L182.359 50.0724H190.376L187.965 58.5455C186.922 62.1521 185.488 64.7375 183.663 66.3017C181.838 67.866 179.426 68.6482 176.428 68.6482H172.778ZM210.466 52.5491L205.968 68.3223H197.821L202.188 52.875L201.797 22.6975H209.879L209.423 32.8653L208.575 43.6197H208.901L219.265 22.6975H227.998L210.466 52.5491ZM228.282 68.6482C224.849 68.6482 222.502 67.5836 221.242 65.4544C219.982 63.3253 219.808 60.653 220.721 57.4375L227.825 32.4742C228.868 28.8677 230.302 26.2823 232.127 24.718C233.952 23.1537 236.364 22.3716 239.362 22.3716H242.947C246.379 22.3716 248.726 23.4362 249.986 25.5653C251.246 27.6945 251.42 30.3668 250.507 33.5822L248.226 41.5992H240.274L242.947 32.3439C243.381 30.7361 242.795 29.9323 241.187 29.9323H238.58C237.841 29.9323 237.276 30.1495 236.885 30.584C236.537 30.9751 236.233 31.6052 235.973 32.4742L228.477 58.6759C228.043 60.2836 228.629 61.0875 230.237 61.0875H232.844C233.583 61.0875 234.126 60.8919 234.474 60.5009C234.865 60.0664 235.19 59.4146 235.451 58.5455L237.863 50.0724H245.88L243.468 58.5455C242.425 62.1521 240.991 64.7375 239.166 66.3017C237.341 67.866 234.93 68.6482 231.932 68.6482H228.282ZM247.198 68.3223L260.233 22.6975H268.38L257.496 60.7616H267.598L265.447 68.3223H247.198ZM289.268 30.2582L286.009 41.7295H294.939L292.723 49.2902H283.793L280.534 60.7616H290.115L287.965 68.3223H270.366L283.402 22.6975H301L298.849 30.2582H289.268ZM303.239 68.6482C299.806 68.6482 297.46 67.5836 296.2 65.4544C294.94 63.3253 294.766 60.653 295.678 57.4375L297.112 52.4188H305.194L303.369 58.6759C302.935 60.2836 303.522 61.0875 305.129 61.0875H307.606C308.345 61.0875 308.888 60.8919 309.236 60.5009C309.627 60.0664 309.952 59.4146 310.213 58.5455L310.735 56.5902C310.778 56.4598 310.843 56.2208 310.93 55.8732C311.017 55.5256 311.061 55.2866 311.061 55.1563C311.104 55.0259 311.147 54.8086 311.191 54.5045C311.278 54.2003 311.299 53.983 311.256 53.8527C311.256 53.7223 311.234 53.5268 311.191 53.2661C311.191 53.0054 311.147 52.7881 311.061 52.6143C310.974 52.4405 310.865 52.245 310.735 52.0277C310.604 51.767 310.452 51.528 310.278 51.3107L304.282 44.076C301.979 41.3385 301.284 38.2751 302.196 34.8858L302.848 32.4742C303.804 28.9546 305.216 26.3909 307.085 24.7832C308.953 23.1755 311.386 22.3716 314.385 22.3716H317.252C320.685 22.3716 323.032 23.4362 324.292 25.5653C325.552 27.6945 325.726 30.3668 324.813 33.5822L323.379 38.6662H315.297L317.187 32.3439C317.622 30.7361 317.035 29.9323 315.427 29.9323H313.602C312.864 29.9323 312.299 30.1495 311.908 30.584C311.56 30.9751 311.256 31.6052 310.995 32.4742L310.409 34.4296C309.974 35.5159 309.779 36.4718 309.822 37.2974C309.866 38.123 310.257 38.9703 310.995 39.8394L316.861 47.1393C319.295 50.181 319.968 53.3964 318.882 56.7857L318.36 58.5455C317.318 62.1521 315.884 64.7375 314.059 66.3017C312.234 67.866 309.822 68.6482 306.824 68.6482H303.239Z"/>
</mask>
<path d="M55.7007 22.6975L42.6651 68.3223H34.9089L38.8196 54.6348L42.7303 42.4465H42.4044L31.1937 60.7616H27.5437L26.3705 42.4465H26.0446L23.0464 54.6348L19.1357 68.3223H11.3795L24.4152 22.6975H31.7151L33.2142 45.8358L47.2276 22.6975H55.7007ZM76.4671 58.5455C75.4243 62.1521 73.9904 64.7375 72.1654 66.3017C70.3404 67.866 67.9288 68.6482 64.9306 68.6482H60.4985C57.0658 68.6482 54.7193 67.5836 53.4592 65.4544C52.1991 63.3253 52.0253 60.653 52.9378 57.4375L60.0422 32.4742C61.0851 28.8677 62.519 26.2823 64.344 24.718C66.169 23.1537 68.5806 22.3716 71.5788 22.3716H76.0109C79.4436 22.3716 81.79 23.4362 83.0502 25.5653C84.3103 27.6945 84.4841 30.3668 83.5716 33.5822L76.4671 58.5455ZM75.8154 32.3439C76.2499 30.7361 75.6633 29.9323 74.0556 29.9323H70.7966C70.058 29.9323 69.4931 30.1495 69.102 30.584C68.7544 30.9751 68.4502 31.6052 68.1895 32.4742L60.694 58.6759C60.2595 60.2836 60.8461 61.0875 62.4538 61.0875H65.7127C66.4514 61.0875 66.9946 60.8919 67.3422 60.5009C67.7333 60.0664 68.0592 59.4146 68.3199 58.5455L75.8154 32.3439ZM110.965 30.2582H103.47L92.585 68.3223H84.4377L95.3225 30.2582H87.827L89.9779 22.6975H113.116L110.965 30.2582ZM129.997 58.5455C128.954 62.1521 127.521 64.7375 125.696 66.3017C123.871 67.866 121.459 68.6482 118.461 68.6482H114.029C110.596 68.6482 108.25 67.5836 106.989 65.4544C105.729 63.3253 105.555 60.653 106.468 57.4375L113.572 32.4742C114.615 28.8677 116.049 26.2823 117.874 24.718C119.699 23.1537 122.111 22.3716 125.109 22.3716H129.541C132.974 22.3716 135.32 23.4362 136.58 25.5653C137.84 27.6945 138.014 30.3668 137.102 33.5822L129.997 58.5455ZM129.346 32.3439C129.78 30.7361 129.193 29.9323 127.586 29.9323H124.327C123.588 29.9323 123.023 30.1495 122.632 30.584C122.285 30.9751 121.98 31.6052 121.72 32.4742L114.224 58.6759C113.79 60.2836 114.376 61.0875 115.984 61.0875H119.243C119.982 61.0875 120.525 60.8919 120.872 60.5009C121.263 60.0664 121.589 59.4146 121.85 58.5455L129.346 32.3439ZM134.027 68.3223L147.062 22.6975H158.86C162.249 22.6975 164.574 23.7838 165.834 25.9564C167.137 28.0856 167.333 30.7361 166.42 33.9081L164.595 40.2304C163.161 45.1405 160.772 48.2474 157.426 49.5509L157.817 68.3223H149.865L149.735 50.3331H147.323L142.174 68.3223H134.027ZM149.409 43.0331H153.776C154.514 43.0331 155.058 42.8376 155.405 42.4465C155.796 42.012 156.122 41.3602 156.383 40.4911L158.729 32.409C159.164 30.8013 158.577 29.9974 156.969 29.9974H153.124L149.409 43.0331ZM172.778 68.6482C169.345 68.6482 166.999 67.5836 165.739 65.4544C164.479 63.3253 164.305 60.653 165.218 57.4375L172.322 32.4742C173.365 28.8677 174.799 26.2823 176.624 24.718C178.449 23.1537 180.86 22.3716 183.859 22.3716H187.443C190.876 22.3716 193.222 23.4362 194.483 25.5653C195.743 27.6945 195.916 30.3668 195.004 33.5822L192.723 41.5992H184.771L187.443 32.3439C187.878 30.7361 187.291 29.9323 185.684 29.9323H183.076C182.338 29.9323 181.773 30.1495 181.382 30.584C181.034 30.9751 180.73 31.6052 180.469 32.4742L172.974 58.6759C172.539 60.2836 173.126 61.0875 174.734 61.0875H177.341C178.079 61.0875 178.623 60.8919 178.97 60.5009C179.361 60.0664 179.687 59.4146 179.948 58.5455L182.359 50.0724H190.376L187.965 58.5455C186.922 62.1521 185.488 64.7375 183.663 66.3017C181.838 67.866 179.426 68.6482 176.428 68.6482H172.778ZM210.466 52.5491L205.968 68.3223H197.821L202.188 52.875L201.797 22.6975H209.879L209.423 32.8653L208.575 43.6197H208.901L219.265 22.6975H227.998L210.466 52.5491ZM228.282 68.6482C224.849 68.6482 222.502 67.5836 221.242 65.4544C219.982 63.3253 219.808 60.653 220.721 57.4375L227.825 32.4742C228.868 28.8677 230.302 26.2823 232.127 24.718C233.952 23.1537 236.364 22.3716 239.362 22.3716H242.947C246.379 22.3716 248.726 23.4362 249.986 25.5653C251.246 27.6945 251.42 30.3668 250.507 33.5822L248.226 41.5992H240.274L242.947 32.3439C243.381 30.7361 242.795 29.9323 241.187 29.9323H238.58C237.841 29.9323 237.276 30.1495 236.885 30.584C236.537 30.9751 236.233 31.6052 235.973 32.4742L228.477 58.6759C228.043 60.2836 228.629 61.0875 230.237 61.0875H232.844C233.583 61.0875 234.126 60.8919 234.474 60.5009C234.865 60.0664 235.19 59.4146 235.451 58.5455L237.863 50.0724H245.88L243.468 58.5455C242.425 62.1521 240.991 64.7375 239.166 66.3017C237.341 67.866 234.93 68.6482 231.932 68.6482H228.282ZM247.198 68.3223L260.233 22.6975H268.38L257.496 60.7616H267.598L265.447 68.3223H247.198ZM289.268 30.2582L286.009 41.7295H294.939L292.723 49.2902H283.793L280.534 60.7616H290.115L287.965 68.3223H270.366L283.402 22.6975H301L298.849 30.2582H289.268ZM303.239 68.6482C299.806 68.6482 297.46 67.5836 296.2 65.4544C294.94 63.3253 294.766 60.653 295.678 57.4375L297.112 52.4188H305.194L303.369 58.6759C302.935 60.2836 303.522 61.0875 305.129 61.0875H307.606C308.345 61.0875 308.888 60.8919 309.236 60.5009C309.627 60.0664 309.952 59.4146 310.213 58.5455L310.735 56.5902C310.778 56.4598 310.843 56.2208 310.93 55.8732C311.017 55.5256 311.061 55.2866 311.061 55.1563C311.104 55.0259 311.147 54.8086 311.191 54.5045C311.278 54.2003 311.299 53.983 311.256 53.8527C311.256 53.7223 311.234 53.5268 311.191 53.2661C311.191 53.0054 311.147 52.7881 311.061 52.6143C310.974 52.4405 310.865 52.245 310.735 52.0277C310.604 51.767 310.452 51.528 310.278 51.3107L304.282 44.076C301.979 41.3385 301.284 38.2751 302.196 34.8858L302.848 32.4742C303.804 28.9546 305.216 26.3909 307.085 24.7832C308.953 23.1755 311.386 22.3716 314.385 22.3716H317.252C320.685 22.3716 323.032 23.4362 324.292 25.5653C325.552 27.6945 325.726 30.3668 324.813 33.5822L323.379 38.6662H315.297L317.187 32.3439C317.622 30.7361 317.035 29.9323 315.427 29.9323H313.602C312.864 29.9323 312.299 30.1495 311.908 30.584C311.56 30.9751 311.256 31.6052 310.995 32.4742L310.409 34.4296C309.974 35.5159 309.779 36.4718 309.822 37.2974C309.866 38.123 310.257 38.9703 310.995 39.8394L316.861 47.1393C319.295 50.181 319.968 53.3964 318.882 56.7857L318.36 58.5455C317.318 62.1521 315.884 64.7375 314.059 66.3017C312.234 67.866 309.822 68.6482 306.824 68.6482H303.239Z" fill="#008A0E"/>
<path d="M55.7007 22.6975L61.57 24.3744L63.7932 16.5933H55.7007V22.6975ZM42.6651 68.3223V74.4264H47.2695L48.5344 69.9992L42.6651 68.3223ZM34.9089 68.3223L29.0396 66.6453L26.8164 74.4264H34.9089V68.3223ZM38.8196 54.6348L33.0073 52.7699L32.9773 52.8634L32.9503 52.9579L38.8196 54.6348ZM42.7303 42.4465L48.5426 44.3114L51.0995 36.3423H42.7303V42.4465ZM42.4044 42.4465V36.3423H38.9838L37.1981 39.2597L42.4044 42.4465ZM31.1937 60.7616V66.8657H34.6143L36.4 63.9483L31.1937 60.7616ZM27.5437 60.7616L21.4521 61.1518L21.8181 66.8657H27.5437V60.7616ZM26.3705 42.4465L32.4622 42.0563L32.0962 36.3423H26.3705V42.4465ZM26.0446 42.4465V36.3423H21.2601L20.1172 40.9884L26.0446 42.4465ZM23.0464 54.6348L28.9157 56.3118L28.9468 56.2029L28.9739 56.0929L23.0464 54.6348ZM19.1357 68.3223V74.4264H23.7401L25.005 69.9992L19.1357 68.3223ZM11.3795 68.3223L5.51023 66.6453L3.28706 74.4264H11.3795V68.3223ZM24.4152 22.6975V16.5933H19.8108L18.5459 21.0205L24.4152 22.6975ZM31.7151 22.6975L37.8065 22.3028L37.4366 16.5933H31.7151V22.6975ZM33.2142 45.8358L27.1229 46.2304L28.3781 65.6044L38.4355 48.9979L33.2142 45.8358ZM47.2276 22.6975V16.5933H43.7881L42.0063 19.5353L47.2276 22.6975ZM49.8315 21.0205L36.7958 66.6453L48.5344 69.9992L61.57 24.3744L49.8315 21.0205ZM42.6651 62.2181H34.9089V74.4264H42.6651V62.2181ZM40.7782 69.9992L44.6889 56.3118L32.9503 52.9579L29.0396 66.6453L40.7782 69.9992ZM44.6319 56.4997L48.5426 44.3114L36.918 40.5816L33.0073 52.7699L44.6319 56.4997ZM42.7303 36.3423H42.4044V48.5507H42.7303V36.3423ZM37.1981 39.2597L25.9874 57.5748L36.4 63.9483L47.6107 45.6333L37.1981 39.2597ZM31.1937 54.6574H27.5437V66.8657H31.1937V54.6574ZM33.6354 60.3714L32.4622 42.0563L20.2789 42.8367L21.4521 61.1518L33.6354 60.3714ZM26.3705 36.3423H26.0446V48.5507H26.3705V36.3423ZM20.1172 40.9884L17.119 53.1767L28.9739 56.0929L31.9721 43.9046L20.1172 40.9884ZM17.1771 52.9579L13.2664 66.6453L25.005 69.9992L28.9157 56.3118L17.1771 52.9579ZM19.1357 62.2181H11.3795V74.4264H19.1357V62.2181ZM17.2488 69.9992L30.2845 24.3744L18.5459 21.0205L5.51023 66.6453L17.2488 69.9992ZM24.4152 28.8016H31.7151V16.5933H24.4152V28.8016ZM25.6238 23.0921L27.1229 46.2304L39.3056 45.4411L37.8065 22.3028L25.6238 23.0921ZM38.4355 48.9979L52.4488 25.8596L42.0063 19.5353L27.993 42.6736L38.4355 48.9979ZM47.2276 28.8016H55.7007V16.5933H47.2276V28.8016ZM76.4671 58.5455L82.3311 60.2411L82.3347 60.2288L82.3382 60.2164L76.4671 58.5455ZM72.1654 66.3017L76.1379 70.9364L72.1654 66.3017ZM53.4592 65.4544L58.7123 62.3454L53.4592 65.4544ZM52.9378 57.4375L47.0668 55.7666L47.0655 55.771L52.9378 57.4375ZM60.0422 32.4742L54.1783 30.7786L54.1747 30.791L54.1712 30.8034L60.0422 32.4742ZM64.344 24.718L60.3715 20.0834L64.344 24.718ZM83.0502 25.5653L77.7971 28.6743V28.6743L83.0502 25.5653ZM83.5716 33.5822L89.4426 35.2531L89.4439 35.2487L83.5716 33.5822ZM75.8154 32.3439L81.6841 34.0227L81.6964 33.9797L81.7081 33.9365L75.8154 32.3439ZM69.102 30.584L64.5648 26.5006L64.5522 26.5146L64.5397 26.5287L69.102 30.584ZM68.1895 32.4742L62.3428 30.7202L62.3315 30.7577L62.3208 30.7954L68.1895 32.4742ZM60.694 58.6759L54.8253 56.997L54.813 57.04L54.8013 57.0833L60.694 58.6759ZM67.3422 60.5009L62.805 56.4174L62.7924 56.4314L62.7799 56.4455L67.3422 60.5009ZM68.3199 58.5455L74.1666 60.2995L74.1778 60.262L74.1886 60.2244L68.3199 58.5455ZM70.6032 56.8499C69.7197 59.9054 68.7388 61.1991 68.1929 61.6671L76.1379 70.9364C79.2419 68.2758 81.1289 64.3987 82.3311 60.2411L70.6032 56.8499ZM68.1929 61.6671C67.7275 62.066 66.8441 62.544 64.9306 62.544V74.7523C69.0135 74.7523 72.9533 73.666 76.1379 70.9364L68.1929 61.6671ZM64.9306 62.544H60.4985V74.7523H64.9306V62.544ZM60.4985 62.544C59.3774 62.544 58.8503 62.3654 58.6862 62.2909C58.6157 62.259 58.6188 62.2499 58.6548 62.2818C58.6926 62.3152 58.7126 62.346 58.7123 62.3454L48.2061 68.5634C50.9691 73.2318 55.8416 74.7523 60.4985 74.7523V62.544ZM58.7123 62.3454C58.5712 62.1071 58.1882 61.2955 58.8101 59.104L47.0655 55.771C45.8625 60.0104 45.827 64.5435 48.2061 68.5634L58.7123 62.3454ZM58.8088 59.1084L65.9133 34.1451L54.1712 30.8034L47.0668 55.7666L58.8088 59.1084ZM65.9062 34.1698C66.7897 31.1143 67.7705 29.8206 68.3165 29.3526L60.3715 20.0834C57.2675 22.7439 55.3805 26.6211 54.1783 30.7786L65.9062 34.1698ZM68.3165 29.3526C68.7819 28.9538 69.6653 28.4757 71.5788 28.4757V16.2674C67.4959 16.2674 63.5561 17.3537 60.3715 20.0834L68.3165 29.3526ZM71.5788 28.4757H76.0109V16.2674H71.5788V28.4757ZM76.0109 28.4757C77.132 28.4757 77.6591 28.6543 77.8232 28.7288C77.8937 28.7608 77.8905 28.7698 77.8546 28.738C77.8168 28.7045 77.7967 28.6738 77.7971 28.6743L88.3033 22.4563C85.5403 17.788 80.6678 16.2674 76.0109 16.2674V28.4757ZM77.7971 28.6743C77.9381 28.9127 78.3212 29.7242 77.6993 31.9158L89.4439 35.2487C90.6469 31.0093 90.6824 26.4763 88.3033 22.4563L77.7971 28.6743ZM77.7006 31.9114L70.5961 56.8747L82.3382 60.2164L89.4426 35.2531L77.7006 31.9114ZM81.7081 33.9365C82.0903 32.5224 82.5746 29.5987 80.6322 26.937C78.6255 24.1871 75.5975 23.8281 74.0556 23.8281V36.0364C73.9914 36.0364 73.5691 36.034 72.9702 35.8147C72.3123 35.5737 71.4526 35.0683 70.7704 34.1334C70.0979 33.2117 69.8961 32.2816 69.8577 31.673C69.8223 31.1102 69.9183 30.7674 69.9226 30.7512L81.7081 33.9365ZM74.0556 23.8281H70.7966V36.0364H74.0556V23.8281ZM70.7966 23.8281C68.8158 23.8281 66.4042 24.4568 64.5648 26.5006L73.6392 34.6675C73.1678 35.1913 72.5933 35.5683 72.0102 35.7925C71.458 36.0049 71.0163 36.0364 70.7966 36.0364V23.8281ZM64.5397 26.5287C63.3173 27.9038 62.698 29.5362 62.3428 30.7202L74.0362 34.2282C74.0996 34.0171 74.1323 33.958 74.1103 34.0037C74.0973 34.0306 74.0609 34.1028 73.9948 34.2064C73.929 34.3094 73.8222 34.4619 73.6643 34.6394L64.5397 26.5287ZM62.3208 30.7954L54.8253 56.997L66.5628 60.3548L74.0583 34.1531L62.3208 30.7954ZM54.8013 57.0833C54.4191 58.4973 53.9348 61.421 55.8772 64.0828C57.8838 66.8327 60.9119 67.1916 62.4538 67.1916V54.9833C62.518 54.9833 62.9403 54.9857 63.5392 55.2051C64.197 55.4461 65.0567 55.9515 65.739 56.8864C66.4115 57.808 66.6133 58.7382 66.6516 59.3468C66.6871 59.9095 66.5911 60.2523 66.5867 60.2685L54.8013 57.0833ZM62.4538 67.1916H65.7127V54.9833H62.4538V67.1916ZM65.7127 67.1916C67.4548 67.1916 69.984 66.7168 71.9045 64.5563L62.7799 56.4455C64.0051 55.0671 65.448 54.9833 65.7127 54.9833V67.1916ZM71.8794 64.5843C73.1149 63.2116 73.7755 61.6032 74.1666 60.2995L62.4731 56.7915C62.4202 56.968 62.3938 57.009 62.4202 56.9563C62.445 56.9067 62.5565 56.6936 62.805 56.4174L71.8794 64.5843ZM74.1886 60.2244L81.6841 34.0227L69.9466 30.665L62.4511 56.8667L74.1886 60.2244ZM110.965 30.2582V36.3623H115.575L116.836 31.9284L110.965 30.2582ZM103.47 30.2582V24.154H98.8665L97.6009 28.5799L103.47 30.2582ZM92.585 68.3223V74.4264H97.1883L98.4539 70.0005L92.585 68.3223ZM84.4377 68.3223L78.5688 66.644L76.3434 74.4264H84.4377V68.3223ZM95.3225 30.2582L101.191 31.9364L103.417 24.154H95.3225V30.2582ZM87.827 30.2582L81.9558 28.5879L79.7441 36.3623H87.827V30.2582ZM89.9779 22.6975V16.5933H85.3681L84.1067 21.0272L89.9779 22.6975ZM113.116 22.6975L118.987 24.3677L121.199 16.5933H113.116V22.6975ZM110.965 24.154H103.47V36.3623H110.965V24.154ZM97.6009 28.5799L86.7161 66.644L98.4539 70.0005L109.339 31.9364L97.6009 28.5799ZM92.585 62.2181H84.4377V74.4264H92.585V62.2181ZM90.3067 70.0005L101.191 31.9364L89.4536 28.5799L78.5688 66.644L90.3067 70.0005ZM95.3225 24.154H87.827V36.3623H95.3225V24.154ZM93.6982 31.9284L95.8491 24.3677L84.1067 21.0272L81.9558 28.5879L93.6982 31.9284ZM89.9779 28.8016H113.116V16.5933H89.9779V28.8016ZM107.245 21.0272L105.094 28.5879L116.836 31.9284L118.987 24.3677L107.245 21.0272ZM129.997 58.5455L135.861 60.2411L135.865 60.2288L135.868 60.2164L129.997 58.5455ZM125.696 66.3017L129.668 70.9364H129.668L125.696 66.3017ZM106.989 65.4544L112.243 62.3454L106.989 65.4544ZM106.468 57.4375L100.597 55.7666L100.596 55.771L106.468 57.4375ZM113.572 32.4742L107.708 30.7786L107.705 30.791L107.701 30.8034L113.572 32.4742ZM117.874 24.718L113.902 20.0834L117.874 24.718ZM136.58 25.5653L131.327 28.6743V28.6743L136.58 25.5653ZM137.102 33.5822L142.973 35.2531L142.974 35.2487L137.102 33.5822ZM129.346 32.3439L135.214 34.0227L135.227 33.9797L135.238 33.9365L129.346 32.3439ZM122.632 30.584L118.095 26.5006L118.082 26.5146L118.07 26.5287L122.632 30.584ZM121.72 32.4742L115.873 30.7202L115.862 30.7577L115.851 30.7954L121.72 32.4742ZM114.224 58.6759L108.355 56.997L108.343 57.04L108.331 57.0833L114.224 58.6759ZM120.872 60.5009L116.335 56.4174L116.323 56.4314L116.31 56.4455L120.872 60.5009ZM121.85 58.5455L127.697 60.2995L127.708 60.262L127.719 60.2244L121.85 58.5455ZM124.133 56.8499C123.25 59.9054 122.269 61.1991 121.723 61.6671L129.668 70.9364C132.772 68.2758 134.659 64.3987 135.861 60.2411L124.133 56.8499ZM121.723 61.6671C121.258 62.066 120.374 62.544 118.461 62.544V74.7523C122.544 74.7523 126.483 73.666 129.668 70.9364L121.723 61.6671ZM118.461 62.544H114.029V74.7523H118.461V62.544ZM114.029 62.544C112.908 62.544 112.38 62.3654 112.216 62.2909C112.146 62.259 112.149 62.2499 112.185 62.2818C112.223 62.3152 112.243 62.346 112.243 62.3454L101.736 68.5634C104.499 73.2318 109.372 74.7523 114.029 74.7523V62.544ZM112.243 62.3454C112.101 62.1071 111.718 61.2955 112.34 59.104L100.596 55.771C99.3926 60.0104 99.3572 64.5435 101.736 68.5634L112.243 62.3454ZM112.339 59.1084L119.443 34.1451L107.701 30.8034L100.597 55.7666L112.339 59.1084ZM119.436 34.1698C120.32 31.1143 121.301 29.8206 121.847 29.3526L113.902 20.0834C110.798 22.7439 108.911 26.6211 107.708 30.7786L119.436 34.1698ZM121.847 29.3526C122.312 28.9538 123.195 28.4757 125.109 28.4757V16.2674C121.026 16.2674 117.086 17.3537 113.902 20.0834L121.847 29.3526ZM125.109 28.4757H129.541V16.2674H125.109V28.4757ZM129.541 28.4757C130.662 28.4757 131.189 28.6543 131.353 28.7288C131.424 28.7608 131.421 28.7698 131.385 28.738C131.347 28.7045 131.327 28.6738 131.327 28.6743L141.833 22.4563C139.071 17.788 134.198 16.2674 129.541 16.2674V28.4757ZM131.327 28.6743C131.468 28.9127 131.851 29.7242 131.229 31.9158L142.974 35.2487C144.177 31.0093 144.213 26.4763 141.833 22.4563L131.327 28.6743ZM131.231 31.9114L124.126 56.8747L135.868 60.2164L142.973 35.2531L131.231 31.9114ZM135.238 33.9365C135.62 32.5224 136.105 29.5987 134.162 26.937C132.156 24.1871 129.128 23.8281 127.586 23.8281V36.0364C127.522 36.0364 127.099 36.034 126.5 35.8147C125.843 35.5737 124.983 35.0683 124.301 34.1334C123.628 33.2117 123.426 32.2816 123.388 31.673C123.352 31.1102 123.448 30.7674 123.453 30.7512L135.238 33.9365ZM127.586 23.8281H124.327V36.0364H127.586V23.8281ZM124.327 23.8281C122.346 23.8281 119.934 24.4568 118.095 26.5006L127.169 34.6675C126.698 35.1913 126.123 35.5683 125.54 35.7925C124.988 36.0049 124.546 36.0364 124.327 36.0364V23.8281ZM118.07 26.5287C116.848 27.9038 116.228 29.5362 115.873 30.7202L127.566 34.2282C127.63 34.0171 127.663 33.958 127.64 34.0037C127.627 34.0306 127.591 34.1028 127.525 34.2064C127.459 34.3094 127.352 34.4619 127.195 34.6394L118.07 26.5287ZM115.851 30.7954L108.355 56.997L120.093 60.3548L127.588 34.1531L115.851 30.7954ZM108.331 57.0833C107.949 58.4973 107.465 61.421 109.407 64.0828C111.414 66.8327 114.442 67.1916 115.984 67.1916V54.9833C116.048 54.9833 116.471 54.9857 117.069 55.2051C117.727 55.4461 118.587 55.9515 119.269 56.8864C119.942 57.808 120.143 58.7382 120.182 59.3468C120.217 59.9095 120.121 60.2523 120.117 60.2685L108.331 57.0833ZM115.984 67.1916H119.243V54.9833H115.984V67.1916ZM119.243 67.1916C120.985 67.1916 123.514 66.7168 125.435 64.5563L116.31 56.4455C117.535 55.0671 118.978 54.9833 119.243 54.9833V67.1916ZM125.41 64.5843C126.645 63.2116 127.306 61.6032 127.697 60.2995L116.003 56.7915C115.95 56.968 115.924 57.009 115.95 56.9563C115.975 56.9067 116.087 56.6936 116.335 56.4174L125.41 64.5843ZM127.719 60.2244L135.214 34.0227L123.477 30.665L115.981 56.8667L127.719 60.2244ZM134.027 68.3223L128.157 66.6453L125.934 74.4264H134.027V68.3223ZM147.062 22.6975V16.5933H142.458L141.193 21.0205L147.062 22.6975ZM165.834 25.9564L160.553 29.019L160.59 29.0818L160.628 29.1437L165.834 25.9564ZM166.42 33.9081L172.285 35.6011L172.287 35.5957L166.42 33.9081ZM164.595 40.2304L170.455 41.9416L170.457 41.9325L170.46 41.9233L164.595 40.2304ZM157.426 49.5509L155.21 43.8632L151.234 45.4122L151.323 49.6781L157.426 49.5509ZM157.817 68.3223V74.4264H164.049L163.92 68.1951L157.817 68.3223ZM149.865 68.3223L143.761 68.3665L143.805 74.4264H149.865V68.3223ZM149.735 50.3331L155.839 50.2888L155.795 44.2289H149.735V50.3331ZM147.323 50.3331V44.2289H142.721L141.455 48.6533L147.323 50.3331ZM142.174 68.3223V74.4264H146.776L148.042 70.002L142.174 68.3223ZM149.409 43.0331L143.538 41.36L141.322 49.1373H149.409V43.0331ZM155.405 42.4465L150.868 38.363L150.855 38.377L150.843 38.3911L155.405 42.4465ZM156.383 40.4911L162.23 42.2452L162.237 42.2191L162.245 42.1931L156.383 40.4911ZM158.729 32.409L164.591 34.1109L164.607 34.0565L164.622 34.0017L158.729 32.409ZM153.124 29.9974V23.8933H148.516L147.254 28.3244L153.124 29.9974ZM139.896 69.9992L152.932 24.3744L141.193 21.0205L128.157 66.6453L139.896 69.9992ZM147.062 28.8016H158.86V16.5933H147.062V28.8016ZM158.86 28.8016C159.935 28.8016 160.423 28.9781 160.561 29.0424C160.62 29.0699 160.615 29.0761 160.583 29.0473C160.55 29.0177 160.541 28.9978 160.553 29.019L171.114 22.8938C168.389 18.1964 163.564 16.5933 158.86 16.5933V28.8016ZM160.628 29.1437C160.774 29.3822 161.153 30.1372 160.554 32.2206L172.287 35.5957C173.512 31.3351 173.501 26.7889 171.04 22.7691L160.628 29.1437ZM160.556 32.2152L158.731 38.5375L170.46 41.9233L172.285 35.6011L160.556 32.2152ZM158.736 38.5193C157.596 42.4236 156.127 43.5059 155.21 43.8632L159.642 55.2386C165.416 52.9888 168.727 47.8575 170.455 41.9416L158.736 38.5193ZM151.323 49.6781L151.714 68.4494L163.92 68.1951L163.529 49.4238L151.323 49.6781ZM157.817 62.2181H149.865V74.4264H157.817V62.2181ZM155.969 68.278L155.839 50.2888L143.631 50.3773L143.761 68.3665L155.969 68.278ZM149.735 44.2289H147.323V56.4372H149.735V44.2289ZM141.455 48.6533L136.305 66.6425L148.042 70.002L153.192 52.0128L141.455 48.6533ZM142.174 62.2181H134.027V74.4264H142.174V62.2181ZM149.409 49.1373H153.776V36.9289H149.409V49.1373ZM153.776 49.1373C155.518 49.1373 158.047 48.6624 159.967 46.5019L150.843 38.3911C152.068 37.0127 153.511 36.9289 153.776 36.9289V49.1373ZM159.942 46.53C161.178 45.1572 161.838 43.5488 162.23 42.2452L150.536 38.7371C150.483 38.9136 150.457 38.9547 150.483 38.9019C150.508 38.8523 150.619 38.6392 150.868 38.363L159.942 46.53ZM162.245 42.1931L164.591 34.1109L152.867 30.7071L150.521 38.7892L162.245 42.1931ZM164.622 34.0017C165.004 32.5876 165.488 29.6639 163.546 27.0021C161.539 24.2523 158.511 23.8933 156.969 23.8933V36.1016C156.905 36.1016 156.483 36.0992 155.884 35.8798C155.226 35.6388 154.367 35.1334 153.684 34.1986C153.012 33.2769 152.81 32.3468 152.772 31.7382C152.736 31.1754 152.832 30.8326 152.837 30.8164L164.622 34.0017ZM156.969 23.8933H153.124V36.1016H156.969V23.8933ZM147.254 28.3244L143.538 41.36L155.279 44.7062L158.994 31.6705L147.254 28.3244ZM165.739 65.4544L170.992 62.3454L165.739 65.4544ZM165.218 57.4375L159.347 55.7666L159.345 55.771L165.218 57.4375ZM172.322 32.4742L166.458 30.7786L166.454 30.791L166.451 30.8034L172.322 32.4742ZM176.624 24.718L172.651 20.0834L176.624 24.718ZM194.483 25.5653L189.229 28.6743V28.6743L194.483 25.5653ZM195.004 33.5822L200.875 35.2529L200.876 35.2487L195.004 33.5822ZM192.723 41.5992V47.7033H197.332L198.594 43.2698L192.723 41.5992ZM184.771 41.5992L178.906 39.9059L176.655 47.7033H184.771V41.5992ZM187.443 32.3439L193.308 34.0372L193.322 33.9869L193.336 33.9365L187.443 32.3439ZM181.382 30.584L176.845 26.5006L176.832 26.5146L176.819 26.5287L181.382 30.584ZM180.469 32.4742L174.623 30.7202L174.611 30.7577L174.601 30.7954L180.469 32.4742ZM172.974 58.6759L167.105 56.997L167.093 57.04L167.081 57.0833L172.974 58.6759ZM178.97 60.5009L174.433 56.4174L174.42 56.4314L174.408 56.4455L178.97 60.5009ZM179.948 58.5455L185.795 60.2995L185.807 60.2581L185.819 60.2165L179.948 58.5455ZM182.359 50.0724V43.9682H177.75L176.488 48.4014L182.359 50.0724ZM190.376 50.0724L196.247 51.7433L198.46 43.9682H190.376V50.0724ZM187.965 58.5455L193.829 60.2411L193.832 60.2288L193.836 60.2165L187.965 58.5455ZM183.663 66.3017L179.69 61.6671L183.663 66.3017ZM172.778 62.544C171.657 62.544 171.13 62.3654 170.966 62.2909C170.895 62.259 170.899 62.2499 170.935 62.2818C170.972 62.3152 170.992 62.346 170.992 62.3454L160.486 68.5634C163.249 73.2318 168.121 74.7523 172.778 74.7523V62.544ZM170.992 62.3454C170.851 62.1071 170.468 61.2955 171.09 59.104L159.345 55.771C158.142 60.0104 158.107 64.5435 160.486 68.5634L170.992 62.3454ZM171.089 59.1084L178.193 34.1451L166.451 30.8034L159.347 55.7666L171.089 59.1084ZM178.186 34.1698C179.069 31.1143 180.05 29.8206 180.596 29.3526L172.651 20.0834C169.547 22.7439 167.66 26.6211 166.458 30.7786L178.186 34.1698ZM180.596 29.3526C181.062 28.9538 181.945 28.4757 183.859 28.4757V16.2674C179.776 16.2674 175.836 17.3537 172.651 20.0834L180.596 29.3526ZM183.859 28.4757H187.443V16.2674H183.859V28.4757ZM187.443 28.4757C188.564 28.4757 189.092 28.6543 189.256 28.7288C189.326 28.7608 189.323 28.7698 189.287 28.738C189.249 28.7045 189.229 28.6738 189.229 28.6743L199.736 22.4564C196.973 17.788 192.1 16.2674 187.443 16.2674V28.4757ZM189.229 28.6743C189.371 28.9127 189.754 29.7242 189.132 31.9158L200.876 35.2487C202.079 31.0093 202.115 26.4763 199.736 22.4563L189.229 28.6743ZM189.133 31.9116L186.852 39.9285L198.594 43.2698L200.875 35.2529L189.133 31.9116ZM192.723 35.495H184.771V47.7033H192.723V35.495ZM190.636 43.2925L193.308 34.0372L181.579 30.6506L178.906 39.9059L190.636 43.2925ZM193.336 33.9365C193.718 32.5224 194.203 29.5987 192.26 26.937C190.253 24.1871 187.225 23.8281 185.684 23.8281V36.0364C185.619 36.0364 185.197 36.034 184.598 35.8147C183.94 35.5737 183.081 35.0683 182.398 34.1334C181.726 33.2117 181.524 32.2816 181.486 31.673C181.45 31.1102 181.546 30.7674 181.551 30.7512L193.336 33.9365ZM185.684 23.8281H183.076V36.0364H185.684V23.8281ZM183.076 23.8281C181.096 23.8281 178.684 24.4568 176.845 26.5006L185.919 34.6675C185.448 35.1913 184.873 35.5683 184.29 35.7925C183.738 36.0049 183.296 36.0364 183.076 36.0364V23.8281ZM176.819 26.5287C175.597 27.9038 174.978 29.5362 174.623 30.7202L186.316 34.2282C186.379 34.0171 186.412 33.958 186.39 34.0037C186.377 34.0306 186.341 34.1028 186.275 34.2064C186.209 34.3094 186.102 34.4619 185.944 34.6394L176.819 26.5287ZM174.601 30.7954L167.105 56.997L178.842 60.3548L186.338 34.1531L174.601 30.7954ZM167.081 57.0833C166.699 58.4973 166.215 61.421 168.157 64.0828C170.164 66.8327 173.192 67.1916 174.734 67.1916V54.9833C174.798 54.9833 175.22 54.9857 175.819 55.2051C176.477 55.4461 177.336 55.9515 178.019 56.8864C178.691 57.808 178.893 58.7382 178.931 59.3468C178.967 59.9095 178.871 60.2523 178.866 60.2685L167.081 57.0833ZM174.734 67.1916H177.341V54.9833H174.734V67.1916ZM177.341 67.1916C179.083 67.1916 181.612 66.7168 183.532 64.5563L174.408 56.4455C175.633 55.0671 177.076 54.9833 177.341 54.9833V67.1916ZM183.507 64.5843C184.743 63.2116 185.403 61.6032 185.795 60.2995L174.101 56.7915C174.048 56.968 174.022 57.009 174.048 56.9563C174.073 56.9067 174.184 56.6936 174.433 56.4174L183.507 64.5843ZM185.819 60.2165L188.23 51.7433L176.488 48.4014L174.077 56.8745L185.819 60.2165ZM182.359 56.1765H190.376V43.9682H182.359V56.1765ZM184.505 48.4014L182.094 56.8745L193.836 60.2165L196.247 51.7433L184.505 48.4014ZM182.101 56.8499C181.217 59.9054 180.236 61.1991 179.69 61.6671L187.636 70.9364C190.74 68.2758 192.627 64.3987 193.829 60.2411L182.101 56.8499ZM179.69 61.6671C179.225 62.066 178.342 62.544 176.428 62.544V74.7523C180.511 74.7523 184.451 73.666 187.636 70.9364L179.69 61.6671ZM176.428 62.544H172.778V74.7523H176.428V62.544ZM210.466 52.5491L205.202 49.4577L204.808 50.1279L204.595 50.8754L210.466 52.5491ZM205.968 68.3223V74.4264H210.575L211.838 69.996L205.968 68.3223ZM197.821 68.3223L191.947 66.6617L189.752 74.4264H197.821V68.3223ZM202.188 52.875L208.062 54.5356L208.303 53.6824L208.292 52.7959L202.188 52.875ZM201.797 22.6975V16.5933H195.613L195.693 22.7766L201.797 22.6975ZM209.879 22.6975L215.977 22.9711L216.263 16.5933H209.879V22.6975ZM209.423 32.8653L215.508 33.3447L215.516 33.2419L215.521 33.1389L209.423 32.8653ZM208.575 43.6197L202.49 43.1403L201.971 49.7239H208.575V43.6197ZM208.901 43.6197V49.7239H212.69L214.371 46.3291L208.901 43.6197ZM219.265 22.6975V16.5933H215.476L213.795 19.9881L219.265 22.6975ZM227.998 22.6975L233.262 25.7889L238.663 16.5933H227.998V22.6975ZM204.595 50.8754L200.098 66.6485L211.838 69.996L216.336 54.2229L204.595 50.8754ZM205.968 62.2181H197.821V74.4264H205.968V62.2181ZM203.695 69.9828L208.062 54.5356L196.314 51.2144L191.947 66.6617L203.695 69.9828ZM208.292 52.7959L207.9 22.6184L195.693 22.7766L196.084 52.9541L208.292 52.7959ZM201.797 28.8016H209.879V16.5933H201.797V28.8016ZM203.781 22.4239L203.325 32.5917L215.521 33.1389L215.977 22.9711L203.781 22.4239ZM203.337 32.3858L202.49 43.1403L214.661 44.0992L215.508 33.3447L203.337 32.3858ZM208.575 49.7239H208.901V37.5155H208.575V49.7239ZM214.371 46.3291L224.734 25.4069L213.795 19.9881L203.431 40.9103L214.371 46.3291ZM219.265 28.8016H227.998V16.5933H219.265V28.8016ZM222.735 19.6061L205.202 49.4577L215.729 55.6405L233.262 25.7889L222.735 19.6061ZM221.242 65.4544L226.495 62.3454L221.242 65.4544ZM220.721 57.4375L214.85 55.7666L214.849 55.771L220.721 57.4375ZM227.825 32.4742L221.961 30.7786L221.958 30.791L221.954 30.8034L227.825 32.4742ZM232.127 24.718L228.155 20.0834L232.127 24.718ZM249.986 25.5653L244.733 28.6743V28.6743L249.986 25.5653ZM250.507 33.5822L256.378 35.2529L256.38 35.2487L250.507 33.5822ZM248.226 41.5992V47.7033H252.836L254.097 43.2698L248.226 41.5992ZM240.274 41.5992L234.41 39.9059L232.158 47.7033H240.274V41.5992ZM242.947 32.3439L248.811 34.0372L248.826 33.9869L248.839 33.9365L242.947 32.3439ZM236.885 30.584L232.348 26.5006L232.335 26.5146L232.323 26.5287L236.885 30.584ZM235.973 32.4742L230.126 30.7202L230.115 30.7577L230.104 30.7954L235.973 32.4742ZM228.477 58.6759L222.608 56.997L222.596 57.04L222.584 57.0833L228.477 58.6759ZM234.474 60.5009L229.936 56.4174L229.924 56.4314L229.911 56.4455L234.474 60.5009ZM235.451 58.5455L241.298 60.2995L241.31 60.2581L241.322 60.2165L235.451 58.5455ZM237.863 50.0724V43.9682H233.254L231.992 48.4014L237.863 50.0724ZM245.88 50.0724L251.751 51.7433L253.964 43.9682H245.88V50.0724ZM243.468 58.5455L249.332 60.2411L249.336 60.2288L249.339 60.2165L243.468 58.5455ZM239.166 66.3017L235.194 61.6671L239.166 66.3017ZM228.282 62.544C227.16 62.544 226.633 62.3654 226.469 62.2909C226.399 62.259 226.402 62.2499 226.438 62.2818C226.476 62.3152 226.496 62.346 226.495 62.3454L215.989 68.5634C218.752 73.2318 223.625 74.7523 228.282 74.7523V62.544ZM226.495 62.3454C226.354 62.1071 225.971 61.2955 226.593 59.104L214.849 55.771C213.646 60.0104 213.61 64.5435 215.989 68.5634L226.495 62.3454ZM226.592 59.1084L233.696 34.1451L221.954 30.8034L214.85 55.7666L226.592 59.1084ZM233.689 34.1698C234.573 31.1143 235.554 29.8206 236.1 29.3526L228.155 20.0834C225.051 22.7439 223.164 26.6211 221.961 30.7786L233.689 34.1698ZM236.1 29.3526C236.565 28.9538 237.448 28.4757 239.362 28.4757V16.2674C235.279 16.2674 231.339 17.3537 228.155 20.0834L236.1 29.3526ZM239.362 28.4757H242.947V16.2674H239.362V28.4757ZM242.947 28.4757C244.068 28.4757 244.595 28.6543 244.759 28.7288C244.829 28.7608 244.826 28.7698 244.79 28.738C244.753 28.7045 244.733 28.6738 244.733 28.6743L255.239 22.4564C252.476 17.788 247.604 16.2674 242.947 16.2674V28.4757ZM244.733 28.6743C244.874 28.9127 245.257 29.7242 244.635 31.9158L256.38 35.2487C257.583 31.0093 257.618 26.4763 255.239 22.4563L244.733 28.6743ZM244.636 31.9116L242.355 39.9285L254.097 43.2698L256.378 35.2529L244.636 31.9116ZM248.226 35.495H240.274V47.7033H248.226V35.495ZM246.139 43.2925L248.811 34.0372L237.082 30.6506L234.41 39.9059L246.139 43.2925ZM248.839 33.9365C249.222 32.5224 249.706 29.5987 247.764 26.937C245.757 24.1871 242.729 23.8281 241.187 23.8281V36.0364C241.123 36.0364 240.7 36.034 240.101 35.8147C239.444 35.5737 238.584 35.0683 237.902 34.1334C237.229 33.2117 237.027 32.2816 236.989 31.673C236.954 31.1102 237.05 30.7674 237.054 30.7512L248.839 33.9365ZM241.187 23.8281H238.58V36.0364H241.187V23.8281ZM238.58 23.8281C236.599 23.8281 234.187 24.4568 232.348 26.5006L241.422 34.6675C240.951 35.1913 240.376 35.5683 239.793 35.7925C239.241 36.0049 238.799 36.0364 238.58 36.0364V23.8281ZM232.323 26.5287C231.1 27.9038 230.481 29.5362 230.126 30.7202L241.819 34.2282C241.883 34.0171 241.915 33.958 241.893 34.0037C241.88 34.0306 241.844 34.1028 241.778 34.2064C241.712 34.3094 241.605 34.4619 241.447 34.6394L232.323 26.5287ZM230.104 30.7954L222.608 56.997L234.346 60.3548L241.841 34.1531L230.104 30.7954ZM222.584 57.0833C222.202 58.4973 221.718 61.421 223.66 64.0828C225.667 66.8327 228.695 67.1916 230.237 67.1916V54.9833C230.301 54.9833 230.723 54.9857 231.322 55.2051C231.98 55.4461 232.84 55.9515 233.522 56.8864C234.195 57.808 234.396 58.7382 234.435 59.3468C234.47 59.9095 234.374 60.2523 234.37 60.2685L222.584 57.0833ZM230.237 67.1916H232.844V54.9833H230.237V67.1916ZM232.844 67.1916C234.586 67.1916 237.115 66.7168 239.036 64.5563L229.911 56.4455C231.136 55.0671 232.579 54.9833 232.844 54.9833V67.1916ZM239.011 64.5843C240.246 63.2116 240.907 61.6032 241.298 60.2995L229.604 56.7915C229.552 56.968 229.525 57.009 229.551 56.9563C229.576 56.9067 229.688 56.6936 229.936 56.4174L239.011 64.5843ZM241.322 60.2165L243.734 51.7433L231.992 48.4014L229.58 56.8745L241.322 60.2165ZM237.863 56.1765H245.88V43.9682H237.863V56.1765ZM240.009 48.4014L237.597 56.8745L249.339 60.2165L251.751 51.7433L240.009 48.4014ZM237.604 56.8499C236.721 59.9054 235.74 61.1991 235.194 61.6671L243.139 70.9364C246.243 68.2758 248.13 64.3987 249.332 60.2411L237.604 56.8499ZM235.194 61.6671C234.728 62.066 233.845 62.544 231.932 62.544V74.7523C236.014 74.7523 239.954 73.666 243.139 70.9364L235.194 61.6671ZM231.932 62.544H228.282V74.7523H231.932V62.544ZM247.198 68.3223L241.328 66.6453L239.105 74.4264H247.198V68.3223ZM260.233 22.6975V16.5933H255.629L254.364 21.0205L260.233 22.6975ZM268.38 22.6975L274.249 24.3757L276.475 16.5933H268.38V22.6975ZM257.496 60.7616L251.627 59.0833L249.401 66.8657H257.496V60.7616ZM267.598 60.7616L273.47 62.4318L275.681 54.6574H267.598V60.7616ZM265.447 68.3223V74.4264H270.057L271.319 69.9925L265.447 68.3223ZM253.067 69.9992L266.102 24.3744L254.364 21.0205L241.328 66.6453L253.067 69.9992ZM260.233 28.8016H268.38V16.5933H260.233V28.8016ZM262.512 21.0192L251.627 59.0833L263.365 62.4399L274.249 24.3757L262.512 21.0192ZM257.496 66.8657H267.598V54.6574H257.496V66.8657ZM261.727 59.0913L259.576 66.652L271.319 69.9925L273.47 62.4318L261.727 59.0913ZM265.447 62.2181H247.198V74.4264H265.447V62.2181ZM289.268 30.2582V24.154H284.656L283.396 28.59L289.268 30.2582ZM286.009 41.7295L280.137 40.0614L277.929 47.8337H286.009V41.7295ZM294.939 41.7295L300.796 43.4465L303.089 35.6254H294.939V41.7295ZM292.723 49.2902V55.3944H297.294L298.58 51.0071L292.723 49.2902ZM283.793 49.2902V43.1861H279.182L277.921 47.6221L283.793 49.2902ZM280.534 60.7616L274.662 59.0935L272.454 66.8657H280.534V60.7616ZM290.115 60.7616L295.987 62.4318L298.198 54.6574H290.115V60.7616ZM287.965 68.3223V74.4264H292.574L293.836 69.9925L287.965 68.3223ZM270.366 68.3223L264.497 66.6453L262.274 74.4264H270.366V68.3223ZM283.402 22.6975V16.5933H278.798L277.533 21.0205L283.402 22.6975ZM301 22.6975L306.871 24.3677L309.083 16.5933H301V22.6975ZM298.849 30.2582V36.3623H303.459L304.72 31.9284L298.849 30.2582ZM283.396 28.59L280.137 40.0614L291.881 43.3977L295.14 31.9263L283.396 28.59ZM286.009 47.8337H294.939V35.6254H286.009V47.8337ZM289.081 40.0126L286.865 47.5733L298.58 51.0071L300.796 43.4465L289.081 40.0126ZM292.723 43.1861H283.793V55.3944H292.723V43.1861ZM277.921 47.6221L274.662 59.0935L286.406 62.4297L289.665 50.9583L277.921 47.6221ZM280.534 66.8657H290.115V54.6574H280.534V66.8657ZM284.244 59.0913L282.093 66.652L293.836 69.9925L295.987 62.4318L284.244 59.0913ZM287.965 62.2181H270.366V74.4264H287.965V62.2181ZM276.236 69.9992L289.271 24.3744L277.533 21.0205L264.497 66.6453L276.236 69.9992ZM283.402 28.8016H301V16.5933H283.402V28.8016ZM295.129 21.0272L292.978 28.5879L304.72 31.9284L306.871 24.3677L295.129 21.0272ZM298.849 24.154H289.268V36.3623H298.849V24.154ZM296.2 65.4544L301.453 62.3454L296.2 65.4544ZM295.678 57.4375L289.809 55.7606L289.806 55.771L295.678 57.4375ZM297.112 52.4188V46.3146H292.508L291.243 50.7418L297.112 52.4188ZM305.194 52.4188L311.054 54.1279L313.333 46.3146H305.194V52.4188ZM303.369 58.6759L297.509 56.9667L297.493 57.0248L297.477 57.0833L303.369 58.6759ZM309.236 60.5009L304.698 56.4174L304.686 56.4314L304.673 56.4455L309.236 60.5009ZM310.213 58.5455L316.06 60.2995L316.087 60.2093L316.111 60.1183L310.213 58.5455ZM310.735 56.5902L304.944 54.6599L304.885 54.837L304.837 55.0174L310.735 56.5902ZM310.93 55.8732L305.008 54.3927V54.3927L310.93 55.8732ZM311.06 55.1563L305.27 53.226L304.956 54.1657V55.1563H311.06ZM311.191 54.5045L305.322 52.8275L305.207 53.2285L305.148 53.6412L311.191 54.5045ZM311.256 53.8527H305.152V54.8432L305.465 55.783L311.256 53.8527ZM311.191 53.2661H305.087V53.7713L305.17 54.2696L311.191 53.2661ZM310.735 52.0277L305.275 54.7576L305.38 54.9672L305.5 55.1683L310.735 52.0277ZM310.278 51.3107L315.045 47.4975L315.012 47.4562L314.978 47.4155L310.278 51.3107ZM304.282 44.076L308.982 40.1807L308.967 40.1634L308.953 40.1463L304.282 44.076ZM302.196 34.8858L296.304 33.2932L296.302 33.2989L302.196 34.8858ZM302.848 32.4742L296.957 30.8743L296.955 30.8816L302.848 32.4742ZM324.292 25.5653L319.039 28.6743V28.6743L324.292 25.5653ZM324.813 33.5822L318.941 31.9158L318.938 31.9252L324.813 33.5822ZM323.379 38.6662V44.7703H328L329.254 40.3232L323.379 38.6662ZM315.297 38.6662L309.449 36.9177L307.101 44.7703H315.297V38.6662ZM317.187 32.3439L323.036 34.0923L323.059 34.0147L323.08 33.9365L317.187 32.3439ZM311.908 30.584L307.371 26.5006L307.358 26.5146L307.346 26.5287L311.908 30.584ZM310.995 32.4742L316.842 34.2282V34.2282L310.995 32.4742ZM310.409 34.4296L316.076 36.6966L316.177 36.4441L316.255 36.1836L310.409 34.4296ZM309.822 37.2974L315.918 36.9766V36.9766L309.822 37.2974ZM310.995 39.8394L315.754 36.0158L315.701 35.9502L315.646 35.886L310.995 39.8394ZM316.861 47.1393L321.628 43.3261L321.62 43.3157L316.861 47.1393ZM318.882 56.7857L313.069 54.9226L313.048 54.9869L313.029 55.0516L318.882 56.7857ZM318.36 58.5455L312.508 56.8114L312.502 56.8306L312.497 56.8499L318.36 58.5455ZM314.059 66.3017L310.086 61.6671H310.086L314.059 66.3017ZM303.239 62.544C302.118 62.544 301.591 62.3654 301.427 62.2909C301.356 62.259 301.359 62.2499 301.395 62.2818C301.433 62.3152 301.453 62.346 301.453 62.3454L290.947 68.5634C293.71 73.2318 298.582 74.7523 303.239 74.7523V62.544ZM301.453 62.3454C301.312 62.1071 300.929 61.2955 301.551 59.104L289.806 55.771C288.603 60.0104 288.568 64.5435 290.947 68.5634L301.453 62.3454ZM301.548 59.1144L302.982 54.0957L291.243 50.7418L289.809 55.7606L301.548 59.1144ZM297.112 58.5229H305.194V46.3146H297.112V58.5229ZM299.334 50.7096L297.509 56.9667L309.229 60.385L311.054 54.1279L299.334 50.7096ZM297.477 57.0833C297.095 58.4973 296.61 61.421 298.553 64.0828C300.559 66.8327 303.587 67.1916 305.129 67.1916V54.9833C305.193 54.9833 305.616 54.9857 306.215 55.2051C306.872 55.4461 307.732 55.9515 308.414 56.8864C309.087 57.808 309.289 58.7382 309.327 59.3468C309.363 59.9095 309.267 60.2523 309.262 60.2685L297.477 57.0833ZM305.129 67.1916H307.606V54.9833H305.129V67.1916ZM307.606 67.1916C309.348 67.1916 311.877 66.7168 313.798 64.5563L304.673 56.4455C305.898 55.0671 307.341 54.9833 307.606 54.9833V67.1916ZM313.773 64.5843C315.008 63.2116 315.669 61.6032 316.06 60.2995L304.366 56.7915C304.314 56.968 304.287 57.009 304.314 56.9563C304.338 56.9067 304.45 56.6936 304.698 56.4174L313.773 64.5843ZM316.111 60.1183L316.633 58.163L304.837 55.0174L304.315 56.9727L316.111 60.1183ZM316.526 58.5205C316.653 58.1391 316.769 57.6875 316.852 57.3537L305.008 54.3927C304.971 54.5413 304.944 54.6432 304.927 54.7071C304.918 54.7383 304.915 54.7512 304.915 54.7497C304.916 54.7484 304.918 54.7404 304.922 54.7269C304.926 54.7138 304.933 54.6908 304.944 54.6599L316.526 58.5205ZM316.852 57.3537C316.919 57.0843 317.165 56.1463 317.165 55.1563H304.956C304.956 54.8739 304.978 54.661 304.99 54.5612C305.003 54.4491 305.017 54.3716 305.022 54.3413C305.032 54.2851 305.033 54.2934 305.008 54.3927L316.852 57.3537ZM316.851 57.0866C317.083 56.3929 317.186 55.7028 317.234 55.3677L305.148 53.6412C305.137 53.7207 305.133 53.7335 305.14 53.6984C305.144 53.679 305.154 53.631 305.171 53.5617C305.188 53.4963 305.219 53.3781 305.27 53.226L316.851 57.0866ZM317.06 56.1814C317.163 55.8204 317.287 55.3125 317.346 54.7208C317.398 54.2041 317.454 53.1442 317.047 51.9224L305.465 55.783C305.101 54.6915 305.169 53.8055 305.198 53.506C305.236 53.1315 305.305 52.8844 305.322 52.8275L317.06 56.1814ZM317.36 53.8527C317.36 53.1957 317.267 52.5904 317.212 52.2626L305.17 54.2696C305.179 54.325 305.178 54.3248 305.173 54.2824C305.17 54.2594 305.166 54.2134 305.161 54.1487C305.157 54.0864 305.152 53.9843 305.152 53.8527H317.36ZM317.295 53.2661C317.295 52.3666 317.15 51.1445 316.52 49.8844L305.601 55.3442C305.145 54.4317 305.087 53.6442 305.087 53.2661H317.295ZM316.52 49.8844C316.346 49.5364 316.157 49.2007 315.969 48.8871L305.5 55.1683C305.535 55.2262 305.56 55.2704 305.578 55.3017C305.595 55.3335 305.602 55.3471 305.601 55.3442L316.52 49.8844ZM316.194 49.2978C315.881 48.6709 315.5 48.066 315.045 47.4975L305.512 55.124C305.405 54.99 305.328 54.8631 305.275 54.7576L316.194 49.2978ZM314.978 47.4155L308.982 40.1807L299.582 47.9712L305.579 55.206L314.978 47.4155ZM308.953 40.1463C307.906 38.9019 307.709 37.89 308.091 36.4727L296.302 33.2989C294.859 38.6602 296.052 43.7751 299.611 48.0056L308.953 40.1463ZM308.089 36.4784L308.741 34.0669L296.955 30.8816L296.304 33.2932L308.089 36.4784ZM308.739 34.0742C309.52 31.1983 310.467 29.9254 311.066 29.4102L303.103 20.1562C299.965 22.8564 298.088 26.7109 296.957 30.8743L308.739 34.0742ZM311.066 29.4102C311.6 28.9504 312.518 28.4757 314.385 28.4757V16.2674C310.255 16.2674 306.306 17.4005 303.103 20.1562L311.066 29.4102ZM314.385 28.4757H317.252V16.2674H314.385V28.4757ZM317.252 28.4757C318.374 28.4757 318.901 28.6543 319.065 28.7288C319.135 28.7608 319.132 28.7698 319.096 28.738C319.058 28.7045 319.038 28.6738 319.039 28.6743L329.545 22.4563C326.782 17.788 321.909 16.2674 317.252 16.2674V28.4757ZM319.039 28.6743C319.18 28.9127 319.563 29.7242 318.941 31.9158L330.685 35.2487C331.888 31.0093 331.924 26.4763 329.545 22.4563L319.039 28.6743ZM318.938 31.9252L317.504 37.0091L329.254 40.3232L330.688 35.2393L318.938 31.9252ZM323.379 32.562H315.297V44.7703H323.379V32.562ZM321.145 40.4146L323.036 34.0923L311.339 30.5954L309.449 36.9177L321.145 40.4146ZM323.08 33.9365C323.462 32.5224 323.946 29.5987 322.004 26.937C319.997 24.1871 316.969 23.8281 315.427 23.8281V36.0364C315.363 36.0364 314.941 36.034 314.342 35.8147C313.684 35.5737 312.825 35.0683 312.142 34.1334C311.47 33.2117 311.268 32.2816 311.23 31.673C311.194 31.1102 311.29 30.7674 311.295 30.7512L323.08 33.9365ZM315.427 23.8281H313.602V36.0364H315.427V23.8281ZM313.602 23.8281C311.622 23.8281 309.21 24.4568 307.371 26.5006L316.445 34.6675C315.974 35.1913 315.399 35.5683 314.816 35.7925C314.264 36.0049 313.822 36.0364 313.602 36.0364V23.8281ZM307.346 26.5287C306.123 27.9038 305.504 29.5362 305.149 30.7202L316.842 34.2282C316.905 34.0171 316.938 33.958 316.916 34.0037C316.903 34.0306 316.867 34.1028 316.801 34.2064C316.735 34.3094 316.628 34.4619 316.47 34.6394L307.346 26.5287ZM305.149 30.7202L304.562 32.6755L316.255 36.1836L316.842 34.2282L305.149 30.7202ZM304.741 32.1625C304.105 33.7527 303.621 35.6217 303.726 37.6182L315.918 36.9766C315.928 37.1643 315.905 37.2432 315.917 37.1845C315.929 37.1251 315.968 36.9662 316.076 36.6966L304.741 32.1625ZM303.726 37.6182C303.863 40.2054 305.062 42.2845 306.344 43.7927L315.646 35.886C315.451 35.6561 315.869 36.0406 315.918 36.9766L303.726 37.6182ZM306.237 43.663L312.103 50.9629L321.62 43.3157L315.754 36.0158L306.237 43.663ZM312.095 50.9526C313.393 52.5753 313.464 53.6892 313.069 54.9226L324.695 58.6488C326.472 53.1037 325.196 47.7867 321.628 43.3261L312.095 50.9526ZM313.029 55.0516L312.508 56.8114L324.213 60.2797L324.735 58.5198L313.029 55.0516ZM312.497 56.8499C311.613 59.9054 310.632 61.1991 310.086 61.6671L318.031 70.9364C321.135 68.2758 323.022 64.3987 324.224 60.2411L312.497 56.8499ZM310.086 61.6671C309.621 62.066 308.737 62.544 306.824 62.544V74.7523C310.907 74.7523 314.847 73.666 318.031 70.9364L310.086 61.6671ZM306.824 62.544H303.239V74.7523H306.824V62.544Z" fill="#FF682F" mask="url(#path-1-outside-1_562_1921)"/>
<mask id="path-3-outside-2_562_1921" maskUnits="userSpaceOnUse" x="7.34375" y="19.3223" width="321" height="53" fill="black">
<rect fill="white" x="7.34375" y="19.3223" width="321" height="53"/>
<path d="M55.4918 22.6975L42.4561 68.3223H34.6999L38.6106 54.6348L42.5213 42.4465H42.1954L30.9847 60.7616H27.3348L26.1615 42.4465H25.8357L22.8375 54.6348L18.9268 68.3223H11.1705L24.2062 22.6975H31.5062L33.0053 45.8358L47.0186 22.6975H55.4918ZM76.2582 58.5455C75.2153 62.1521 73.7814 64.7375 71.9564 66.3017C70.1314 67.866 67.7198 68.6482 64.7216 68.6482H60.2895C56.8568 68.6482 54.5104 67.5836 53.2502 65.4544C51.9901 63.3253 51.8163 60.653 52.7288 57.4375L59.8332 32.4742C60.8761 28.8677 62.31 26.2823 64.135 24.718C65.96 23.1537 68.3716 22.3716 71.3698 22.3716H75.8019C79.2346 22.3716 81.5811 23.4362 82.8412 25.5653C84.1013 27.6945 84.2751 30.3668 83.3626 33.5822L76.2582 58.5455ZM75.6064 32.3439C76.0409 30.7361 75.4543 29.9323 73.8466 29.9323H70.5877C69.849 29.9323 69.2841 30.1495 68.893 30.584C68.5454 30.9751 68.2412 31.6052 67.9805 32.4742L60.485 58.6759C60.0505 60.2836 60.6371 61.0875 62.2448 61.0875H65.5038C66.2424 61.0875 66.7856 60.8919 67.1332 60.5009C67.5243 60.0664 67.8502 59.4146 68.1109 58.5455L75.6064 32.3439ZM110.756 30.2582H103.261L92.376 68.3223H84.2288L95.1135 30.2582H87.618L89.7689 22.6975H112.907L110.756 30.2582ZM129.788 58.5455C128.746 62.1521 127.312 64.7375 125.487 66.3017C123.662 67.866 121.25 68.6482 118.252 68.6482H113.82C110.387 68.6482 108.041 67.5836 106.78 65.4544C105.52 63.3253 105.347 60.653 106.259 57.4375L113.363 32.4742C114.406 28.8677 115.84 26.2823 117.665 24.718C119.49 23.1537 121.902 22.3716 124.9 22.3716H129.332C132.765 22.3716 135.111 23.4362 136.371 25.5653C137.631 27.6945 137.805 30.3668 136.893 33.5822L129.788 58.5455ZM129.137 32.3439C129.571 30.7361 128.984 29.9323 127.377 29.9323H124.118C123.379 29.9323 122.814 30.1495 122.423 30.584C122.076 30.9751 121.771 31.6052 121.511 32.4742L114.015 58.6759C113.581 60.2836 114.167 61.0875 115.775 61.0875H119.034C119.773 61.0875 120.316 60.8919 120.663 60.5009C121.054 60.0664 121.38 59.4146 121.641 58.5455L129.137 32.3439ZM133.818 68.3223L146.853 22.6975H158.651C162.04 22.6975 164.365 23.7838 165.625 25.9564C166.928 28.0856 167.124 30.7361 166.211 33.9081L164.386 40.2304C162.952 45.1405 160.563 48.2474 157.217 49.5509L157.608 68.3223H149.656L149.526 50.3331H147.114L141.965 68.3223H133.818ZM149.2 43.0331H153.567C154.305 43.0331 154.849 42.8376 155.196 42.4465C155.587 42.012 155.913 41.3602 156.174 40.4911L158.52 32.409C158.955 30.8013 158.368 29.9974 156.76 29.9974H152.915L149.2 43.0331ZM172.569 68.6482C169.137 68.6482 166.79 67.5836 165.53 65.4544C164.27 63.3253 164.096 60.653 165.009 57.4375L172.113 32.4742C173.156 28.8677 174.59 26.2823 176.415 24.718C178.24 23.1537 180.651 22.3716 183.65 22.3716H187.234C190.667 22.3716 193.013 23.4362 194.274 25.5653C195.534 27.6945 195.708 30.3668 194.795 33.5822L192.514 41.5992H184.562L187.234 32.3439C187.669 30.7361 187.082 29.9323 185.475 29.9323H182.867C182.129 29.9323 181.564 30.1495 181.173 30.584C180.825 30.9751 180.521 31.6052 180.26 32.4742L172.765 58.6759C172.33 60.2836 172.917 61.0875 174.525 61.0875H177.132C177.87 61.0875 178.414 60.8919 178.761 60.5009C179.152 60.0664 179.478 59.4146 179.739 58.5455L182.15 50.0724H190.167L187.756 58.5455C186.713 62.1521 185.279 64.7375 183.454 66.3017C181.629 67.866 179.217 68.6482 176.219 68.6482H172.569ZM210.257 52.5491L205.759 68.3223H197.612L201.979 52.875L201.588 22.6975H209.67L209.214 32.8653L208.366 43.6197H208.692L219.056 22.6975H227.789L210.257 52.5491ZM228.073 68.6482C224.64 68.6482 222.293 67.5836 221.033 65.4544C219.773 63.3253 219.599 60.653 220.512 57.4375L227.616 32.4742C228.659 28.8677 230.093 26.2823 231.918 24.718C233.743 23.1537 236.155 22.3716 239.153 22.3716H242.738C246.17 22.3716 248.517 23.4362 249.777 25.5653C251.037 27.6945 251.211 30.3668 250.298 33.5822L248.017 41.5992H240.065L242.738 32.3439C243.172 30.7361 242.586 29.9323 240.978 29.9323H238.371C237.632 29.9323 237.067 30.1495 236.676 30.584C236.329 30.9751 236.024 31.6052 235.764 32.4742L228.268 58.6759C227.834 60.2836 228.42 61.0875 230.028 61.0875H232.635C233.374 61.0875 233.917 60.8919 234.265 60.5009C234.656 60.0664 234.981 59.4146 235.242 58.5455L237.654 50.0724H245.671L243.259 58.5455C242.216 62.1521 240.782 64.7375 238.957 66.3017C237.132 67.866 234.721 68.6482 231.723 68.6482H228.073ZM246.989 68.3223L260.024 22.6975H268.171L257.287 60.7616H267.389L265.238 68.3223H246.989ZM289.059 30.2582L285.8 41.7295H294.73L292.514 49.2902H283.584L280.325 60.7616H289.906L287.756 68.3223H270.157L283.193 22.6975H300.791L298.64 30.2582H289.059ZM303.03 68.6482C299.597 68.6482 297.251 67.5836 295.991 65.4544C294.731 63.3253 294.557 60.653 295.469 57.4375L296.903 52.4188H304.985L303.16 58.6759C302.726 60.2836 303.313 61.0875 304.92 61.0875H307.397C308.136 61.0875 308.679 60.8919 309.027 60.5009C309.418 60.0664 309.743 59.4146 310.004 58.5455L310.526 56.5902C310.569 56.4598 310.634 56.2208 310.721 55.8732C310.808 55.5256 310.852 55.2866 310.852 55.1563C310.895 55.0259 310.938 54.8086 310.982 54.5045C311.069 54.2003 311.091 53.983 311.047 53.8527C311.047 53.7223 311.025 53.5268 310.982 53.2661C310.982 53.0054 310.938 52.7881 310.852 52.6143C310.765 52.4405 310.656 52.245 310.526 52.0277C310.395 51.767 310.243 51.528 310.069 51.3107L304.073 44.076C301.77 41.3385 301.075 38.2751 301.987 34.8858L302.639 32.4742C303.595 28.9546 305.007 26.3909 306.876 24.7832C308.744 23.1755 311.177 22.3716 314.176 22.3716H317.043C320.476 22.3716 322.823 23.4362 324.083 25.5653C325.343 27.6945 325.517 30.3668 324.604 33.5822L323.17 38.6662H315.088L316.978 32.3439C317.413 30.7361 316.826 29.9323 315.218 29.9323H313.393C312.655 29.9323 312.09 30.1495 311.699 30.584C311.351 30.9751 311.047 31.6052 310.786 32.4742L310.2 34.4296C309.765 35.5159 309.57 36.4718 309.613 37.2974C309.657 38.123 310.048 38.9703 310.786 39.8394L316.652 47.1393C319.086 50.181 319.759 53.3964 318.673 56.7857L318.151 58.5455C317.109 62.1521 315.675 64.7375 313.85 66.3017C312.025 67.866 309.613 68.6482 306.615 68.6482H303.03Z"/>
</mask>
<path d="M55.4918 22.6975L42.4561 68.3223H34.6999L38.6106 54.6348L42.5213 42.4465H42.1954L30.9847 60.7616H27.3348L26.1615 42.4465H25.8357L22.8375 54.6348L18.9268 68.3223H11.1705L24.2062 22.6975H31.5062L33.0053 45.8358L47.0186 22.6975H55.4918ZM76.2582 58.5455C75.2153 62.1521 73.7814 64.7375 71.9564 66.3017C70.1314 67.866 67.7198 68.6482 64.7216 68.6482H60.2895C56.8568 68.6482 54.5104 67.5836 53.2502 65.4544C51.9901 63.3253 51.8163 60.653 52.7288 57.4375L59.8332 32.4742C60.8761 28.8677 62.31 26.2823 64.135 24.718C65.96 23.1537 68.3716 22.3716 71.3698 22.3716H75.8019C79.2346 22.3716 81.5811 23.4362 82.8412 25.5653C84.1013 27.6945 84.2751 30.3668 83.3626 33.5822L76.2582 58.5455ZM75.6064 32.3439C76.0409 30.7361 75.4543 29.9323 73.8466 29.9323H70.5877C69.849 29.9323 69.2841 30.1495 68.893 30.584C68.5454 30.9751 68.2412 31.6052 67.9805 32.4742L60.485 58.6759C60.0505 60.2836 60.6371 61.0875 62.2448 61.0875H65.5038C66.2424 61.0875 66.7856 60.8919 67.1332 60.5009C67.5243 60.0664 67.8502 59.4146 68.1109 58.5455L75.6064 32.3439ZM110.756 30.2582H103.261L92.376 68.3223H84.2288L95.1135 30.2582H87.618L89.7689 22.6975H112.907L110.756 30.2582ZM129.788 58.5455C128.746 62.1521 127.312 64.7375 125.487 66.3017C123.662 67.866 121.25 68.6482 118.252 68.6482H113.82C110.387 68.6482 108.041 67.5836 106.78 65.4544C105.52 63.3253 105.347 60.653 106.259 57.4375L113.363 32.4742C114.406 28.8677 115.84 26.2823 117.665 24.718C119.49 23.1537 121.902 22.3716 124.9 22.3716H129.332C132.765 22.3716 135.111 23.4362 136.371 25.5653C137.631 27.6945 137.805 30.3668 136.893 33.5822L129.788 58.5455ZM129.137 32.3439C129.571 30.7361 128.984 29.9323 127.377 29.9323H124.118C123.379 29.9323 122.814 30.1495 122.423 30.584C122.076 30.9751 121.771 31.6052 121.511 32.4742L114.015 58.6759C113.581 60.2836 114.167 61.0875 115.775 61.0875H119.034C119.773 61.0875 120.316 60.8919 120.663 60.5009C121.054 60.0664 121.38 59.4146 121.641 58.5455L129.137 32.3439ZM133.818 68.3223L146.853 22.6975H158.651C162.04 22.6975 164.365 23.7838 165.625 25.9564C166.928 28.0856 167.124 30.7361 166.211 33.9081L164.386 40.2304C162.952 45.1405 160.563 48.2474 157.217 49.5509L157.608 68.3223H149.656L149.526 50.3331H147.114L141.965 68.3223H133.818ZM149.2 43.0331H153.567C154.305 43.0331 154.849 42.8376 155.196 42.4465C155.587 42.012 155.913 41.3602 156.174 40.4911L158.52 32.409C158.955 30.8013 158.368 29.9974 156.76 29.9974H152.915L149.2 43.0331ZM172.569 68.6482C169.137 68.6482 166.79 67.5836 165.53 65.4544C164.27 63.3253 164.096 60.653 165.009 57.4375L172.113 32.4742C173.156 28.8677 174.59 26.2823 176.415 24.718C178.24 23.1537 180.651 22.3716 183.65 22.3716H187.234C190.667 22.3716 193.013 23.4362 194.274 25.5653C195.534 27.6945 195.708 30.3668 194.795 33.5822L192.514 41.5992H184.562L187.234 32.3439C187.669 30.7361 187.082 29.9323 185.475 29.9323H182.867C182.129 29.9323 181.564 30.1495 181.173 30.584C180.825 30.9751 180.521 31.6052 180.26 32.4742L172.765 58.6759C172.33 60.2836 172.917 61.0875 174.525 61.0875H177.132C177.87 61.0875 178.414 60.8919 178.761 60.5009C179.152 60.0664 179.478 59.4146 179.739 58.5455L182.15 50.0724H190.167L187.756 58.5455C186.713 62.1521 185.279 64.7375 183.454 66.3017C181.629 67.866 179.217 68.6482 176.219 68.6482H172.569ZM210.257 52.5491L205.759 68.3223H197.612L201.979 52.875L201.588 22.6975H209.67L209.214 32.8653L208.366 43.6197H208.692L219.056 22.6975H227.789L210.257 52.5491ZM228.073 68.6482C224.64 68.6482 222.293 67.5836 221.033 65.4544C219.773 63.3253 219.599 60.653 220.512 57.4375L227.616 32.4742C228.659 28.8677 230.093 26.2823 231.918 24.718C233.743 23.1537 236.155 22.3716 239.153 22.3716H242.738C246.17 22.3716 248.517 23.4362 249.777 25.5653C251.037 27.6945 251.211 30.3668 250.298 33.5822L248.017 41.5992H240.065L242.738 32.3439C243.172 30.7361 242.586 29.9323 240.978 29.9323H238.371C237.632 29.9323 237.067 30.1495 236.676 30.584C236.329 30.9751 236.024 31.6052 235.764 32.4742L228.268 58.6759C227.834 60.2836 228.42 61.0875 230.028 61.0875H232.635C233.374 61.0875 233.917 60.8919 234.265 60.5009C234.656 60.0664 234.981 59.4146 235.242 58.5455L237.654 50.0724H245.671L243.259 58.5455C242.216 62.1521 240.782 64.7375 238.957 66.3017C237.132 67.866 234.721 68.6482 231.723 68.6482H228.073ZM246.989 68.3223L260.024 22.6975H268.171L257.287 60.7616H267.389L265.238 68.3223H246.989ZM289.059 30.2582L285.8 41.7295H294.73L292.514 49.2902H283.584L280.325 60.7616H289.906L287.756 68.3223H270.157L283.193 22.6975H300.791L298.64 30.2582H289.059ZM303.03 68.6482C299.597 68.6482 297.251 67.5836 295.991 65.4544C294.731 63.3253 294.557 60.653 295.469 57.4375L296.903 52.4188H304.985L303.16 58.6759C302.726 60.2836 303.313 61.0875 304.92 61.0875H307.397C308.136 61.0875 308.679 60.8919 309.027 60.5009C309.418 60.0664 309.743 59.4146 310.004 58.5455L310.526 56.5902C310.569 56.4598 310.634 56.2208 310.721 55.8732C310.808 55.5256 310.852 55.2866 310.852 55.1563C310.895 55.0259 310.938 54.8086 310.982 54.5045C311.069 54.2003 311.091 53.983 311.047 53.8527C311.047 53.7223 311.025 53.5268 310.982 53.2661C310.982 53.0054 310.938 52.7881 310.852 52.6143C310.765 52.4405 310.656 52.245 310.526 52.0277C310.395 51.767 310.243 51.528 310.069 51.3107L304.073 44.076C301.77 41.3385 301.075 38.2751 301.987 34.8858L302.639 32.4742C303.595 28.9546 305.007 26.3909 306.876 24.7832C308.744 23.1755 311.177 22.3716 314.176 22.3716H317.043C320.476 22.3716 322.823 23.4362 324.083 25.5653C325.343 27.6945 325.517 30.3668 324.604 33.5822L323.17 38.6662H315.088L316.978 32.3439C317.413 30.7361 316.826 29.9323 315.218 29.9323H313.393C312.655 29.9323 312.09 30.1495 311.699 30.584C311.351 30.9751 311.047 31.6052 310.786 32.4742L310.2 34.4296C309.765 35.5159 309.57 36.4718 309.613 37.2974C309.657 38.123 310.048 38.9703 310.786 39.8394L316.652 47.1393C319.086 50.181 319.759 53.3964 318.673 56.7857L318.151 58.5455C317.109 62.1521 315.675 64.7375 313.85 66.3017C312.025 67.866 309.613 68.6482 306.615 68.6482H303.03Z" fill="#008A0E"/>
<path d="M55.4918 22.6975L58.1596 23.4597L59.1702 19.9229H55.4918V22.6975ZM42.4561 68.3223V71.0969H44.549L45.124 69.0845L42.4561 68.3223ZM34.6999 68.3223L32.032 67.56L31.0215 71.0969H34.6999V68.3223ZM38.6106 54.6348L35.9686 53.7871L35.955 53.8297L35.9427 53.8726L38.6106 54.6348ZM42.5213 42.4465L45.1632 43.2942L46.3255 39.6719H42.5213V42.4465ZM42.1954 42.4465V39.6719H40.6406L39.8289 40.998L42.1954 42.4465ZM30.9847 60.7616V63.5362H32.5395L33.3512 62.2101L30.9847 60.7616ZM27.3348 60.7616L24.5658 60.939L24.7322 63.5362H27.3348V60.7616ZM26.1615 42.4465L28.9305 42.2691L28.7641 39.6719H26.1615V42.4465ZM25.8357 42.4465V39.6719H23.6608L23.1414 41.7837L25.8357 42.4465ZM22.8375 54.6348L25.5053 55.3971L25.5195 55.3476L25.5317 55.2976L22.8375 54.6348ZM18.9268 68.3223V71.0969H21.0197L21.5946 69.0845L18.9268 68.3223ZM11.1705 68.3223L8.50268 67.56L7.49215 71.0969H11.1705V68.3223ZM24.2062 22.6975V19.9229H22.1133L21.5383 21.9352L24.2062 22.6975ZM31.5062 22.6975L34.275 22.5181L34.1068 19.9229H31.5062V22.6975ZM33.0053 45.8358L30.2364 46.0152L30.807 54.8215L35.3786 47.2731L33.0053 45.8358ZM47.0186 22.6975V19.9229H45.4552L44.6453 21.2601L47.0186 22.6975ZM52.8239 21.9352L39.7882 67.56L45.124 69.0845L58.1596 23.4597L52.8239 21.9352ZM42.4561 65.5476H34.6999V71.0969H42.4561V65.5476ZM37.3678 69.0845L41.2785 55.3971L35.9427 53.8726L32.032 67.56L37.3678 69.0845ZM41.2525 55.4825L45.1632 43.2942L39.8793 41.5988L35.9686 53.7871L41.2525 55.4825ZM42.5213 39.6719H42.1954V45.2211H42.5213V39.6719ZM39.8289 40.998L28.6182 59.3131L33.3512 62.2101L44.5619 43.895L39.8289 40.998ZM30.9847 57.987H27.3348V63.5362H30.9847V57.987ZM30.1037 60.5842L28.9305 42.2691L23.3926 42.6239L24.5658 60.939L30.1037 60.5842ZM26.1615 39.6719H25.8357V45.2211H26.1615V39.6719ZM23.1414 41.7837L20.1432 53.9721L25.5317 55.2976L28.5299 43.1093L23.1414 41.7837ZM20.1696 53.8726L16.2589 67.56L21.5946 69.0845L25.5053 55.3971L20.1696 53.8726ZM18.9268 65.5476H11.1705V71.0969H18.9268V65.5476ZM13.8384 69.0845L26.8741 23.4597L21.5383 21.9352L8.50268 67.56L13.8384 69.0845ZM24.2062 25.4721H31.5062V19.9229H24.2062V25.4721ZM28.7373 22.8769L30.2364 46.0152L35.7741 45.6564L34.275 22.5181L28.7373 22.8769ZM35.3786 47.2731L49.3919 24.1348L44.6453 21.2601L30.632 44.3984L35.3786 47.2731ZM47.0186 25.4721H55.4918V19.9229H47.0186V25.4721ZM76.2582 58.5455L78.9236 59.3163L78.9268 59.305L76.2582 58.5455ZM71.9564 66.3017L73.7621 68.4084L71.9564 66.3017ZM53.2502 65.4544L55.638 64.0413L53.2502 65.4544ZM52.7288 57.4375L50.0602 56.678L50.0596 56.68L52.7288 57.4375ZM59.8332 32.4742L57.1678 31.7035L57.1646 31.7147L59.8332 32.4742ZM64.135 24.718L62.3293 22.6114L64.135 24.718ZM82.8412 25.5653L80.4534 26.9785V26.9785L82.8412 25.5653ZM83.3626 33.5822L86.0312 34.3417L86.0318 34.3397L83.3626 33.5822ZM75.6064 32.3439L78.274 33.107L78.2796 33.0874L78.2849 33.0678L75.6064 32.3439ZM68.893 30.584L66.8307 28.7279L66.8249 28.7343L66.8192 28.7407L68.893 30.584ZM67.9805 32.4742L65.3229 31.6769L65.3178 31.694L65.3129 31.7111L67.9805 32.4742ZM60.485 58.6759L57.8174 57.9128L57.8118 57.9323L57.8065 57.952L60.485 58.6759ZM67.1332 60.5009L65.0709 58.6448L65.0651 58.6511L65.0594 58.6575L67.1332 60.5009ZM68.1109 58.5455L70.7685 59.3428L70.7736 59.3258L70.7785 59.3086L68.1109 58.5455ZM73.5927 57.7748C72.6223 61.1309 71.3943 63.1291 70.1507 64.1951L73.7621 68.4084C76.1685 66.3458 77.8083 63.1732 78.9236 59.3162L73.5927 57.7748ZM70.1507 64.1951C68.9437 65.2296 67.2268 65.8735 64.7216 65.8735V71.4228C68.2129 71.4228 71.3191 70.5024 73.7621 68.4084L70.1507 64.1951ZM64.7216 65.8735H60.2895V71.4228H64.7216V65.8735ZM60.2895 65.8735C57.4132 65.8735 56.215 65.0162 55.638 64.0413L50.8625 66.8676C52.8057 70.1509 56.3003 71.4228 60.2895 71.4228V65.8735ZM55.638 64.0413C54.8865 62.7715 54.6176 60.945 55.398 58.195L50.0596 56.68C49.015 60.3609 49.0937 63.879 50.8625 66.8676L55.638 64.0413ZM55.3975 58.197L62.5019 33.2337L57.1646 31.7147L50.0602 56.678L55.3975 58.197ZM62.4987 33.2449C63.4691 29.8889 64.6971 27.8906 65.9407 26.8247L62.3293 22.6114C59.923 24.674 58.2831 27.8465 57.1678 31.7035L62.4987 33.2449ZM65.9407 26.8247C67.1477 25.7901 68.8646 25.1462 71.3698 25.1462V19.597C67.8786 19.597 64.7723 20.5174 62.3293 22.6114L65.9407 26.8247ZM71.3698 25.1462H75.8019V19.597H71.3698V25.1462ZM75.8019 25.1462C78.6782 25.1462 79.8764 26.0035 80.4534 26.9785L85.2289 24.1522C83.2857 20.8688 79.7911 19.597 75.8019 19.597V25.1462ZM80.4534 26.9785C81.2049 28.2482 81.4738 30.0747 80.6934 32.8248L86.0318 34.3397C87.0764 30.6589 86.9977 27.1408 85.2289 24.1522L80.4534 26.9785ZM80.6939 32.8228L73.5895 57.786L78.9268 59.305L86.0312 34.3417L80.6939 32.8228ZM78.2849 33.0678C78.5771 31.9865 78.7765 30.3287 77.7336 28.8996C76.6615 27.4304 74.9859 27.1576 73.8466 27.1576V32.7069C74.0367 32.7069 74.0291 32.7332 73.9065 32.6883C73.7571 32.6336 73.4811 32.486 73.251 32.1707C73.0253 31.8614 72.9788 31.5756 72.9717 31.4634C72.9659 31.372 72.9851 31.4081 72.9279 31.6199L78.2849 33.0678ZM73.8466 27.1576H70.5877V32.7069H73.8466V27.1576ZM70.5877 27.1576C69.2844 27.1576 67.8801 27.5619 66.8307 28.7279L70.9554 32.4402C70.9063 32.4947 70.8477 32.5466 70.782 32.5914C70.7166 32.6359 70.6554 32.6659 70.606 32.6849C70.5091 32.7222 70.486 32.7069 70.5877 32.7069V27.1576ZM66.8192 28.7407C66.074 29.5791 65.6266 30.6647 65.3229 31.6769L70.6381 33.2715C70.738 32.9385 70.8299 32.7072 70.9029 32.5562C70.9784 32.3996 71.0097 32.3792 70.9668 32.4274L66.8192 28.7407ZM65.3129 31.7111L57.8174 57.9128L63.1526 59.439L70.6481 33.2373L65.3129 31.7111ZM57.8065 57.952C57.5143 59.0332 57.3149 60.691 58.3578 62.1201C59.4299 63.5893 61.1055 63.8621 62.2448 63.8621V58.3129C62.0548 58.3129 62.0623 58.2865 62.1849 58.3315C62.3343 58.3862 62.6103 58.5337 62.8404 58.849C63.0661 59.1583 63.1126 59.4441 63.1197 59.5563C63.1255 59.6477 63.1063 59.6117 63.1635 59.3998L57.8065 57.952ZM62.2448 63.8621H65.5038V58.3129H62.2448V63.8621ZM65.5038 63.8621C66.6985 63.8621 68.1444 63.5396 69.207 62.3442L65.0594 58.6575C65.2245 58.4718 65.4068 58.3729 65.5253 58.3302C65.6262 58.2939 65.638 58.3129 65.5038 58.3129V63.8621ZM69.1956 62.357C69.9705 61.496 70.4485 60.4094 70.7685 59.3428L65.4533 57.7482C65.3581 58.0655 65.2661 58.2915 65.1892 58.4453C65.1116 58.6005 65.0645 58.6518 65.0709 58.6448L69.1956 62.357ZM70.7785 59.3086L78.274 33.107L72.9388 31.5807L65.4433 57.7824L70.7785 59.3086ZM110.756 30.2582V33.0328H112.852L113.425 31.0174L110.756 30.2582ZM103.261 30.2582V27.4835H101.168L100.593 29.4953L103.261 30.2582ZM92.376 68.3223V71.0969H94.4684L95.0437 69.0851L92.376 68.3223ZM84.2288 68.3223L81.5611 67.5594L80.5495 71.0969H84.2288V68.3223ZM95.1135 30.2582L97.7812 31.021L98.7928 27.4835H95.1135V30.2582ZM87.618 30.2582L84.9493 29.499L83.944 33.0328H87.618V30.2582ZM89.7689 22.6975V19.9229H87.6735L87.1002 21.9383L89.7689 22.6975ZM112.907 22.6975L115.576 23.4567L116.581 19.9229H112.907V22.6975ZM110.756 27.4835H103.261V33.0328H110.756V27.4835ZM100.593 29.4953L89.7084 67.5594L95.0437 69.0851L105.928 31.021L100.593 29.4953ZM92.376 65.5476H84.2288V71.0969H92.376V65.5476ZM86.8964 69.0851L97.7812 31.021L92.4458 29.4953L81.5611 67.5594L86.8964 69.0851ZM95.1135 27.4835H87.618V33.0328H95.1135V27.4835ZM90.2868 31.0174L92.4376 23.4567L87.1002 21.9383L84.9493 29.499L90.2868 31.0174ZM89.7689 25.4721H112.907V19.9229H89.7689V25.4721ZM110.238 21.9383L108.088 29.499L113.425 31.0174L115.576 23.4567L110.238 21.9383ZM129.788 58.5455L132.454 59.3163L132.457 59.305L129.788 58.5455ZM125.487 66.3017L127.292 68.4084L125.487 66.3017ZM106.78 65.4544L109.168 64.0413L106.78 65.4544ZM106.259 57.4375L103.59 56.678L103.59 56.68L106.259 57.4375ZM113.363 32.4742L110.698 31.7035L110.695 31.7147L113.363 32.4742ZM117.665 24.718L115.86 22.6114L117.665 24.718ZM136.371 25.5653L133.984 26.9785V26.9785L136.371 25.5653ZM136.893 33.5822L139.561 34.3417L139.562 34.3397L136.893 33.5822ZM129.137 32.3439L131.804 33.107L131.81 33.0874L131.815 33.0678L129.137 32.3439ZM122.423 30.584L120.361 28.7279L120.355 28.7343L120.349 28.7407L122.423 30.584ZM121.511 32.4742L118.853 31.6769L118.848 31.694L118.843 31.7111L121.511 32.4742ZM114.015 58.6759L111.348 57.9128L111.342 57.9323L111.337 57.952L114.015 58.6759ZM120.663 60.5009L118.601 58.6448L118.595 58.6511L118.59 58.6575L120.663 60.5009ZM121.641 58.5455L124.299 59.3428L124.304 59.3258L124.309 59.3086L121.641 58.5455ZM127.123 57.7748C126.153 61.1309 124.925 63.1291 123.681 64.1951L127.292 68.4084C129.699 66.3458 131.339 63.1732 132.454 59.3162L127.123 57.7748ZM123.681 64.1951C122.474 65.2296 120.757 65.8735 118.252 65.8735V71.4228C121.743 71.4228 124.849 70.5024 127.292 68.4084L123.681 64.1951ZM118.252 65.8735H113.82V71.4228H118.252V65.8735ZM113.82 65.8735C110.943 65.8735 109.745 65.0162 109.168 64.0413L104.393 66.8676C106.336 70.1509 109.831 71.4228 113.82 71.4228V65.8735ZM109.168 64.0413C108.417 62.7715 108.148 60.945 108.928 58.195L103.59 56.68C102.545 60.3609 102.624 63.879 104.393 66.8676L109.168 64.0413ZM108.928 58.197L116.032 33.2337L110.695 31.7147L103.59 56.678L108.928 58.197ZM116.029 33.2449C116.999 29.8889 118.227 27.8906 119.471 26.8247L115.86 22.6114C113.453 24.674 111.813 27.8465 110.698 31.7035L116.029 33.2449ZM119.471 26.8247C120.678 25.7901 122.395 25.1462 124.9 25.1462V19.597C121.409 19.597 118.303 20.5174 115.86 22.6114L119.471 26.8247ZM124.9 25.1462H129.332V19.597H124.9V25.1462ZM129.332 25.1462C132.208 25.1462 133.407 26.0035 133.984 26.9785L138.759 24.1522C136.816 20.8688 133.321 19.597 129.332 19.597V25.1462ZM133.984 26.9785C134.735 28.2482 135.004 30.0747 134.224 32.8248L139.562 34.3397C140.607 30.6589 140.528 27.1408 138.759 24.1522L133.984 26.9785ZM134.224 32.8228L127.12 57.786L132.457 59.305L139.561 34.3417L134.224 32.8228ZM131.815 33.0678C132.107 31.9865 132.307 30.3287 131.264 28.8996C130.192 27.4304 128.516 27.1576 127.377 27.1576V32.7069C127.567 32.7069 127.559 32.7332 127.437 32.6883C127.287 32.6336 127.011 32.486 126.781 32.1707C126.555 31.8614 126.509 31.5756 126.502 31.4634C126.496 31.372 126.515 31.4081 126.458 31.6199L131.815 33.0678ZM127.377 27.1576H124.118V32.7069H127.377V27.1576ZM124.118 27.1576C122.815 27.1576 121.41 27.5619 120.361 28.7279L124.486 32.4402C124.437 32.4947 124.378 32.5466 124.312 32.5914C124.247 32.6359 124.186 32.6659 124.136 32.6849C124.039 32.7222 124.016 32.7069 124.118 32.7069V27.1576ZM120.349 28.7407C119.604 29.5791 119.157 30.6647 118.853 31.6769L124.168 33.2715C124.268 32.9385 124.36 32.7072 124.433 32.5562C124.509 32.3996 124.54 32.3792 124.497 32.4274L120.349 28.7407ZM118.843 31.7111L111.348 57.9128L116.683 59.439L124.178 33.2373L118.843 31.7111ZM111.337 57.952C111.044 59.0332 110.845 60.691 111.888 62.1201C112.96 63.5893 114.636 63.8621 115.775 63.8621V58.3129C115.585 58.3129 115.593 58.2865 115.715 58.3315C115.865 58.3862 116.14 58.5337 116.371 58.849C116.596 59.1583 116.643 59.4441 116.65 59.5563C116.656 59.6477 116.636 59.6117 116.694 59.3998L111.337 57.952ZM115.775 63.8621H119.034V58.3129H115.775V63.8621ZM119.034 63.8621C120.229 63.8621 121.675 63.5396 122.737 62.3442L118.59 58.6575C118.755 58.4718 118.937 58.3729 119.056 58.3302C119.156 58.2939 119.168 58.3129 119.034 58.3129V63.8621ZM122.726 62.357C123.501 61.496 123.979 60.4094 124.299 59.3428L118.983 57.7482C118.888 58.0655 118.796 58.2915 118.719 58.4453C118.642 58.6005 118.595 58.6518 118.601 58.6448L122.726 62.357ZM124.309 59.3086L131.804 33.107L126.469 31.5807L118.973 57.7824L124.309 59.3086ZM133.818 68.3223L131.15 67.56L130.139 71.0969H133.818V68.3223ZM146.853 22.6975V19.9229H144.76L144.185 21.9352L146.853 22.6975ZM165.625 25.9564L163.225 27.3485L163.241 27.377L163.258 27.4052L165.625 25.9564ZM166.211 33.9081L168.877 34.6776L168.878 34.6752L166.211 33.9081ZM164.386 40.2304L167.05 41.0082L167.052 40.9999L164.386 40.2304ZM157.217 49.5509L156.209 46.9656L154.402 47.6697L154.443 49.6087L157.217 49.5509ZM157.608 68.3223V71.0969H160.441L160.382 68.2645L157.608 68.3223ZM149.656 68.3223L146.881 68.3424L146.901 71.0969H149.656V68.3223ZM149.526 50.3331L152.3 50.313L152.28 47.5584H149.526V50.3331ZM147.114 50.3331V47.5584H145.022L144.447 49.5695L147.114 50.3331ZM141.965 68.3223V71.0969H144.057L144.632 69.0858L141.965 68.3223ZM149.2 43.0331L146.531 42.2726L145.524 45.8077H149.2V43.0331ZM155.196 42.4465L153.134 40.5904L153.128 40.5967L153.122 40.6031L155.196 42.4465ZM156.174 40.4911L158.831 41.2884L158.835 41.2766L158.838 41.2647L156.174 40.4911ZM158.52 32.409L161.185 33.1826L161.192 33.1579L161.199 33.133L158.52 32.409ZM152.915 29.9974V27.2228H150.821L150.247 29.237L152.915 29.9974ZM136.486 69.0845L149.521 23.4597L144.185 21.9352L131.15 67.56L136.486 69.0845ZM146.853 25.4721H158.651V19.9229H146.853V25.4721ZM158.651 25.4721C161.442 25.4721 162.63 26.3235 163.225 27.3485L168.025 24.5643C166.099 21.2441 162.638 19.9229 158.651 19.9229V25.4721ZM163.258 27.4052C164.036 28.6749 164.315 30.4639 163.545 33.1411L168.878 34.6752C169.933 31.0084 169.821 27.4962 167.991 24.5076L163.258 27.4052ZM163.546 33.1386L161.721 39.4609L167.052 40.9999L168.877 34.6776L163.546 33.1386ZM161.723 39.4526C160.423 43.9056 158.451 46.0921 156.209 46.9656L158.224 52.1363C162.674 50.4026 165.482 46.3755 167.05 41.0082L161.723 39.4526ZM154.443 49.6087L154.834 68.3801L160.382 68.2645L159.991 49.4931L154.443 49.6087ZM157.608 65.5476H149.656V71.0969H157.608V65.5476ZM152.431 68.3022L152.3 50.313L146.751 50.3532L146.881 68.3424L152.431 68.3022ZM149.526 47.5584H147.114V53.1077H149.526V47.5584ZM144.447 49.5695L139.297 67.5587L144.632 69.0858L149.782 51.0966L144.447 49.5695ZM141.965 65.5476H133.818V71.0969H141.965V65.5476ZM149.2 45.8077H153.567V40.2585H149.2V45.8077ZM153.567 45.8077C154.761 45.8077 156.207 45.4852 157.27 44.2898L153.122 40.6031C153.287 40.4174 153.47 40.3185 153.588 40.2758C153.689 40.2395 153.701 40.2585 153.567 40.2585V45.8077ZM157.259 44.3026C158.033 43.4416 158.511 42.355 158.831 41.2884L153.516 39.6939C153.421 40.0111 153.329 40.2371 153.252 40.3909C153.175 40.5461 153.127 40.5974 153.134 40.5904L157.259 44.3026ZM158.838 41.2647L161.185 33.1826L155.856 31.6355L153.509 39.7176L158.838 41.2647ZM161.199 33.133C161.491 32.0517 161.69 30.3939 160.648 28.9648C159.575 27.4956 157.9 27.2228 156.76 27.2228V32.7721C156.951 32.7721 156.943 32.7984 156.82 32.7535C156.671 32.6987 156.395 32.5512 156.165 32.2359C155.939 31.9266 155.893 31.6408 155.886 31.5286C155.88 31.4372 155.899 31.4732 155.842 31.6851L161.199 33.133ZM156.76 27.2228H152.915V32.7721H156.76V27.2228ZM150.247 29.237L146.531 42.2726L151.868 43.7936L155.583 30.7579L150.247 29.237ZM165.53 65.4544L167.918 64.0413L165.53 65.4544ZM165.009 57.4375L162.34 56.678L162.339 56.68L165.009 57.4375ZM172.113 32.4742L169.448 31.7035L169.444 31.7147L172.113 32.4742ZM176.415 24.718L174.609 22.6114L176.415 24.718ZM194.274 25.5653L191.886 26.9785V26.9785L194.274 25.5653ZM194.795 33.5822L197.464 34.3416L197.464 34.3397L194.795 33.5822ZM192.514 41.5992V44.3738H194.609L195.182 42.3586L192.514 41.5992ZM184.562 41.5992L181.896 40.8295L180.873 44.3738H184.562V41.5992ZM187.234 32.3439L189.9 33.1135L189.907 33.0907L189.913 33.0678L187.234 32.3439ZM181.173 30.584L179.11 28.7279L179.105 28.7343L179.099 28.7407L181.173 30.584ZM180.26 32.4742L177.603 31.6769L177.598 31.694L177.593 31.7111L180.26 32.4742ZM172.765 58.6759L170.097 57.9128L170.092 57.9323L170.086 57.952L172.765 58.6759ZM178.761 60.5009L176.699 58.6448L176.693 58.6511L176.687 58.6575L178.761 60.5009ZM179.739 58.5455L182.396 59.3428L182.402 59.324L182.407 59.3051L179.739 58.5455ZM182.15 50.0724V47.2977H180.055L179.482 49.3128L182.15 50.0724ZM190.167 50.0724L192.836 50.8319L193.842 47.2977H190.167V50.0724ZM187.756 58.5455L190.421 59.3163L190.424 59.3051L187.756 58.5455ZM183.454 66.3017L181.648 64.1951L183.454 66.3017ZM172.569 65.8735C169.693 65.8735 168.495 65.0162 167.918 64.0413L163.142 66.8676C165.085 70.1509 168.58 71.4228 172.569 71.4228V65.8735ZM167.918 64.0413C167.166 62.7715 166.897 60.945 167.678 58.195L162.339 56.68C161.295 60.3609 161.373 63.879 163.142 66.8676L167.918 64.0413ZM167.677 58.197L174.782 33.2337L169.444 31.7147L162.34 56.678L167.677 58.197ZM174.778 33.2449C175.749 29.8889 176.977 27.8906 178.22 26.8247L174.609 22.6114C172.203 24.674 170.563 27.8465 169.448 31.7035L174.778 33.2449ZM178.22 26.8247C179.427 25.7901 181.144 25.1462 183.65 25.1462V19.597C180.158 19.597 177.052 20.5174 174.609 22.6114L178.22 26.8247ZM183.65 25.1462H187.234V19.597H183.65V25.1462ZM187.234 25.1462C190.111 25.1462 191.309 26.0035 191.886 26.9785L196.661 24.1522C194.718 20.8688 191.223 19.597 187.234 19.597V25.1462ZM191.886 26.9785C192.637 28.2482 192.906 30.0747 192.126 32.8248L197.464 34.3397C198.509 30.6589 198.43 27.1408 196.661 24.1522L191.886 26.9785ZM192.126 32.8229L189.845 40.8398L195.182 42.3586L197.464 34.3416L192.126 32.8229ZM192.514 38.8246H184.562V44.3738H192.514V38.8246ZM187.228 42.3689L189.9 33.1135L184.569 31.5742L181.896 40.8295L187.228 42.3689ZM189.913 33.0678C190.205 31.9865 190.404 30.3287 189.362 28.8996C188.289 27.4304 186.614 27.1576 185.475 27.1576V32.7069C185.665 32.7069 185.657 32.7332 185.534 32.6883C185.385 32.6336 185.109 32.486 184.879 32.1707C184.653 31.8614 184.607 31.5756 184.6 31.4634C184.594 31.372 184.613 31.4081 184.556 31.6199L189.913 33.0678ZM185.475 27.1576H182.867V32.7069H185.475V27.1576ZM182.867 27.1576C181.564 27.1576 180.16 27.5619 179.11 28.7279L183.235 32.4402C183.186 32.4947 183.127 32.5466 183.062 32.5914C182.996 32.6359 182.935 32.6659 182.886 32.6849C182.789 32.7222 182.766 32.7069 182.867 32.7069V27.1576ZM179.099 28.7407C178.354 29.5791 177.906 30.6647 177.603 31.6769L182.918 33.2715C183.018 32.9385 183.11 32.7072 183.183 32.5562C183.258 32.3996 183.289 32.3792 183.247 32.4274L179.099 28.7407ZM177.593 31.7111L170.097 57.9128L175.432 59.439L182.928 33.2373L177.593 31.7111ZM170.086 57.952C169.794 59.0332 169.595 60.691 170.638 62.1201C171.71 63.5893 173.385 63.8621 174.525 63.8621V58.3129C174.334 58.3129 174.342 58.2865 174.465 58.3315C174.614 58.3862 174.89 58.5337 175.12 58.849C175.346 59.1583 175.392 59.4441 175.399 59.5563C175.405 59.6477 175.386 59.6117 175.443 59.3998L170.086 57.952ZM174.525 63.8621H177.132V58.3129H174.525V63.8621ZM177.132 63.8621C178.326 63.8621 179.772 63.5396 180.835 62.3442L176.687 58.6575C176.852 58.4718 177.035 58.3729 177.153 58.3302C177.254 58.2939 177.266 58.3129 177.132 58.3129V63.8621ZM180.824 62.357C181.598 61.496 182.076 60.4094 182.396 59.3428L177.081 57.7482C176.986 58.0655 176.894 58.2915 176.817 58.4453C176.74 58.6005 176.692 58.6518 176.699 58.6448L180.824 62.357ZM182.407 59.3051L184.819 50.8319L179.482 49.3128L177.07 57.786L182.407 59.3051ZM182.15 52.847H190.167V47.2977H182.15V52.847ZM187.499 49.3128L185.087 57.786L190.424 59.3051L192.836 50.8319L187.499 49.3128ZM185.09 57.7748C184.12 61.1309 182.892 63.1291 181.648 64.1951L185.26 68.4084C187.666 66.3458 189.306 63.1732 190.421 59.3162L185.09 57.7748ZM181.648 64.1951C180.441 65.2296 178.724 65.8735 176.219 65.8735V71.4228C179.71 71.4228 182.817 70.5024 185.26 68.4084L181.648 64.1951ZM176.219 65.8735H172.569V71.4228H176.219V65.8735ZM210.257 52.5491L207.864 51.1439L207.685 51.4486L207.588 51.7883L210.257 52.5491ZM205.759 68.3223V71.0969H207.853L208.428 69.0831L205.759 68.3223ZM197.612 68.3223L194.942 67.5675L193.944 71.0969H197.612V68.3223ZM201.979 52.875L204.649 53.6298L204.758 53.242L204.753 52.8391L201.979 52.875ZM201.588 22.6975V19.9229H198.777L198.813 22.7334L201.588 22.6975ZM209.67 22.6975L212.442 22.8219L212.572 19.9229H209.67V22.6975ZM209.214 32.8653L211.98 33.0832L211.983 33.0365L211.986 32.9897L209.214 32.8653ZM208.366 43.6197L205.6 43.4018L205.365 46.3943H208.366V43.6197ZM208.692 43.6197V46.3943H210.414L211.179 44.8512L208.692 43.6197ZM219.056 22.6975V19.9229H217.334L216.569 21.4659L219.056 22.6975ZM227.789 22.6975L230.182 24.1027L232.637 19.9229H227.789V22.6975ZM207.588 51.7883L203.091 67.5615L208.428 69.0831L212.925 53.3099L207.588 51.7883ZM205.759 65.5476H197.612V71.0969H205.759V65.5476ZM200.282 69.0771L204.649 53.6298L199.309 52.1202L194.942 67.5675L200.282 69.0771ZM204.753 52.8391L204.362 22.6615L198.813 22.7334L199.204 52.911L204.753 52.8391ZM201.588 25.4721H209.67V19.9229H201.588V25.4721ZM206.898 22.5731L206.442 32.7409L211.986 32.9897L212.442 22.8219L206.898 22.5731ZM206.448 32.6474L205.6 43.4018L211.132 43.8376L211.98 33.0832L206.448 32.6474ZM208.366 46.3943H208.692V40.8451H208.366V46.3943ZM211.179 44.8512L221.542 23.929L216.569 21.4659L206.206 42.3882L211.179 44.8512ZM219.056 25.4721H227.789V19.9229H219.056V25.4721ZM225.397 21.2923L207.864 51.1439L212.649 53.9543L230.182 24.1027L225.397 21.2923ZM221.033 65.4544L223.421 64.0413L221.033 65.4544ZM220.512 57.4375L217.843 56.678L217.843 56.68L220.512 57.4375ZM227.616 32.4742L224.951 31.7035L224.948 31.7147L227.616 32.4742ZM231.918 24.718L230.112 22.6114L231.918 24.718ZM249.777 25.5653L247.389 26.9785V26.9785L249.777 25.5653ZM250.298 33.5822L252.967 34.3416L252.968 34.3397L250.298 33.5822ZM248.017 41.5992V44.3738H250.112L250.686 42.3586L248.017 41.5992ZM240.065 41.5992L237.4 40.8295L236.376 44.3738H240.065V41.5992ZM242.738 32.3439L245.403 33.1135L245.41 33.0907L245.416 33.0678L242.738 32.3439ZM236.676 30.584L234.614 28.7279L234.608 28.7343L234.602 28.7407L236.676 30.584ZM235.764 32.4742L233.106 31.6769L233.101 31.694L233.096 31.7111L235.764 32.4742ZM228.268 58.6759L225.601 57.9128L225.595 57.9323L225.59 57.952L228.268 58.6759ZM234.265 60.5009L232.202 58.6448L232.196 58.6511L232.191 58.6575L234.265 60.5009ZM235.242 58.5455L237.9 59.3428L237.905 59.324L237.911 59.3051L235.242 58.5455ZM237.654 50.0724V47.2977H235.559L234.985 49.3128L237.654 50.0724ZM245.671 50.0724L248.339 50.8319L249.345 47.2977H245.671V50.0724ZM243.259 58.5455L245.925 59.3163L245.928 59.3051L243.259 58.5455ZM238.957 66.3017L237.152 64.1951L238.957 66.3017ZM228.073 65.8735C225.196 65.8735 223.998 65.0162 223.421 64.0413L218.646 66.8676C220.589 70.1509 224.083 71.4228 228.073 71.4228V65.8735ZM223.421 64.0413C222.67 62.7715 222.401 60.945 223.181 58.195L217.843 56.68C216.798 60.3609 216.877 63.879 218.646 66.8676L223.421 64.0413ZM223.181 58.197L230.285 33.2337L224.948 31.7147L217.843 56.678L223.181 58.197ZM230.282 33.2449C231.252 29.8889 232.48 27.8906 233.724 26.8247L230.112 22.6114C227.706 24.674 226.066 27.8465 224.951 31.7035L230.282 33.2449ZM233.724 26.8247C234.931 25.7901 236.648 25.1462 239.153 25.1462V19.597C235.662 19.597 232.555 20.5174 230.112 22.6114L233.724 26.8247ZM239.153 25.1462H242.738V19.597H239.153V25.1462ZM242.738 25.1462C245.614 25.1462 246.812 26.0035 247.389 26.9785L252.165 24.1522C250.222 20.8688 246.727 19.597 242.738 19.597V25.1462ZM247.389 26.9785C248.141 28.2482 248.41 30.0747 247.629 32.8248L252.968 34.3397C254.012 30.6589 253.933 27.1408 252.165 24.1522L247.389 26.9785ZM247.63 32.8229L245.348 40.8398L250.686 42.3586L252.967 34.3416L247.63 32.8229ZM248.017 38.8246H240.065V44.3738H248.017V38.8246ZM242.731 42.3689L245.403 33.1135L240.072 31.5742L237.4 40.8295L242.731 42.3689ZM245.416 33.0678C245.708 31.9865 245.908 30.3287 244.865 28.8996C243.793 27.4304 242.117 27.1576 240.978 27.1576V32.7069C241.168 32.7069 241.16 32.7332 241.038 32.6883C240.888 32.6336 240.612 32.486 240.382 32.1707C240.157 31.8614 240.11 31.5756 240.103 31.4634C240.097 31.372 240.116 31.4081 240.059 31.6199L245.416 33.0678ZM240.978 27.1576H238.371V32.7069H240.978V27.1576ZM238.371 27.1576C237.067 27.1576 235.663 27.5619 234.614 28.7279L238.738 32.4402C238.689 32.4947 238.631 32.5466 238.565 32.5914C238.5 32.6359 238.439 32.6659 238.389 32.6849C238.292 32.7222 238.269 32.7069 238.371 32.7069V27.1576ZM234.602 28.7407C233.857 29.5791 233.41 30.6647 233.106 31.6769L238.421 33.2715C238.521 32.9385 238.613 32.7072 238.686 32.5562C238.762 32.3996 238.793 32.3792 238.75 32.4274L234.602 28.7407ZM233.096 31.7111L225.601 57.9128L230.936 59.439L238.431 33.2373L233.096 31.7111ZM225.59 57.952C225.297 59.0332 225.098 60.691 226.141 62.1201C227.213 63.5893 228.889 63.8621 230.028 63.8621V58.3129C229.838 58.3129 229.845 58.2865 229.968 58.3315C230.117 58.3862 230.393 58.5337 230.623 58.849C230.849 59.1583 230.896 59.4441 230.903 59.5563C230.909 59.6477 230.889 59.6117 230.947 59.3998L225.59 57.952ZM230.028 63.8621H232.635V58.3129H230.028V63.8621ZM232.635 63.8621C233.83 63.8621 235.276 63.5396 236.338 62.3442L232.191 58.6575C232.356 58.4718 232.538 58.3729 232.657 58.3302C232.757 58.2939 232.769 58.3129 232.635 58.3129V63.8621ZM236.327 62.357C237.102 61.496 237.58 60.4094 237.9 59.3428L232.585 57.7482C232.489 58.0655 232.397 58.2915 232.321 58.4453C232.243 58.6005 232.196 58.6518 232.202 58.6448L236.327 62.357ZM237.911 59.3051L240.322 50.8319L234.985 49.3128L232.574 57.786L237.911 59.3051ZM237.654 52.847H245.671V47.2977H237.654V52.847ZM243.002 49.3128L240.59 57.786L245.928 59.3051L248.339 50.8319L243.002 49.3128ZM240.594 57.7748C239.623 61.1309 238.395 63.1291 237.152 64.1951L240.763 68.4084C243.169 66.3458 244.809 63.1732 245.925 59.3162L240.594 57.7748ZM237.152 64.1951C235.945 65.2296 234.228 65.8735 231.723 65.8735V71.4228C235.214 71.4228 238.32 70.5024 240.763 68.4084L237.152 64.1951ZM231.723 65.8735H228.073V71.4228H231.723V65.8735ZM246.989 68.3223L244.321 67.56L243.31 71.0969H246.989V68.3223ZM260.024 22.6975V19.9229H257.931L257.356 21.9352L260.024 22.6975ZM268.171 22.6975L270.839 23.4603L271.851 19.9229H268.171V22.6975ZM257.287 60.7616L254.619 59.9987L253.607 63.5362H257.287V60.7616ZM267.389 60.7616L270.058 61.5208L271.063 57.987H267.389V60.7616ZM265.238 68.3223V71.0969H267.334L267.907 69.0815L265.238 68.3223ZM249.656 69.0845L262.692 23.4597L257.356 21.9352L244.321 67.56L249.656 69.0845ZM260.024 25.4721H268.171V19.9229H260.024V25.4721ZM265.504 21.9346L254.619 59.9987L259.954 61.5244L270.839 23.4603L265.504 21.9346ZM257.287 63.5362H267.389V57.987H257.287V63.5362ZM264.721 60.0024L262.57 67.5631L267.907 69.0815L270.058 61.5208L264.721 60.0024ZM265.238 65.5476H246.989V71.0969H265.238V65.5476ZM289.059 30.2582V27.4835H286.963L286.39 29.4999L289.059 30.2582ZM285.8 41.7295L283.131 40.9713L282.128 44.5042H285.8V41.7295ZM294.73 41.7295L297.392 42.51L298.434 38.9549H294.73V41.7295ZM292.514 49.2902V52.0648H294.592L295.176 50.0706L292.514 49.2902ZM283.584 49.2902V46.5156H281.488L280.915 48.532L283.584 49.2902ZM280.325 60.7616L277.656 60.0033L276.653 63.5362H280.325V60.7616ZM289.906 60.7616L292.575 61.5208L293.58 57.987H289.906V60.7616ZM287.756 68.3223V71.0969H289.851L290.424 69.0815L287.756 68.3223ZM270.157 68.3223L267.49 67.56L266.479 71.0969H270.157V68.3223ZM283.193 22.6975V19.9229H281.1L280.525 21.9352L283.193 22.6975ZM300.791 22.6975L303.46 23.4567L304.465 19.9229H300.791V22.6975ZM298.64 30.2582V33.0328H300.736L301.309 31.0174L298.64 30.2582ZM286.39 29.4999L283.131 40.9713L288.469 42.4878L291.728 31.0164L286.39 29.4999ZM285.8 44.5042H294.73V38.9549H285.8V44.5042ZM292.067 40.9491L289.851 48.5098L295.176 50.0706L297.392 42.51L292.067 40.9491ZM292.514 46.5156H283.584V52.0648H292.514V46.5156ZM280.915 48.532L277.656 60.0033L282.994 61.5198L286.253 50.0485L280.915 48.532ZM280.325 63.5362H289.906V57.987H280.325V63.5362ZM287.238 60.0024L285.087 67.5631L290.424 69.0815L292.575 61.5208L287.238 60.0024ZM287.756 65.5476H270.157V71.0969H287.756V65.5476ZM272.825 69.0845L285.861 23.4597L280.525 21.9352L267.49 67.56L272.825 69.0845ZM283.193 25.4721H300.791V19.9229H283.193V25.4721ZM298.122 21.9383L295.972 29.499L301.309 31.0174L303.46 23.4567L298.122 21.9383ZM298.64 27.4835H289.059V33.0328H298.64V27.4835ZM295.991 65.4544L298.379 64.0413L295.991 65.4544ZM295.469 57.4375L292.802 56.6752L292.8 56.68L295.469 57.4375ZM296.903 52.4188V49.6441H294.81L294.236 51.6565L296.903 52.4188ZM304.985 52.4188L307.649 53.1957L308.685 49.6441H304.985V52.4188ZM303.16 58.6759L300.497 57.899L300.489 57.9254L300.482 57.952L303.16 58.6759ZM309.027 60.5009L306.964 58.6448L306.958 58.6511L306.953 58.6575L309.027 60.5009ZM310.004 58.5455L312.662 59.3428L312.674 59.3018L312.685 59.2604L310.004 58.5455ZM310.526 56.5902L307.893 55.7128L307.867 55.7933L307.845 55.8753L310.526 56.5902ZM310.721 55.8732L308.029 55.2003V55.2003L310.721 55.8732ZM310.852 55.1563L308.219 54.2788L308.077 54.706V55.1563H310.852ZM310.982 54.5045L308.314 53.7422L308.262 53.9245L308.235 54.1121L310.982 54.5045ZM311.047 53.8527H308.272V54.3029L308.415 54.7301L311.047 53.8527ZM310.982 53.2661H308.207V53.4957L308.245 53.7222L310.982 53.2661ZM310.526 52.0277L308.044 53.2685L308.092 53.3639L308.146 53.4552L310.526 52.0277ZM310.069 51.3107L312.236 49.5774L312.221 49.5587L312.206 49.5402L310.069 51.3107ZM304.073 44.076L306.209 42.3054L306.203 42.2975L306.196 42.2898L304.073 44.076ZM301.987 34.8858L299.309 34.1619L299.308 34.1645L301.987 34.8858ZM302.639 32.4742L299.961 31.747L299.961 31.7503L302.639 32.4742ZM324.083 25.5653L321.695 26.9785L324.083 25.5653ZM324.604 33.5822L321.935 32.8248L321.934 32.8291L324.604 33.5822ZM323.17 38.6662V41.4408H325.271L325.841 39.4194L323.17 38.6662ZM315.088 38.6662L312.43 37.8714L311.363 41.4408H315.088V38.6662ZM316.978 32.3439L319.637 33.1386L319.647 33.1033L319.657 33.0678L316.978 32.3439ZM311.699 30.584L309.636 28.7279L309.631 28.7343L309.625 28.7407L311.699 30.584ZM310.786 32.4742L313.444 33.2715V33.2715L310.786 32.4742ZM310.2 34.4296L312.776 35.46L312.822 35.3453L312.857 35.2268L310.2 34.4296ZM309.613 37.2974L312.384 37.1516V37.1516L309.613 37.2974ZM310.786 39.8394L312.949 38.1014L312.925 38.0715L312.9 38.0424L310.786 39.8394ZM316.652 47.1393L318.819 45.406L318.815 45.4013L316.652 47.1393ZM318.673 56.7857L316.031 55.9389L316.021 55.9681L316.013 55.9975L318.673 56.7857ZM318.151 58.5455L315.491 57.7573L315.489 57.766L315.486 57.7748L318.151 58.5455ZM313.85 66.3017L312.044 64.1951L313.85 66.3017ZM303.03 65.8735C300.154 65.8735 298.956 65.0162 298.379 64.0413L293.603 66.8676C295.546 70.1509 299.041 71.4228 303.03 71.4228V65.8735ZM298.379 64.0413C297.627 62.7715 297.358 60.945 298.139 58.195L292.8 56.68C291.756 60.3609 291.834 63.879 293.603 66.8676L298.379 64.0413ZM298.137 58.1997L299.571 53.181L294.236 51.6565L292.802 56.6752L298.137 58.1997ZM296.903 55.1934H304.985V49.6441H296.903V55.1934ZM302.322 51.6419L300.497 57.899L305.824 59.4528L307.649 53.1957L302.322 51.6419ZM300.482 57.952C300.19 59.0332 299.99 60.691 301.033 62.1201C302.105 63.5893 303.781 63.8621 304.92 63.8621V58.3129C304.73 58.3129 304.738 58.2865 304.86 58.3315C305.01 58.3862 305.286 58.5337 305.516 58.849C305.742 59.1583 305.788 59.4441 305.795 59.5563C305.801 59.6477 305.782 59.6117 305.839 59.3998L300.482 57.952ZM304.92 63.8621H307.397V58.3129H304.92V63.8621ZM307.397 63.8621C308.592 63.8621 310.038 63.5396 311.1 62.3442L306.953 58.6575C307.118 58.4718 307.3 58.3729 307.419 58.3302C307.52 58.2939 307.531 58.3129 307.397 58.3129V63.8621ZM311.089 62.357C311.864 61.496 312.342 60.4094 312.662 59.3428L307.347 57.7482C307.251 58.0655 307.159 58.2915 307.083 58.4453C307.005 58.6005 306.958 58.6518 306.964 58.6448L311.089 62.357ZM312.685 59.2604L313.207 57.3051L307.845 55.8753L307.323 57.8306L312.685 59.2604ZM313.158 57.4676C313.239 57.2232 313.328 56.8875 313.413 56.5462L308.029 55.2003C307.989 55.3626 307.956 55.4889 307.93 55.5831C307.902 55.6855 307.891 55.7202 307.893 55.7128L313.158 57.4676ZM313.413 56.5462C313.491 56.2341 313.626 55.6774 313.626 55.1563H308.077C308.077 55.0973 308.079 55.0505 308.081 55.0193C308.084 54.9875 308.086 54.9639 308.088 54.9502C308.089 54.9362 308.091 54.9281 308.091 54.9268C308.091 54.9254 308.091 54.9286 308.089 54.9369C308.086 54.9543 308.08 54.9849 308.07 55.031C308.06 55.0766 308.046 55.1326 308.029 55.2003L313.413 56.5462ZM313.484 56.0337C313.613 55.6473 313.683 55.2151 313.729 54.8969L308.235 54.1121C308.218 54.2312 308.205 54.3081 308.196 54.3514C308.192 54.3722 308.19 54.3771 308.192 54.3693C308.194 54.3632 308.202 54.3302 308.219 54.2788L313.484 56.0337ZM313.65 55.2667C313.72 55.0197 313.791 54.7177 313.824 54.3895C313.854 54.0954 313.876 53.5662 313.679 52.9753L308.415 54.7301C308.333 54.4836 308.307 54.2755 308.298 54.1398C308.29 54.0016 308.297 53.8966 308.302 53.8373C308.314 53.7264 308.33 53.6851 308.314 53.7422L313.65 55.2667ZM313.822 53.8527C313.822 53.483 313.767 53.1011 313.719 52.8099L308.245 53.7222C308.261 53.8185 308.269 53.8806 308.273 53.9147C308.275 53.9309 308.275 53.9344 308.275 53.9273C308.274 53.9211 308.272 53.8947 308.272 53.8527H313.822ZM313.757 53.2661C313.757 52.715 313.667 52.041 313.333 51.3735L308.37 53.8552C308.21 53.5352 308.207 53.2957 308.207 53.2661H313.757ZM313.333 51.3735C313.207 51.1205 313.061 50.8612 312.905 50.6002L308.146 53.4552C308.251 53.6287 308.323 53.7605 308.37 53.8552L313.333 51.3735ZM313.007 50.7869C312.794 50.3597 312.538 49.9544 312.236 49.5774L307.903 53.044C307.949 53.1016 307.997 53.1743 308.044 53.2685L313.007 50.7869ZM312.206 49.5402L306.209 42.3054L301.937 45.8465L307.933 53.0813L312.206 49.5402ZM306.196 42.2898C304.464 40.2309 303.995 38.1 304.666 35.6071L299.308 34.1645C298.154 38.4501 299.076 42.446 301.95 45.8621L306.196 42.2898ZM304.666 35.6097L305.318 33.1981L299.961 31.7503L299.309 34.1619L304.666 35.6097ZM305.317 33.2015C306.193 29.9745 307.394 27.9975 308.685 26.8864L305.066 22.68C302.62 24.7843 300.997 27.9347 299.961 31.747L305.317 33.2015ZM308.685 26.8864C309.947 25.8004 311.692 25.1462 314.176 25.1462V19.597C310.663 19.597 307.541 20.5505 305.066 22.68L308.685 26.8864ZM314.176 25.1462H317.043V19.597H314.176V25.1462ZM317.043 25.1462C319.92 25.1462 321.118 26.0035 321.695 26.9785L326.47 24.1522C324.527 20.8688 321.033 19.597 317.043 19.597V25.1462ZM321.695 26.9785C322.446 28.2482 322.715 30.0747 321.935 32.8248L327.273 34.3397C328.318 30.6589 328.239 27.1408 326.47 24.1522L321.695 26.9785ZM321.934 32.8291L320.5 37.913L325.841 39.4194L327.275 34.3354L321.934 32.8291ZM323.17 35.8915H315.088V41.4408H323.17V35.8915ZM317.746 39.4609L319.637 33.1386L314.32 31.5491L312.43 37.8714L317.746 39.4609ZM319.657 33.0678C319.949 31.9865 320.148 30.3287 319.106 28.8996C318.033 27.4304 316.358 27.1576 315.218 27.1576V32.7069C315.409 32.7069 315.401 32.7332 315.278 32.6883C315.129 32.6336 314.853 32.486 314.623 32.1707C314.397 31.8614 314.351 31.5756 314.344 31.4634C314.338 31.372 314.357 31.4081 314.3 31.6199L319.657 33.0678ZM315.218 27.1576H313.393V32.7069H315.218V27.1576ZM313.393 27.1576C312.09 27.1576 310.686 27.5619 309.636 28.7279L313.761 32.4402C313.712 32.4947 313.654 32.5466 313.588 32.5914C313.522 32.6359 313.461 32.6659 313.412 32.6849C313.315 32.7222 313.292 32.7069 313.393 32.7069V27.1576ZM309.625 28.7407C308.88 29.5791 308.432 30.6647 308.129 31.6769L313.444 33.2715C313.544 32.9385 313.636 32.7072 313.709 32.5562C313.784 32.3996 313.815 32.3792 313.773 32.4274L309.625 28.7407ZM308.129 31.6769L307.542 33.6323L312.857 35.2268L313.444 33.2715L308.129 31.6769ZM307.624 33.3991C307.097 34.7144 306.771 36.0854 306.842 37.4432L312.384 37.1516C312.368 36.8582 312.433 36.3173 312.776 35.46L307.624 33.3991ZM306.842 37.4432C306.928 39.0696 307.687 40.4768 308.672 41.6363L312.9 38.0424C312.409 37.4639 312.385 37.1764 312.384 37.1516L306.842 37.4432ZM308.624 41.5774L314.49 48.8773L318.815 45.4013L312.949 38.1014L308.624 41.5774ZM314.486 48.8726C316.403 51.2693 316.803 53.5295 316.031 55.9389L321.315 57.6326C322.716 53.2634 321.768 49.0927 318.819 45.406L314.486 48.8726ZM316.013 55.9975L315.491 57.7573L320.812 59.3338L321.333 57.574L316.013 55.9975ZM315.486 57.7748C314.516 61.1309 313.288 63.1291 312.044 64.1951L315.655 68.4084C318.062 66.3458 319.702 63.1732 320.817 59.3162L315.486 57.7748ZM312.044 64.1951C310.837 65.2296 309.12 65.8735 306.615 65.8735V71.4228C310.106 71.4228 313.212 70.5024 315.655 68.4084L312.044 64.1951ZM306.615 65.8735H303.03V71.4228H306.615V65.8735Z" fill="white" mask="url(#path-3-outside-2_562_1921)"/>
</svg>
