<svg width="220" height="66" viewBox="0 0 220 66" fill="none" xmlns="http://www.w3.org/2000/svg">
<g clip-path="url(#clip0_562_1981)">
<g clip-path="url(#clip1_562_1981)">
<path d="M6.41181 60.3637L10.2569 46.5666H0.304932L6.07254 26.4365H71.3258L67.4808 40.0074H97.5628L91.9084 60.3637H6.41181Z" fill="black"/>
<path d="M28.4649 33.7872L27.6733 36.3883H23.7151L24.5067 33.7872H28.4649ZM22.0187 42.6083L22.9234 39.3287H27.2209C29.4827 39.3287 30.8398 38.3109 31.5183 36.1621L31.8576 34.9182C32.6492 32.204 31.4052 30.3945 28.4649 30.3945H9.91804L6.41223 42.4952H22.0187V42.6083Z" fill="#F8FF13"/>
<path d="M38.4168 33.7904H39.887V37.6354H36.268L38.4168 33.7904ZM33.4407 42.6114L34.5716 40.5758H39.887V42.6114H43.3925V30.5107H36.6071L29.4825 42.6114H33.4407Z" fill="#F8FF13"/>
<path d="M50.517 33.7904H54.3624L53.6837 36.3914H49.7255L50.517 33.7904ZM57.5288 36.1653L57.8679 35.0344C58.6598 32.2071 57.4156 30.5107 54.4752 30.5107H47.9162L44.4103 42.6114H48.0293L48.934 39.3318H51.1957L52.2135 42.6114H55.9454L54.8148 39.1056C56.1718 38.6533 57.0764 37.7485 57.5288 36.1653Z" fill="#F8FF13"/>
<path d="M60.9219 42.6114L64.4274 30.5107H60.8087L57.3029 42.6114H60.9219Z" fill="#F8FF13"/>
<path d="M38.304 44.3047L34.1195 49.1676L32.5363 44.3047H16.8167L13.424 56.4054H29.0304L30.953 49.7331L32.197 53.465H34.4588L37.8517 49.5069L35.9288 56.4054H39.5478L42.9406 44.3047H38.304Z" fill="#F8FF13"/>
<path d="M47.4634 51.4295L49.6123 47.5844H51.0824V51.4295H47.4634ZM47.8029 44.3047L40.678 56.4055H44.7494L45.8804 54.3698H51.1956V56.4055H54.7011V44.3047H47.8029Z" fill="#F8FF13"/>
<path d="M66.915 47.8105L67.8196 44.3047H56.85L55.8322 47.8105H59.7904L57.4155 56.4054H61.0342L63.4091 47.8105H66.915Z" fill="#F8FF13"/>
<path d="M71.6628 47.8105H77.2044L78.2223 44.3047H72.3415C70.0798 44.3047 68.7225 45.3225 68.0441 47.4712L66.7999 51.8818C66.0084 54.709 67.2523 56.4054 70.1926 56.4054H74.7164L75.7342 52.8996H70.1926L71.6628 47.8105Z" fill="#F8FF13"/>
<path d="M87.497 44.3047L86.2528 48.7153H82.1818L83.4256 44.3047H79.8069L76.301 56.4055H79.9197L81.1639 52.108H85.3481L84.1043 56.4055H87.723L91.1157 44.3047H87.497Z" fill="#F8FF13"/>
</g>
</g>
<rect x="109.525" y="26.5518" width="1.37854" height="29.8565" fill="black"/>
<g clip-path="url(#clip2_562_1981)">
<path d="M197.341 26.5023L205.98 9.71289L189.098 18.6024L184.629 1.0293L178.716 18.1708L163.444 2.21402L167.402 18.7225L154.436 17.2015L160.165 22.2245L161.278 22.2245L178.457 19.1829C183.065 18.3672 189.243 19.4321 191.926 24.8209C193.966 28.9178 194.322 33.1546 193.936 36.7708C193.676 39.2027 192.693 41.1728 191.285 42.706L195.655 44.3938L213.957 51.4941L199.059 37.2935L218.535 30.7786L197.341 26.5023Z" fill="#E72687"/>
<path d="M136.558 33.923C137.759 33.5572 137.997 31.9195 137.936 30.5887C137.908 29.9645 138.311 29.373 138.926 29.2641L178.987 22.1713C182.988 21.463 187.398 22.5356 189.209 26.1729C190.933 29.6356 191.258 33.2631 190.917 36.4472C190.409 41.2074 185.744 43.8615 180.957 43.8479L138.893 43.7285C138.246 43.7267 137.739 43.1784 137.744 42.5311C137.761 39.9581 137.172 39.246 136.834 39.2308L125.414 39.8432C124.478 39.8934 123.424 39.6941 123.011 38.8524C122.614 38.0425 122.825 37.2059 123.212 36.5351C123.631 35.8093 124.462 35.4802 125.293 35.3732L136.558 33.923Z" fill="#130655"/>
<path d="M173.987 38.3781L174.539 38.7004L174.157 39.3277C174.443 39.596 174.75 39.8418 175.074 40.0628L183.69 25.6242C183.343 25.451 182.985 25.3 182.618 25.1719L182.237 25.7991L181.694 25.4747L181.987 24.9828C180.227 24.5401 178.371 24.6766 176.695 25.372C175.018 26.0675 173.61 27.2848 172.68 28.8435C171.75 30.4022 171.347 32.2192 171.531 34.0249C171.715 35.8307 172.476 37.529 173.702 38.868L173.987 38.3781ZM180.837 26.9096L181.38 27.234L180.531 28.6668L179.988 28.3423L180.837 26.9096ZM179.131 29.7772L179.666 30.1037L178.817 31.5364L178.274 31.212L179.131 29.7772ZM177.417 32.6469L177.96 32.9713L177.101 34.398L176.558 34.0735L177.417 32.6469ZM175.701 35.5084L176.247 35.841L175.39 37.2758L174.846 36.9514L175.701 35.5084ZM177.234 41.1722L177.615 40.5449L178.159 40.8693L177.865 41.3613C179.625 41.804 181.481 41.6675 183.158 40.972C184.834 40.2766 186.242 39.0592 187.172 37.5005C188.102 35.9418 188.505 34.1249 188.321 32.3191C188.137 30.5134 187.376 28.8151 186.151 27.4761L185.865 27.966L185.314 27.6436L185.695 27.0164C185.409 26.748 185.103 26.5022 184.779 26.2812L176.162 40.7198C176.51 40.893 176.868 41.0441 177.234 41.1722ZM184.465 29.0764L185.008 29.4008L184.151 30.8356L183.606 30.503L184.465 29.0764ZM182.751 31.9461L183.294 32.2705L182.435 33.6972L181.892 33.3727L182.751 31.9461ZM181.035 34.8076L181.578 35.132L180.729 36.5648L180.178 36.2424L181.035 34.8076ZM179.321 37.6773L179.864 38.0017L179.007 39.4365L178.464 39.1121L179.321 37.6773Z" fill="white"/>
<path d="M140.619 52.4189L141.408 46.7281H142.399L142.025 49.102L141.757 50.5085H141.79L143.212 47.4761H143.847L143.619 50.5085H143.651L144.212 49.037L145.164 46.7281H146.204L143.741 52.4189H142.741L142.936 49.7361H142.903L141.692 52.4189H140.619ZM146.446 52.4596C145.56 52.4596 145.283 51.8255 145.503 51.0613L146.389 47.9476C146.649 47.0289 147.088 46.6875 147.828 46.6875H148.381C149.267 46.6875 149.543 47.3216 149.324 48.0858L148.438 51.1995C148.178 52.1181 147.739 52.4596 146.999 52.4596H146.446ZM146.69 51.5165H147.096C147.291 51.5165 147.365 51.4027 147.421 51.1995L148.356 47.9313C148.413 47.7281 148.348 47.6305 148.137 47.6305H147.73C147.535 47.6305 147.462 47.7444 147.405 47.9476L146.47 51.2157C146.413 51.419 146.478 51.5165 146.69 51.5165ZM148.94 52.4189L150.566 46.7281H152.038C152.924 46.7281 153.2 47.3704 152.981 48.1265L152.753 48.915C152.566 49.5573 152.257 49.9231 151.859 50.0776L151.908 52.4189H150.916L150.9 50.1751H150.599L149.956 52.4189H148.94ZM150.859 49.2646H151.404C151.599 49.2646 151.672 49.1508 151.729 48.9476L152.021 47.9395C152.078 47.7362 152.013 47.6387 151.802 47.6387H151.322L150.859 49.2646ZM152.561 52.4189L154.186 46.7281H155.203L153.845 51.4759H155.105L154.837 52.4189H152.561ZM155.45 52.4189L157.076 46.7281H158.694C159.58 46.7281 159.857 47.3623 159.637 48.1265L158.767 51.1588C158.507 52.0775 158.068 52.4189 157.328 52.4189H155.45ZM156.735 51.4759H157.426C157.621 51.4759 157.694 51.3621 157.751 51.1588L158.67 47.972C158.727 47.7688 158.662 47.6712 158.45 47.6712H157.824L156.735 51.4759ZM161.689 52.4596C160.803 52.4596 160.527 51.8255 160.746 51.0613L161.632 47.9476C161.892 47.0289 162.331 46.6875 163.071 46.6875H163.518C164.404 46.6875 164.681 47.3216 164.461 48.0858L164.177 49.0858H163.185L163.518 47.9313C163.575 47.7281 163.51 47.6305 163.299 47.6305H162.974C162.778 47.6305 162.705 47.7444 162.648 47.9476L161.714 51.2157C161.657 51.419 161.722 51.5165 161.933 51.5165H162.258C162.453 51.5165 162.526 51.4027 162.583 51.1995L162.884 50.1426H163.884L163.583 51.1995C163.323 52.1181 162.884 52.4596 162.144 52.4596H161.689ZM164.049 52.4189L165.674 46.7281H167.146C168.032 46.7281 168.308 47.3704 168.089 48.1265L167.861 48.915C167.674 49.5573 167.365 49.9231 166.967 50.0776L167.016 52.4189H166.024L166.008 50.1751H165.707L165.065 52.4189H164.049ZM165.967 49.2646H166.512C166.707 49.2646 166.78 49.1508 166.837 48.9476L167.13 47.9395C167.187 47.7362 167.122 47.6387 166.91 47.6387H166.431L165.967 49.2646ZM167.669 52.4189L169.295 46.7281H170.311L168.685 52.4189H167.669ZM170.875 52.4596C169.989 52.4596 169.712 51.8255 169.932 51.0613L170.818 47.9476C171.078 47.0289 171.517 46.6875 172.257 46.6875H172.704C173.59 46.6875 173.866 47.3216 173.647 48.0858L173.362 49.0858H172.371L172.704 47.9313C172.761 47.7281 172.696 47.6305 172.484 47.6305H172.159C171.964 47.6305 171.891 47.7444 171.834 47.9476L170.899 51.2157C170.842 51.419 170.907 51.5165 171.119 51.5165H171.444C171.639 51.5165 171.712 51.4027 171.769 51.1995L172.07 50.1426H173.07L172.769 51.1995C172.509 52.1181 172.07 52.4596 171.33 52.4596H170.875ZM173.234 52.4189L174.86 46.7281H175.876L175.202 49.102H175.388L176.771 46.7281H177.811L176.177 49.4923L176.258 52.4189H175.242L175.234 50.0451H174.925L174.25 52.4189H173.234ZM176.878 52.4189L178.504 46.7281H180.699L180.431 47.6712H179.236L178.829 49.102H179.943L179.667 50.0451H178.553L178.146 51.4759H179.342L179.073 52.4189H176.878ZM180.291 52.4189L181.649 47.6712H180.714L180.982 46.7281H183.868L183.6 47.6712H182.665L181.308 52.4189H180.291Z" fill="#130655"/>
<path d="M139.496 63.3199C137.909 63.3199 137.414 62.1843 137.807 60.8158L139.394 55.2398C139.86 53.5947 140.646 52.9832 141.971 52.9832H142.771C144.358 52.9832 144.853 54.1188 144.46 55.4873L143.951 57.278H142.174L142.771 55.2107C142.873 54.8467 142.757 54.672 142.378 54.672H141.796C141.446 54.672 141.315 54.8758 141.214 55.2398L139.539 61.0924C139.437 61.4564 139.554 61.6311 139.932 61.6311H140.515C140.864 61.6311 140.995 61.4272 141.097 61.0633L141.636 59.1706H143.426L142.888 61.0633C142.422 62.7084 141.636 63.3199 140.311 63.3199H139.496ZM146.123 63.3199C144.536 63.3199 144.027 62.1843 144.434 60.8158L146.633 53.056H148.452L146.152 61.0924C146.05 61.4564 146.181 61.6311 146.56 61.6311H147.229C147.579 61.6311 147.695 61.4272 147.797 61.0633L150.097 53.056H151.903L149.617 61.0633C149.151 62.7084 148.38 63.3199 147.055 63.3199H146.123ZM150.588 63.2471L153.5 53.056H156.193C157.78 53.056 158.275 54.2062 157.882 55.5601L157.459 57.0305C156.994 58.6757 156.207 59.2871 154.883 59.2871H153.543L152.408 63.2471H150.588ZM154.024 57.5983H155.057C155.407 57.5983 155.538 57.3945 155.64 57.0305L156.149 55.2835C156.251 54.9195 156.135 54.7448 155.756 54.7448H154.839L154.024 57.5983ZM158.755 63.2471L159.221 61.6311C159.439 60.874 159.774 60.2771 160.4 59.6802L163.675 56.5064C163.879 56.3026 164.01 56.1279 164.083 55.8804L164.272 55.2107C164.374 54.8467 164.258 54.672 163.879 54.672H163.413C163.064 54.672 162.933 54.8758 162.831 55.2398L162.584 56.1133H160.793L161.04 55.2398C161.506 53.5947 162.292 52.9832 163.617 52.9832H164.287C165.874 52.9832 166.369 54.1188 165.976 55.4873L165.874 55.8513C165.699 56.4627 165.437 56.8995 164.928 57.3945L161.492 60.6993C161.288 60.9031 161.171 61.0778 161.099 61.3253L161.04 61.5H164.258L163.763 63.2471H158.755ZM167.189 63.3199C165.603 63.3199 165.108 62.1843 165.501 60.8158L167.088 55.2398C167.553 53.5947 168.34 52.9832 169.664 52.9832H170.421C172.008 52.9832 172.503 54.1188 172.11 55.4873L170.523 61.0633C170.057 62.7084 169.271 63.3199 167.946 63.3199H167.189ZM167.597 61.6311H168.15C168.5 61.6311 168.631 61.4272 168.733 61.0633L170.407 55.2107C170.509 54.8467 170.392 54.672 170.014 54.672H169.461C169.111 54.672 168.98 54.8758 168.878 55.2398L167.204 61.0924C167.102 61.4564 167.219 61.6311 167.597 61.6311ZM171.01 63.2471L171.476 61.6311C171.694 60.874 172.029 60.2771 172.655 59.6802L175.931 56.5064C176.135 56.3026 176.266 56.1279 176.339 55.8804L176.528 55.2107C176.63 54.8467 176.513 54.672 176.135 54.672H175.669C175.319 54.672 175.188 54.8758 175.086 55.2398L174.839 56.1133H173.048L173.296 55.2398C173.762 53.5947 174.548 52.9832 175.873 52.9832H176.542C178.129 52.9832 178.624 54.1188 178.231 55.4873L178.129 55.8513C177.955 56.4627 177.692 56.8995 177.183 57.3945L173.747 60.6993C173.543 60.9031 173.427 61.0778 173.354 61.3253L173.296 61.5H176.513L176.018 63.2471H171.01ZM179.066 63.2471L179.619 61.2817H176.489L176.911 59.7821L181.672 53.056H183.681L181.803 59.6365H182.764L182.298 61.2817H181.337L180.769 63.2471H179.066ZM178.716 59.6365H180.099L180.594 57.8749L181.22 56.0988H181.148L178.716 59.6365Z" fill="#130655"/>
</g>
<defs>
<clipPath id="clip0_562_1981">
<rect width="97.6719" height="34.5156" fill="white" transform="translate(0 26.0693)"/>
</clipPath>
<clipPath id="clip1_562_1981">
<rect width="97.2579" height="33.9518" fill="white" transform="translate(0.30481 26.4355)"/>
</clipPath>
<clipPath id="clip2_562_1981">
<rect width="97.3047" height="65.7266" fill="white" transform="translate(122.273)"/>
</clipPath>
</defs>
</svg>
