<svg width="239" height="52" viewBox="0 0 239 52" fill="none" xmlns="http://www.w3.org/2000/svg">
<mask id="mask0_562_1929" style="mask-type:alpha" maskUnits="userSpaceOnUse" x="0" y="0" width="239" height="52">
<path d="M16.1032 0H238.567L222.64 51.8242H0.175781L16.1032 0Z" fill="#D9D9D9"/>
</mask>
<g mask="url(#mask0_562_1929)">
<rect x="-34.9062" y="-72.5537" width="416.986" height="218.459" fill="#E72687"/>
<path d="M391.651 -48.6377H-20.5508V115.605H391.651V-48.6377Z" fill="#E72687"/>
<g style="mix-blend-mode:hard-light" filter="url(#filter0_f_562_1929)">
<circle cx="188.338" cy="30.2974" r="23.1216" fill="#D9D9D9"/>
</g>
<g opacity="0.44" filter="url(#filter1_f_562_1929)">
<ellipse cx="154.85" cy="37.0741" rx="67.7702" ry="68.1688" fill="#F8FF13"/>
</g>
<g opacity="0.46">
<g opacity="0.22" filter="url(#filter2_d_562_1929)">
<path d="M175.919 -43.9457L196.92 -2.07649L237.722 -24.8399L218.257 17.8109L261.36 35.6897L216.088 47.0053L229.035 92.0632L192.045 63.5226L165.086 101.83L164.234 54.9251L117.67 57.6359L153.597 27.6867L122.491 -7.24051L168.143 2.31864L175.919 -43.9457Z" fill="url(#paint0_linear_562_1929)" shape-rendering="crispEdges"/>
</g>
<g opacity="0.18" filter="url(#filter3_d_562_1929)">
<path d="M170.901 -63.8167L197.767 -10.1355L249.906 -39.291L225.051 15.369L280.154 38.3112L222.295 52.7899L238.868 110.554L191.574 73.9485L157.138 123.037L156.022 62.912L96.5072 66.36L142.41 27.991L102.633 -16.7976L160.989 -4.51823L170.901 -63.8167Z" fill="url(#paint1_linear_562_1929)" shape-rendering="crispEdges"/>
</g>
<path opacity="0.15" d="M165.842 -88.1536L199.437 -21.1133L264.67 -57.5425L233.562 10.7344L302.49 39.3742L230.104 57.4738L250.822 129.616L191.666 83.9092L148.573 145.23L147.193 70.1342L72.7388 74.457L130.174 26.5217L80.4241 -29.4083L153.425 -14.0873L165.842 -88.1536Z" fill="url(#paint2_linear_562_1929)"/>
<g opacity="0.45" filter="url(#filter4_d_562_1929)">
<path d="M178.568 -24.6279L193.29 4.77315L221.869 -11.1992L208.243 18.741L238.444 31.3038L206.73 39.2376L215.81 70.8755L189.89 50.8286L171.013 77.7176L170.404 44.7857L137.784 46.6779L162.946 25.6594L141.146 1.12984L173.131 7.85209L178.568 -24.6279Z" fill="url(#paint3_linear_562_1929)" shape-rendering="crispEdges"/>
</g>
<g filter="url(#filter5_d_562_1929)">
<path d="M180.722 -10.5623L191.52 11.0461L212.46 -0.681754L202.483 21.3143L224.62 30.5546L201.38 36.3748L208.045 59.6252L189.042 44.8868L175.216 64.6392L174.76 40.4406L150.854 41.8211L169.288 26.3842L153.305 8.35325L176.747 13.3025L180.722 -10.5623Z" fill="white" fill-opacity="0.31" shape-rendering="crispEdges"/>
</g>
</g>
<g opacity="0.46">
<g opacity="0.22" filter="url(#filter6_d_562_1929)">
<path d="M175.919 -43.9457L196.92 -2.07649L237.722 -24.8399L218.257 17.8109L261.36 35.6897L216.088 47.0053L229.035 92.0632L192.045 63.5226L165.086 101.83L164.234 54.9251L117.67 57.6359L153.597 27.6867L122.491 -7.24051L168.143 2.31864L175.919 -43.9457Z" fill="url(#paint4_linear_562_1929)" shape-rendering="crispEdges"/>
</g>
<g opacity="0.18" filter="url(#filter7_d_562_1929)">
<path d="M170.901 -63.8167L197.767 -10.1355L249.906 -39.291L225.051 15.369L280.154 38.3112L222.295 52.7899L238.868 110.554L191.574 73.9485L157.138 123.037L156.022 62.912L96.5072 66.36L142.41 27.991L102.633 -16.7976L160.989 -4.51823L170.901 -63.8167Z" fill="url(#paint5_linear_562_1929)" shape-rendering="crispEdges"/>
</g>
<path opacity="0.15" d="M165.842 -88.1536L199.437 -21.1133L264.67 -57.5425L233.562 10.7344L302.49 39.3742L230.104 57.4738L250.822 129.616L191.666 83.9092L148.573 145.23L147.193 70.1342L72.7388 74.457L130.174 26.5217L80.4241 -29.4083L153.425 -14.0873L165.842 -88.1536Z" fill="url(#paint6_linear_562_1929)"/>
<g opacity="0.45" filter="url(#filter8_d_562_1929)">
<path d="M178.568 -24.6279L193.29 4.77315L221.869 -11.1992L208.243 18.741L238.444 31.3038L206.73 39.2376L215.81 70.8755L189.89 50.8286L171.013 77.7176L170.404 44.7857L137.784 46.6779L162.946 25.6594L141.146 1.12984L173.131 7.85209L178.568 -24.6279Z" fill="url(#paint7_linear_562_1929)" shape-rendering="crispEdges"/>
</g>
<g filter="url(#filter9_d_562_1929)">
<path d="M180.722 -10.5623L191.52 11.0461L212.46 -0.681754L202.483 21.3143L224.62 30.5546L201.38 36.3748L208.045 59.6252L189.042 44.8868L175.216 64.6392L174.76 40.4406L150.854 41.8211L169.288 26.3842L153.305 8.35325L176.747 13.3025L180.722 -10.5623Z" fill="white" fill-opacity="0.31" shape-rendering="crispEdges"/>
</g>
</g>
<g style="mix-blend-mode:hard-light" opacity="0.89">
<rect x="-7" y="-10.3643" width="257.527" height="74.1486" rx="7.97296" fill="#E72687"/>
<rect x="-7" y="-10.3643" width="257.527" height="74.1486" rx="7.97296" fill="url(#paint8_linear_562_1929)"/>
</g>
<g opacity="0.46">
<g opacity="0.22" filter="url(#filter10_d_562_1929)">
<path d="M175.919 -43.944L196.92 -2.07472L237.722 -24.8377L218.258 17.8129L261.361 35.692L216.089 47.0071L229.036 92.065L192.046 63.5242L165.088 101.831L164.235 54.9264L117.671 57.6367L153.597 27.688L122.492 -7.23941L168.144 2.32013L175.919 -43.944Z" fill="url(#paint9_linear_562_1929)" shape-rendering="crispEdges"/>
</g>
<g opacity="0.18" filter="url(#filter11_d_562_1929)">
<path d="M170.902 -63.8158L197.768 -10.1345L249.906 -39.2894L225.052 15.3702L280.155 38.3129L222.296 52.791L238.87 110.555L191.575 73.9492L157.139 123.037L156.023 62.9124L96.5083 66.3599L142.411 27.9914L102.633 -16.7974L160.989 -4.51757L170.902 -63.8158Z" fill="url(#paint10_linear_562_1929)" shape-rendering="crispEdges"/>
</g>
<path opacity="0.15" d="M165.839 -88.1689L199.425 -21.1302L264.661 -57.5689L233.545 10.7145L302.467 39.3468L230.081 57.456L250.79 129.599L191.642 83.8972L148.543 145.225L147.172 70.1272L72.7203 74.4594L130.159 26.5151L80.4179 -29.4108L153.414 -14.0982L165.839 -88.1689Z" fill="url(#paint11_linear_562_1929)"/>
<g opacity="0.45" filter="url(#filter12_d_562_1929)">
<path d="M178.568 -24.6254L193.29 4.77566L221.869 -11.1964L208.243 18.7437L238.444 31.3067L206.73 39.2402L215.811 70.8781L189.891 50.831L171.014 77.7197L170.405 44.7879L137.784 46.6797L162.946 25.6615L141.146 1.13187L173.131 7.85441L178.568 -24.6254Z" fill="url(#paint12_linear_562_1929)" shape-rendering="crispEdges"/>
</g>
<g filter="url(#filter13_d_562_1929)">
<path d="M180.722 -10.5609L191.521 11.0475L212.461 -0.680141L202.483 21.3157L224.621 30.5562L201.381 36.3762L208.045 59.6266L189.043 44.8881L175.216 64.6403L174.761 40.4417L150.855 41.822L169.289 26.3853L153.305 8.35429L176.748 13.3037L180.722 -10.5609Z" fill="white" fill-opacity="0.31" shape-rendering="crispEdges"/>
</g>
</g>
<g opacity="0.46">
<g opacity="0.22" filter="url(#filter14_d_562_1929)">
<path d="M175.919 -43.944L196.92 -2.07472L237.722 -24.8377L218.258 17.8129L261.361 35.692L216.089 47.0071L229.036 92.065L192.046 63.5242L165.088 101.831L164.235 54.9264L117.671 57.6367L153.597 27.688L122.492 -7.23941L168.144 2.32013L175.919 -43.944Z" fill="url(#paint13_linear_562_1929)" shape-rendering="crispEdges"/>
</g>
<g opacity="0.18" filter="url(#filter15_d_562_1929)">
<path d="M170.902 -63.8158L197.768 -10.1345L249.906 -39.2894L225.052 15.3702L280.155 38.3129L222.296 52.791L238.87 110.555L191.575 73.9492L157.139 123.037L156.023 62.9124L96.5083 66.3599L142.411 27.9914L102.633 -16.7974L160.989 -4.51757L170.902 -63.8158Z" fill="url(#paint14_linear_562_1929)" shape-rendering="crispEdges"/>
</g>
<path opacity="0.15" d="M165.839 -88.1689L199.425 -21.1302L264.661 -57.5689L233.545 10.7145L302.467 39.3468L230.081 57.456L250.79 129.599L191.642 83.8972L148.543 145.225L147.172 70.1272L72.7203 74.4594L130.159 26.5151L80.4179 -29.4108L153.414 -14.0982L165.839 -88.1689Z" fill="url(#paint15_linear_562_1929)"/>
<g opacity="0.45" filter="url(#filter16_d_562_1929)">
<path d="M178.568 -24.6254L193.29 4.77566L221.869 -11.1964L208.243 18.7437L238.444 31.3067L206.73 39.2402L215.811 70.8781L189.891 50.831L171.014 77.7197L170.405 44.7879L137.784 46.6797L162.946 25.6615L141.146 1.13187L173.131 7.85441L178.568 -24.6254Z" fill="url(#paint16_linear_562_1929)" shape-rendering="crispEdges"/>
</g>
<g filter="url(#filter17_d_562_1929)">
<path d="M180.722 -10.5609L191.521 11.0475L212.461 -0.680141L202.483 21.3157L224.621 30.5562L201.381 36.3762L208.045 59.6266L189.043 44.8881L175.216 64.6403L174.761 40.4417L150.855 41.822L169.289 26.3853L153.305 8.35429L176.748 13.3037L180.722 -10.5609Z" fill="white" fill-opacity="0.31" shape-rendering="crispEdges"/>
</g>
</g>
<g opacity="0.22" filter="url(#filter18_d_562_1929)">
<path d="M175.919 -43.944L196.92 -2.07472L237.722 -24.8377L218.258 17.8129L261.361 35.692L216.089 47.0071L229.036 92.065L192.046 63.5242L165.088 101.831L164.235 54.9264L117.671 57.6367L153.597 27.688L122.492 -7.23941L168.144 2.32013L175.919 -43.944Z" fill="url(#paint17_linear_562_1929)" shape-rendering="crispEdges"/>
</g>
<g opacity="0.18" filter="url(#filter19_d_562_1929)">
<path d="M170.902 -63.8158L197.768 -10.1345L249.906 -39.2894L225.052 15.3702L280.155 38.3129L222.296 52.791L238.87 110.555L191.575 73.9492L157.139 123.037L156.023 62.9124L96.5083 66.3599L142.411 27.9914L102.633 -16.7974L160.989 -4.51757L170.902 -63.8158Z" fill="url(#paint18_linear_562_1929)" shape-rendering="crispEdges"/>
</g>
<path opacity="0.15" d="M165.839 -88.1689L199.425 -21.1302L264.661 -57.5689L233.545 10.7145L302.467 39.3468L230.081 57.456L250.79 129.599L191.642 83.8972L148.543 145.225L147.172 70.1272L72.7203 74.4594L130.159 26.5151L80.4179 -29.4108L153.414 -14.0982L165.839 -88.1689Z" fill="url(#paint19_linear_562_1929)"/>
<g opacity="0.45" filter="url(#filter20_d_562_1929)">
<path d="M178.568 -24.6254L193.29 4.77566L221.869 -11.1964L208.243 18.7437L238.444 31.3067L206.73 39.2402L215.811 70.8781L189.891 50.831L171.014 77.7197L170.405 44.7879L137.784 46.6797L162.946 25.6615L141.146 1.13187L173.131 7.85441L178.568 -24.6254Z" fill="url(#paint20_linear_562_1929)" shape-rendering="crispEdges"/>
</g>
<g filter="url(#filter21_d_562_1929)">
<path d="M180.722 -10.5609L191.521 11.0475L212.461 -0.680141L202.483 21.3157L224.621 30.5562L201.381 36.3762L208.045 59.6266L189.043 44.8881L175.216 64.6403L174.761 40.4417L150.855 41.822L169.289 26.3853L153.305 8.35429L176.748 13.3037L180.722 -10.5609Z" fill="white" fill-opacity="0.31" shape-rendering="crispEdges"/>
</g>
<g style="mix-blend-mode:hard-light" opacity="0.89">
<rect x="-16.4785" y="-0.761719" width="263.108" height="58.2026" rx="5.58107" fill="#E72687"/>
<rect x="-16.4785" y="-0.761719" width="263.108" height="58.2026" rx="5.58107" fill="url(#paint21_linear_562_1929)"/>
</g>
<g style="mix-blend-mode:plus-darker" filter="url(#filter22_f_562_1929)">
<ellipse cx="199.1" cy="53.4193" rx="44.2499" ry="30.2973" fill="white"/>
</g>
<g style="mix-blend-mode:overlay" filter="url(#filter23_f_562_1929)">
<ellipse cx="199.1" cy="53.4193" rx="44.2499" ry="30.2973" fill="white"/>
</g>
<g style="mix-blend-mode:plus-lighter" filter="url(#filter24_f_562_1929)">
<ellipse cx="44.2499" cy="29.8986" rx="44.2499" ry="29.8986" transform="matrix(0.734171 -0.678964 0.671987 0.740563 -46.0684 5.58081)" fill="white"/>
</g>
<g style="mix-blend-mode:plus-lighter" filter="url(#filter25_f_562_1929)">
<ellipse cx="227.004" cy="70.9594" rx="44.2499" ry="30.2973" fill="white"/>
</g>
</g>
<path d="M85.948 23.6851C85.948 24.3655 85.7885 24.9874 85.4696 25.5508C85.1613 26.1036 84.6882 26.5501 84.0504 26.8902C83.4232 27.2198 82.6525 27.3846 81.7382 27.3846H80.1915V31.1797H77.0661V19.9378H81.7382C82.6418 19.9378 83.4072 20.0973 84.0344 20.4162C84.6723 20.7351 85.1507 21.1763 85.4696 21.7397C85.7885 22.3031 85.948 22.9516 85.948 23.6851ZM81.4353 24.897C82.3176 24.897 82.7588 24.493 82.7588 23.6851C82.7588 22.8665 82.3176 22.4573 81.4353 22.4573H80.1915V24.897H81.4353ZM90.329 28.7878H93.8211V31.1797H87.2036V19.9378H90.329V28.7878ZM102.148 29.3459H98.1618L97.5558 31.1797H94.271L98.3691 19.9378H101.973L106.055 31.1797H102.754L102.148 29.3459ZM101.367 26.954L100.155 23.3183L98.9591 26.954H101.367ZM117.295 19.9378L113.34 27.6078V31.1797H110.199V27.6078L106.244 19.9378H109.816L111.794 24.2751L113.771 19.9378H117.295ZM131.719 31.1797H128.594L124.432 24.897V31.1797H121.307V19.9378H124.432L128.594 26.3002V19.9378H131.719V31.1797ZM138.889 31.2913C137.837 31.2913 136.87 31.0468 135.987 30.5578C135.105 30.0582 134.403 29.3725 133.882 28.5008C133.372 27.6184 133.117 26.6245 133.117 25.5189C133.117 24.4133 133.372 23.4247 133.882 22.5529C134.403 21.6706 135.105 20.9849 135.987 20.4959C136.87 20.0069 137.837 19.7624 138.889 19.7624C139.952 19.7624 140.92 20.0069 141.792 20.4959C142.674 20.9849 143.37 21.6706 143.88 22.5529C144.391 23.4247 144.646 24.4133 144.646 25.5189C144.646 26.6245 144.391 27.6184 143.88 28.5008C143.37 29.3725 142.674 30.0582 141.792 30.5578C140.909 31.0468 139.942 31.2913 138.889 31.2913ZM138.889 28.3892C139.687 28.3892 140.314 28.1287 140.771 27.6078C141.239 27.0869 141.473 26.3906 141.473 25.5189C141.473 24.6259 141.239 23.9243 140.771 23.414C140.314 22.8931 139.687 22.6327 138.889 22.6327C138.081 22.6327 137.449 22.8931 136.992 23.414C136.535 23.9243 136.306 24.6259 136.306 25.5189C136.306 26.4012 136.535 27.1028 136.992 27.6237C137.449 28.134 138.081 28.3892 138.889 28.3892ZM161.885 19.9378L159.127 31.1797H155.284L153.737 24.291L152.158 31.1797H148.315L145.588 19.9378H148.969L150.277 27.6237L152.047 19.9378H155.475L157.197 27.56L158.505 19.9378H161.885Z" fill="white"/>
<defs>
<filter id="filter0_f_562_1929" x="112.688" y="-45.3526" width="151.3" height="151.3" filterUnits="userSpaceOnUse" color-interpolation-filters="sRGB">
<feFlood flood-opacity="0" result="BackgroundImageFix"/>
<feBlend mode="normal" in="SourceGraphic" in2="BackgroundImageFix" result="shape"/>
<feGaussianBlur stdDeviation="26.2642" result="effect1_foregroundBlur_562_1929"/>
</filter>
<filter id="filter1_f_562_1929" x="34.5517" y="-83.6231" width="240.597" height="241.394" filterUnits="userSpaceOnUse" color-interpolation-filters="sRGB">
<feFlood flood-opacity="0" result="BackgroundImageFix"/>
<feBlend mode="normal" in="SourceGraphic" in2="BackgroundImageFix" result="shape"/>
<feGaussianBlur stdDeviation="26.2642" result="effect1_foregroundBlur_562_1929"/>
</filter>
<filter id="filter2_d_562_1929" x="109.352" y="-51.8288" width="160.327" height="162.413" filterUnits="userSpaceOnUse" color-interpolation-filters="sRGB">
<feFlood flood-opacity="0" result="BackgroundImageFix"/>
<feColorMatrix in="SourceAlpha" type="matrix" values="0 0 0 0 0 0 0 0 0 0 0 0 0 0 0 0 0 0 127 0" result="hardAlpha"/>
<feOffset dy="0.43553"/>
<feGaussianBlur stdDeviation="4.15931"/>
<feComposite in2="hardAlpha" operator="out"/>
<feColorMatrix type="matrix" values="0 0 0 0 0 0 0 0 0 0 0 0 0 0 0 0 0 0 0.83 0"/>
<feBlend mode="normal" in2="BackgroundImageFix" result="effect1_dropShadow_562_1929"/>
<feBlend mode="normal" in="SourceGraphic" in2="effect1_dropShadow_562_1929" result="shape"/>
</filter>
<filter id="filter3_d_562_1929" x="88.1886" y="-71.6997" width="200.284" height="203.491" filterUnits="userSpaceOnUse" color-interpolation-filters="sRGB">
<feFlood flood-opacity="0" result="BackgroundImageFix"/>
<feColorMatrix in="SourceAlpha" type="matrix" values="0 0 0 0 0 0 0 0 0 0 0 0 0 0 0 0 0 0 127 0" result="hardAlpha"/>
<feOffset dy="0.43553"/>
<feGaussianBlur stdDeviation="4.15931"/>
<feComposite in2="hardAlpha" operator="out"/>
<feColorMatrix type="matrix" values="0 0 0 0 0 0 0 0 0 0 0 0 0 0 0 0 0 0 0.83 0"/>
<feBlend mode="normal" in2="BackgroundImageFix" result="effect1_dropShadow_562_1929"/>
<feBlend mode="normal" in="SourceGraphic" in2="effect1_dropShadow_562_1929" result="shape"/>
</filter>
<filter id="filter4_d_562_1929" x="136.042" y="-24.6278" width="104.144" height="105.83" filterUnits="userSpaceOnUse" color-interpolation-filters="sRGB">
<feFlood flood-opacity="0" result="BackgroundImageFix"/>
<feColorMatrix in="SourceAlpha" type="matrix" values="0 0 0 0 0 0 0 0 0 0 0 0 0 0 0 0 0 0 127 0" result="hardAlpha"/>
<feOffset dy="1.74212"/>
<feGaussianBlur stdDeviation="0.87106"/>
<feComposite in2="hardAlpha" operator="out"/>
<feColorMatrix type="matrix" values="0 0 0 0 0 0 0 0 0 0 0 0 0 0 0 0 0 0 0.25 0"/>
<feBlend mode="normal" in2="BackgroundImageFix" result="effect1_dropShadow_562_1929"/>
<feBlend mode="normal" in="SourceGraphic" in2="effect1_dropShadow_562_1929" result="shape"/>
</filter>
<filter id="filter5_d_562_1929" x="148.415" y="-11.2591" width="76.9018" height="78.3372" filterUnits="userSpaceOnUse" color-interpolation-filters="sRGB">
<feFlood flood-opacity="0" result="BackgroundImageFix"/>
<feColorMatrix in="SourceAlpha" type="matrix" values="0 0 0 0 0 0 0 0 0 0 0 0 0 0 0 0 0 0 127 0" result="hardAlpha"/>
<feOffset dx="-0.87106" dy="0.87106"/>
<feGaussianBlur stdDeviation="0.783954"/>
<feComposite in2="hardAlpha" operator="out"/>
<feColorMatrix type="matrix" values="0 0 0 0 0 0 0 0 0 0 0 0 0 0 0 0 0 0 0.14 0"/>
<feBlend mode="normal" in2="BackgroundImageFix" result="effect1_dropShadow_562_1929"/>
<feBlend mode="normal" in="SourceGraphic" in2="effect1_dropShadow_562_1929" result="shape"/>
</filter>
<filter id="filter6_d_562_1929" x="109.352" y="-51.8288" width="160.327" height="162.413" filterUnits="userSpaceOnUse" color-interpolation-filters="sRGB">
<feFlood flood-opacity="0" result="BackgroundImageFix"/>
<feColorMatrix in="SourceAlpha" type="matrix" values="0 0 0 0 0 0 0 0 0 0 0 0 0 0 0 0 0 0 127 0" result="hardAlpha"/>
<feOffset dy="0.43553"/>
<feGaussianBlur stdDeviation="4.15931"/>
<feComposite in2="hardAlpha" operator="out"/>
<feColorMatrix type="matrix" values="0 0 0 0 0 0 0 0 0 0 0 0 0 0 0 0 0 0 0.83 0"/>
<feBlend mode="normal" in2="BackgroundImageFix" result="effect1_dropShadow_562_1929"/>
<feBlend mode="normal" in="SourceGraphic" in2="effect1_dropShadow_562_1929" result="shape"/>
</filter>
<filter id="filter7_d_562_1929" x="88.1886" y="-71.6997" width="200.284" height="203.491" filterUnits="userSpaceOnUse" color-interpolation-filters="sRGB">
<feFlood flood-opacity="0" result="BackgroundImageFix"/>
<feColorMatrix in="SourceAlpha" type="matrix" values="0 0 0 0 0 0 0 0 0 0 0 0 0 0 0 0 0 0 127 0" result="hardAlpha"/>
<feOffset dy="0.43553"/>
<feGaussianBlur stdDeviation="4.15931"/>
<feComposite in2="hardAlpha" operator="out"/>
<feColorMatrix type="matrix" values="0 0 0 0 0 0 0 0 0 0 0 0 0 0 0 0 0 0 0.83 0"/>
<feBlend mode="normal" in2="BackgroundImageFix" result="effect1_dropShadow_562_1929"/>
<feBlend mode="normal" in="SourceGraphic" in2="effect1_dropShadow_562_1929" result="shape"/>
</filter>
<filter id="filter8_d_562_1929" x="136.042" y="-24.6278" width="104.144" height="105.83" filterUnits="userSpaceOnUse" color-interpolation-filters="sRGB">
<feFlood flood-opacity="0" result="BackgroundImageFix"/>
<feColorMatrix in="SourceAlpha" type="matrix" values="0 0 0 0 0 0 0 0 0 0 0 0 0 0 0 0 0 0 127 0" result="hardAlpha"/>
<feOffset dy="1.74212"/>
<feGaussianBlur stdDeviation="0.87106"/>
<feComposite in2="hardAlpha" operator="out"/>
<feColorMatrix type="matrix" values="0 0 0 0 0 0 0 0 0 0 0 0 0 0 0 0 0 0 0.25 0"/>
<feBlend mode="normal" in2="BackgroundImageFix" result="effect1_dropShadow_562_1929"/>
<feBlend mode="normal" in="SourceGraphic" in2="effect1_dropShadow_562_1929" result="shape"/>
</filter>
<filter id="filter9_d_562_1929" x="148.415" y="-11.2591" width="76.9018" height="78.3372" filterUnits="userSpaceOnUse" color-interpolation-filters="sRGB">
<feFlood flood-opacity="0" result="BackgroundImageFix"/>
<feColorMatrix in="SourceAlpha" type="matrix" values="0 0 0 0 0 0 0 0 0 0 0 0 0 0 0 0 0 0 127 0" result="hardAlpha"/>
<feOffset dx="-0.87106" dy="0.87106"/>
<feGaussianBlur stdDeviation="0.783954"/>
<feComposite in2="hardAlpha" operator="out"/>
<feColorMatrix type="matrix" values="0 0 0 0 0 0 0 0 0 0 0 0 0 0 0 0 0 0 0.14 0"/>
<feBlend mode="normal" in2="BackgroundImageFix" result="effect1_dropShadow_562_1929"/>
<feBlend mode="normal" in="SourceGraphic" in2="effect1_dropShadow_562_1929" result="shape"/>
</filter>
<filter id="filter10_d_562_1929" x="109.353" y="-51.8271" width="160.327" height="162.413" filterUnits="userSpaceOnUse" color-interpolation-filters="sRGB">
<feFlood flood-opacity="0" result="BackgroundImageFix"/>
<feColorMatrix in="SourceAlpha" type="matrix" values="0 0 0 0 0 0 0 0 0 0 0 0 0 0 0 0 0 0 127 0" result="hardAlpha"/>
<feOffset dy="0.43553"/>
<feGaussianBlur stdDeviation="4.15931"/>
<feComposite in2="hardAlpha" operator="out"/>
<feColorMatrix type="matrix" values="0 0 0 0 0 0 0 0 0 0 0 0 0 0 0 0 0 0 0.83 0"/>
<feBlend mode="normal" in2="BackgroundImageFix" result="effect1_dropShadow_562_1929"/>
<feBlend mode="normal" in="SourceGraphic" in2="effect1_dropShadow_562_1929" result="shape"/>
</filter>
<filter id="filter11_d_562_1929" x="88.1897" y="-71.6989" width="200.284" height="203.49" filterUnits="userSpaceOnUse" color-interpolation-filters="sRGB">
<feFlood flood-opacity="0" result="BackgroundImageFix"/>
<feColorMatrix in="SourceAlpha" type="matrix" values="0 0 0 0 0 0 0 0 0 0 0 0 0 0 0 0 0 0 127 0" result="hardAlpha"/>
<feOffset dy="0.43553"/>
<feGaussianBlur stdDeviation="4.15931"/>
<feComposite in2="hardAlpha" operator="out"/>
<feColorMatrix type="matrix" values="0 0 0 0 0 0 0 0 0 0 0 0 0 0 0 0 0 0 0.83 0"/>
<feBlend mode="normal" in2="BackgroundImageFix" result="effect1_dropShadow_562_1929"/>
<feBlend mode="normal" in="SourceGraphic" in2="effect1_dropShadow_562_1929" result="shape"/>
</filter>
<filter id="filter12_d_562_1929" x="136.042" y="-24.6254" width="104.144" height="105.829" filterUnits="userSpaceOnUse" color-interpolation-filters="sRGB">
<feFlood flood-opacity="0" result="BackgroundImageFix"/>
<feColorMatrix in="SourceAlpha" type="matrix" values="0 0 0 0 0 0 0 0 0 0 0 0 0 0 0 0 0 0 127 0" result="hardAlpha"/>
<feOffset dy="1.74212"/>
<feGaussianBlur stdDeviation="0.87106"/>
<feComposite in2="hardAlpha" operator="out"/>
<feColorMatrix type="matrix" values="0 0 0 0 0 0 0 0 0 0 0 0 0 0 0 0 0 0 0.25 0"/>
<feBlend mode="normal" in2="BackgroundImageFix" result="effect1_dropShadow_562_1929"/>
<feBlend mode="normal" in="SourceGraphic" in2="effect1_dropShadow_562_1929" result="shape"/>
</filter>
<filter id="filter13_d_562_1929" x="148.416" y="-11.2578" width="76.9019" height="78.337" filterUnits="userSpaceOnUse" color-interpolation-filters="sRGB">
<feFlood flood-opacity="0" result="BackgroundImageFix"/>
<feColorMatrix in="SourceAlpha" type="matrix" values="0 0 0 0 0 0 0 0 0 0 0 0 0 0 0 0 0 0 127 0" result="hardAlpha"/>
<feOffset dx="-0.87106" dy="0.87106"/>
<feGaussianBlur stdDeviation="0.783954"/>
<feComposite in2="hardAlpha" operator="out"/>
<feColorMatrix type="matrix" values="0 0 0 0 0 0 0 0 0 0 0 0 0 0 0 0 0 0 0.14 0"/>
<feBlend mode="normal" in2="BackgroundImageFix" result="effect1_dropShadow_562_1929"/>
<feBlend mode="normal" in="SourceGraphic" in2="effect1_dropShadow_562_1929" result="shape"/>
</filter>
<filter id="filter14_d_562_1929" x="109.353" y="-51.8271" width="160.327" height="162.413" filterUnits="userSpaceOnUse" color-interpolation-filters="sRGB">
<feFlood flood-opacity="0" result="BackgroundImageFix"/>
<feColorMatrix in="SourceAlpha" type="matrix" values="0 0 0 0 0 0 0 0 0 0 0 0 0 0 0 0 0 0 127 0" result="hardAlpha"/>
<feOffset dy="0.43553"/>
<feGaussianBlur stdDeviation="4.15931"/>
<feComposite in2="hardAlpha" operator="out"/>
<feColorMatrix type="matrix" values="0 0 0 0 0 0 0 0 0 0 0 0 0 0 0 0 0 0 0.83 0"/>
<feBlend mode="normal" in2="BackgroundImageFix" result="effect1_dropShadow_562_1929"/>
<feBlend mode="normal" in="SourceGraphic" in2="effect1_dropShadow_562_1929" result="shape"/>
</filter>
<filter id="filter15_d_562_1929" x="88.1897" y="-71.6989" width="200.284" height="203.49" filterUnits="userSpaceOnUse" color-interpolation-filters="sRGB">
<feFlood flood-opacity="0" result="BackgroundImageFix"/>
<feColorMatrix in="SourceAlpha" type="matrix" values="0 0 0 0 0 0 0 0 0 0 0 0 0 0 0 0 0 0 127 0" result="hardAlpha"/>
<feOffset dy="0.43553"/>
<feGaussianBlur stdDeviation="4.15931"/>
<feComposite in2="hardAlpha" operator="out"/>
<feColorMatrix type="matrix" values="0 0 0 0 0 0 0 0 0 0 0 0 0 0 0 0 0 0 0.83 0"/>
<feBlend mode="normal" in2="BackgroundImageFix" result="effect1_dropShadow_562_1929"/>
<feBlend mode="normal" in="SourceGraphic" in2="effect1_dropShadow_562_1929" result="shape"/>
</filter>
<filter id="filter16_d_562_1929" x="136.042" y="-24.6254" width="104.144" height="105.829" filterUnits="userSpaceOnUse" color-interpolation-filters="sRGB">
<feFlood flood-opacity="0" result="BackgroundImageFix"/>
<feColorMatrix in="SourceAlpha" type="matrix" values="0 0 0 0 0 0 0 0 0 0 0 0 0 0 0 0 0 0 127 0" result="hardAlpha"/>
<feOffset dy="1.74212"/>
<feGaussianBlur stdDeviation="0.87106"/>
<feComposite in2="hardAlpha" operator="out"/>
<feColorMatrix type="matrix" values="0 0 0 0 0 0 0 0 0 0 0 0 0 0 0 0 0 0 0.25 0"/>
<feBlend mode="normal" in2="BackgroundImageFix" result="effect1_dropShadow_562_1929"/>
<feBlend mode="normal" in="SourceGraphic" in2="effect1_dropShadow_562_1929" result="shape"/>
</filter>
<filter id="filter17_d_562_1929" x="148.416" y="-11.2578" width="76.9019" height="78.337" filterUnits="userSpaceOnUse" color-interpolation-filters="sRGB">
<feFlood flood-opacity="0" result="BackgroundImageFix"/>
<feColorMatrix in="SourceAlpha" type="matrix" values="0 0 0 0 0 0 0 0 0 0 0 0 0 0 0 0 0 0 127 0" result="hardAlpha"/>
<feOffset dx="-0.87106" dy="0.87106"/>
<feGaussianBlur stdDeviation="0.783954"/>
<feComposite in2="hardAlpha" operator="out"/>
<feColorMatrix type="matrix" values="0 0 0 0 0 0 0 0 0 0 0 0 0 0 0 0 0 0 0.14 0"/>
<feBlend mode="normal" in2="BackgroundImageFix" result="effect1_dropShadow_562_1929"/>
<feBlend mode="normal" in="SourceGraphic" in2="effect1_dropShadow_562_1929" result="shape"/>
</filter>
<filter id="filter18_d_562_1929" x="109.353" y="-51.8271" width="160.327" height="162.413" filterUnits="userSpaceOnUse" color-interpolation-filters="sRGB">
<feFlood flood-opacity="0" result="BackgroundImageFix"/>
<feColorMatrix in="SourceAlpha" type="matrix" values="0 0 0 0 0 0 0 0 0 0 0 0 0 0 0 0 0 0 127 0" result="hardAlpha"/>
<feOffset dy="0.43553"/>
<feGaussianBlur stdDeviation="4.15931"/>
<feComposite in2="hardAlpha" operator="out"/>
<feColorMatrix type="matrix" values="0 0 0 0 0 0 0 0 0 0 0 0 0 0 0 0 0 0 0.83 0"/>
<feBlend mode="normal" in2="BackgroundImageFix" result="effect1_dropShadow_562_1929"/>
<feBlend mode="normal" in="SourceGraphic" in2="effect1_dropShadow_562_1929" result="shape"/>
</filter>
<filter id="filter19_d_562_1929" x="88.1897" y="-71.6989" width="200.284" height="203.49" filterUnits="userSpaceOnUse" color-interpolation-filters="sRGB">
<feFlood flood-opacity="0" result="BackgroundImageFix"/>
<feColorMatrix in="SourceAlpha" type="matrix" values="0 0 0 0 0 0 0 0 0 0 0 0 0 0 0 0 0 0 127 0" result="hardAlpha"/>
<feOffset dy="0.43553"/>
<feGaussianBlur stdDeviation="4.15931"/>
<feComposite in2="hardAlpha" operator="out"/>
<feColorMatrix type="matrix" values="0 0 0 0 0 0 0 0 0 0 0 0 0 0 0 0 0 0 0.83 0"/>
<feBlend mode="normal" in2="BackgroundImageFix" result="effect1_dropShadow_562_1929"/>
<feBlend mode="normal" in="SourceGraphic" in2="effect1_dropShadow_562_1929" result="shape"/>
</filter>
<filter id="filter20_d_562_1929" x="136.042" y="-24.6254" width="104.144" height="105.829" filterUnits="userSpaceOnUse" color-interpolation-filters="sRGB">
<feFlood flood-opacity="0" result="BackgroundImageFix"/>
<feColorMatrix in="SourceAlpha" type="matrix" values="0 0 0 0 0 0 0 0 0 0 0 0 0 0 0 0 0 0 127 0" result="hardAlpha"/>
<feOffset dy="1.74212"/>
<feGaussianBlur stdDeviation="0.87106"/>
<feComposite in2="hardAlpha" operator="out"/>
<feColorMatrix type="matrix" values="0 0 0 0 0 0 0 0 0 0 0 0 0 0 0 0 0 0 0.25 0"/>
<feBlend mode="normal" in2="BackgroundImageFix" result="effect1_dropShadow_562_1929"/>
<feBlend mode="normal" in="SourceGraphic" in2="effect1_dropShadow_562_1929" result="shape"/>
</filter>
<filter id="filter21_d_562_1929" x="148.416" y="-11.2578" width="76.9019" height="78.337" filterUnits="userSpaceOnUse" color-interpolation-filters="sRGB">
<feFlood flood-opacity="0" result="BackgroundImageFix"/>
<feColorMatrix in="SourceAlpha" type="matrix" values="0 0 0 0 0 0 0 0 0 0 0 0 0 0 0 0 0 0 127 0" result="hardAlpha"/>
<feOffset dx="-0.87106" dy="0.87106"/>
<feGaussianBlur stdDeviation="0.783954"/>
<feComposite in2="hardAlpha" operator="out"/>
<feColorMatrix type="matrix" values="0 0 0 0 0 0 0 0 0 0 0 0 0 0 0 0 0 0 0.14 0"/>
<feBlend mode="normal" in2="BackgroundImageFix" result="effect1_dropShadow_562_1929"/>
<feBlend mode="normal" in="SourceGraphic" in2="effect1_dropShadow_562_1929" result="shape"/>
</filter>
<filter id="filter22_f_562_1929" x="108.527" y="-23.2008" width="181.146" height="153.24" filterUnits="userSpaceOnUse" color-interpolation-filters="sRGB">
<feFlood flood-opacity="0" result="BackgroundImageFix"/>
<feBlend mode="normal" in="SourceGraphic" in2="BackgroundImageFix" result="shape"/>
<feGaussianBlur stdDeviation="23.1615" result="effect1_foregroundBlur_562_1929"/>
</filter>
<filter id="filter23_f_562_1929" x="108.527" y="-23.2008" width="181.146" height="153.24" filterUnits="userSpaceOnUse" color-interpolation-filters="sRGB">
<feFlood flood-opacity="0" result="BackgroundImageFix"/>
<feBlend mode="normal" in="SourceGraphic" in2="BackgroundImageFix" result="shape"/>
<feGaussianBlur stdDeviation="23.1615" result="effect1_foregroundBlur_562_1929"/>
</filter>
<filter id="filter24_f_562_1929" x="-98.9051" y="-106.858" width="210.83" height="209.072" filterUnits="userSpaceOnUse" color-interpolation-filters="sRGB">
<feFlood flood-opacity="0" result="BackgroundImageFix"/>
<feBlend mode="normal" in="SourceGraphic" in2="BackgroundImageFix" result="shape"/>
<feGaussianBlur stdDeviation="33.606" result="effect1_foregroundBlur_562_1929"/>
</filter>
<filter id="filter25_f_562_1929" x="74.9595" y="-67.1323" width="304.089" height="276.183" filterUnits="userSpaceOnUse" color-interpolation-filters="sRGB">
<feFlood flood-opacity="0" result="BackgroundImageFix"/>
<feBlend mode="normal" in="SourceGraphic" in2="BackgroundImageFix" result="shape"/>
<feGaussianBlur stdDeviation="53.8972" result="effect1_foregroundBlur_562_1929"/>
</filter>
<linearGradient id="paint0_linear_562_1929" x1="116.658" y1="-45.7252" x2="226.23" y2="51.4255" gradientUnits="userSpaceOnUse">
<stop stop-color="#D9D9D9"/>
<stop offset="1" stop-color="white" stop-opacity="0"/>
</linearGradient>
<linearGradient id="paint1_linear_562_1929" x1="95.1551" y1="-66.1318" x2="235.627" y2="58.047" gradientUnits="userSpaceOnUse">
<stop stop-color="#D9D9D9"/>
<stop offset="1" stop-color="white" stop-opacity="0"/>
</linearGradient>
<linearGradient id="paint2_linear_562_1929" x1="71.0827" y1="-91.0245" x2="246.525" y2="64.3261" gradientUnits="userSpaceOnUse">
<stop stop-color="#D9D9D9"/>
<stop offset="1" stop-color="white" stop-opacity="0"/>
</linearGradient>
<linearGradient id="paint3_linear_562_1929" x1="137.051" y1="-25.8914" x2="213.988" y2="42.1715" gradientUnits="userSpaceOnUse">
<stop stop-color="#D9D9D9"/>
<stop offset="1" stop-color="white" stop-opacity="0"/>
</linearGradient>
<linearGradient id="paint4_linear_562_1929" x1="116.658" y1="-45.7252" x2="226.23" y2="51.4255" gradientUnits="userSpaceOnUse">
<stop stop-color="#D9D9D9"/>
<stop offset="1" stop-color="white" stop-opacity="0"/>
</linearGradient>
<linearGradient id="paint5_linear_562_1929" x1="95.1551" y1="-66.1318" x2="235.627" y2="58.047" gradientUnits="userSpaceOnUse">
<stop stop-color="#D9D9D9"/>
<stop offset="1" stop-color="white" stop-opacity="0"/>
</linearGradient>
<linearGradient id="paint6_linear_562_1929" x1="71.0827" y1="-91.0245" x2="246.525" y2="64.3261" gradientUnits="userSpaceOnUse">
<stop stop-color="#D9D9D9"/>
<stop offset="1" stop-color="white" stop-opacity="0"/>
</linearGradient>
<linearGradient id="paint7_linear_562_1929" x1="137.051" y1="-25.8914" x2="213.988" y2="42.1715" gradientUnits="userSpaceOnUse">
<stop stop-color="#D9D9D9"/>
<stop offset="1" stop-color="white" stop-opacity="0"/>
</linearGradient>
<linearGradient id="paint8_linear_562_1929" x1="114.61" y1="-10.3643" x2="114.61" y2="63.7843" gradientUnits="userSpaceOnUse">
<stop stop-color="#E72687"/>
<stop offset="1" stop-color="#3F001F"/>
</linearGradient>
<linearGradient id="paint9_linear_562_1929" x1="116.658" y1="-45.7241" x2="226.231" y2="51.4277" gradientUnits="userSpaceOnUse">
<stop stop-color="#D9D9D9"/>
<stop offset="1" stop-color="white" stop-opacity="0"/>
</linearGradient>
<linearGradient id="paint10_linear_562_1929" x1="95.155" y1="-66.1315" x2="235.628" y2="58.0487" gradientUnits="userSpaceOnUse">
<stop stop-color="#D9D9D9"/>
<stop offset="1" stop-color="white" stop-opacity="0"/>
</linearGradient>
<linearGradient id="paint11_linear_562_1929" x1="71.0843" y1="-91.0282" x2="246.508" y2="64.2985" gradientUnits="userSpaceOnUse">
<stop stop-color="#D9D9D9"/>
<stop offset="1" stop-color="white" stop-opacity="0"/>
</linearGradient>
<linearGradient id="paint12_linear_562_1929" x1="137.05" y1="-25.8893" x2="213.989" y2="42.1744" gradientUnits="userSpaceOnUse">
<stop stop-color="#D9D9D9"/>
<stop offset="1" stop-color="white" stop-opacity="0"/>
</linearGradient>
<linearGradient id="paint13_linear_562_1929" x1="116.658" y1="-45.7241" x2="226.231" y2="51.4277" gradientUnits="userSpaceOnUse">
<stop stop-color="#D9D9D9"/>
<stop offset="1" stop-color="white" stop-opacity="0"/>
</linearGradient>
<linearGradient id="paint14_linear_562_1929" x1="95.155" y1="-66.1315" x2="235.628" y2="58.0487" gradientUnits="userSpaceOnUse">
<stop stop-color="#D9D9D9"/>
<stop offset="1" stop-color="white" stop-opacity="0"/>
</linearGradient>
<linearGradient id="paint15_linear_562_1929" x1="71.0843" y1="-91.0282" x2="246.508" y2="64.2985" gradientUnits="userSpaceOnUse">
<stop stop-color="#D9D9D9"/>
<stop offset="1" stop-color="white" stop-opacity="0"/>
</linearGradient>
<linearGradient id="paint16_linear_562_1929" x1="137.05" y1="-25.8893" x2="213.989" y2="42.1744" gradientUnits="userSpaceOnUse">
<stop stop-color="#D9D9D9"/>
<stop offset="1" stop-color="white" stop-opacity="0"/>
</linearGradient>
<linearGradient id="paint17_linear_562_1929" x1="116.658" y1="-45.7241" x2="226.231" y2="51.4277" gradientUnits="userSpaceOnUse">
<stop stop-color="#D9D9D9"/>
<stop offset="1" stop-color="white" stop-opacity="0"/>
</linearGradient>
<linearGradient id="paint18_linear_562_1929" x1="95.155" y1="-66.1315" x2="235.628" y2="58.0487" gradientUnits="userSpaceOnUse">
<stop stop-color="#D9D9D9"/>
<stop offset="1" stop-color="white" stop-opacity="0"/>
</linearGradient>
<linearGradient id="paint19_linear_562_1929" x1="71.0843" y1="-91.0282" x2="246.508" y2="64.2985" gradientUnits="userSpaceOnUse">
<stop stop-color="#D9D9D9"/>
<stop offset="1" stop-color="white" stop-opacity="0"/>
</linearGradient>
<linearGradient id="paint20_linear_562_1929" x1="137.05" y1="-25.8893" x2="213.989" y2="42.1744" gradientUnits="userSpaceOnUse">
<stop stop-color="#D9D9D9"/>
<stop offset="1" stop-color="white" stop-opacity="0"/>
</linearGradient>
<linearGradient id="paint21_linear_562_1929" x1="107.767" y1="-0.76172" x2="107.767" y2="57.4409" gradientUnits="userSpaceOnUse">
<stop stop-color="#E72687"/>
<stop offset="1" stop-color="#3F001F"/>
</linearGradient>
</defs>
</svg>
