<svg width="205" height="65" viewBox="0 0 205 65" fill="none" xmlns="http://www.w3.org/2000/svg">
<path d="M0.439252 24L7.23925 0.199998H14.5493C18.2553 0.199998 19.4113 2.852 18.4933 6.048L17.5073 9.482C16.7593 12.1 15.6713 13.63 14.0393 14.31L14.1753 24H9.17725V14.752H8.19125L5.53925 24H0.439252ZM9.41525 10.434H11.4553C11.9993 10.434 12.2373 10.128 12.4073 9.516L13.4613 5.776C13.6313 5.164 13.4613 4.858 12.8493 4.858H11.0133L9.41525 10.434ZM21.2728 24.17C17.5668 24.17 16.4108 21.518 17.3288 18.322L22.4968 0.199998H27.5968L22.4288 18.288C22.1908 19.138 22.4288 19.546 23.3128 19.546H24.3328C25.1488 19.546 25.4548 19.07 25.7268 18.22L30.8608 0.199998H35.9608L30.6228 18.9C29.5348 22.742 27.6988 24.17 24.6048 24.17H21.2728ZM32.216 24L39.016 0.199998H44.116L38.676 19.24H44.15L42.79 24H32.216ZM44.6512 24L51.4512 0.199998H61.6852L60.3252 4.96H55.1232L53.7632 9.72H58.5912L57.2312 14.48H52.4032L51.0432 19.24H56.2452L54.8852 24H44.6512ZM61.6037 24.17C57.8977 24.17 56.7417 21.518 57.6597 18.322L58.5097 15.262H63.3717L62.3517 18.934C62.1817 19.512 62.3517 19.784 62.9977 19.784H64.7317C65.2757 19.784 65.5137 19.512 65.6837 18.866L66.0237 17.71C66.3637 16.554 66.1937 15.908 65.7177 15.33L62.4537 11.386C61.2637 9.89 60.6517 8.19 61.1617 6.422L61.4677 5.3C62.5897 1.39 64.3917 0.0299985 67.4857 0.0299985H70.2397C73.9457 0.0299985 75.1017 2.682 74.1837 5.878L73.3337 8.904H68.3357L69.3557 5.3C69.5257 4.688 69.3557 4.382 68.7437 4.382H67.4857C66.9417 4.382 66.7037 4.756 66.5337 5.3L66.2277 6.422C65.8537 7.646 65.8197 7.952 66.5677 8.87L69.7637 12.848C71.0897 14.548 71.4637 16.282 70.9537 18.084L70.7157 18.9C69.6277 22.742 67.7917 24.17 64.6977 24.17H61.6037ZM74.0307 24L83.2107 0.199998H92.4587L88.1747 24H83.2787L84.1287 19.852H80.3547L78.8927 24H74.0307ZM81.9867 15.228H85.0467L87.1207 4.892H85.6247L81.9867 15.228ZM90.1089 24L96.9089 0.199998H104.219C107.925 0.199998 109.081 2.852 108.163 6.048L107.177 9.482C106.429 12.1 105.341 13.63 103.709 14.31L103.845 24H98.8469V14.752H97.8609L95.2089 24H90.1089ZM99.0849 10.434H101.125C101.669 10.434 101.907 10.128 102.077 9.516L103.131 5.776C103.301 5.164 103.131 4.858 102.519 4.858H100.683L99.0849 10.434ZM105.698 24L112.498 0.199998H122.732L121.372 4.96H116.17L114.81 9.72H119.638L118.278 14.48H113.45L112.09 19.24H117.292L115.932 24H105.698ZM122.733 24L129.533 0.199998H139.767L138.407 4.96H133.205L131.845 9.72H136.673L135.313 14.48H130.485L129.125 19.24H134.327L132.967 24H122.733ZM134.68 24L143.86 0.199998H153.108L148.824 24H143.928L144.778 19.852H141.004L139.542 24H134.68ZM142.636 15.228H145.696L147.77 4.892H146.274L142.636 15.228ZM154.91 24.17C151.204 24.17 150.048 21.518 150.966 18.322L151.816 15.262H156.678L155.658 18.934C155.488 19.512 155.658 19.784 156.304 19.784H158.038C158.582 19.784 158.82 19.512 158.99 18.866L159.33 17.71C159.67 16.554 159.5 15.908 159.024 15.33L155.76 11.386C154.57 9.89 153.958 8.19 154.468 6.422L154.774 5.3C155.896 1.39 157.698 0.0299985 160.792 0.0299985H163.546C167.252 0.0299985 168.408 2.682 167.49 5.878L166.64 8.904H161.642L162.662 5.3C162.832 4.688 162.662 4.382 162.05 4.382H160.792C160.248 4.382 160.01 4.756 159.84 5.3L159.534 6.422C159.16 7.646 159.126 7.952 159.874 8.87L163.07 12.848C164.396 14.548 164.77 16.282 164.26 18.084L164.022 18.9C162.934 22.742 161.098 24.17 158.004 24.17H154.91ZM164.289 24L171.089 0.199998H176.189L169.389 24H164.289ZM172.441 24L179.241 0.199998H189.475L188.115 4.96H182.913L181.553 9.72H186.381L185.021 14.48H180.193L178.833 19.24H184.035L182.675 24H172.441ZM185.407 24L192.207 0.199998H199.517C203.223 0.199998 204.379 2.852 203.461 6.048L202.475 9.482C201.727 12.1 200.639 13.63 199.007 14.31L199.143 24H194.145V14.752H193.159L190.507 24H185.407ZM194.383 10.434H196.423C196.967 10.434 197.205 10.128 197.375 9.516L198.429 5.776C198.599 5.164 198.429 4.858 197.817 4.858H195.981L194.383 10.434ZM38.6348 65L44.0748 45.96H39.9948L41.3548 41.2H54.6148L53.2548 45.96H49.1748L43.7348 65H38.6348ZM49.6742 65L56.4742 41.2H61.5742L58.8542 50.72H62.1182L64.8382 41.2H69.9382L63.1382 65H58.0382L60.7582 55.48H57.4942L54.7742 65H49.6742ZM65.1734 65L74.3534 41.2H83.6014L79.3174 65H74.4214L75.2714 60.852H71.4974L70.0354 65H65.1734ZM73.1294 56.228H76.1894L78.2634 45.892H76.7674L73.1294 56.228ZM81.4217 65L88.2217 41.2H92.9817L93.7297 52.76H93.8997L95.2257 47.32L96.9597 41.2H101.822L95.0217 65H90.2617L89.5137 53.44H89.3437L88.0177 58.88L86.2837 65H81.4217ZM102.304 65L109.104 41.2H119.338L117.978 45.96H112.776L111.416 50.72H116.244L114.884 55.48H110.056L108.696 60.24H113.898L112.538 65H102.304ZM116.468 65L120.14 41.2H125.24L123.302 53.134L121.636 60.512H121.908L129.218 41.2H134.624L124.594 65H116.468ZM129.299 65L136.099 41.2H146.333L144.973 45.96H139.771L138.411 50.72H143.239L141.879 55.48H137.051L135.691 60.24H140.893L139.533 65H129.299ZM142.266 65L149.066 41.2H156.376C160.082 41.2 161.238 43.852 160.32 47.048L159.334 50.482C158.586 53.1 157.498 54.63 155.866 55.31L156.002 65H151.004V55.752H150.018L147.366 65H142.266ZM151.242 51.434H153.282C153.826 51.434 154.064 51.128 154.234 50.516L155.288 46.776C155.458 46.164 155.288 45.858 154.676 45.858H152.84L151.242 51.434ZM161.391 51.978L163.023 46.3H168.293L166.661 51.978H161.391ZM157.685 65L159.317 59.322H164.587L162.955 65H157.685Z" fill="#F8FF13"/>
</svg>
