<svg width="39" height="14" viewBox="0 0 39 14" fill="none" xmlns="http://www.w3.org/2000/svg">
<path d="M22.9612 7.16489C22.2739 6.59505 21.3841 6.22714 20.5994 5.9024C19.5172 5.45488 18.5824 5.06876 18.5824 4.35261C18.5824 4.03987 18.7287 3.75256 18.9949 3.54534C19.2755 3.32661 19.6674 3.20621 20.0976 3.20621C21.4508 3.20621 22.53 4.16315 22.5396 4.17178L22.8034 4.41257L24.0026 2.16341L23.8654 2.01855C23.8131 1.96294 22.5502 0.65918 20.1139 0.65918C18.945 0.65918 17.8701 1.03283 17.0858 1.71108C16.29 2.3994 15.8507 3.34962 15.8507 4.38618C15.8507 5.39684 16.243 6.2142 17.0484 6.88431C17.7257 7.44694 18.5694 7.81052 19.3858 8.1626C20.4991 8.64227 21.4618 9.05718 21.4618 9.79538C21.4618 10.3576 21.0809 10.9586 20.0137 10.9586C18.4831 10.9586 17.2546 9.793 17.2427 9.781L17.0124 9.55747L15.5216 11.6234L15.6703 11.7898C15.6871 11.8071 16.0723 12.2326 16.7961 12.6561C17.4599 13.0437 18.5517 13.5061 19.9796 13.5061C21.2292 13.5061 22.294 13.1228 23.0596 12.3986C23.7796 11.7165 24.1758 10.7744 24.1758 9.74551C24.1758 8.68688 23.7786 7.84265 22.9612 7.16489Z" fill="white"/>
<path d="M35.564 13.3204H38.3575V0.844727H35.564V13.3204Z" fill="white"/>
<path d="M30.1034 10.9839H27.9771V3.1802H29.8521C30.6925 3.1802 31.1745 3.65028 31.1745 4.46956C31.1745 5.29746 30.7409 5.71667 29.8852 5.71667H29.2395V8.01284H30.1034C30.5759 8.01284 30.9697 8.16011 31.2417 8.44023C31.5276 8.73379 31.6436 9.02446 31.6436 9.44321C31.6436 10.3939 31.0536 10.9839 30.1034 10.9839ZM33.8127 7.71352C33.5364 7.27894 33.1575 6.93357 32.7066 6.70239C33.4342 6.11911 33.8458 5.22357 33.8458 4.20092C33.8458 3.16676 33.452 2.30433 32.7066 1.70522C32.0043 1.14161 31.0292 0.843262 29.8852 0.843262H25.3398V13.3189H29.936C31.1553 13.3189 32.2101 13.011 32.9857 12.4272C33.8664 11.7653 34.3312 10.78 34.3312 9.57703C34.3312 8.89159 34.1523 8.24691 33.8127 7.71352Z" fill="white"/>
<path d="M7.16689 0.620605C3.60488 0.620605 0.717285 3.5149 0.717285 7.08507C0.717285 10.4322 3.25521 13.185 6.50687 13.516V8.82003C5.808 8.55334 5.3101 7.87652 5.3101 7.08507C5.3101 6.06098 6.1428 5.2278 7.16689 5.2278C8.1905 5.2278 9.02416 6.06098 9.02416 7.08507C9.02416 7.87652 8.52531 8.55334 7.82643 8.82003V13.516C11.0786 13.185 13.6165 10.4322 13.6165 7.08507C13.6165 3.5149 10.7289 0.620605 7.16689 0.620605Z" fill="#00B5EF"/>
</svg>
