<svg width="65" height="13" viewBox="0 0 65 13" fill="none" xmlns="http://www.w3.org/2000/svg">
<path d="M0.56 12V9.44L4.32 7.12C5.20533 6.58667 5.824 6.12267 6.176 5.728C6.53867 5.32267 6.72 4.90667 6.72 4.48C6.72 4.10667 6.58667 3.80267 6.32 3.568C6.064 3.32267 5.71733 3.2 5.28 3.2C4.608 3.2 4.112 3.41333 3.792 3.84C3.664 4.01067 3.57333 4.224 3.52 4.48H0.48C0.586667 3.75467 0.837333 3.088 1.232 2.48C2.10667 1.14667 3.456 0.48 5.28 0.48C6.688 0.48 7.79733 0.842666 8.608 1.568C9.42933 2.29333 9.84 3.21067 9.84 4.32C9.84 5.23733 9.57867 6.02667 9.056 6.688C8.53333 7.33867 7.75467 7.96267 6.72 8.56L5.6 9.2L4.96 9.44V9.6L6.08 9.44H9.84V12H0.56ZM15.3687 12V0.799999H20.9688C22.3021 0.799999 23.3794 1.17867 24.2008 1.936C25.0328 2.68267 25.4488 3.61067 25.4488 4.72C25.4488 6.16 24.7021 7.28 23.2087 8.08L25.5288 12H22.3287L20.3288 8.64H18.3287V12H15.3687ZM18.3287 5.92H20.8888C21.3474 5.92 21.7154 5.80267 21.9928 5.568C22.2701 5.33333 22.4087 5.05067 22.4087 4.72C22.4087 4.38933 22.2701 4.10667 21.9928 3.872C21.7154 3.63733 21.3474 3.52 20.8888 3.52H18.3287V5.92ZM27.2059 10.944C26.3099 10.08 25.8619 9.04533 25.8619 7.84C25.8619 6.63467 26.3099 5.6 27.2059 4.736C28.1019 3.872 29.2005 3.44 30.5019 3.44C31.8032 3.44 32.9019 3.872 33.7979 4.736C34.6939 5.6 35.1419 6.63467 35.1419 7.84C35.1419 9.04533 34.6939 10.08 33.7979 10.944C32.9019 11.808 31.8032 12.24 30.5019 12.24C29.2005 12.24 28.1019 11.808 27.2059 10.944ZM29.1739 6.336C28.8325 6.70933 28.6619 7.21067 28.6619 7.84C28.6619 8.46933 28.8325 8.976 29.1739 9.36C29.5259 9.73333 29.9685 9.92 30.5019 9.92C31.0352 9.92 31.4725 9.73333 31.8139 9.36C32.1659 8.976 32.3419 8.46933 32.3419 7.84C32.3419 7.21067 32.1659 6.70933 31.8139 6.336C31.4725 5.952 31.0352 5.76 30.5019 5.76C29.9685 5.76 29.5259 5.952 29.1739 6.336ZM36.02 8.8V3.68H38.74V8.4C38.74 8.88 38.868 9.25333 39.124 9.52C39.38 9.78667 39.732 9.92 40.18 9.92C40.6387 9.92 41.0173 9.75467 41.316 9.424C41.6253 9.08267 41.78 8.63467 41.78 8.08V3.68H44.5V12H41.78V10.88H41.62C41.4813 11.1467 41.2893 11.376 41.044 11.568C40.5107 12.016 39.876 12.24 39.14 12.24C38.1587 12.24 37.3907 11.9467 36.836 11.36C36.292 10.7627 36.02 9.90933 36.02 8.8ZM45.7781 12V3.68H48.4981V4.8H48.6581C48.8075 4.544 48.9995 4.32 49.2341 4.128C49.7781 3.66933 50.4128 3.44 51.1381 3.44C52.1195 3.44 52.8821 3.73867 53.4261 4.336C53.9808 4.92267 54.2581 5.77067 54.2581 6.88V12H51.5381V7.28C51.5381 6.8 51.4101 6.42667 51.1541 6.16C50.8981 5.89333 50.5461 5.76 50.0981 5.76C49.6395 5.76 49.2555 5.93067 48.9461 6.272C48.6475 6.60267 48.4981 7.04533 48.4981 7.6V12H45.7781ZM56.2101 11.04C55.4955 10.2293 55.1381 9.16267 55.1381 7.84C55.1381 6.51733 55.4955 5.456 56.2101 4.656C56.9248 3.84533 57.7941 3.44 58.8181 3.44C59.4795 3.44 60.1035 3.66933 60.6901 4.128C60.9355 4.33067 61.1381 4.55467 61.2981 4.8H61.4581V0.799999H64.1781V12H61.4581V10.88H61.2981C61.1488 11.136 60.9461 11.3653 60.6901 11.568C60.1141 12.016 59.4901 12.24 58.8181 12.24C57.7941 12.24 56.9248 11.84 56.2101 11.04ZM58.4181 6.304C58.0981 6.66667 57.9381 7.17867 57.9381 7.84C57.9381 8.50133 58.0981 9.01333 58.4181 9.376C58.7381 9.73867 59.1648 9.92 59.6981 9.92C60.2315 9.92 60.6581 9.73867 60.9781 9.376C61.2981 9.01333 61.4581 8.50133 61.4581 7.84C61.4581 7.17867 61.2981 6.66667 60.9781 6.304C60.6581 5.94133 60.2315 5.76 59.6981 5.76C59.1648 5.76 58.7381 5.94133 58.4181 6.304Z" fill="#0E0447"/>
</svg>
