<svg width="19" height="20" viewBox="0 0 19 20" fill="none" xmlns="http://www.w3.org/2000/svg">
<g clip-path="url(#clip0_151_471)">
<path d="M5.52081 1.0103L13.0793 0.944336L18.4707 6.24237L18.5366 13.8009L13.2385 19.1923L5.68006 19.2582L0.28874 13.9601L0.222778 6.40162L5.52081 1.0103Z" fill="white"/>
<path fill-rule="evenodd" clip-rule="evenodd" d="M6.00491 2.15074L1.37149 6.86573L1.42918 13.476L6.14417 18.1094L12.7545 18.0518L17.3879 13.3367L17.3302 6.72646L12.6152 2.09305L6.00491 2.15074ZM13.0793 0.944336L5.52081 1.0103L0.222778 6.40162L0.28874 13.9601L5.68006 19.2582L13.2385 19.1923L18.5366 13.8009L18.4707 6.24237L13.0793 0.944336Z" fill="#E53E33"/>
<path d="M6.0034 2.14707L12.6171 2.08936L17.3345 6.72514L17.3922 13.3389L12.7564 18.0563L6.14274 18.114L1.42533 13.4782L1.36761 6.86449L6.0034 2.14707Z" fill="#E53E33"/>
<path fill-rule="evenodd" clip-rule="evenodd" d="M6.48748 3.2875L2.51633 7.32859L2.56576 12.9941L6.60685 16.9652L12.2724 16.9158L16.2435 12.8747L16.194 7.20922L12.153 3.23807L6.48748 3.2875ZM12.6171 2.08936L6.0034 2.14707L1.36761 6.86449L1.42533 13.4782L6.14274 18.114L12.7564 18.0563L17.3922 13.3389L17.3345 6.72514L12.6171 2.08936Z" fill="white"/>
<path d="M13.6013 10.817C13.2816 10.4974 12.811 10.4686 12.4913 10.7882L11.5774 11.7015C11.3395 11.9391 11.0528 11.9396 10.8855 11.7421C10.7746 11.6113 10.8184 11.2078 10.8495 10.9519L11.3078 7.18472C11.3487 6.84816 11.1089 6.52302 10.7722 6.48213C10.4356 6.44119 10.1294 6.7 10.0885 7.0365L9.58295 9.99539C9.55653 10.069 9.49986 10.0817 9.49348 9.98262L9.32143 6.13675C9.32143 5.79774 9.04649 5.52295 8.70732 5.52295C8.36812 5.52295 8.09319 5.79774 8.09319 6.13675L8.08109 10.0114C8.08429 10.0561 8.04592 10.0689 8.039 10.0179L7.49265 6.99337C7.43236 6.65975 7.1129 6.41897 6.77915 6.47925C6.44535 6.53949 6.22368 6.87793 6.28393 7.21149L6.77043 10.7508C6.77094 10.8138 6.7498 10.8497 6.71983 10.769L5.99404 8.82861C5.88048 8.50917 5.5294 8.323 5.20977 8.43646C4.89018 8.54994 4.72309 8.92006 4.83661 9.23946L6.10897 13.3963C6.11561 13.4192 6.12265 13.442 6.12986 13.4646L6.13252 13.4732C6.13276 13.4739 6.13307 13.4745 6.13328 13.4752C6.48564 14.5597 7.5048 15.3437 8.70734 15.3437C9.47713 15.3437 10.2767 15.0724 10.8854 14.6056H10.8855C11.5429 14.2099 13.6492 11.9455 13.6492 11.9455C13.9689 11.6259 13.9211 11.1366 13.6013 10.817Z" fill="white"/>
</g>
<defs>
<clipPath id="clip0_151_471">
<rect width="18.3138" height="18.3138" fill="white" transform="translate(0.222778 0.944336)"/>
</clipPath>
</defs>
</svg>
