<svg width="16" height="14" viewBox="0 0 16 14" fill="none" xmlns="http://www.w3.org/2000/svg">
<path fill-rule="evenodd" clip-rule="evenodd" d="M12.0015 13.5131C12.2107 13.6578 12.4804 13.694 12.7209 13.6052C12.9613 13.5157 13.1381 13.3151 13.1914 13.072C13.7561 10.4801 15.1261 3.91951 15.6401 1.56172C15.6791 1.38401 15.6141 1.19932 15.4712 1.08064C15.3282 0.961959 15.13 0.927687 14.9532 0.991788C12.2283 1.97679 3.83638 5.05175 0.406326 6.29126C0.188616 6.36996 0.0469429 6.57432 0.0540916 6.79836C0.0618901 7.02303 0.216561 7.21787 0.439469 7.28325C1.97773 7.73259 3.9969 8.35774 3.9969 8.35774C3.9969 8.35774 4.94053 11.1408 5.43248 12.5561C5.49422 12.7338 5.63655 12.8734 5.82436 12.9216C6.01153 12.9692 6.21169 12.9191 6.35141 12.7903C7.14166 12.0617 8.36344 10.9351 8.36344 10.9351C8.36344 10.9351 10.6848 12.5973 12.0015 13.5131V13.5131ZM4.84629 8.00613L5.93744 11.5209L6.17984 9.29514C6.17984 9.29514 10.3956 5.5817 12.7989 3.46509C12.869 3.40289 12.8788 3.2988 12.8203 3.22582C12.7625 3.15283 12.6559 3.13569 12.5759 3.1852C9.79057 4.92228 4.84629 8.00613 4.84629 8.00613Z" fill="#525252"/>
</svg>
