<svg width="65" height="13" viewBox="0 0 65 13" fill="none" xmlns="http://www.w3.org/2000/svg">
<path d="M0.32 8.48H3.36C3.424 8.72533 3.54133 8.93867 3.712 9.12C4.07467 9.54667 4.59733 9.76 5.28 9.76C5.824 9.76 6.25067 9.632 6.56 9.376C6.88 9.10933 7.04 8.784 7.04 8.4C7.04 8.02667 6.88 7.70667 6.56 7.44C6.25067 7.17333 5.824 7.04 5.28 7.04H2.72V5.12L5.28 3.52V3.36H0.96V0.799999H9.36V3.36L6.88 4.88L6.704 4.944V5.136L6.736 5.12C7.68533 5.12 8.48 5.43467 9.12 6.064C9.76 6.69333 10.08 7.472 10.08 8.4C10.08 9.52 9.648 10.4533 8.784 11.2C7.92 11.9467 6.752 12.32 5.28 12.32C3.392 12.32 2.00533 11.68 1.12 10.4C0.714667 9.83467 0.448 9.19467 0.32 8.48ZM15.4469 12V0.799999H21.0469C22.3802 0.799999 23.4575 1.17867 24.2789 1.936C25.1109 2.68267 25.5269 3.61067 25.5269 4.72C25.5269 6.16 24.7802 7.28 23.2869 8.08L25.6069 12H22.4069L20.4069 8.64H18.4069V12H15.4469ZM18.4069 5.92H20.9669C21.4255 5.92 21.7935 5.80267 22.0709 5.568C22.3482 5.33333 22.4869 5.05067 22.4869 4.72C22.4869 4.38933 22.3482 4.10667 22.0709 3.872C21.7935 3.63733 21.4255 3.52 20.9669 3.52H18.4069V5.92ZM27.284 10.944C26.388 10.08 25.94 9.04533 25.94 7.84C25.94 6.63467 26.388 5.6 27.284 4.736C28.18 3.872 29.2787 3.44 30.58 3.44C31.8813 3.44 32.98 3.872 33.876 4.736C34.772 5.6 35.22 6.63467 35.22 7.84C35.22 9.04533 34.772 10.08 33.876 10.944C32.98 11.808 31.8813 12.24 30.58 12.24C29.2787 12.24 28.18 11.808 27.284 10.944ZM29.252 6.336C28.9107 6.70933 28.74 7.21067 28.74 7.84C28.74 8.46933 28.9107 8.976 29.252 9.36C29.604 9.73333 30.0467 9.92 30.58 9.92C31.1133 9.92 31.5507 9.73333 31.892 9.36C32.244 8.976 32.42 8.46933 32.42 7.84C32.42 7.21067 32.244 6.70933 31.892 6.336C31.5507 5.952 31.1133 5.76 30.58 5.76C30.0467 5.76 29.604 5.952 29.252 6.336ZM36.0981 8.8V3.68H38.8181V8.4C38.8181 8.88 38.9461 9.25333 39.2021 9.52C39.4581 9.78667 39.8101 9.92 40.2581 9.92C40.7168 9.92 41.0955 9.75467 41.3941 9.424C41.7035 9.08267 41.8581 8.63467 41.8581 8.08V3.68H44.5781V12H41.8581V10.88H41.6981C41.5595 11.1467 41.3675 11.376 41.1221 11.568C40.5888 12.016 39.9541 12.24 39.2181 12.24C38.2368 12.24 37.4688 11.9467 36.9141 11.36C36.3701 10.7627 36.0981 9.90933 36.0981 8.8ZM45.8563 12V3.68H48.5763V4.8H48.7363C48.8856 4.544 49.0776 4.32 49.3123 4.128C49.8563 3.66933 50.4909 3.44 51.2163 3.44C52.1976 3.44 52.9603 3.73867 53.5043 4.336C54.0589 4.92267 54.3363 5.77067 54.3363 6.88V12H51.6163V7.28C51.6163 6.8 51.4883 6.42667 51.2323 6.16C50.9763 5.89333 50.6243 5.76 50.1763 5.76C49.7176 5.76 49.3336 5.93067 49.0243 6.272C48.7256 6.60267 48.5763 7.04533 48.5763 7.6V12H45.8563ZM56.2883 11.04C55.5736 10.2293 55.2163 9.16267 55.2163 7.84C55.2163 6.51733 55.5736 5.456 56.2883 4.656C57.0029 3.84533 57.8723 3.44 58.8963 3.44C59.5576 3.44 60.1816 3.66933 60.7683 4.128C61.0136 4.33067 61.2163 4.55467 61.3763 4.8H61.5363V0.799999H64.2563V12H61.5363V10.88H61.3763C61.2269 11.136 61.0243 11.3653 60.7683 11.568C60.1923 12.016 59.5683 12.24 58.8963 12.24C57.8723 12.24 57.0029 11.84 56.2883 11.04ZM58.4963 6.304C58.1763 6.66667 58.0163 7.17867 58.0163 7.84C58.0163 8.50133 58.1763 9.01333 58.4963 9.376C58.8163 9.73867 59.2429 9.92 59.7763 9.92C60.3096 9.92 60.7363 9.73867 61.0563 9.376C61.3763 9.01333 61.5363 8.50133 61.5363 7.84C61.5363 7.17867 61.3763 6.66667 61.0563 6.304C60.7363 5.94133 60.3096 5.76 59.7763 5.76C59.2429 5.76 58.8163 5.94133 58.4963 6.304Z" fill="white"/>
</svg>
