<svg width="43" height="14" viewBox="0 0 43 14" fill="none" xmlns="http://www.w3.org/2000/svg">
<path d="M17.3254 0.763672L15.1718 13.402H18.6162L20.7716 0.763672H17.3254Z" fill="#0335D3"/>
<path d="M12.2838 0.778537L8.91028 9.39752L8.5506 8.09612C7.88529 6.52807 5.99654 4.27609 3.77911 2.85687L6.86384 13.3965L10.5085 13.3903L15.9329 0.775879L12.2838 0.778537Z" fill="#0335D3"/>
<path d="M7.24287 1.68155C7.04265 0.911698 6.46238 0.682248 5.74214 0.654785H0.4019L0.357605 0.906383C4.51339 1.91454 7.26324 4.3437 8.40429 7.26453L7.24287 1.68155Z" fill="#0335D3"/>
<path d="M27.7519 3.1859C28.8788 3.16818 29.6956 3.41446 30.3299 3.6696L30.6409 3.81578L31.1069 1.07656C30.4247 0.820528 29.3554 0.545898 28.0213 0.545898C24.6176 0.545898 22.2186 2.26013 22.2 4.71674C22.1778 6.53197 23.9089 7.54544 25.2165 8.15052C26.5586 8.77065 27.0087 9.16488 27.0025 9.71857C26.9918 10.5646 25.9323 10.9526 24.9427 10.9526C23.5634 10.9526 22.8307 10.7622 21.6994 10.2909L21.2556 10.0889L20.771 12.9176C21.5772 13.2711 23.0646 13.5749 24.6087 13.5909C28.2294 13.5909 30.5824 11.897 30.6072 9.27207C30.6223 7.83602 29.7036 6.74015 27.713 5.84096C26.5081 5.25449 25.7711 4.86469 25.7781 4.2729C25.7781 3.74756 26.4036 3.1859 27.7519 3.1859Z" fill="#0335D3"/>
<path d="M39.947 0.776855H37.2857C36.4591 0.776855 35.8443 1.00188 35.4811 1.82577L30.3668 13.4081H33.9839C33.9839 13.4081 34.5739 11.8507 34.7077 11.5096C35.1037 11.5096 38.6181 11.5149 39.1186 11.5149C39.2214 11.9561 39.5385 13.4081 39.5385 13.4081H42.734L39.947 0.776855ZM35.699 8.92276C35.9825 8.19721 37.0713 5.39066 37.0713 5.39066C37.0527 5.42521 37.3521 4.65978 37.5302 4.18405L37.7623 5.27372C37.7623 5.27372 38.4223 8.29111 38.5605 8.92276H35.699Z" fill="#0335D3"/>
</svg>
