<svg width="236" height="78" viewBox="0 0 236 78" fill="none" xmlns="http://www.w3.org/2000/svg">
<path d="M13.3851 36.4567L11.138 50.7212L9.52592 59.1724H9.72132L18.2702 40.951H22.0806L20.7128 59.1724H20.9082L24.2789 50.3304L29.9944 36.4567H36.2473L21.4455 70.6523H15.4369L16.6093 54.5316H16.4139L9.13511 70.6523H2.6868L7.42533 36.4567H13.3851ZM46.5251 36.4567L36.7549 70.6523H30.6486L40.4187 36.4567H46.5251ZM52.1601 36.4567H57.778L58.755 55.8505H58.9992L61.2464 46.7154L64.1774 36.4567H69.9907L60.2205 70.6523H54.6027L53.6256 51.2586H53.3814L51.1342 60.3937L48.2032 70.6523H42.3899L52.1601 36.4567Z" fill="black"/>
<mask id="path-2-outside-1_562_1916" maskUnits="userSpaceOnUse" x="76.5742" y="15" width="157" height="60" fill="black">
<rect fill="white" x="76.5742" y="15" width="157" height="60"/>
<path d="M105.083 22.0493C108.472 22.0493 110.797 23.1139 112.057 25.2431C113.361 27.3722 113.556 30.0445 112.644 33.26L111.21 38.6046C110.688 40.6469 110.015 42.1894 109.189 43.2323C108.407 44.2317 107.364 44.9921 106.061 45.5135C107.842 47.1647 108.342 49.4242 107.56 52.292L105.865 58.2233C104.822 61.8298 103.388 64.4152 101.563 65.9795C99.7384 67.5438 97.3268 68.3259 94.3286 68.3259H91.3956C87.9629 68.3259 85.6165 67.2613 84.3564 65.1322C83.0962 63.003 82.9224 60.3307 83.8349 57.1152L85.2689 52.0313H93.0251L91.2001 58.3536C90.7656 59.9613 91.3522 60.7652 92.9599 60.7652H95.2411C95.9798 60.7652 96.523 60.5697 96.8706 60.1786C97.2617 59.7441 97.5875 59.0923 97.8483 58.2233L99.8036 51.3795C100.238 49.7718 99.6515 48.9679 98.0438 48.9679H94.0679L96.284 41.4073H100.455C101.194 41.4073 101.737 41.2117 102.085 40.8207C102.476 40.3861 102.802 39.7344 103.063 38.8653L105.018 32.0216C105.452 30.4139 104.866 29.61 103.258 29.61H101.303C100.564 29.61 99.9991 29.8273 99.6081 30.2618C99.2605 30.6529 98.9563 31.2829 98.6956 32.152L97.2617 37.301H89.5054L90.9394 32.152C91.9822 28.5454 93.4161 25.96 95.2411 24.3957C97.0661 22.8315 99.4777 22.0493 102.476 22.0493H105.083ZM131.908 22.3752H139.404L140.708 48.251H141.033L144.032 36.0627L147.942 22.3752H155.699L142.663 68H135.167L133.864 42.1242H133.538L130.54 54.3126L126.629 68H118.873L131.908 22.3752ZM169.083 29.9359L165.824 41.4073H174.754L172.537 48.9679H163.608L160.349 60.4393H169.93L167.779 68H150.181L163.217 22.3752H180.815L178.664 29.9359H169.083ZM193.026 22.3752L190.028 41.4073L187.877 52.6831H188.138L199.544 28.3716H204.628L202.803 52.6831H203.064L207.561 40.8858L215.187 22.3752H223.53L203.781 68H195.764L197.328 46.4912H197.067L187.356 68H178.752L185.075 22.3752H193.026Z"/>
</mask>
<path d="M105.083 22.0493C108.472 22.0493 110.797 23.1139 112.057 25.2431C113.361 27.3722 113.556 30.0445 112.644 33.26L111.21 38.6046C110.688 40.6469 110.015 42.1894 109.189 43.2323C108.407 44.2317 107.364 44.9921 106.061 45.5135C107.842 47.1647 108.342 49.4242 107.56 52.292L105.865 58.2233C104.822 61.8298 103.388 64.4152 101.563 65.9795C99.7384 67.5438 97.3268 68.3259 94.3286 68.3259H91.3956C87.9629 68.3259 85.6165 67.2613 84.3564 65.1322C83.0962 63.003 82.9224 60.3307 83.8349 57.1152L85.2689 52.0313H93.0251L91.2001 58.3536C90.7656 59.9613 91.3522 60.7652 92.9599 60.7652H95.2411C95.9798 60.7652 96.523 60.5697 96.8706 60.1786C97.2617 59.7441 97.5875 59.0923 97.8483 58.2233L99.8036 51.3795C100.238 49.7718 99.6515 48.9679 98.0438 48.9679H94.0679L96.284 41.4073H100.455C101.194 41.4073 101.737 41.2117 102.085 40.8207C102.476 40.3861 102.802 39.7344 103.063 38.8653L105.018 32.0216C105.452 30.4139 104.866 29.61 103.258 29.61H101.303C100.564 29.61 99.9991 29.8273 99.6081 30.2618C99.2605 30.6529 98.9563 31.2829 98.6956 32.152L97.2617 37.301H89.5054L90.9394 32.152C91.9822 28.5454 93.4161 25.96 95.2411 24.3957C97.0661 22.8315 99.4777 22.0493 102.476 22.0493H105.083ZM131.908 22.3752H139.404L140.708 48.251H141.033L144.032 36.0627L147.942 22.3752H155.699L142.663 68H135.167L133.864 42.1242H133.538L130.54 54.3126L126.629 68H118.873L131.908 22.3752ZM169.083 29.9359L165.824 41.4073H174.754L172.537 48.9679H163.608L160.349 60.4393H169.93L167.779 68H150.181L163.217 22.3752H180.815L178.664 29.9359H169.083ZM193.026 22.3752L190.028 41.4073L187.877 52.6831H188.138L199.544 28.3716H204.628L202.803 52.6831H203.064L207.561 40.8858L215.187 22.3752H223.53L203.781 68H195.764L197.328 46.4912H197.067L187.356 68H178.752L185.075 22.3752H193.026Z" fill="#008A0E"/>
<path d="M112.057 25.2431L106.804 28.352L106.827 28.3914L106.851 28.4304L112.057 25.2431ZM112.644 33.26L106.771 31.5935L106.759 31.6358L106.748 31.6782L112.644 33.26ZM111.21 38.6046L105.314 37.0228L105.305 37.0586L105.295 37.0945L111.21 38.6046ZM109.189 43.2323L104.403 39.4434L104.393 39.4568L104.382 39.4702L109.189 43.2323ZM106.061 45.5135L103.794 39.8459L94.8331 43.4302L101.911 49.9905L106.061 45.5135ZM107.56 52.292L113.429 53.969L113.439 53.9336L113.449 53.8981L107.56 52.292ZM105.865 58.2233L111.729 59.9189L111.732 59.9095L111.734 59.9002L105.865 58.2233ZM101.563 65.9795L105.536 70.6141L105.536 70.6141L101.563 65.9795ZM84.3564 65.1322L89.6095 62.0232L89.6095 62.0232L84.3564 65.1322ZM83.8349 57.1152L89.7072 58.7817L89.7099 58.7723L83.8349 57.1152ZM85.2689 52.0313V45.9272H80.6482L79.3939 50.3743L85.2689 52.0313ZM93.0251 52.0313L98.8898 53.7242L101.14 45.9272H93.0251V52.0313ZM91.2001 58.3536L85.3354 56.6607L85.3209 56.7107L85.3073 56.761L91.2001 58.3536ZM96.8706 60.1786L92.3334 56.0951L92.3208 56.1091L92.3083 56.1232L96.8706 60.1786ZM97.8483 58.2233L103.695 59.9773L103.707 59.9388L103.718 59.9002L97.8483 58.2233ZM99.8036 51.3795L105.673 53.0565L105.685 53.0144L105.696 52.9722L99.8036 51.3795ZM94.0679 48.9679L88.2102 47.251L85.9178 55.0721H94.0679V48.9679ZM96.284 41.4073V35.3031H91.7122L90.4263 39.6903L96.284 41.4073ZM102.085 40.8207L97.5477 36.7372L97.5351 36.7512L97.5225 36.7653L102.085 40.8207ZM103.063 38.8653L108.909 40.6193L108.921 40.5809L108.932 40.5423L103.063 38.8653ZM105.018 32.0216L110.887 33.6985L110.899 33.6565L110.911 33.6142L105.018 32.0216ZM99.6081 30.2618L95.0709 26.1783L95.0583 26.1923L95.0458 26.2064L99.6081 30.2618ZM98.6956 32.152L92.8488 30.3979L92.8314 30.456L92.8152 30.5144L98.6956 32.152ZM97.2617 37.301V43.4052H101.898L103.142 38.9386L97.2617 37.301ZM89.5054 37.301L83.625 35.6635L81.4691 43.4052H89.5054V37.301ZM90.9394 32.152L85.0754 30.4564L85.0671 30.4853L85.059 30.5144L90.9394 32.152ZM95.2411 24.3957L91.2686 19.7611L91.2686 19.7611L95.2411 24.3957ZM105.083 28.1535C106.173 28.1535 106.677 28.329 106.827 28.3977C106.891 28.4271 106.887 28.4344 106.852 28.4035C106.816 28.3714 106.8 28.3445 106.804 28.352L117.31 22.1341C114.561 17.4894 109.734 15.9452 105.083 15.9452V28.1535ZM106.851 28.4304C106.992 28.6603 107.383 29.4374 106.771 31.5935L118.516 34.9264C119.729 30.6517 119.729 26.0841 117.263 22.0557L106.851 28.4304ZM106.748 31.6782L105.314 37.0228L117.105 40.1864L118.539 34.8417L106.748 31.6782ZM105.295 37.0945C104.876 38.7382 104.477 39.3509 104.403 39.4434L113.975 47.0211C115.553 45.0279 116.501 42.5555 117.124 40.1147L105.295 37.0945ZM104.382 39.4702C104.333 39.5335 104.206 39.6809 103.794 39.8459L108.328 51.1811C110.522 50.3033 112.482 48.9298 113.996 46.9943L104.382 39.4702ZM101.911 49.9905C101.947 50.0239 101.923 50.0093 101.884 49.9417C101.843 49.8716 101.82 49.8038 101.812 49.7646C101.796 49.6925 101.873 49.9426 101.671 50.6859L113.449 53.8981C114.669 49.4237 114.063 44.6071 110.21 41.0365L101.911 49.9905ZM101.691 50.6151L99.9959 56.5463L111.734 59.9002L113.429 53.969L101.691 50.6151ZM100.001 56.5277C99.1177 59.5832 98.1369 60.8769 97.5909 61.3449L105.536 70.6141C108.64 67.9535 110.527 64.0764 111.729 59.9189L100.001 56.5277ZM97.5909 61.3448C97.1255 61.7437 96.2421 62.2217 94.3286 62.2217V74.4301C98.4115 74.4301 102.351 73.3438 105.536 70.6141L97.5909 61.3448ZM94.3286 62.2217H91.3956V74.4301H94.3286V62.2217ZM91.3956 62.2217C90.2745 62.2217 89.7474 62.0431 89.5833 61.9687C89.5128 61.9367 89.516 61.9277 89.552 61.9595C89.5897 61.993 89.6098 62.0237 89.6095 62.0232L79.1033 68.2411C81.8662 72.9095 86.7388 74.4301 91.3956 74.4301V62.2217ZM89.6095 62.0232C89.4684 61.7848 89.0853 60.9732 89.7072 58.7817L77.9627 55.4488C76.7596 59.6881 76.7241 64.2212 79.1033 68.2411L89.6095 62.0232ZM89.7099 58.7723L91.1438 53.6884L79.3939 50.3743L77.96 55.4582L89.7099 58.7723ZM85.2689 58.1355H93.0251V45.9272H85.2689V58.1355ZM87.1604 50.3384L85.3354 56.6607L97.0648 60.0465L98.8898 53.7242L87.1604 50.3384ZM85.3073 56.761C84.9252 58.1751 84.4409 61.0988 86.3833 63.7605C88.3899 66.5104 91.4179 66.8694 92.9599 66.8694V54.6611C93.024 54.6611 93.4464 54.6634 94.0453 54.8828C94.7031 55.1238 95.5628 55.6292 96.245 56.5641C96.9176 57.4857 97.1193 58.4159 97.1577 59.0245C97.1932 59.5873 97.0972 59.9301 97.0928 59.9462L85.3073 56.761ZM92.9599 66.8694H95.2411V54.6611H92.9599V66.8694ZM95.2411 66.8694C96.9832 66.8694 99.5124 66.3945 101.433 64.234L92.3083 56.1232C93.5335 54.7448 94.9764 54.6611 95.2411 54.6611V66.8694ZM101.408 64.2621C102.643 62.8893 103.304 61.2809 103.695 59.9773L92.0015 56.4692C91.9486 56.6457 91.9222 56.6868 91.9486 56.634C91.9734 56.5844 92.0848 56.3713 92.3334 56.0951L101.408 64.2621ZM103.718 59.9002L105.673 53.0565L93.9343 49.7026L91.979 56.5463L103.718 59.9002ZM105.696 52.9722C106.079 51.5581 106.563 48.6344 104.62 45.9726C102.614 43.2228 99.5858 42.8638 98.0438 42.8638V55.0721C97.9797 55.0721 97.5573 55.0697 96.9584 54.8503C96.3006 54.6093 95.4409 54.1039 94.7587 53.1691C94.0861 52.2474 93.8844 51.3173 93.846 50.7087C93.8105 50.1459 93.9065 49.8031 93.9109 49.7869L105.696 52.9722ZM98.0438 42.8638H94.0679V55.0721H98.0438V42.8638ZM99.9256 50.6849L102.142 43.1242L90.4263 39.6903L88.2102 47.251L99.9256 50.6849ZM96.284 47.5114H100.455V35.3031H96.284V47.5114ZM100.455 47.5114C102.197 47.5114 104.727 47.0366 106.647 44.876L97.5225 36.7653C98.7478 35.3869 100.191 35.3031 100.455 35.3031V47.5114ZM106.622 44.9041C107.858 43.5314 108.518 41.923 108.909 40.6193L97.2158 37.1113C97.1629 37.2878 97.1365 37.3288 97.1628 37.2761C97.1876 37.2265 97.2991 37.0134 97.5477 36.7372L106.622 44.9041ZM108.932 40.5423L110.887 33.6985L99.1486 30.3447L97.1932 37.1884L108.932 40.5423ZM110.911 33.6142C111.293 32.2001 111.777 29.2765 109.835 26.6147C107.828 23.8648 104.8 23.5058 103.258 23.5058V35.7142C103.194 35.7142 102.772 35.7118 102.173 35.4924C101.515 35.2514 100.655 34.746 99.9729 33.8111C99.3004 32.8895 99.0986 31.9593 99.0602 31.3507C99.0248 30.788 99.1208 30.4451 99.1251 30.429L110.911 33.6142ZM103.258 23.5058H101.303V35.7142H103.258V23.5058ZM101.303 23.5058C99.3219 23.5058 96.9103 24.1345 95.0709 26.1783L104.145 34.3453C103.674 34.869 103.099 35.246 102.516 35.4702C101.964 35.6826 101.522 35.7142 101.303 35.7142V23.5058ZM95.0458 26.2064C93.8234 27.5816 93.204 29.2139 92.8488 30.3979L104.542 33.906C104.606 33.6948 104.638 33.6357 104.616 33.6814C104.603 33.7084 104.567 33.7805 104.501 33.8841C104.435 33.9872 104.328 34.1396 104.17 34.3172L95.0458 26.2064ZM92.8152 30.5144L91.3813 35.6635L103.142 38.9386L104.576 33.7895L92.8152 30.5144ZM97.2617 31.1969H89.5054V43.4052H97.2617V31.1969ZM95.3858 38.9386L96.8198 33.7895L85.059 30.5144L83.625 35.6635L95.3858 38.9386ZM96.8033 33.8476C97.6868 30.792 98.6677 29.4984 99.2137 29.0304L91.2686 19.7611C88.1646 22.4217 86.2776 26.2988 85.0754 30.4564L96.8033 33.8476ZM99.2137 29.0304C99.679 28.6315 100.562 28.1535 102.476 28.1535V15.9452C98.393 15.9452 94.4532 17.0314 91.2686 19.7611L99.2137 29.0304ZM102.476 28.1535H105.083V15.9452H102.476V28.1535ZM131.908 22.3752V16.2711H127.304L126.039 20.6983L131.908 22.3752ZM139.404 22.3752L145.5 22.0681L145.208 16.2711H139.404V22.3752ZM140.708 48.251L134.611 48.5581L134.903 54.3551H140.708V48.251ZM141.033 48.251V54.3551H145.818L146.961 49.7091L141.033 48.251ZM144.032 36.0627L138.162 34.3857L138.131 34.4946L138.104 34.6046L144.032 36.0627ZM147.942 22.3752V16.2711H143.338L142.073 20.6983L147.942 22.3752ZM155.699 22.3752L161.568 24.0522L163.791 16.2711H155.699V22.3752ZM142.663 68V74.1042H147.267L148.532 69.6769L142.663 68ZM135.167 68L129.071 68.3071L129.363 74.1042H135.167V68ZM133.864 42.1242L139.96 41.8171L139.668 36.0201H133.864V42.1242ZM133.538 42.1242V36.0201H128.753L127.61 40.6661L133.538 42.1242ZM130.54 54.3126L136.409 55.9895L136.44 55.8806L136.467 55.7707L130.54 54.3126ZM126.629 68V74.1042H131.233L132.498 69.6769L126.629 68ZM118.873 68L113.004 66.3231L110.78 74.1042H118.873V68ZM131.908 28.4794H139.404V16.2711H131.908V28.4794ZM133.308 22.6823L134.611 48.5581L146.804 47.9439L145.5 22.0681L133.308 22.6823ZM140.708 54.3551H141.033V42.1468H140.708V54.3551ZM146.961 49.7091L149.959 37.5207L138.104 34.6046L135.106 46.7929L146.961 49.7091ZM149.901 37.7396L153.812 24.0522L142.073 20.6983L138.162 34.3857L149.901 37.7396ZM147.942 28.4794H155.699V16.2711H147.942V28.4794ZM149.829 20.6983L136.794 66.3231L148.532 69.6769L161.568 24.0522L149.829 20.6983ZM142.663 61.8958H135.167V74.1042H142.663V61.8958ZM141.264 67.6929L139.96 41.8171L127.767 42.4314L129.071 68.3071L141.264 67.6929ZM133.864 36.0201H133.538V48.2284H133.864V36.0201ZM127.61 40.6661L124.612 52.8545L136.467 55.7707L139.465 43.5823L127.61 40.6661ZM124.67 52.6356L120.76 66.3231L132.498 69.6769L136.409 55.9895L124.67 52.6356ZM126.629 61.8958H118.873V74.1042H126.629V61.8958ZM124.742 69.6769L137.778 24.0522L126.039 20.6983L113.004 66.3231L124.742 69.6769ZM169.083 29.9359V23.8317H164.471L163.211 28.2678L169.083 29.9359ZM165.824 41.4073L159.952 39.7391L157.744 47.5114H165.824V41.4073ZM174.754 41.4073L180.611 43.1242L182.904 35.3031H174.754V41.4073ZM172.537 48.9679V55.0721H177.109L178.395 50.6849L172.537 48.9679ZM163.608 48.9679V42.8638H158.996L157.736 47.2998L163.608 48.9679ZM160.349 60.4393L154.477 58.7712L152.269 66.5435H160.349V60.4393ZM169.93 60.4393L175.802 62.1096L178.013 54.3352H169.93V60.4393ZM167.779 68V74.1042H172.389L173.651 69.6703L167.779 68ZM150.181 68L144.312 66.3231L142.089 74.1042H150.181V68ZM163.217 22.3752V16.2711H158.613L157.348 20.6983L163.217 22.3752ZM180.815 22.3752L186.686 24.0455L188.898 16.2711H180.815V22.3752ZM178.664 29.9359V36.0401H183.274L184.535 31.6061L178.664 29.9359ZM163.211 28.2678L159.952 39.7391L171.696 43.0754L174.955 31.604L163.211 28.2678ZM165.824 47.5114H174.754V35.3031H165.824V47.5114ZM168.896 39.6903L166.68 47.251L178.395 50.6849L180.611 43.1242L168.896 39.6903ZM172.537 42.8638H163.608V55.0721H172.537V42.8638ZM157.736 47.2998L154.477 58.7712L166.221 62.1074L169.48 50.6361L157.736 47.2998ZM160.349 66.5435H169.93V54.3352H160.349V66.5435ZM164.059 58.7691L161.908 66.3297L173.651 69.6703L175.802 62.1096L164.059 58.7691ZM167.779 61.8958H150.181V74.1042H167.779V61.8958ZM156.051 69.6769L169.086 24.0522L157.348 20.6983L144.312 66.3231L156.051 69.6769ZM163.217 28.4794H180.815V16.2711H163.217V28.4794ZM174.944 20.705L172.793 28.2656L184.535 31.6061L186.686 24.0455L174.944 20.705ZM178.664 23.8317H169.083V36.0401H178.664V23.8317ZM193.026 22.3752L199.056 23.3251L200.167 16.2711H193.026V22.3752ZM190.028 41.4073L196.024 42.551L196.043 42.4544L196.058 42.3572L190.028 41.4073ZM187.877 52.6831L181.881 51.5394L180.499 58.7873H187.877V52.6831ZM188.138 52.6831V58.7873H192.017L193.664 55.2758L188.138 52.6831ZM199.544 28.3716V22.2675H195.665L194.018 25.7789L199.544 28.3716ZM204.628 28.3716L210.715 28.8286L211.208 22.2675H204.628V28.3716ZM202.803 52.6831L196.716 52.2262L196.224 58.7873H202.803V52.6831ZM203.064 52.6831V58.7873H207.269L208.768 54.8575L203.064 52.6831ZM207.561 40.8858L201.917 38.5607L201.886 38.6357L201.857 38.7115L207.561 40.8858ZM215.187 22.3752V16.2711H211.1L209.543 20.0501L215.187 22.3752ZM223.53 22.3752L229.132 24.8L232.823 16.2711H223.53V22.3752ZM203.781 68V74.1042H207.79L209.383 70.4248L203.781 68ZM195.764 68L189.676 67.5572L189.2 74.1042H195.764V68ZM197.328 46.4912L203.416 46.9339L203.892 40.387H197.328V46.4912ZM197.067 46.4912V40.387H193.126L191.504 43.9792L197.067 46.4912ZM187.356 68V74.1042H191.297L192.919 70.5119L187.356 68ZM178.752 68L172.706 67.1621L171.744 74.1042H178.752V68ZM185.075 22.3752V16.2711H179.758L179.028 21.5374L185.075 22.3752ZM186.997 21.4253L183.998 40.4574L196.058 42.3572L199.056 23.3251L186.997 21.4253ZM184.032 40.2635L181.881 51.5394L193.873 53.8269L196.024 42.551L184.032 40.2635ZM187.877 58.7873H188.138V46.5789H187.877V58.7873ZM193.664 55.2758L205.07 30.9643L194.018 25.7789L182.612 50.0904L193.664 55.2758ZM199.544 34.4758H204.628V22.2675H199.544V34.4758ZM198.541 27.9147L196.716 52.2262L208.89 53.14L210.715 28.8286L198.541 27.9147ZM202.803 58.7873H203.064V46.5789H202.803V58.7873ZM208.768 54.8575L213.265 43.0602L201.857 38.7115L197.36 50.5087L208.768 54.8575ZM213.205 43.211L220.831 24.7004L209.543 20.0501L201.917 38.5607L213.205 43.211ZM215.187 28.4794H223.53V16.2711H215.187V28.4794ZM217.928 19.9504L198.179 65.5752L209.383 70.4248L229.132 24.8L217.928 19.9504ZM203.781 61.8958H195.764V74.1042H203.781V61.8958ZM201.852 68.4428L203.416 46.9339L191.24 46.0484L189.676 67.5572L201.852 68.4428ZM197.328 40.387H197.067V52.5953H197.328V40.387ZM191.504 43.9792L181.792 65.4881L192.919 70.5119L202.631 49.0031L191.504 43.9792ZM187.356 61.8958H178.752V74.1042H187.356V61.8958ZM184.799 68.8379L191.121 23.2131L179.028 21.5374L172.706 67.1621L184.799 68.8379ZM185.075 28.4794H193.026V16.2711H185.075V28.4794Z" fill="#FF682F" mask="url(#path-2-outside-1_562_1916)"/>
<mask id="path-4-outside-2_562_1916" maskUnits="userSpaceOnUse" x="79.3652" y="19" width="149" height="53" fill="black">
<rect fill="white" x="79.3652" y="19" width="149" height="53"/>
<path d="M104.874 22.0493C108.263 22.0493 110.588 23.1139 111.848 25.2431C113.152 27.3722 113.347 30.0445 112.435 33.26L111.001 38.6046C110.479 40.6469 109.806 42.1894 108.98 43.2323C108.198 44.2317 107.155 44.9921 105.852 45.5135C107.633 47.1647 108.133 49.4242 107.351 52.292L105.656 58.2233C104.613 61.8298 103.179 64.4152 101.354 65.9795C99.5294 67.5438 97.1178 68.3259 94.1196 68.3259H91.1866C87.7539 68.3259 85.4075 67.2613 84.1474 65.1322C82.8873 63.003 82.7135 60.3307 83.6259 57.1152L85.0599 52.0313H92.8161L90.9911 58.3536C90.5566 59.9613 91.1432 60.7652 92.7509 60.7652H95.0321C95.7708 60.7652 96.314 60.5697 96.6616 60.1786C97.0527 59.7441 97.3786 59.0923 97.6393 58.2233L99.5946 51.3795C100.029 49.7718 99.4425 48.9679 97.8348 48.9679H93.8589L96.075 41.4073H100.246C100.985 41.4073 101.528 41.2117 101.876 40.8207C102.267 40.3861 102.593 39.7344 102.854 38.8653L104.809 32.0216C105.243 30.4139 104.657 29.61 103.049 29.61H101.094C100.355 29.61 99.7902 29.8273 99.3991 30.2618C99.0515 30.6529 98.7473 31.2829 98.4866 32.152L97.0527 37.301H89.2965L90.7304 32.152C91.7732 28.5454 93.2072 25.96 95.0321 24.3957C96.8571 22.8315 99.2687 22.0493 102.267 22.0493H104.874ZM131.699 22.3752H139.195L140.499 48.251H140.824L143.823 36.0627L147.733 22.3752H155.49L142.454 68H134.958L133.655 42.1242H133.329L130.331 54.3126L126.42 68H118.664L131.699 22.3752ZM168.874 29.9359L165.615 41.4073H174.545L172.328 48.9679H163.399L160.14 60.4393H169.721L167.57 68H149.972L163.008 22.3752H180.606L178.455 29.9359H168.874ZM192.817 22.3752L189.819 41.4073L187.668 52.6831H187.929L199.335 28.3716H204.419L202.594 52.6831H202.855L207.352 40.8858L214.978 22.3752H223.321L203.572 68H195.555L197.119 46.4912H196.858L187.147 68H178.543L184.866 22.3752H192.817Z"/>
</mask>
<path d="M104.874 22.0493C108.263 22.0493 110.588 23.1139 111.848 25.2431C113.152 27.3722 113.347 30.0445 112.435 33.26L111.001 38.6046C110.479 40.6469 109.806 42.1894 108.98 43.2323C108.198 44.2317 107.155 44.9921 105.852 45.5135C107.633 47.1647 108.133 49.4242 107.351 52.292L105.656 58.2233C104.613 61.8298 103.179 64.4152 101.354 65.9795C99.5294 67.5438 97.1178 68.3259 94.1196 68.3259H91.1866C87.7539 68.3259 85.4075 67.2613 84.1474 65.1322C82.8873 63.003 82.7135 60.3307 83.6259 57.1152L85.0599 52.0313H92.8161L90.9911 58.3536C90.5566 59.9613 91.1432 60.7652 92.7509 60.7652H95.0321C95.7708 60.7652 96.314 60.5697 96.6616 60.1786C97.0527 59.7441 97.3786 59.0923 97.6393 58.2233L99.5946 51.3795C100.029 49.7718 99.4425 48.9679 97.8348 48.9679H93.8589L96.075 41.4073H100.246C100.985 41.4073 101.528 41.2117 101.876 40.8207C102.267 40.3861 102.593 39.7344 102.854 38.8653L104.809 32.0216C105.243 30.4139 104.657 29.61 103.049 29.61H101.094C100.355 29.61 99.7902 29.8273 99.3991 30.2618C99.0515 30.6529 98.7473 31.2829 98.4866 32.152L97.0527 37.301H89.2965L90.7304 32.152C91.7732 28.5454 93.2072 25.96 95.0321 24.3957C96.8571 22.8315 99.2687 22.0493 102.267 22.0493H104.874ZM131.699 22.3752H139.195L140.499 48.251H140.824L143.823 36.0627L147.733 22.3752H155.49L142.454 68H134.958L133.655 42.1242H133.329L130.331 54.3126L126.42 68H118.664L131.699 22.3752ZM168.874 29.9359L165.615 41.4073H174.545L172.328 48.9679H163.399L160.14 60.4393H169.721L167.57 68H149.972L163.008 22.3752H180.606L178.455 29.9359H168.874ZM192.817 22.3752L189.819 41.4073L187.668 52.6831H187.929L199.335 28.3716H204.419L202.594 52.6831H202.855L207.352 40.8858L214.978 22.3752H223.321L203.572 68H195.555L197.119 46.4912H196.858L187.147 68H178.543L184.866 22.3752H192.817Z" fill="#008A0E"/>
<path d="M111.848 25.2431L109.46 26.6562L109.471 26.6741L109.482 26.6918L111.848 25.2431ZM112.435 33.26L109.766 32.5025L109.76 32.5217L109.755 32.541L112.435 33.26ZM111.001 38.6046L108.321 37.8856L108.317 37.9019L108.312 37.9182L111.001 38.6046ZM108.98 43.2323L106.805 41.51L106.8 41.5161L106.795 41.5222L108.98 43.2323ZM105.852 45.5135L104.821 42.9373L100.748 44.5665L103.966 47.5485L105.852 45.5135ZM107.351 52.292L110.019 53.0543L110.023 53.0382L110.028 53.0221L107.351 52.292ZM105.656 58.2233L108.322 58.994L108.324 58.9855L105.656 58.2233ZM101.354 65.9795L103.16 68.0861L103.16 68.0861L101.354 65.9795ZM84.1474 65.1322L86.5351 63.719L86.5351 63.719L84.1474 65.1322ZM83.6259 57.1152L86.2952 57.8727L86.2964 57.8684L83.6259 57.1152ZM85.0599 52.0313V49.2567H82.9596L82.3894 51.2781L85.0599 52.0313ZM92.8161 52.0313L95.4819 52.8008L96.5049 49.2567H92.8161V52.0313ZM90.9911 58.3536L88.3253 57.5841L88.3188 57.6068L88.3126 57.6297L90.9911 58.3536ZM96.6616 60.1786L94.5992 58.3225L94.5935 58.3289L94.5878 58.3353L96.6616 60.1786ZM97.6393 58.2233L100.297 59.0205L100.302 59.0031L100.307 58.9855L97.6393 58.2233ZM99.5946 51.3795L102.262 52.1418L102.268 52.1227L102.273 52.1035L99.5946 51.3795ZM93.8589 48.9679L91.1963 48.1875L90.1543 51.7426H93.8589V48.9679ZM96.075 41.4073V38.6326H93.9969L93.4124 40.6269L96.075 41.4073ZM101.876 40.8207L99.8135 38.9645L99.8078 38.9709L99.8021 38.9773L101.876 40.8207ZM102.854 38.8653L105.511 39.6626L105.516 39.6451L105.521 39.6276L102.854 38.8653ZM104.809 32.0216L107.477 32.7838L107.482 32.7647L107.487 32.7455L104.809 32.0216ZM99.3991 30.2618L97.3367 28.4057L97.331 28.412L97.3253 28.4184L99.3991 30.2618ZM98.4866 32.152L95.829 31.3547L95.8211 31.3811L95.8137 31.4076L98.4866 32.152ZM97.0527 37.301V40.0757H99.1602L99.7256 38.0454L97.0527 37.301ZM89.2965 37.301L86.6235 36.5567L85.6436 40.0757H89.2965V37.301ZM90.7304 32.152L88.065 31.3812L88.0611 31.3944L88.0575 31.4076L90.7304 32.152ZM95.0321 24.3957L93.2264 22.2891L93.2264 22.2891L95.0321 24.3957ZM104.874 24.8239C107.69 24.8239 108.877 25.6705 109.46 26.6562L114.236 23.8299C112.299 20.5573 108.837 19.2747 104.874 19.2747V24.8239ZM109.482 26.6918C110.257 27.9577 110.541 29.7685 109.766 32.5025L115.104 34.0175C116.153 30.3205 116.047 26.7867 114.214 23.7943L109.482 26.6918ZM109.755 32.541L108.321 37.8856L113.681 39.3236L115.115 33.979L109.755 32.541ZM108.312 37.9182C107.837 39.7793 107.288 40.8992 106.805 41.51L111.156 44.9545C112.323 43.4796 113.122 41.5144 113.689 39.291L108.312 37.9182ZM106.795 41.5222C106.346 42.0961 105.72 42.5779 104.821 42.9373L106.882 48.0897C108.591 47.4063 110.05 46.3672 111.165 44.9423L106.795 41.5222ZM103.966 47.5485C104.806 48.3272 105.257 49.4244 104.674 51.562L110.028 53.0221C111.009 49.424 110.461 46.0022 107.738 43.4785L103.966 47.5485ZM104.683 51.5298L102.988 57.461L108.324 58.9855L110.019 53.0543L104.683 51.5298ZM102.991 57.4525C102.02 60.8086 100.792 62.8069 99.5487 63.8728L103.16 68.0861C105.566 66.0235 107.206 62.851 108.322 58.994L102.991 57.4525ZM99.5487 63.8728C98.3418 64.9074 96.6248 65.5513 94.1196 65.5513V71.1005C97.6109 71.1005 100.717 70.1801 103.16 68.0861L99.5487 63.8728ZM94.1196 65.5513H91.1866V71.1005H94.1196V65.5513ZM91.1866 65.5513C88.3103 65.5513 87.1122 64.6939 86.5351 63.719L81.7596 66.5453C83.7028 69.8287 87.1975 71.1005 91.1866 71.1005V65.5513ZM86.5351 63.719C85.7837 62.4493 85.5147 60.6228 86.2952 57.8727L80.9567 56.3577C79.9122 60.0386 79.9908 63.5567 81.7596 66.5453L86.5351 63.719ZM86.2964 57.8684L87.7303 52.7845L82.3894 51.2781L80.9555 56.362L86.2964 57.8684ZM85.0599 54.8059H92.8161V49.2567H85.0599V54.8059ZM90.1503 51.2618L88.3253 57.5841L93.6569 59.1231L95.4819 52.8008L90.1503 51.2618ZM88.3126 57.6297C88.0203 58.7109 87.821 60.3687 88.8638 61.7979C89.9359 63.267 91.6115 63.5398 92.7509 63.5398V57.9906C92.5608 57.9906 92.5684 57.9643 92.691 58.0092C92.8404 58.0639 93.1164 58.2114 93.3465 58.5268C93.5722 58.8361 93.6187 59.1218 93.6258 59.2341C93.6315 59.3254 93.6123 59.2894 93.6696 59.0775L88.3126 57.6297ZM92.7509 63.5398H95.0321V57.9906H92.7509V63.5398ZM95.0321 63.5398C96.2269 63.5398 97.6728 63.2173 98.7354 62.022L94.5878 58.3353C94.7529 58.1495 94.9351 58.0506 95.0537 58.008C95.1546 57.9716 95.1664 57.9906 95.0321 57.9906V63.5398ZM98.724 62.0347C99.4989 61.1737 99.9769 60.0871 100.297 59.0205L94.9817 57.426C94.8865 57.7432 94.7945 57.9693 94.7176 58.123C94.64 58.2783 94.5929 58.3295 94.5992 58.3225L98.724 62.0347ZM100.307 58.9855L102.262 52.1418L96.9268 50.6173L94.9714 57.461L100.307 58.9855ZM102.273 52.1035C102.565 51.0222 102.765 49.3644 101.722 47.9353C100.65 46.4661 98.9742 46.1933 97.8348 46.1933V51.7426C98.0249 51.7426 98.0173 51.7689 97.8947 51.724C97.7453 51.6692 97.4694 51.5217 97.2392 51.2064C97.0135 50.8971 96.967 50.6113 96.9599 50.4991C96.9542 50.4077 96.9734 50.4437 96.9161 50.6556L102.273 52.1035ZM97.8348 46.1933H93.8589V51.7426H97.8348V46.1933ZM96.5215 49.7484L98.7376 42.1877L93.4124 40.6269L91.1963 48.1875L96.5215 49.7484ZM96.075 44.1819H100.246V38.6326H96.075V44.1819ZM100.246 44.1819C101.441 44.1819 102.887 43.8594 103.95 42.664L99.8021 38.9773C99.9672 38.7916 100.149 38.6927 100.268 38.65C100.369 38.6137 100.381 38.6326 100.246 38.6326V44.1819ZM103.938 42.6768C104.713 41.8158 105.191 40.7292 105.511 39.6626L100.196 38.068C100.101 38.3853 100.009 38.6113 99.9319 38.7651C99.8543 38.9203 99.8072 38.9716 99.8135 38.9645L103.938 42.6768ZM105.521 39.6276L107.477 32.7838L102.141 31.2594L100.186 38.1031L105.521 39.6276ZM107.487 32.7455C107.78 31.6643 107.979 30.0065 106.936 28.5773C105.864 27.1082 104.188 26.8354 103.049 26.8354V32.3846C103.239 32.3846 103.232 32.4109 103.109 32.366C102.96 32.3113 102.684 32.1638 102.454 31.8485C102.228 31.5391 102.181 31.2534 102.174 31.1412C102.168 31.0498 102.188 31.0858 102.13 31.2977L107.487 32.7455ZM103.049 26.8354H101.094V32.3846H103.049V26.8354ZM101.094 26.8354C99.7904 26.8354 98.3861 27.2397 97.3367 28.4057L101.461 32.1179C101.412 32.1724 101.354 32.2243 101.288 32.2691C101.223 32.3137 101.161 32.3436 101.112 32.3626C101.015 32.3999 100.992 32.3846 101.094 32.3846V26.8354ZM97.3253 28.4184C96.5801 29.2568 96.1326 30.3425 95.829 31.3547L101.144 32.9492C101.244 32.6162 101.336 32.385 101.409 32.2339C101.484 32.0774 101.516 32.0569 101.473 32.1051L97.3253 28.4184ZM95.8137 31.4076L94.3798 36.5567L99.7256 38.0454L101.16 32.8963L95.8137 31.4076ZM97.0527 34.5264H89.2965V40.0757H97.0527V34.5264ZM91.9694 38.0454L93.4033 32.8963L88.0575 31.4076L86.6235 36.5567L91.9694 38.0454ZM93.3958 32.9227C94.3662 29.5666 95.5942 27.5684 96.8378 26.5024L93.2264 22.2891C90.8201 24.3517 89.1802 27.5242 88.065 31.3812L93.3958 32.9227ZM96.8378 26.5024C98.0448 25.4678 99.7618 24.8239 102.267 24.8239V19.2747C98.7757 19.2747 95.6695 20.1951 93.2264 22.2891L96.8378 26.5024ZM102.267 24.8239H104.874V19.2747H102.267V24.8239ZM131.699 22.3752V19.6006H129.607L129.032 21.613L131.699 22.3752ZM139.195 22.3752L141.966 22.2356L141.833 19.6006H139.195V22.3752ZM140.499 48.251L137.727 48.3906L137.86 51.0256H140.499V48.251ZM140.824 48.251V51.0256H142.999L143.519 48.9138L140.824 48.251ZM143.823 36.0627L141.155 35.3004L141.141 35.3499L141.128 35.3999L143.823 36.0627ZM147.733 22.3752V19.6006H145.64L145.065 21.613L147.733 22.3752ZM155.49 22.3752L158.157 23.1375L159.168 19.6006H155.49V22.3752ZM142.454 68V70.7746H144.547L145.122 68.7622L142.454 68ZM134.958 68L132.187 68.1396L132.32 70.7746H134.958V68ZM133.655 42.1242L136.426 41.9846L136.293 39.3496H133.655V42.1242ZM133.329 42.1242V39.3496H131.154L130.635 41.4615L133.329 42.1242ZM130.331 54.3126L132.999 55.0748L133.013 55.0253L133.025 54.9753L130.331 54.3126ZM126.42 68V70.7746H128.513L129.088 68.7622L126.42 68ZM118.664 68L115.996 67.2378L114.985 70.7746H118.664V68ZM131.699 25.1498H139.195V19.6006H131.699V25.1498ZM136.424 22.5148L137.727 48.3906L143.27 48.1114L141.966 22.2356L136.424 22.5148ZM140.499 51.0256H140.824V45.4764H140.499V51.0256ZM143.519 48.9138L146.517 36.7254L141.128 35.3999L138.13 47.5882L143.519 48.9138ZM146.491 36.8249L150.401 23.1375L145.065 21.613L141.155 35.3004L146.491 36.8249ZM147.733 25.1498H155.49V19.6006H147.733V25.1498ZM152.822 21.613L139.786 67.2378L145.122 68.7622L158.157 23.1375L152.822 21.613ZM142.454 65.2254H134.958V70.7746H142.454V65.2254ZM137.73 67.8604L136.426 41.9846L130.884 42.2638L132.187 68.1396L137.73 67.8604ZM133.655 39.3496H133.329V44.8988H133.655V39.3496ZM130.635 41.4615L127.636 53.6498L133.025 54.9753L136.023 42.787L130.635 41.4615ZM127.663 53.5503L123.752 67.2378L129.088 68.7622L132.999 55.0748L127.663 53.5503ZM126.42 65.2254H118.664V70.7746H126.42V65.2254ZM121.332 68.7622L134.367 23.1375L129.032 21.613L115.996 67.2378L121.332 68.7622ZM168.874 29.9359V27.1613H166.778L166.205 29.1777L168.874 29.9359ZM165.615 41.4073L162.946 40.649L161.942 44.1819H165.615V41.4073ZM174.545 41.4073L177.207 42.1877L178.249 38.6326H174.545V41.4073ZM172.328 48.9679V51.7426H174.407L174.991 49.7484L172.328 48.9679ZM163.399 48.9679V46.1933H161.303L160.73 48.2097L163.399 48.9679ZM160.14 60.4393L157.471 59.6811L156.467 63.2139H160.14V60.4393ZM169.721 60.4393L172.39 61.1985L173.395 57.6647H169.721V60.4393ZM167.57 68V70.7746H169.666L170.239 68.7592L167.57 68ZM149.972 68L147.304 67.2378L146.294 70.7746H149.972V68ZM163.008 22.3752V19.6006H160.915L160.34 21.613L163.008 22.3752ZM180.606 22.3752L183.275 23.1344L184.28 19.6006H180.606V22.3752ZM178.455 29.9359V32.7105H180.551L181.124 30.6951L178.455 29.9359ZM166.205 29.1777L162.946 40.649L168.284 42.1655L171.543 30.6941L166.205 29.1777ZM165.615 44.1819H174.545V38.6326H165.615V44.1819ZM171.882 40.6269L169.666 48.1875L174.991 49.7484L177.207 42.1877L171.882 40.6269ZM172.328 46.1933H163.399V51.7426H172.328V46.1933ZM160.73 48.2097L157.471 59.6811L162.809 61.1976L166.068 49.7262L160.73 48.2097ZM160.14 63.2139H169.721V57.6647H160.14V63.2139ZM167.053 59.6801L164.902 67.2408L170.239 68.7592L172.39 61.1985L167.053 59.6801ZM167.57 65.2254H149.972V70.7746H167.57V65.2254ZM152.64 68.7622L165.676 23.1375L160.34 21.613L147.304 67.2378L152.64 68.7622ZM163.008 25.1498H180.606V19.6006H163.008V25.1498ZM177.937 21.616L175.787 29.1767L181.124 30.6951L183.275 23.1344L177.937 21.616ZM178.455 27.1613H168.874V32.7105H178.455V27.1613ZM192.817 22.3752L195.558 22.807L196.063 19.6006H192.817V22.3752ZM189.819 41.4073L192.545 41.9272L192.553 41.8832L192.56 41.839L189.819 41.4073ZM187.668 52.6831L184.943 52.1632L184.314 55.4577H187.668V52.6831ZM187.929 52.6831V55.4577H189.692L190.441 53.8616L187.929 52.6831ZM199.335 28.3716V25.597H197.572L196.823 27.1931L199.335 28.3716ZM204.419 28.3716L207.186 28.5793L207.41 25.597H204.419V28.3716ZM202.594 52.6831L199.827 52.4754L199.603 55.4577H202.594V52.6831ZM202.855 52.6831V55.4577H204.766L205.447 53.6715L202.855 52.6831ZM207.352 40.8858L204.787 39.829L204.773 39.863L204.759 39.8975L207.352 40.8858ZM214.978 22.3752V19.6006H213.12L212.413 21.3183L214.978 22.3752ZM223.321 22.3752L225.867 23.4774L227.545 19.6006H223.321V22.3752ZM203.572 68V70.7746H205.394L206.118 69.1022L203.572 68ZM195.555 68L192.788 67.7987L192.571 70.7746H195.555V68ZM197.119 46.4912L199.886 46.6924L200.103 43.7166H197.119V46.4912ZM196.858 46.4912V43.7166H195.067L194.33 45.3494L196.858 46.4912ZM187.147 68V70.7746H188.938L189.676 69.1418L187.147 68ZM178.543 68L175.795 67.6192L175.358 70.7746H178.543V68ZM184.866 22.3752V19.6006H182.449L182.117 21.9944L184.866 22.3752ZM190.077 21.9434L187.078 40.9755L192.56 41.839L195.558 22.807L190.077 21.9434ZM187.094 40.8874L184.943 52.1632L190.394 53.203L192.545 41.9272L187.094 40.8874ZM187.668 55.4577H187.929V49.9085H187.668V55.4577ZM190.441 53.8616L201.847 29.5501L196.823 27.1931L185.417 51.5046L190.441 53.8616ZM199.335 31.1462H204.419V25.597H199.335V31.1462ZM201.652 28.1639L199.827 52.4754L205.361 52.8908L207.186 28.5793L201.652 28.1639ZM202.594 55.4577H202.855V49.9085H202.594V55.4577ZM205.447 53.6715L209.945 41.8742L204.759 39.8975L200.262 51.6948L205.447 53.6715ZM209.918 41.9427L217.543 23.4321L212.413 21.3183L204.787 39.829L209.918 41.9427ZM214.978 25.1498H223.321V19.6006H214.978V25.1498ZM220.774 21.273L201.025 66.8978L206.118 69.1022L225.867 23.4774L220.774 21.273ZM203.572 65.2254H195.555V70.7746H203.572V65.2254ZM198.322 68.2013L199.886 46.6924L194.352 46.2899L192.788 67.7987L198.322 68.2013ZM197.119 43.7166H196.858V49.2658H197.119V43.7166ZM194.33 45.3494L184.618 66.8582L189.676 69.1418L199.387 47.633L194.33 45.3494ZM187.147 65.2254H178.543V70.7746H187.147V65.2254ZM181.292 68.3808L187.614 22.7561L182.117 21.9944L175.795 67.6192L181.292 68.3808ZM184.866 25.1498H192.817V19.6006H184.866V25.1498Z" fill="white" mask="url(#path-4-outside-2_562_1916)"/>
</svg>
